<?xml version="1.0" standalone="no"?>
<!DOCTYPE svg PUBLIC "-//W3C//DTD SVG 20010904//EN"
 "http://www.w3.org/TR/2001/REC-SVG-20010904/DTD/svg10.dtd">
<svg version="1.0" xmlns="http://www.w3.org/2000/svg"
 width="300.000000pt" height="300.000000pt" viewBox="0 0 300.000000 300.000000"
 preserveAspectRatio="xMidYMid meet">
<metadata>
Created by potrace 1.10, written by Peter Selinger 2001-2011
</metadata>
<g transform="translate(0.000000,300.000000) scale(0.100000,-0.100000)"
fill="#000000" stroke="none">
<path d="M1470 2990 c-14 -4 -69 -28 -124 -54 l-98 -46 -118 0 c-65 0 -126 -3
-135 -6 -9 -4 -51 -50 -94 -103 -78 -96 -79 -97 -195 -154 -84 -41 -119 -63
-125 -80 -5 -13 -20 -72 -33 -131 -23 -106 -24 -108 -97 -199 -40 -51 -77
-102 -82 -115 -6 -17 -1 -60 19 -145 l28 -122 -28 -115 c-15 -63 -25 -126 -22
-140 3 -13 39 -67 81 -118 l75 -94 27 -119 c17 -71 35 -127 47 -140 10 -12 66
-43 124 -71 98 -46 108 -54 160 -120 30 -39 69 -86 86 -105 l31 -33 131 0 131
0 112 -55 c62 -30 120 -55 129 -55 9 0 67 25 129 55 l112 55 131 0 131 0 31
33 c17 19 56 66 86 105 52 66 62 74 160 120 58 28 113 59 124 71 11 12 30 70
46 140 l28 119 75 94 c42 51 78 105 81 118 3 14 -7 77 -22 140 l-28 115 28
122 c20 85 25 128 19 145 -5 13 -42 64 -82 115 -73 91 -74 93 -98 200 -12 59
-29 119 -36 133 -9 18 -48 42 -125 80 -111 53 -113 55 -190 151 -44 53 -86 99
-95 103 -9 3 -70 6 -134 6 l-118 0 -104 48 c-118 56 -144 63 -179 52z m145
-80 l110 -55 131 -5 c151 -6 140 0 231 -116 53 -69 67 -79 163 -129 58 -29
113 -62 122 -72 9 -10 26 -61 38 -113 26 -117 37 -140 111 -231 33 -40 62 -84
66 -98 4 -14 -2 -64 -12 -111 -28 -128 -29 -158 -6 -254 32 -133 30 -143 -37
-228 -87 -109 -92 -120 -118 -230 -14 -56 -31 -112 -38 -123 -8 -12 -61 -45
-119 -73 -101 -50 -108 -55 -177 -142 -40 -50 -80 -95 -90 -100 -10 -6 -72
-10 -138 -10 l-119 0 -102 -50 c-56 -28 -115 -50 -131 -50 -16 0 -75 23 -131
50 l-102 50 -119 0 c-66 0 -128 4 -138 10 -10 5 -50 50 -90 99 -68 86 -76 93
-173 141 -56 28 -109 59 -118 68 -9 9 -27 60 -39 112 -12 52 -24 103 -26 112
-3 9 -39 61 -80 114 -85 111 -85 111 -52 257 l22 98 -22 107 c-31 151 -31 154
31 231 89 110 96 126 123 238 14 59 31 115 37 124 7 9 62 41 122 72 102 52
114 62 168 130 94 121 83 115 232 119 l130 3 110 56 c61 31 112 56 115 55 3
-1 55 -26 115 -56z"/>
<path d="M1405 2694 c-388 -57 -681 -333 -752 -709 -20 -104 -12 -271 17 -375
96 -339 391 -591 740 -630 362 -41 711 161 869 502 51 109 71 191 78 313 23
407 -255 778 -660 879 -67 17 -235 28 -292 20z m202 -45 c278 -37 520 -216
637 -471 47 -101 65 -176 73 -293 23 -381 -215 -720 -587 -837 -65 -20 -95
-23 -230 -23 -135 0 -165 3 -230 23 -374 118 -612 458 -587 840 8 115 27 191
73 290 94 205 277 369 487 436 134 43 234 53 364 35z"/>
<path d="M1345 2546 c-160 -37 -300 -122 -401 -244 -165 -200 -212 -454 -129
-702 74 -219 251 -388 485 -461 107 -34 293 -34 400 0 144 45 257 119 353 231
64 75 101 140 132 230 130 389 -71 794 -460 926 -98 33 -281 43 -380 20z m293
-41 c46 -9 115 -34 172 -62 172 -84 306 -249 355 -438 20 -79 20 -258 -1 -339
-19 -72 -72 -182 -121 -248 -72 -99 -205 -191 -338 -235 -69 -23 -97 -26 -205
-26 -108 0 -136 3 -205 26 -110 36 -196 89 -279 172 -132 131 -187 260 -194
449 -5 150 8 217 65 335 37 78 59 109 127 176 167 168 392 236 624 190z"/>
<path d="M1571 1995 c-65 -63 -123 -115 -130 -115 -6 0 -42 23 -78 50 -36 28
-74 50 -83 50 -21 0 -116 -101 -138 -146 -14 -30 -14 -35 2 -59 22 -34 221
-193 266 -212 65 -28 96 -10 278 170 90 89 170 175 178 190 14 26 13 31 -6 62
-32 52 -118 125 -147 125 -18 0 -56 -31 -142 -115z m211 19 l64 -66 -174 -171
c-95 -95 -184 -176 -198 -181 -36 -12 -57 0 -194 110 l-120 96 52 67 c28 36
55 70 59 74 4 5 45 -23 90 -62 l84 -70 135 134 c74 74 136 135 136 135 1 0 31
-30 66 -66z"/>
<path d="M505 671 c-164 -330 -169 -346 -115 -393 30 -28 31 -28 179 -28 l148
0 89 -117 c96 -126 115 -139 179 -122 34 10 40 20 190 319 l155 310 -37 19
c-30 15 -65 19 -173 23 -167 4 -177 9 -281 138 -59 72 -89 100 -131 121 l-54
27 -149 -297z m227 206 c14 -12 50 -51 79 -87 103 -130 147 -150 319 -150 167
0 167 23 -2 -310 -78 -156 -151 -289 -160 -294 -23 -14 -43 5 -134 126 -41 53
-84 104 -96 112 -18 13 -51 16 -158 16 -149 0 -180 10 -180 56 0 13 60 143
132 289 144 287 145 288 200 242z"/>
<path d="M2291 941 c-40 -21 -70 -49 -125 -116 -39 -49 -83 -97 -97 -107 -38
-28 -91 -37 -212 -38 -88 0 -115 -4 -147 -20 l-40 -20 155 -310 c150 -299 156
-309 190 -319 64 -17 83 -4 179 122 l89 117 148 0 c148 0 149 0 180 28 53 47
48 65 -117 394 l-149 296 -54 -27z m177 -308 c73 -148 133 -278 132 -290 0
-43 -33 -53 -180 -53 -107 0 -140 -3 -158 -16 -12 -8 -55 -59 -96 -112 -91
-121 -111 -140 -134 -126 -9 5 -81 138 -160 294 -168 333 -168 310 -2 310 172
0 216 20 319 150 29 36 65 75 79 87 55 47 57 45 200 -244z"/>
</g>
</svg>
