<?xml version="1.0" encoding="utf-8"?>
<!-- Generator: Adobe Illustrator 27.5.0, SVG Export Plug-In . SVG Version: 6.00 Build 0)  -->
<svg version="1.1" xmlns="http://www.w3.org/2000/svg" xmlns:xlink="http://www.w3.org/1999/xlink" x="0px" y="0px"
	 viewBox="0 0 3710 3710" style="enable-background:new 0 0 3710 3710;" xml:space="preserve">
<g id="Background">
	<g>
		<g>
			<rect style="fill:#FFFFFF;" width="3710" height="3710"/>
		</g>
	</g>
</g>
<g id="Illustration">
	<g>
		
			<linearGradient id="SVGID_1_" gradientUnits="userSpaceOnUse" x1="-3144.4529" y1="5265.6587" x2="-5180.4058" y2="3068.1223" gradientTransform="matrix(-0.9973 0.0997 -0.0995 -0.995 -2488.7529 5832.4946)">
			<stop  offset="0" style="stop-color:#DAE3FE"/>
			<stop  offset="1" style="stop-color:#E9EFFD"/>
		</linearGradient>
		<path style="fill:url(#SVGID_1_);" d="M530.82,1497.447C744.754,818.911,1453.282,465.795,2035.087,455.736
			c158.857-2.747,478.479-8.272,749.354,200.507c520.197,400.948,540.741,1345.729,140.895,1943.161
			c-51.492,76.937-409.489,593.706-1042.209,650.544c-463.244,41.614-814.146-186.718-856.892-215.26
			c-54-36.057-173.803-122.592-288.458-267.415C468.378,2426.989,397.132,1921.465,530.82,1497.447z"/>
		<g>
			
				<linearGradient id="SVGID_00000078034017389150467530000014494370411541520005_" gradientUnits="userSpaceOnUse" x1="736.5163" y1="1629.9215" x2="3221.6975" y2="1629.9215">
				<stop  offset="0" style="stop-color:#4F52FF"/>
				<stop  offset="1" style="stop-color:#4042E2"/>
			</linearGradient>
			<path style="fill:url(#SVGID_00000078034017389150467530000014494370411541520005_);" d="M3220.652,1684.425
				c-27.887,635.247-606.353,1125.813-1292.039,1095.712c-685.686-30.102-1218.938-569.473-1191.05-1204.719
				c27.887-635.247,606.353-1125.813,1292.039-1095.712S3248.539,1049.179,3220.652,1684.425z"/>
			<ellipse style="opacity:0.1;fill:#FFFFFF;" cx="1911.847" cy="1546.855" rx="975.166" ry="921.221"/>
			<g style="opacity:0.68;">
				<path style="fill:#FFFFFF;" d="M2326.182,1649.683c-0.297,203.005-14.181,406.424-49.824,606.553
					c-9.027,49.992-19.494,99.744-31.974,149.02c-12.514,49.257-26.97,98.086-44.672,145.819
					c-17.849,47.607-38.571,94.526-66.66,137.38c-14.153,21.269-30.204,41.639-49.986,58.377
					c-9.888,8.316-20.741,15.685-32.666,21.08c-11.9,5.361-24.892,8.753-38.079,8.996c-13.172,0.388-26.358-2.204-38.492-7.095
					c-12.179-4.846-23.293-11.882-33.42-19.921c-20.251-16.214-36.656-36.358-51.062-57.458
					c-14.373-21.195-26.648-43.654-37.757-66.594c-11.065-22.973-20.904-46.489-29.872-70.308
					c-17.926-47.65-32.524-96.439-45.152-145.667c-12.603-49.243-23.179-98.972-32.28-148.949
					c-18.166-99.973-30.536-200.909-38.865-302.12c-8.268-101.228-12.383-202.779-12.837-304.342
					c-0.22-50.776,1.072-101.544,2.851-152.282c1.859-50.738,4.611-101.442,8.304-152.08
					c7.427-101.263,18.561-202.302,35.152-302.513c8.325-50.092,18.04-99.974,29.732-149.416
					c11.722-49.422,25.353-98.453,42.268-146.417c8.503-23.961,17.8-47.664,28.405-70.807c10.588-23.139,22.441-45.77,36.368-67.162
					c13.961-21.3,30.008-41.624,49.979-57.885c9.984-8.059,20.98-15.07,33.022-19.821c11.994-4.81,25.003-7.254,37.949-6.767
					c12.955,0.366,25.724,3.615,37.51,8.813c11.801,5.228,22.651,12.335,32.615,20.393c19.928,16.22,36.429,36.059,51.067,56.898
					c14.59,20.927,27.312,43.065,38.801,65.767c11.515,22.7,21.773,46.002,31.244,69.596c18.86,47.233,34.427,95.693,47.981,144.653
					c13.505,48.983,24.935,98.512,34.822,148.331C2309.769,1243.207,2325.641,1446.648,2326.182,1649.683z M2313.444,1649.683
					c0.153-101.212-3.727-202.447-12.169-303.305c-8.348-100.854-20.994-201.41-39.78-300.853
					c-9.387-49.714-20.314-99.146-33.308-148.031c-13.039-48.86-28.084-97.22-46.393-144.333
					c-18.441-46.98-39.818-93.136-68.185-134.849c-14.26-20.71-30.344-40.383-49.655-56.395
					c-9.652-7.957-20.133-14.952-31.483-20.104c-11.336-5.091-23.552-8.416-35.972-8.744c-12.414-0.399-24.817,2.084-36.301,6.8
					c-11.525,4.667-22.1,11.537-31.739,19.466c-19.28,15.992-34.894,36.097-48.464,57.236
					c-13.543,21.229-25.073,43.741-35.359,66.779c-10.301,23.042-19.316,46.666-27.545,70.553
					c-16.368,47.821-29.484,96.742-40.7,146.059c-11.187,49.335-20.404,99.117-28.237,149.109
					c-15.609,100.009-25.777,200.836-32.244,301.853c-6.514,101.03-8.879,202.292-8.708,303.512
					c-0.209,101.207,3.232,202.44,10.813,303.37c7.642,100.911,19.313,201.568,36.753,301.238
					c8.74,49.823,18.943,99.394,31.16,148.456c12.24,49.044,26.437,97.631,43.908,145.003c8.74,23.68,18.335,47.036,29.123,69.81
					c10.828,22.74,22.796,44.963,36.751,65.831c13.975,20.777,29.88,40.495,49.187,56.146c9.648,7.765,20.155,14.49,31.527,19.098
					c11.338,4.621,23.515,7.18,35.713,6.772c12.197-0.306,24.214-3.519,35.356-8.621c11.159-5.139,21.442-12.201,30.876-20.247
					c18.886-16.189,34.452-36.151,48.183-57.106c27.284-42.232,47.525-88.825,64.896-136.152
					c17.238-47.461,31.281-96.088,43.396-145.161c12.081-49.096,22.165-98.689,30.819-148.527
					c17.308-99.692,28.84-200.36,36.497-301.272C2309.896,1852.153,2313.474,1750.911,2313.444,1649.683z"/>
				<path style="fill:#FFFFFF;" d="M2838.276,1649.683c-0.67,130.653-17.43,261.368-52.373,387.368
					c-35.524,125.718-89.066,246.692-161.825,355.314c-36.381,54.252-77.606,105.323-123.677,151.666
					c-46.053,46.323-96.979,87.922-152.29,122.757c-55.365,34.697-115.161,62.474-177.756,81.325
					c-62.559,18.896-127.87,28.76-193.242,28.842c-65.374-0.031-130.699-9.846-193.286-28.697
					c-62.623-18.807-122.461-46.548-177.873-81.215c-55.361-34.804-106.351-76.372-152.468-122.678
					c-46.135-46.326-87.427-97.388-123.881-151.639c-72.885-108.634-126.52-229.652-162.185-355.422
					c-35.213-126.029-51.928-256.883-52.472-387.62c0.324-65.389,4.679-130.75,13.321-195.559
					c8.684-64.798,21.76-129.025,39.366-192.001c35.739-125.726,89.447-246.677,162.373-355.215
					c36.465-54.209,77.764-105.223,123.894-151.497c46.117-46.247,97.075-87.782,152.428-122.492
					c55.397-34.592,115.224-62.158,177.755-80.959c62.492-18.873,127.728-28.725,193.029-28.805
					c65.3,0.126,130.522,10.025,192.987,28.938c62.505,18.845,122.287,46.456,177.635,81.079
					c55.302,34.745,106.2,76.309,152.253,122.573c46.064,46.29,87.294,97.314,123.688,151.523
					c72.801,108.527,126.415,229.43,162.011,355.107C2820.697,1388.333,2837.531,1519.03,2838.276,1649.683z M2823.673,1649.683
					c-0.235-129.394-16.399-258.92-50.585-383.814c-34.408-124.693-86.216-245.039-157.457-353.25
					c-35.603-54.05-76.03-104.99-121.301-151.288c-45.285-46.229-95.309-88.029-149.988-122.788
					c-54.743-34.572-113.86-62.377-175.832-81.197c-61.941-18.84-126.612-28.74-191.398-28.947
					c-64.786,0.255-129.442,10.201-191.357,29.08c-61.946,18.863-121.02,46.715-175.714,81.317
					c-54.628,34.794-104.589,76.623-149.81,122.869c-45.205,46.316-85.563,97.264-121.097,151.314
					c-71.116,108.2-122.831,228.499-157.095,353.14c-17.054,62.395-29.427,126.019-37.798,190.123
					c-8.385,64.112-12.531,128.767-12.689,193.441c0.194,64.674,4.373,129.324,12.791,193.426
					c8.406,64.096,20.823,127.703,37.911,190.077c34.34,124.597,86.125,244.828,157.283,352.933
					c35.545,54.007,75.909,104.908,121.11,151.171c45.221,46.186,95.151,87.982,149.771,122.683
					c54.679,34.526,113.741,62.204,175.595,81.062c61.818,18.901,126.385,28.884,191.099,29.188
					c64.712-0.253,129.296-10.187,191.144-29.044c61.882-18.815,120.983-46.454,175.712-80.95
					c54.669-34.671,104.661-76.436,149.947-122.606c45.266-46.245,85.7-97.138,121.314-151.145
					c71.282-108.116,123.164-228.391,157.645-353.043C2807.124,1908.584,2823.364,1779.077,2823.673,1649.683z"/>
				<path style="fill:#FFFFFF;" d="M970.669,1203.552l259.012-1.767l259.014-1.012l518.025-0.81l518.027,0.892l259.012,1.098
					l259.014,1.914c0.355,0.003,0.643,0.292,0.639,0.649c-0.003,0.353-0.288,0.638-0.639,0.639l-259.014,1.915l-259.012,1.098
					l-518.027,0.892l-518.025-0.81l-259.014-1.011l-259.012-1.768c-0.531-0.003-0.958-0.435-0.953-0.966
					C969.719,1203.979,970.144,1203.555,970.669,1203.552z"/>
				<path style="fill:#FFFFFF;" d="M1271.154,769.726l183.891-1.773l183.893-1.004c61.297-0.429,122.594-0.383,183.891-0.514
					l183.891-0.297l367.784,0.894l183.891,1.096c61.297,0.652,122.594,1.034,183.891,1.915c0.356,0.006,0.641,0.299,0.636,0.654
					c-0.005,0.35-0.287,0.631-0.636,0.636c-61.297,0.883-122.594,1.264-183.891,1.915l-183.891,1.098l-367.784,0.892l-183.891-0.296
					c-61.297-0.133-122.594-0.087-183.891-0.514l-183.893-1.006l-183.891-1.773c-0.529-0.005-0.956-0.439-0.95-0.97
					C1270.209,770.153,1270.633,769.733,1271.154,769.726z"/>
				<path style="fill:#FFFFFF;" d="M880.658,1637.375l281.516-1.767l281.516-1.011l563.031-0.812l563.031,0.892l281.516,1.099
					l281.515,1.913c0.355,0.003,0.644,0.294,0.641,0.649c-0.003,0.353-0.289,0.638-0.641,0.641l-281.515,1.913l-281.516,1.099
					l-563.031,0.892l-563.031-0.81l-281.516-1.012l-281.516-1.767c-0.529-0.003-0.957-0.436-0.953-0.966
					C879.708,1637.804,880.134,1637.38,880.658,1637.375z"/>
				<path style="fill:#FFFFFF;" d="M970.669,2071.201l259.012-1.768l259.014-1.01l518.025-0.81l518.027,0.892l259.012,1.098
					l259.014,1.915c0.355,0.002,0.643,0.292,0.639,0.649c-0.003,0.353-0.288,0.637-0.639,0.639l-259.014,1.915l-259.012,1.098
					l-518.027,0.892l-518.025-0.81l-259.014-1.01l-259.012-1.768c-0.531-0.003-0.958-0.436-0.953-0.966
					C969.719,2071.628,970.144,2071.204,970.669,2071.201z"/>
				<path style="fill:#FFFFFF;" d="M2779.35,2509.352H1308.218c-1.86,0-3.366-1.505-3.366-3.366s1.505-3.366,3.366-3.366H2779.35
					c1.86,0,3.366,1.505,3.366,3.366S2781.211,2509.352,2779.35,2509.352z"/>
			</g>
		</g>
		<g>
			<g>
				<g>
					<path style="fill:#7D97F4;" d="M906.576,1179.38c16.308-45.824,26.44-93.057,24.664-143.128
						c-4.476-126.16-89.497-233.765-154.405-335.914c-59.656-93.884-111.841-237.671,55.403-242.112
						c133.241-3.538,302.539,111.675,334.818,247.105c38.2,160.288-19.192,373.608,90.256,511.284
						c153.113,192.604,242.748,135.244,279.689,483.736c15.785,148.908-57.989,239.789-147.668,295.046
						c-141.545,87.215-322.408,77.208-453.403-25.175c-115.726-90.449-193.613-229.856-188.046-378.693
						C753.509,1441.207,857.736,1316.613,906.576,1179.38z"/>
					<path style="fill:#BDD0FB;" d="M1135.723,2288.499c-0.233,0-0.47-0.016-0.71-0.049c-2.761-0.388-4.684-2.942-4.296-5.703
						c107.123-760.912,17.492-1197.51-76.566-1429.782C952.659,602.331,825.039,530.189,823.761,529.489
						c-2.445-1.338-3.343-4.408-2.002-6.853c1.338-2.449,4.414-3.336,6.853-2.002c5.344,2.925,132.063,74.591,234.897,328.541
						c60.194,148.645,99.386,329.245,116.491,536.776c21.354,259.157,8.138,561.355-39.284,898.202
						C1140.361,2286.675,1138.198,2288.499,1135.723,2288.499z"/>
				</g>
				<path style="fill:#7D97F4;" d="M735.972,778.45c6.206-2.41,13.167-3.695,20.732-3.628c41.838,0.371,63.433,42.162,79.19,74.956
					c13.494,28.083,29.504,62.21,26.714,94.48c-3.016,34.889-36.364,66.623-66.386,34.707
					c-34.126-36.279-85.477-92.09-91.291-144.342C702.04,808.649,714.478,786.798,735.972,778.45z"/>
			</g>
			<g>
				<path style="fill:#91B3FA;" d="M530.228,2082.434c-40.093-153.021-2.495-337.561,8.283-505.016
					c5.698-88.538,3.45-175.565-19.803-261.69c-23.119-85.63-74.031-175.496-45.494-266.276
					c57.504-182.889,246.696-122.488,364.189-1.849c136.343,139.994,195.644,386.086,261.652,573.428
					c39.793,112.939,93.833,227.379,120.86,343.9c44.773,193.028,14.947,333.496-68.891,435.112
					c-80.41,97.465-215.142,130.189-331.397,80.691C714.607,2436.019,594.907,2329.288,530.228,2082.434z"/>
				<path style="fill:#BDD0FB;" d="M1019.607,2759.27c-0.105,0-0.21-0.003-0.315-0.01c-2.784-0.171-4.901-2.564-4.73-5.347
					c0.145-2.393,14.252-242.96-19.343-569.506c-30.985-301.218-110.055-739.289-310.766-1115.65
					c-1.315-2.462-0.381-5.519,2.077-6.83c2.455-1.315,5.515-0.385,6.83,2.077c89,166.887,161.799,359.625,216.37,572.859
					c43.635,170.516,75.787,354.455,95.554,546.709c33.657,327.322,19.504,568.56,19.356,570.959
					C1024.475,2757.209,1022.253,2759.27,1019.607,2759.27z"/>
			</g>
		</g>
		<g>
			<g>
				
					<linearGradient id="SVGID_00000003803440590885399240000014144069716660146874_" gradientUnits="userSpaceOnUse" x1="2981.8645" y1="1554.5471" x2="996.9229" y2="3065.8955">
					<stop  offset="0" style="stop-color:#09005D"/>
					<stop  offset="1" style="stop-color:#1A0F91"/>
				</linearGradient>
				<path style="fill:url(#SVGID_00000003803440590885399240000014144069716660146874_);" d="M843.913,1552.061l2243.593-37.914
					c90.328-1.526,162.829,75.947,157.461,168.26l-77.226,1328.049c-4.226,72.683-62.687,129.618-133.814,130.322l-2156.635,21.328
					c-53.269,0.527-97.28-42.424-99.309-96.915l-51.599-1386.067C723.83,1610.53,776.864,1553.194,843.913,1552.061z"/>
				
					<linearGradient id="SVGID_00000082340906189951550530000003426467350516221626_" gradientUnits="userSpaceOnUse" x1="2227.0674" y1="1400.2112" x2="1598.0186" y2="3543.8196">
					<stop  offset="0" style="stop-color:#FF928E"/>
					<stop  offset="1" style="stop-color:#FE7062"/>
				</linearGradient>
				<path style="fill:url(#SVGID_00000082340906189951550530000003426467350516221626_);" d="M878.304,1585.894l2185.036-36.072
					c87.971-1.453,158.58,72.256,153.352,160.083l-75.21,1263.51c-4.116,69.151-61.052,123.32-130.322,123.989l-2100.348,20.292
					c-51.879,0.501-94.741-40.362-96.717-92.205l-50.252-1318.709C761.356,1641.521,813.006,1586.972,878.304,1585.894z"/>
			</g>
			<g>
				<g>
					
						<linearGradient id="SVGID_00000014611739158859358330000010612487720817560494_" gradientUnits="userSpaceOnUse" x1="440.2685" y1="2321.6387" x2="-574.1615" y2="4449.9551" gradientTransform="matrix(0.4328 0.9015 -0.9015 0.4328 4818.3687 929.2535)">
						<stop  offset="0" style="stop-color:#FEBBBA"/>
						<stop  offset="1" style="stop-color:#FF928E"/>
					</linearGradient>
					
						<circle style="fill:url(#SVGID_00000014611739158859358330000010612487720817560494_);" cx="2006.901" cy="2333.516" r="699.596"/>
					
						<linearGradient id="SVGID_00000072276307049104560340000004873836112161458307_" gradientUnits="userSpaceOnUse" x1="2315.9832" y1="1775.5234" x2="2278.9609" y2="2239.9863">
						<stop  offset="0" style="stop-color:#FEBBBA"/>
						<stop  offset="1" style="stop-color:#FF928E"/>
					</linearGradient>
					<path style="fill:url(#SVGID_00000072276307049104560340000004873836112161458307_);" d="M2448.06,2876.483
						c239.555-194.637,316.806-514.967,213.987-788.836c-293.17,113.854-678.379,264.745-678.379,264.745l-202.154,643.467
						C2001.714,3070.557,2254.268,3033.938,2448.06,2876.483z"/>
				</g>
				<g style="opacity:0.68;">
					
						<rect x="1998.639" y="1651.892" transform="matrix(0.866 -0.5 0.5 0.866 -901.1979 1314.6476)" style="fill:#FFFFFF;" width="7.754" height="1374.109"/>
					
						<rect x="1998.639" y="1651.893" transform="matrix(0.5 -0.866 0.866 0.5 -1024.3419 2903.6379)" style="fill:#FFFFFF;" width="7.754" height="1374.109"/>
					<rect x="1315.461" y="2335.07" style="fill:#FFFFFF;" width="1374.109" height="7.754"/>
					
						<rect x="1315.461" y="2335.07" transform="matrix(0.866 -0.5 0.5 0.866 -901.2094 1314.6799)" style="fill:#FFFFFF;" width="1374.109" height="7.754"/>
					<rect x="1315.461" y="2335.07" style="fill:#FFFFFF;" width="1374.109" height="7.754"/>
					
						<rect x="1315.461" y="2335.07" transform="matrix(0.866 -0.5 0.5 0.866 -901.2094 1314.6799)" style="fill:#FFFFFF;" width="1374.109" height="7.754"/>
					
						<rect x="1315.461" y="2335.07" transform="matrix(0.5 -0.866 0.866 0.5 -1024.3356 2903.6716)" style="fill:#FFFFFF;" width="1374.109" height="7.754"/>
					<rect x="1998.639" y="1651.892" style="fill:#FFFFFF;" width="7.754" height="1374.109"/>
					<path style="fill:#FFFFFF;" d="M2007.49,2919.1c-20.335,0-40.776-1.052-61.282-3.172
						c-155.4-16.079-295.236-91.708-393.755-212.958c-203.367-250.302-165.184-619.393,85.115-822.767
						c250.312-203.37,619.396-165.178,822.767,85.118c203.367,250.303,165.185,619.393-85.118,822.763l-2.123-2.613l2.123,2.613
						C2269.963,2873.601,2141.262,2919.1,2007.49,2919.1z M2005.849,1756.236c-128.149,0-257.057,42.275-364.035,129.194
						c-247.423,201.03-285.165,565.874-84.135,813.294c97.381,119.856,235.611,194.618,389.219,210.509
						c153.638,15.882,304.219-28.986,424.072-126.374c119.856-97.381,194.618-235.611,210.509-389.219
						c15.892-153.612-28.99-304.216-126.371-424.072C2340.997,1829.124,2174.087,1756.236,2005.849,1756.236z"/>
					<path style="fill:#FFFFFF;" d="M2006.819,2789.614c-132.606,0-264.13-57.433-354.073-168.133
						c-158.433-195.002-128.685-482.544,66.311-640.981c94.469-76.753,213.195-112.116,334.224-99.596
						c121.066,12.526,230.007,71.445,306.757,165.907c76.75,94.462,112.119,213.158,99.596,334.221
						c-12.526,121.066-71.445,230.01-165.907,306.76C2209.427,2756.285,2107.802,2789.614,2006.819,2789.614z M2005.55,1885.167
						c-102.683,0-201.454,34.916-282.247,100.559c-192.116,156.096-221.425,439.388-65.332,631.508
						c156.1,192.12,439.388,221.431,631.508,65.332l2.123,2.613l-2.123-2.613c93.069-75.616,151.117-182.949,163.459-302.224
						c12.339-119.278-22.511-236.219-98.127-329.284c-75.613-93.069-182.946-151.117-302.221-163.459
						C2036.857,1885.972,2021.153,1885.167,2005.55,1885.167z"/>
					<path style="fill:#FFFFFF;" d="M2007.006,2660.617c-11.353,0-22.758-0.588-34.202-1.771
						c-86.732-8.973-164.777-51.182-219.762-118.854c-113.503-139.698-92.191-345.695,47.504-459.198
						c139.702-113.506,345.692-92.191,459.198,47.507c54.981,67.672,80.323,152.705,71.35,239.437
						c-8.973,86.729-51.185,164.773-118.857,219.758C2153.496,2635.223,2081.666,2660.617,2007.006,2660.617z M2006.093,2014.578
						c-70.863,0-142.144,23.379-201.3,71.442c-136.819,111.163-157.687,312.909-46.524,449.726
						c53.847,66.278,130.285,107.616,215.226,116.405c84.941,8.802,168.221-16.03,234.496-69.88
						c66.278-53.847,107.62-130.285,116.405-215.226c8.789-84.944-16.026-168.221-69.877-234.496
						C2191.422,2054.887,2099.122,2014.578,2006.093,2014.578z"/>
					<path style="fill:#FFFFFF;" d="M2006.579,2531.268c-57.391,0-114.315-24.858-153.244-72.766
						c-33.216-40.884-48.523-92.254-43.103-144.648c5.42-52.398,30.922-99.547,71.803-132.763
						c40.881-33.213,92.26-48.539,144.649-43.103c52.398,5.42,99.547,30.919,132.763,71.8
						c68.569,84.398,55.695,208.846-28.697,277.415C2094.264,2516.846,2050.284,2531.268,2006.579,2531.268z M2006.218,2143.749
						c-42.219,0-84.691,13.929-119.935,42.567c-39.487,32.082-64.119,77.621-69.354,128.228
						c-5.236,50.61,9.551,100.228,41.634,139.712c66.232,81.516,186.43,93.953,267.943,27.721
						c81.512-66.229,93.946-186.427,27.717-267.943C2116.631,2167.762,2061.643,2143.749,2006.218,2143.749z"/>
				</g>
				
					<linearGradient id="SVGID_00000112593570971126388020000015880321615242672260_" gradientUnits="userSpaceOnUse" x1="2243.094" y1="2678.2991" x2="2429.3276" y2="2370.9009">
					<stop  offset="0" style="stop-color:#E1473D"/>
					<stop  offset="1" style="stop-color:#E9605A"/>
				</linearGradient>
				
					<circle style="fill:url(#SVGID_00000112593570971126388020000015880321615242672260_);" cx="2227.919" cy="2703.346" r="46.123"/>
				
					<ellipse transform="matrix(0.7071 -0.7071 0.7071 0.7071 -674.5206 1944.4091)" style="fill:#FFFFFF;" cx="2009.849" cy="1786.423" rx="46.124" ry="46.123"/>
			</g>
			<g>
				<g>
					
						<linearGradient id="SVGID_00000124161576717855550260000006622481866620256937_" gradientUnits="userSpaceOnUse" x1="-3650.6309" y1="8378.2998" x2="-3520.4912" y2="8158.4087" gradientTransform="matrix(-1 0.0066 0.0066 1 1648.8567 -39.8452)">
						<stop  offset="0" style="stop-color:#E1473D"/>
						<stop  offset="1" style="stop-color:#E9605A"/>
					</linearGradient>
					<path style="fill:url(#SVGID_00000124161576717855550260000006622481866620256937_);" d="M1352.344,1684.588
						c0.07,10.663,8.771,19.251,19.435,19.18c10.663-0.07,19.251-8.771,19.18-19.435c-0.07-10.663-8.772-19.251-19.435-19.18
						C1360.861,1665.223,1352.273,1673.925,1352.344,1684.588z"/>
				</g>
				<g>
					
						<linearGradient id="SVGID_00000089538108498651408540000014057650441784111493_" gradientUnits="userSpaceOnUse" x1="-8336.4961" y1="9432.6221" x2="-8177.1875" y2="9292.3857" gradientTransform="matrix(-1 0.0066 0.0066 1 1648.8567 -39.8452)">
						<stop  offset="0" style="stop-color:#E1473D"/>
						<stop  offset="1" style="stop-color:#E9605A"/>
					</linearGradient>
					<path style="fill:url(#SVGID_00000089538108498651408540000014057650441784111493_);" d="M1352.344,1801.635
						c0.07,10.663,8.771,19.251,19.435,19.181c10.663-0.071,19.251-8.772,19.18-19.435c-0.07-10.664-8.772-19.251-19.435-19.181
						C1360.861,1782.271,1352.273,1790.972,1352.344,1801.635z"/>
				</g>
				<g>
					
						<linearGradient id="SVGID_00000011018969192219120940000016930104680445977474_" gradientUnits="userSpaceOnUse" x1="-10130.4639" y1="9109.6016" x2="-9998.0811" y2="9018.7275" gradientTransform="matrix(-1 0.0066 0.0066 1 1648.8567 -39.8452)">
						<stop  offset="0" style="stop-color:#E1473D"/>
						<stop  offset="1" style="stop-color:#E9605A"/>
					</linearGradient>
					<path style="fill:url(#SVGID_00000011018969192219120940000016930104680445977474_);" d="M1352.344,1918.683
						c0.07,10.663,8.771,19.25,19.435,19.18c10.663-0.071,19.251-8.772,19.18-19.435c-0.07-10.663-8.772-19.251-19.435-19.18
						C1360.861,1899.318,1352.273,1908.02,1352.344,1918.683z"/>
				</g>
				<path style="opacity:0.62;fill:#FFFFFF;" d="M1322.641,1683.583l-0.079,3.289c-0.213,8.902-5.13,15.966-11.138,16l-457.29,0.784
					c-6.204,0.036-11.243-7.418-11.233-16.616l0,0c0.01-9.02,4.88-16.374,10.963-16.557l457.369-4.072
					C1317.656,1666.218,1322.868,1674.065,1322.641,1683.583z"/>
				<path style="opacity:0.62;fill:#FFFFFF;" d="M1322.641,1800.059l-0.079,3.288c-0.213,8.902-5.13,15.966-11.138,16l-457.29,0.784
					c-6.204,0.036-11.243-7.419-11.233-16.616l0,0c0.01-9.02,4.88-16.375,10.963-16.556l457.369-4.072
					C1317.656,1782.694,1322.868,1790.542,1322.641,1800.059z"/>
				<path style="opacity:0.62;fill:#FFFFFF;" d="M1322.641,1916.536l-0.079,3.289c-0.213,8.902-5.13,15.966-11.138,16l-457.29,0.784
					c-6.204,0.036-11.243-7.419-11.233-16.616l0,0c0.01-9.02,4.88-16.374,10.963-16.557l457.369-4.072
					C1317.656,1899.171,1322.868,1907.018,1322.641,1916.536z"/>
			</g>
			<g>
				<g>
					
						<linearGradient id="SVGID_00000157290803610027772050000012966738837369310338_" gradientUnits="userSpaceOnUse" x1="2799.707" y1="1403.3053" x2="2770.5378" y2="1515.4944" gradientTransform="matrix(1 0.0066 -0.0066 1 -87.0576 -39.8452)">
						<stop  offset="0" style="stop-color:#E1473D"/>
						<stop  offset="1" style="stop-color:#E9605A"/>
					</linearGradient>
					<path style="fill:url(#SVGID_00000157290803610027772050000012966738837369310338_);" d="M2648.312,1660.594
						c-0.07,10.663-8.771,19.251-19.435,19.18c-10.664-0.07-19.251-8.771-19.181-19.435c0.071-10.663,8.772-19.251,19.435-19.18
						C2639.795,1641.23,2648.382,1649.931,2648.312,1660.594z"/>
				</g>
				<g>
					
						<linearGradient id="SVGID_00000121237056502539681960000013966374239709903002_" gradientUnits="userSpaceOnUse" x1="2828.9348" y1="1410.9041" x2="2799.7656" y2="1523.0933" gradientTransform="matrix(1 0.0066 -0.0066 1 -87.0576 -39.8452)">
						<stop  offset="0" style="stop-color:#E1473D"/>
						<stop  offset="1" style="stop-color:#E9605A"/>
					</linearGradient>
					<path style="fill:url(#SVGID_00000121237056502539681960000013966374239709903002_);" d="M2648.312,1777.642
						c-0.07,10.663-8.771,19.251-19.435,19.18c-10.664-0.07-19.251-8.772-19.181-19.435c0.071-10.664,8.772-19.251,19.435-19.181
						C2639.795,1758.277,2648.382,1766.978,2648.312,1777.642z"/>
				</g>
				<g>
					
						<linearGradient id="SVGID_00000075867485135151919160000008952207732906617005_" gradientUnits="userSpaceOnUse" x1="2858.1626" y1="1418.5031" x2="2828.9934" y2="1530.6924" gradientTransform="matrix(1 0.0066 -0.0066 1 -87.0576 -39.8452)">
						<stop  offset="0" style="stop-color:#E1473D"/>
						<stop  offset="1" style="stop-color:#E9605A"/>
					</linearGradient>
					<path style="fill:url(#SVGID_00000075867485135151919160000008952207732906617005_);" d="M2648.312,1894.69
						c-0.07,10.663-8.771,19.25-19.435,19.18c-10.664-0.07-19.251-8.772-19.181-19.435c0.071-10.663,8.772-19.251,19.435-19.18
						C2639.795,1875.325,2648.382,1884.026,2648.312,1894.69z"/>
				</g>
				<path style="opacity:0.62;fill:#FFFFFF;" d="M2678.013,1659.59l0.077,3.289c0.209,8.902,5.046,15.966,10.955,16l449.767,0.784
					c6.102,0.036,11.058-7.418,11.048-16.616l0,0c-0.01-9.02-4.8-16.374-10.783-16.557l-449.844-4.072
					C2682.917,1642.225,2677.79,1650.072,2678.013,1659.59z"/>
				<path style="opacity:0.62;fill:#FFFFFF;" d="M2678.013,1776.066l0.077,3.289c0.209,8.902,5.046,15.966,10.955,16l449.767,0.784
					c6.102,0.036,11.058-7.419,11.048-16.616l0,0c-0.01-9.02-4.8-16.374-10.783-16.556l-449.844-4.072
					C2682.917,1758.701,2677.79,1766.548,2678.013,1776.066z"/>
				<path style="opacity:0.62;fill:#FFFFFF;" d="M2678.013,1892.543l0.077,3.288c0.209,8.902,5.046,15.966,10.955,16l449.767,0.784
					c6.102,0.036,11.058-7.418,11.048-16.616l0,0c-0.01-9.02-4.8-16.374-10.783-16.557l-449.844-4.072
					C2682.917,1875.178,2677.79,1883.025,2678.013,1892.543z"/>
			</g>
		</g>
		<g>
			
				<linearGradient id="SVGID_00000124134149786826934090000003391060207176633017_" gradientUnits="userSpaceOnUse" x1="-956.856" y1="3311.5388" x2="-951.5322" y2="3175.78" gradientTransform="matrix(-1 0 0 1 1453.9468 0)">
				<stop  offset="0" style="stop-color:#09005D"/>
				<stop  offset="1" style="stop-color:#1A0F91"/>
			</linearGradient>
			<path style="fill:url(#SVGID_00000124134149786826934090000003391060207176633017_);" d="M2488.062,3164.039
				c0,0,5.176,29.306,7.714,58.316c0.991,11.338-7.749,21.182-19.121,21.656c-38.632,1.609-121.269,4.738-150.922,3.415
				c-4.458-0.199-7.372-4.763-5.722-8.909l0,0c1.382-3.473,4.048-6.283,7.446-7.844l136.501-62.737L2488.062,3164.039z"/>
			
				<linearGradient id="SVGID_00000100365013331239412310000003581458123516756356_" gradientUnits="userSpaceOnUse" x1="2387.0405" y1="3118.1667" x2="2681.4456" y2="3279.9922">
				<stop  offset="0" style="stop-color:#A22B25"/>
				<stop  offset="1" style="stop-color:#C0423C"/>
			</linearGradient>
			<path style="fill:url(#SVGID_00000100365013331239412310000003581458123516756356_);" d="M2492.302,3146.82l-4.158,35.054
				c0,0-23.912,11.131-40.241-1.403l9.902-39.064L2492.302,3146.82z"/>
			
				<linearGradient id="SVGID_00000178885630108815859250000008585698072643163292_" gradientUnits="userSpaceOnUse" x1="-1049.8538" y1="2415.7107" x2="-1020.6848" y2="1805.4014" gradientTransform="matrix(-1 0 0 1 1453.9468 0)">
				<stop  offset="0" style="stop-color:#4F52FF"/>
				<stop  offset="1" style="stop-color:#4042E2"/>
			</linearGradient>
			<path style="fill:url(#SVGID_00000178885630108815859250000008585698072643163292_);" d="M2489.177,2487.791
				c1.796,9.155,9.643,456.815-38.208,657.427c-0.781,3.274,0.878,6.647,3.994,7.92c7.339,2.999,21.728,7.341,38.971,7.92
				c5.34,0.18,10.128-3.292,11.634-8.418c13.678-46.545,79.222-279.749,87.772-502.521c9.553-248.927,0-8.476,0-8.476
				l-5.603-153.871L2489.177,2487.791z"/>
			
				<linearGradient id="SVGID_00000048482991856834803530000002696594398996473526_" gradientUnits="userSpaceOnUse" x1="-1174.5647" y1="3303.0015" x2="-1169.2408" y2="3167.2422" gradientTransform="matrix(-1 0 0 1 1453.9468 0)">
				<stop  offset="0" style="stop-color:#09005D"/>
				<stop  offset="1" style="stop-color:#1A0F91"/>
			</linearGradient>
			<path style="fill:url(#SVGID_00000048482991856834803530000002696594398996473526_);" d="M2645.083,3179.328
				c0,0,8.24,14.795,16.219,54.108c1.441,7.1-3.52,13.895-10.73,14.604c-12.756,1.253-32.395,2.867-48.125,2.759
				c-7.252-0.05-12.911-6.365-12.037-13.563c1.742-14.35,7.17-37.892,23.94-56.242L2645.083,3179.328z"/>
			
				<linearGradient id="SVGID_00000162334311717902872960000000338820851705386624_" gradientUnits="userSpaceOnUse" x1="2726.0737" y1="3195.8486" x2="2975.6355" y2="3287.4846">
				<stop  offset="0" style="stop-color:#A22B25"/>
				<stop  offset="1" style="stop-color:#C0423C"/>
			</linearGradient>
			<path style="fill:url(#SVGID_00000162334311717902872960000000338820851705386624_);" d="M2652.32,3134.24l-9.718,53.012
				c0,0-9.609,7.146-28.618,1.965l4.639-57.037L2652.32,3134.24z"/>
			
				<linearGradient id="SVGID_00000128482568932204061300000005859249588287559353_" gradientUnits="userSpaceOnUse" x1="-1127.7095" y1="2411.9907" x2="-1098.5404" y2="1801.6815" gradientTransform="matrix(-1 0 0 1 1453.9468 0)">
				<stop  offset="0" style="stop-color:#4F52FF"/>
				<stop  offset="1" style="stop-color:#4042E2"/>
			</linearGradient>
			<path style="fill:url(#SVGID_00000128482568932204061300000005859249588287559353_);" d="M2678.574,2501.528
				c39.136,236.19-8.489,583.762-24.552,651.791c-0.983,4.165-4.344,7.355-8.566,8.055c-7.17,1.188-18.974,2.159-30.61-1.222
				c-4.01-1.165-6.827-4.781-6.991-8.953c-2.154-54.999,1.724-392.639-34.742-526.075c-1.848-6.763-5.978-12.66-11.691-16.723
				l-70.778-50.317l-5.426-81.333L2678.574,2501.528z"/>
			<g>
				
					<linearGradient id="SVGID_00000101808842827205556130000012569471340193270450_" gradientUnits="userSpaceOnUse" x1="7706.8853" y1="10424.8252" x2="7121.2559" y2="9879.584" gradientTransform="matrix(-1 0 0 1 1453.9468 0)">
					<stop  offset="0" style="stop-color:#4F52FF"/>
					<stop  offset="1" style="stop-color:#4042E2"/>
				</linearGradient>
				<path style="fill:url(#SVGID_00000101808842827205556130000012569471340193270450_);" d="M2429.197,2053.995
					c117.284-1.938,246.693,30.795,246.693,30.795c34.96,203.99,6.114,439.277,6.114,439.277
					c-90.799,23.812-193.225-14.558-193.225-14.558c-15.091-85.263-85.502-325.22-85.502-325.22
					c-57.305-7.113-104.51-23.645-143.386-45.504c29.653-34.372,43.632-78.109,49.704-103.963
					C2351.062,2047.71,2393.023,2054.593,2429.197,2053.995z"/>
				
					<linearGradient id="SVGID_00000101807161531553751970000010126107725258794400_" gradientUnits="userSpaceOnUse" x1="7991.9951" y1="10118.5752" x2="7406.3677" y2="9573.335" gradientTransform="matrix(-1 0 0 1 1453.9468 0)">
					<stop  offset="0" style="stop-color:#4F52FF"/>
					<stop  offset="1" style="stop-color:#4042E2"/>
				</linearGradient>
				<path style="fill:url(#SVGID_00000101807161531553751970000010126107725258794400_);" d="M2082.762,1881.242
					c11.522-13.915,26.103-7.333,26.103-7.333c17.26,72.905,107.757,132.018,200.731,160.912
					c-6.072,25.854-20.052,69.591-49.704,103.963C2105.594,2052.03,2082.762,1881.242,2082.762,1881.242z"/>
			</g>
			<g>
				
					<linearGradient id="SVGID_00000166671263155000585840000000276068109867452093_" gradientUnits="userSpaceOnUse" x1="11127.124" y1="1967.547" x2="11279.335" y2="2313.8594" gradientTransform="matrix(1 0 0 1 -8993.8311 0)">
					<stop  offset="0" style="stop-color:#A22B25"/>
					<stop  offset="1" style="stop-color:#C0423C"/>
				</linearGradient>
				<path style="fill:url(#SVGID_00000166671263155000585840000000276068109867452093_);" d="M2085.559,1884.781
					c-1.206,3.833,12.755,9.668,20.974-6.006c0.287-7.513,4.856-39.696,0.367-45.816c-23.907-32.594-70.259-73.452-70.259-73.452
					c-7.834,7.729-1.381,15.323-1.381,15.323l22.486,23.424c-4.702,8.499-10.439,15.673-13.128,25.953
					c-2.036,7.785-0.791,16.105,3.141,23.191c3.948,7.11,9.333,16.354,14.423,23.588
					C2071.818,1884.678,2085.559,1884.781,2085.559,1884.781z"/>
				
					<linearGradient id="SVGID_00000008106635024313158160000016745609737075651223_" gradientUnits="userSpaceOnUse" x1="-669.4708" y1="1913.0463" x2="-605.9594" y2="1815.3973" gradientTransform="matrix(-1 0 0 1 1453.9468 0)">
					<stop  offset="0" style="stop-color:#A22B25"/>
					<stop  offset="1" style="stop-color:#C0423C"/>
				</linearGradient>
				<path style="fill:url(#SVGID_00000008106635024313158160000016745609737075651223_);" d="M2067.582,1813.452l20.49,17.371
					l6.433,17.295l-18.269,20.268c0,0-6.142-34.316-10.708-41.743C2060.963,1819.216,2063.331,1815.625,2067.582,1813.452z"/>
			</g>
			
				<linearGradient id="SVGID_00000119817802745604961600000008081029071400498581_" gradientUnits="userSpaceOnUse" x1="2606.6802" y1="2319.9194" x2="2774.9644" y2="2129.1975">
				<stop  offset="0" style="stop-color:#4F52FF"/>
				<stop  offset="1" style="stop-color:#4042E2"/>
			</linearGradient>
			<path style="fill:url(#SVGID_00000119817802745604961600000008081029071400498581_);" d="M2677.714,2219.512l-1.824-134.722
				c0,0,109.549,74.434,127.565,168.809c-20.699,1.524-58.366,6.908-95.233,25.525c-3.798-20.888-10.674-30.553-16.909-34.926
				C2683.142,2238.466,2677.85,2229.493,2677.714,2219.512z"/>
			
				<linearGradient id="SVGID_00000120554600756590070090000003562294057359200670_" gradientUnits="userSpaceOnUse" x1="2641.1626" y1="2350.3452" x2="2809.447" y2="2159.623">
				<stop  offset="0" style="stop-color:#4F52FF"/>
				<stop  offset="1" style="stop-color:#4042E2"/>
			</linearGradient>
			<path style="fill:url(#SVGID_00000120554600756590070090000003562294057359200670_);" d="M2535.171,2305.216
				c0,0,122.997,69.512,164.498,10.157c8.617-12.325,10.677-24.574,8.554-36.25c36.867-18.616,74.534-24,95.233-25.525
				c5.432,28.451,2.561,58.71-14.157,89.293c-72.696,132.981-270.404-7.349-270.404-7.349L2535.171,2305.216z"/>
			<g>
				
					<linearGradient id="SVGID_00000039103038358661105500000015940308799445457792_" gradientUnits="userSpaceOnUse" x1="2500.2646" y1="2105.002" x2="2237.0676" y2="2526.1172">
					<stop  offset="0" style="stop-color:#09005D"/>
					<stop  offset="1" style="stop-color:#1A0F91"/>
				</linearGradient>
				<path style="fill:url(#SVGID_00000039103038358661105500000015940308799445457792_);" d="M2549.95,2393.156l-67.127-234.423
					c-0.762-2.661-3.032-4.601-5.781-4.923c-12.162-1.418-47.404-5.403-88.094-8.844c-49.012-4.146-105.93-7.505-139.942-4.647
					c-4.835,0.406-7.758,5.52-5.607,9.87c19.342,39.13,98.9,198.302,138.74,250.445c1.32,1.727,3.362,2.737,5.535,2.717
					l155.746-1.45C2547.951,2401.86,2551.197,2397.513,2549.95,2393.156z"/>
				<path style="fill:#91B3FA;" d="M2381.985,2124.644l-48.669-8.11c-2.592-0.431-4.715,2.045-3.891,4.541l4.818,14.598
					c0.419,1.271,1.528,2.19,2.854,2.368l46.834,6.255c2.423,0.323,4.42-1.878,3.863-4.258l-2.982-12.745
					C2384.49,2125.92,2383.376,2124.875,2381.985,2124.644z"/>
				<path style="fill:#7D97F4;" d="M2418.427,2165.845l-4.009-20.884c-0.402-2.094-2.132-3.677-4.253-3.893l-98.299-9.975
					c-3.308-0.335-5.958,2.696-5.181,5.93l6.25,26.024c0.5,2.082,2.312,3.586,4.451,3.693l96.058,4.836
					C2416.57,2171.733,2419.017,2168.919,2418.427,2165.845z"/>
				
					<linearGradient id="SVGID_00000074420787962026994070000011785399837485737919_" gradientUnits="userSpaceOnUse" x1="-1086.2605" y1="2296.7744" x2="-996.8294" y2="2296.7744" gradientTransform="matrix(-1 0 0 1 1453.9468 0)">
					<stop  offset="0" style="stop-color:#A22B25"/>
					<stop  offset="1" style="stop-color:#C0423C"/>
				</linearGradient>
				<path style="fill:url(#SVGID_00000074420787962026994070000011785399837485737919_);" d="M2533.732,2336.519
					c0,0,9.351-38.45,5.579-52.091c-3.772-13.642-11.08-31.181-35.44-27.283c-24.36,3.897-53.095,14.159-53.095,14.159
					s1.451,17.768,19.965,12.036l-11.48,8.883c0,0,1.64,14.228,17.279,6.627l-10.678,11.781c0,0,6.717,11.684,18.221,4.19
					C2495.588,2307.326,2501.103,2341.149,2533.732,2336.519z"/>
			</g>
			
				<linearGradient id="SVGID_00000078748623204908748190000009581366945261030321_" gradientUnits="userSpaceOnUse" x1="2500.8303" y1="1934.8882" x2="2458.1985" y2="1777.823">
				<stop  offset="0" style="stop-color:#A22B25"/>
				<stop  offset="1" style="stop-color:#C0423C"/>
			</linearGradient>
			<path style="fill:url(#SVGID_00000078748623204908748190000009581366945261030321_);" d="M2547.996,1958.779l37.318,107.921
				c0.617,1.788-0.117,3.768-1.772,4.683c-10.173,5.624-46.823,21.881-90.988-6.12c-4.601-2.917-7.732-7.675-8.432-13.078
				l-12.084-93.406H2547.996z"/>
			<g>
				
					<linearGradient id="SVGID_00000001652079253450629820000013607820160829953922_" gradientUnits="userSpaceOnUse" x1="-6395.8599" y1="-2021.5077" x2="-6438.271" y2="-2161.3904" gradientTransform="matrix(-0.746 -0.6659 -0.6659 0.746 -3672.3887 -803.1727)">
					<stop  offset="0" style="stop-color:#A22B25"/>
					<stop  offset="1" style="stop-color:#C0423C"/>
				</linearGradient>
				<path style="fill:url(#SVGID_00000001652079253450629820000013607820160829953922_);" d="M2466.798,1858.841
					c0,0-40.979,77.138-35.726,108.298c5.252,31.16,56.039,28.923,100.388,3.616l30.991-83.292L2466.798,1858.841z"/>
				
					<linearGradient id="SVGID_00000145774495938766564710000009341343286864776320_" gradientUnits="userSpaceOnUse" x1="-6438.0313" y1="-2264.5471" x2="-6402.5542" y2="-2062.1982" gradientTransform="matrix(-0.746 -0.6659 -0.6659 0.746 -3672.3887 -803.1727)">
					<stop  offset="0" style="stop-color:#09005D"/>
					<stop  offset="1" style="stop-color:#1A0F91"/>
				</linearGradient>
				<path style="fill:url(#SVGID_00000145774495938766564710000009341343286864776320_);" d="M2529.5,1929.851
					c-1.802-0.799-2.468-3.004-1.388-4.653c3.283-5.015,9.438-15.248,11.401-24.206c0,0,7.367-4.718-18.75-10.969
					c-26.116-6.251-65.063-15.955-73.249-38.184c-7.981-21.673,34.827-49.807,68.283-6.377c1.273,1.652-18.07-24.684-16.8-26.338
					c5.485-7.139,19.904-21.955,39.923-12.973c18.735,8.406,20.846,22.134,20.588,29.053c-0.076,2.035,1.744,3.618,3.745,3.236
					c9.472-1.806,32.202-3.357,42.811,19.959c8.739,19.206,3.059,30.078-2.114,35.396c-1.676,1.722-0.942,4.559,1.356,5.262
					c6.226,1.906,4.132-1.133,3.327,13.452c-1.112,20.162-13.523,26.703-19.942,25.784c-1.051-0.151-2.11,0.21-2.823,0.998
					c-5.503,6.089-30.298,31.948-57.134,35.066c-2.323,0.269-4.124-2.025-3.363-4.237l11.613-33.76
					c0.54-1.568-0.21-3.287-1.727-3.959L2529.5,1929.851z"/>
				
					<linearGradient id="SVGID_00000055698347061123578010000009375775010714168734_" gradientUnits="userSpaceOnUse" x1="-6439.2144" y1="-2022.1584" x2="-6477.3726" y2="-2148.0139" gradientTransform="matrix(-0.746 -0.6659 -0.6659 0.746 -3672.3887 -803.1727)">
					<stop  offset="0" style="stop-color:#A22B25"/>
					<stop  offset="1" style="stop-color:#C0423C"/>
				</linearGradient>
				<path style="fill:url(#SVGID_00000055698347061123578010000009375775010714168734_);" d="M2524.832,1934.642
					c0,0,29.177-20.018,31.309-3.16c2.132,16.858-26.274,24.418-40.344,18.134L2524.832,1934.642z"/>
			</g>
			
				<linearGradient id="SVGID_00000171711441040005163760000007635884883759839904_" gradientUnits="userSpaceOnUse" x1="3739.9126" y1="2488.6128" x2="3674.8596" y2="829.7299" gradientTransform="matrix(1 0 0 1 -1183.4084 0)">
				<stop  offset="0" style="stop-color:#4F52FF"/>
				<stop  offset="1" style="stop-color:#4042E2"/>
			</linearGradient>
			<path style="fill:url(#SVGID_00000171711441040005163760000007635884883759839904_);" d="M2430.607,1829.145l173.097,129.634
				l-2.958-11.76c0,0,70.499-74.369,0.986-133.567c-69.513-59.197-148.886,10.848-148.886,10.848L2430.607,1829.145z"/>
		</g>
		<g>
			
				<linearGradient id="SVGID_00000101066805277396486400000006756656335844132513_" gradientUnits="userSpaceOnUse" x1="2337.9983" y1="566.4788" x2="2290.8789" y2="804.3195">
				<stop  offset="0" style="stop-color:#E1473D"/>
				<stop  offset="1" style="stop-color:#E9605A"/>
			</linearGradient>
			<path style="fill:url(#SVGID_00000101066805277396486400000006756656335844132513_);" d="M2047.65,924.138
				c0,0,389.618-10.53,415.944,7.898c26.325,18.428,10.53,60.549,0,68.446c-10.53,7.898-292.213,50.019-292.213,50.019
				L2047.65,924.138z"/>
			
				<linearGradient id="SVGID_00000057136891234017473090000009514626526353450428_" gradientUnits="userSpaceOnUse" x1="2140.9409" y1="812.1873" x2="2414.8911" y2="812.1873">
				<stop  offset="0" style="stop-color:#DAE3FE"/>
				<stop  offset="1" style="stop-color:#E9EFFD"/>
			</linearGradient>
			<path style="fill:url(#SVGID_00000057136891234017473090000009514626526353450428_);" d="M2414.891,833.315
				c0,0-28.958-31.591-52.651-39.488c-23.693-7.898-213.237-18.428-221.135-5.265
				C2133.208,801.724,2412.259,864.905,2414.891,833.315z"/>
			
				<linearGradient id="SVGID_00000150817164147213551990000014496069508155612348_" gradientUnits="userSpaceOnUse" x1="2375.4026" y1="905.4576" x2="2469.2161" y2="905.4576">
				<stop  offset="0" style="stop-color:#09005D"/>
				<stop  offset="1" style="stop-color:#1A0F91"/>
			</linearGradient>
			<path style="fill:url(#SVGID_00000150817164147213551990000014496069508155612348_);" d="M2375.403,925.919v-44.004
				c0-11.887,8.95-21.814,20.762-23.152c16.427-1.861,39.675-2.425,58.634,5.097c9.337,3.704,15.073,13.184,14.357,23.203
				l-3.073,43.032c-0.757,10.593-8.565,19.337-19.012,21.25c-13.736,2.516-33.964,3.784-55.483-3.232
				C2381.962,944.975,2375.403,936.042,2375.403,925.919z"/>
			
				<linearGradient id="SVGID_00000062909920357993202850000004368557931393208457_" gradientUnits="userSpaceOnUse" x1="2420.8081" y1="751.3312" x2="2420.8081" y2="1000.3913">
				<stop  offset="0" style="stop-color:#E1473D"/>
				<stop  offset="1" style="stop-color:#E9605A"/>
			</linearGradient>
			<path style="fill:url(#SVGID_00000062909920357993202850000004368557931393208457_);" d="M2396.463,870.17l-3.808-30.462
				c-1.09-8.722,3.72-17.177,11.856-20.504c8.572-3.505,20.858-5.046,35.598,2.943c5.566,3.017,9.004,8.895,9.004,15.227v32.796
				C2432.632,882.151,2415.194,883.418,2396.463,870.17z"/>
			
				<linearGradient id="SVGID_00000116948011766105078850000013792011902245226657_" gradientUnits="userSpaceOnUse" x1="2433.2546" y1="880.2896" x2="2733.8167" y2="880.2896">
				<stop  offset="0" style="stop-color:#DAE3FE"/>
				<stop  offset="1" style="stop-color:#E9EFFD"/>
			</linearGradient>
			<path style="fill:url(#SVGID_00000116948011766105078850000013792011902245226657_);" d="M2433.319,849.11
				c0,0,21.061,39.488,42.121,47.386c21.061,7.898,253.136,33.401,257.99,23.693c10.53-21.06-197.442-76.344-223.767-78.977
				C2509.663,841.212,2430.686,830.682,2433.319,849.11z"/>
			
				<linearGradient id="SVGID_00000163776596568856198020000003991265944355525007_" gradientUnits="userSpaceOnUse" x1="1938.3054" y1="596.5445" x2="1868.7482" y2="749.1219">
				<stop  offset="0" style="stop-color:#E1473D"/>
				<stop  offset="1" style="stop-color:#E9605A"/>
			</linearGradient>
			<path style="fill:url(#SVGID_00000163776596568856198020000003991265944355525007_);" d="M1997.631,924.138
				c0,0-389.618-10.53-415.944,7.898c-26.326,18.428-10.53,60.549,0,68.446c10.53,7.898,292.214,50.019,292.214,50.019
				L1997.631,924.138z"/>
			
				<linearGradient id="SVGID_00000163753046265196056680000000447080239696875394_" gradientUnits="userSpaceOnUse" x1="1632.8469" y1="828.4374" x2="1910.3116" y2="828.4374">
				<stop  offset="0" style="stop-color:#DAE3FE"/>
				<stop  offset="1" style="stop-color:#E9EFFD"/>
			</linearGradient>
			<path style="fill:url(#SVGID_00000163753046265196056680000000447080239696875394_);" d="M1632.856,836.689
				c0,0,33.138-27.174,57.71-31.639c24.572-4.465,213.699,11.937,219.654,26.085
				C1916.175,845.282,1630.991,868.334,1632.856,836.689z"/>
			
				<linearGradient id="SVGID_00000057826747526071190510000010356858894855721866_" gradientUnits="userSpaceOnUse" x1="1576.0646" y1="905.4576" x2="1669.8781" y2="905.4576">
				<stop  offset="0" style="stop-color:#09005D"/>
				<stop  offset="1" style="stop-color:#1A0F91"/>
			</linearGradient>
			<path style="fill:url(#SVGID_00000057826747526071190510000010356858894855721866_);" d="M1669.878,925.919v-44.004
				c0-11.887-8.95-21.814-20.762-23.152c-16.427-1.861-39.675-2.425-58.634,5.097c-9.337,3.704-15.073,13.184-14.357,23.203
				l3.074,43.032c0.757,10.593,8.565,19.337,19.011,21.25c13.736,2.516,33.964,3.784,55.483-3.232
				C1663.318,944.975,1669.878,936.042,1669.878,925.919z"/>
			
				<linearGradient id="SVGID_00000121975890310462523780000007778712629722359206_" gradientUnits="userSpaceOnUse" x1="1617.0994" y1="868.9005" x2="1543.0544" y2="1111.2295">
				<stop  offset="0" style="stop-color:#E1473D"/>
				<stop  offset="1" style="stop-color:#E9605A"/>
			</linearGradient>
			<path style="fill:url(#SVGID_00000121975890310462523780000007778712629722359206_);" d="M1649.454,865.078l3.171-25.37
				c1.09-8.722-3.72-17.177-11.856-20.504c-8.572-3.505-20.858-5.046-35.598,2.943c-5.566,3.017-9.004,8.895-9.004,15.227v32.796
				c15.15,11.012,31.106,12.973,48.132,2.931C1647.177,871.404,1649.04,868.394,1649.454,865.078z"/>
			
				<linearGradient id="SVGID_00000149346841557657996220000007894119789142824611_" gradientUnits="userSpaceOnUse" x1="1305.0382" y1="861.6077" x2="1612.6233" y2="861.6077">
				<stop  offset="0" style="stop-color:#DAE3FE"/>
				<stop  offset="1" style="stop-color:#E9EFFD"/>
			</linearGradient>
			<path style="fill:url(#SVGID_00000149346841557657996220000007894119789142824611_);" d="M1612.378,849.717
				c0,0-26.437,36.11-48.403,40.948c-21.966,4.837-255.316-2.761-258.747-13.059c-7.444-22.339,206.259-47.632,232.692-46.512
				C1537.92,831.094,1617.592,831.847,1612.378,849.717z"/>
			<path style="fill:#FFFFFF;" d="M2716.323,917.827c-0.069,0-0.135-0.007-0.204-0.013c-1.656-0.21-166.447-21.157-215.916-28.963
				c-50.452-7.967-58.866-36.786-59.202-38.008c-0.23-0.845,0.266-1.713,1.111-1.946c0.855-0.224,1.716,0.263,1.949,1.108
				c0.079,0.279,8.355,28.089,56.635,35.711c49.424,7.803,214.164,28.74,215.824,28.95c0.868,0.112,1.482,0.904,1.374,1.775
				C2717.792,917.242,2717.108,917.827,2716.323,917.827z"/>
			<path style="opacity:0.65;fill:#FFFFFF;" d="M2424.031,839.799c-2.015,0-4.21-0.131-6.606-0.434
				c-9.801-1.223-15.954-3.724-18.291-7.432c-1.404-2.228-0.818-4.059-0.792-4.135c0.141-0.414,0.585-0.638,1.002-0.503
				c0.414,0.138,0.638,0.582,0.506,0.996c-0.02,0.059-0.362,1.275,0.667,2.859c1.453,2.235,5.597,5.203,17.105,6.643
				c20.168,2.498,25.466-7.372,25.519-7.471c0.197-0.388,0.677-0.546,1.065-0.348c0.388,0.197,0.546,0.67,0.352,1.062
				C2444.357,831.437,2439.972,839.799,2424.031,839.799z"/>
			<path style="opacity:0.6;fill:#FFFFFF;" d="M1623.677,840.87c-1.611,0-3.336-0.059-5.187-0.181
				c-8.049-0.539-12.91-2.459-14.449-5.712c-1.436-3.034,0.605-5.949,0.694-6.071c0.253-0.355,0.749-0.44,1.101-0.187
				c0.358,0.253,0.441,0.749,0.191,1.108c-0.016,0.023-1.591,2.297-0.546,4.483c0.881,1.847,3.872,4.178,13.114,4.795
				c22.712,1.528,25.483-7.231,25.509-7.32c0.118-0.414,0.562-0.664,0.973-0.546c0.421,0.115,0.667,0.546,0.555,0.963
				C1645.531,832.584,1643.069,840.867,1623.677,840.87z"/>
			<path style="fill:#FFFFFF;" d="M1525.152,882.629c-53.821,0-198.654-10.758-200.258-10.879c-0.874-0.066-1.528-0.825-1.463-1.699
				c0.066-0.878,0.884-1.542,1.699-1.463c1.765,0.128,176.678,13.094,213.007,10.531c35.806-2.56,61.861-30.791,62.12-31.077
				c0.592-0.641,1.591-0.69,2.242-0.105c0.647,0.588,0.694,1.591,0.105,2.242c-0.266,0.293-27.182,29.456-64.244,32.102
				C1535.033,882.521,1530.549,882.629,1525.152,882.629z"/>
			
				<linearGradient id="SVGID_00000037670256756583607290000014730790863813540273_" gradientUnits="userSpaceOnUse" x1="2065.6267" y1="732.573" x2="2010.0956" y2="1257.592">
				<stop  offset="0" style="stop-color:#FF928E"/>
				<stop  offset="1" style="stop-color:#FE7062"/>
			</linearGradient>
			<path style="fill:url(#SVGID_00000037670256756583607290000014730790863813540273_);" d="M2057.546,910.34
				c26.186,0,51.803,7.518,73.831,21.677c68.496,44.031,223.208,141.144,279.881,157.337c73.711,21.06,121.097,28.958,123.73,60.549
				c2.633,31.591-50.019,60.549-123.73,39.488c-76.055-21.73-227.789,13.163-276.784,27.057
				c-10.656,3.022-21.683,4.534-32.759,4.534h-160.937c-11.076,0-22.103-1.512-32.759-4.534
				c-48.995-13.894-200.729-48.787-276.784-27.057c-73.711,21.06-126.363-7.898-123.73-39.488
				c2.633-31.591,50.019-39.488,123.73-60.549c56.673-16.192,211.385-113.306,279.881-157.337
				c22.027-14.16,47.644-21.677,73.83-21.677H2057.546z"/>
			<path style="opacity:0.33;fill:#FFFFFF;" d="M1533.818,1167.784c10.28,3.422,20.789,6.058,31.436,7.836
				c10.637,1.713,21.425,2.624,32.062,1.929c5.31-0.359,10.572-1.1,15.684-2.344c5.09-1.307,10-3.162,14.535-5.639
				c2.301-1.194,4.385-2.703,6.487-4.183c1.954-1.664,3.938-3.291,5.628-5.226c3.426-3.788,6.423-8.029,8.49-12.785l0.839-1.746
				l0.674-1.829l1.372-3.665l3.014-7.97c1.244-2.55,2.454-5.121,3.74-7.648l4.4-7.272c6.268-9.449,14.113-17.71,22.721-24.876
				c17.311-14.299,37.299-24.698,57.909-32.705c41.385-16.011,85.182-23.742,128.89-28.298c43.806-4.32,87.878-5.006,131.785-3.052
				c43.906,2.142,87.668,6.992,130.969,14.586c43.252,7.76,86.166,18.088,127.618,33.12c10.339,3.808,20.618,7.814,30.684,12.355
				c10.089,4.476,20.033,9.33,29.662,14.809c9.637,5.452,19.043,11.388,27.899,18.163l6.511,5.261
				c2.138,1.795,4.167,3.734,6.254,5.595c2.066,1.888,3.955,3.983,5.938,5.967c1.961,1.993,3.699,3.914,5.605,5.813
				c7.564,7.462,16.107,13.839,25.859,17.932c9.681,4.212,20.186,6.561,30.844,7.758c10.669,1.2,21.517,1.389,32.348,0.846
				c10.839-0.386,21.667-1.576,32.478-2.844l0.057-0.007c1.444-0.169,2.752,0.864,2.921,2.308c0.168,1.435-0.852,2.735-2.282,2.918
				c-10.919,1.39-21.865,2.701-32.912,3.204c-11.025,0.657-22.151,0.583-33.25-0.555c-11.079-1.139-22.207-3.482-32.672-7.914
				c-10.534-4.299-19.925-11.166-27.982-18.983c-1.995-1.939-3.931-4.083-5.822-5.98c-1.896-1.876-3.681-3.855-5.663-5.652
				c-2.006-1.772-3.943-3.617-6.001-5.333l-6.28-5.039c-8.565-6.508-17.738-12.257-27.168-17.55
				c-9.422-5.321-19.197-10.053-29.134-14.422c-9.911-4.432-20.062-8.349-30.279-12.073
				c-40.976-14.707-83.575-24.818-126.517-32.372c-42.995-7.409-86.476-12.022-130.053-14.083
				c-43.57-2.083-87.304-1.541-130.69,2.594c-43.273,4.358-86.592,11.902-127.086,27.428c-20.168,7.749-39.564,17.816-56.108,31.394
				c-8.228,6.802-15.643,14.58-21.521,23.382l-4.123,6.763l-3.497,7.092l-2.819,7.38l-1.519,4.021l-0.771,2.014l-0.952,1.948
				c-4.878,10.441-13.232,19.559-23.533,24.86c-5.096,2.723-10.525,4.701-16.053,6.061c-5.543,1.296-11.164,2.027-16.777,2.352
				c-11.24,0.624-22.406-0.443-33.35-2.31c-10.935-1.932-21.702-4.747-32.164-8.339l-0.021-0.007
				c-1.375-0.472-2.107-1.97-1.635-3.345C1530.966,1168.06,1532.45,1167.329,1533.818,1167.784z"/>
			
				<linearGradient id="SVGID_00000137854451731554669020000016310098623220339382_" gradientUnits="userSpaceOnUse" x1="1238.9246" y1="1006.051" x2="1555.5833" y2="1006.051">
				<stop  offset="0" style="stop-color:#DAE3FE"/>
				<stop  offset="1" style="stop-color:#E9EFFD"/>
			</linearGradient>
			<path style="fill:url(#SVGID_00000137854451731554669020000016310098623220339382_);" d="M1555.583,1023.024
				c0,0-33.473-25.379-60.859-31.724c-27.387-6.345-246.48-14.804-255.609-4.23
				C1229.986,997.645,1552.54,1048.403,1555.583,1023.024z"/>
			
				<linearGradient id="SVGID_00000155868918519495688690000006316821091946499715_" gradientUnits="userSpaceOnUse" x1="1510.5525" y1="1095.4342" x2="1618.9913" y2="1095.4342">
				<stop  offset="0" style="stop-color:#09005D"/>
				<stop  offset="1" style="stop-color:#1A0F91"/>
			</linearGradient>
			<path style="fill:url(#SVGID_00000155868918519495688690000006316821091946499715_);" d="M1618.991,1119.085v-50.864
				c0-13.741-10.346-25.215-23.999-26.761c-18.988-2.151-45.86-2.803-67.775,5.891c-10.793,4.282-17.423,15.239-16.595,26.821
				l3.553,49.741c0.875,12.245,9.9,22.351,21.975,24.563c15.878,2.908,39.259,4.374,64.133-3.735
				C1611.409,1141.112,1618.991,1130.787,1618.991,1119.085z"/>
			
				<linearGradient id="SVGID_00000049911766790881912000000011176931886206093994_" gradientUnits="userSpaceOnUse" x1="1565.0205" y1="1027.5989" x2="1612.9507" y2="1125.0054">
				<stop  offset="0" style="stop-color:#E1473D"/>
				<stop  offset="1" style="stop-color:#E9605A"/>
			</linearGradient>
			<path style="fill:url(#SVGID_00000049911766790881912000000011176931886206093994_);" d="M1594.648,1054.646l4.401-35.211
				c1.249-9.99-4.177-19.745-13.475-23.606c-9.918-4.118-24.208-5.999-41.377,3.307c-6.434,3.487-10.408,10.282-10.408,17.6
				l0.404,30.707c0.074,5.665,3.283,10.825,8.317,13.425C1559.008,1069.393,1576.09,1067.771,1594.648,1054.646z"/>
			
				<linearGradient id="SVGID_00000157271532295494654520000012218650816593195189_" gradientUnits="userSpaceOnUse" x1="1573.7483" y1="1048.4128" x2="1928.0659" y2="1048.4128">
				<stop  offset="0" style="stop-color:#DAE3FE"/>
				<stop  offset="1" style="stop-color:#E9EFFD"/>
			</linearGradient>
			<path style="fill:url(#SVGID_00000157271532295494654520000012218650816593195189_);" d="M1573.974,1031.183
				c0,0,29.214,42.691,54.414,49.089c25.2,6.397,295.071,6.204,299.414-5.567c9.422-25.534-236.541-62.619-267.121-62.298
				C1660.681,1012.407,1568.608,1010.346,1573.974,1031.183z"/>
			
				<linearGradient id="SVGID_00000085244595011890440890000012636380584480802237_" gradientUnits="userSpaceOnUse" x1="2475.2581" y1="983.8807" x2="2780.7732" y2="983.8807">
				<stop  offset="0" style="stop-color:#DAE3FE"/>
				<stop  offset="1" style="stop-color:#E9EFFD"/>
			</linearGradient>
			<path style="fill:url(#SVGID_00000085244595011890440890000012636380584480802237_);" d="M2475.258,1028.098
				c0,0,28.495-30.863,54.342-41.918c25.847-11.056,240.05-57.86,250.894-49.053
				C2791.338,945.933,2482.71,1052.548,2475.258,1028.098z"/>
			
				<linearGradient id="SVGID_00000039830253163497650920000006774292666866709391_" gradientUnits="userSpaceOnUse" x1="2411.2795" y1="1095.4342" x2="2519.7185" y2="1095.4342">
				<stop  offset="0" style="stop-color:#09005D"/>
				<stop  offset="1" style="stop-color:#1A0F91"/>
			</linearGradient>
			<path style="fill:url(#SVGID_00000039830253163497650920000006774292666866709391_);" d="M2411.28,1119.085v-50.864
				c0-13.741,10.346-25.215,23.999-26.761c18.988-2.151,45.86-2.803,67.775,5.891c10.793,4.282,17.423,15.239,16.596,26.821
				l-3.553,49.741c-0.875,12.245-9.9,22.351-21.976,24.563c-15.877,2.908-39.259,4.374-64.133-3.735
				C2418.862,1141.112,2411.28,1130.787,2411.28,1119.085z"/>
			
				<linearGradient id="SVGID_00000163790288942621554820000002643651858750724286_" gradientUnits="userSpaceOnUse" x1="2464.6555" y1="1034.356" x2="2472.3779" y2="1187.259">
				<stop  offset="0" style="stop-color:#E1473D"/>
				<stop  offset="1" style="stop-color:#E9605A"/>
			</linearGradient>
			<path style="fill:url(#SVGID_00000163790288942621554820000002643651858750724286_);" d="M2435.623,1054.646l-4.401-35.211
				c-1.26-10.082,4.301-19.855,13.705-23.7c9.908-4.052,24.11-5.832,41.148,3.402c6.434,3.487,10.408,10.282,10.408,17.6v37.909
				C2477.43,1068.494,2457.274,1069.959,2435.623,1054.646z"/>
			
				<linearGradient id="SVGID_00000143585075876962385300000015612022647539284649_" gradientUnits="userSpaceOnUse" x1="2109.083" y1="1086.217" x2="2450.3701" y2="1086.217">
				<stop  offset="0" style="stop-color:#DAE3FE"/>
				<stop  offset="1" style="stop-color:#E9EFFD"/>
			</linearGradient>
			<path style="fill:url(#SVGID_00000143585075876962385300000015612022647539284649_);" d="M2450.348,1038.155
				c0,0-21.263,47.158-44.948,57.881c-23.685,10.723-289.396,57.927-295.738,47.102c-13.76-23.483,221.868-103.186,252.029-108.24
				C2361.691,1034.898,2451.972,1016.699,2450.348,1038.155z"/>
			<path style="opacity:0.54;fill:#FFFFFF;" d="M2465.067,1018.814c-2.465,0-5.167-0.135-8.135-0.431
				c-10.301-1.029-16.207-3.543-17.558-7.471c-1.364-3.97,2.449-7.668,2.61-7.826c0.319-0.296,0.822-0.286,1.121,0.026
				c0.302,0.316,0.292,0.819-0.023,1.121c-0.033,0.033-3.244,3.162-2.206,6.169c0.779,2.258,4.227,5.203,16.214,6.403
				c25.322,2.528,30.758-7.366,30.807-7.468c0.2-0.391,0.68-0.542,1.065-0.345c0.388,0.197,0.546,0.667,0.352,1.058
				C2489.113,1010.453,2484.676,1018.811,2465.067,1018.814z"/>
			<path style="fill:#FFFFFF;" d="M2135.835,1137.645c-0.759,0-1.43-0.549-1.561-1.325c-0.145-0.861,0.437-1.679,1.302-1.827
				c1.867-0.316,187.456-31.678,234.302-39.488c45.377-7.563,62.922-51.162,63.816-53.631c0.036-0.671,0.5-1.272,1.187-1.45
				c0.559-0.151,1.177,0.03,1.571,0.46c0.69,0.743,0.391,1.617,0.174,2.255c-0.161,0.47-18.258,47.497-66.229,55.494
				c-46.84,7.81-232.426,39.172-234.296,39.488C2136.013,1137.638,2135.924,1137.645,2135.835,1137.645z"/>
			<path style="fill:#FFFFFF;" d="M2507.03,1024.448c-0.713,0-1.357-0.483-1.538-1.203c-0.214-0.851,0.302-1.712,1.154-1.923
				c1.788-0.447,179.689-45.138,252.399-81.493c0.776-0.385,1.732-0.076,2.13,0.71c0.391,0.785,0.072,1.735-0.71,2.13
				c-73.023,36.51-251.259,81.282-253.05,81.729C2507.286,1024.431,2507.155,1024.448,2507.03,1024.448z"/>
			<path style="fill:#FFFFFF;" d="M1904.176,1074.466c-0.007,0-0.016,0-0.023,0c-1.765-0.026-177.161-2.695-239.67-7.905
				c-63.494-5.292-74.643-36.608-75.087-37.936c-0.276-0.832,0.171-1.725,0.999-2.005c0.828-0.279,1.725,0.168,2.008,0.996
				c0.105,0.306,11.129,30.682,72.342,35.783c62.403,5.2,237.691,7.865,239.453,7.892c0.878,0.013,1.578,0.736,1.564,1.61
				C1905.75,1073.769,1905.04,1074.466,1904.176,1074.466z"/>
			<path style="opacity:0.33;fill:#FFFFFF;" d="M2013.426,1204.929c0,3.635-2.947,6.582-6.581,6.582s-6.581-2.947-6.581-6.582
				c0-3.635,2.947-6.581,6.581-6.581S2013.426,1201.294,2013.426,1204.929z"/>
			<path style="opacity:0.33;fill:#FFFFFF;" d="M2017.375,1222.04c-2.181,0-3.949-1.768-3.949-3.949s1.768-3.949,3.949-3.949
				c2.181,0,3.949,1.768,3.949,3.949S2019.556,1222.04,2017.375,1222.04z"/>
			
				<linearGradient id="SVGID_00000033362549568270143530000017313775717979693231_" gradientUnits="userSpaceOnUse" x1="2131.9561" y1="1033.7133" x2="2397.845" y2="582.7122">
				<stop  offset="0" style="stop-color:#E1473D"/>
				<stop  offset="1" style="stop-color:#E9605A"/>
			</linearGradient>
			<path style="fill:url(#SVGID_00000033362549568270143530000017313775717979693231_);" d="M1912.286,1176.336
				c2.21,27.309,6.664,76.267,12.355,107.289c1.031,5.622,5.742,9.804,11.443,10.207c32.631,2.306,140.058,8.754,180.133-3.031
				c4.719-1.388,8.129-5.481,8.781-10.357c2.742-20.526,10.258-78.846,11.857-112.952c0.303-6.457-4.319-12.077-10.711-13.034
				c-26.679-3.996-147.028-0.522-195.282,1.072C1919.86,1155.892,1911.398,1165.364,1912.286,1176.336z"/>
			
				<linearGradient id="SVGID_00000109020682872532773370000009810984864379152566_" gradientUnits="userSpaceOnUse" x1="1966.0405" y1="1224.6729" x2="2076.6077" y2="1224.6729">
				<stop  offset="0" style="stop-color:#DAE3FE"/>
				<stop  offset="1" style="stop-color:#E9EFFD"/>
			</linearGradient>
			
				<circle style="fill:url(#SVGID_00000109020682872532773370000009810984864379152566_);" cx="2021.324" cy="1224.673" r="55.284"/>
			
				<linearGradient id="SVGID_00000044862439559626531330000010811625143002235297_" gradientUnits="userSpaceOnUse" x1="1976.5708" y1="1225.9891" x2="2068.7102" y2="1225.9891">
				<stop  offset="0" style="stop-color:#FF928E"/>
				<stop  offset="1" style="stop-color:#FE7062"/>
			</linearGradient>
			<circle style="fill:url(#SVGID_00000044862439559626531330000010811625143002235297_);" cx="2022.641" cy="1225.989" r="46.07"/>
			
				<linearGradient id="SVGID_00000115506216620562710550000015163836105839345556_" gradientUnits="userSpaceOnUse" x1="1981.8358" y1="1225.9891" x2="2063.4451" y2="1225.9891">
				<stop  offset="0" style="stop-color:#09005D"/>
				<stop  offset="1" style="stop-color:#1A0F91"/>
			</linearGradient>
			<circle style="fill:url(#SVGID_00000115506216620562710550000015163836105839345556_);" cx="2022.64" cy="1225.989" r="40.805"/>
			<g>
				<path style="opacity:0.33;fill:#FFFFFF;" d="M2022.798,1532.684c-75.2,0-147.149-23.109-208.071-66.83
					c-6.107-4.383-7.505-12.886-3.122-18.993c4.378-6.107,12.886-7.506,18.991-3.123c56.269,40.381,122.73,61.726,192.201,61.726
					c69.472,0,135.933-21.345,192.201-61.726c6.105-4.382,14.607-2.984,18.991,3.123c4.383,6.107,2.986,14.61-3.122,18.993
					C2169.947,1509.575,2097.998,1532.684,2022.798,1532.684z"/>
				<path style="opacity:0.33;fill:#FFFFFF;" d="M2022.798,1456.272c-61.636,0-120.578-19.096-170.451-55.227
					c-6.087-4.409-7.446-12.919-3.037-19.006c4.408-6.087,12.92-7.446,19.006-3.037c45.197,32.742,98.617,50.05,154.482,50.05
					c55.865,0,109.284-17.308,154.482-50.05c6.091-4.412,14.598-3.047,19.006,3.037c4.409,6.087,3.05,14.597-3.037,19.006
					C2143.377,1437.176,2084.435,1456.272,2022.798,1456.272z"/>
				<path style="opacity:0.33;fill:#FFFFFF;" d="M2022.798,1377.872c-43.719,0-85.354-13.729-120.407-39.706
					c-6.039-4.476-7.305-12.999-2.831-19.039c4.476-6.037,13-7.303,19.039-2.831c30.328,22.478,66.36,34.357,104.199,34.357
					c37.839,0,73.871-11.879,104.199-34.357c6.041-4.469,14.563-3.207,19.039,2.831c4.474,6.041,3.208,14.563-2.831,19.039
					C2108.153,1364.143,2066.517,1377.872,2022.798,1377.872z"/>
			</g>
		</g>
	</g>
</g>
</svg>
