<svg width="4000" height="2250" viewBox="0 0 4000 2250" fill="none" xmlns="http://www.w3.org/2000/svg">
<g clip-path="url(#clip0_1_3)">
<path d="M4000 0H0V2250H4000V0Z" fill="#EEE2B3"/>
<path d="M3951 402.964H2679.35V698.941H3951V402.964Z" fill="#EAEAEA"/>
<path d="M2699.35 402.964H2679.35V698.941H2699.35V402.964Z" fill="#FAC00B"/>
<path d="M2527.5 545.5L2680 698.404V402.86L2527.5 545.5Z" fill="#FAC00B"/>
<path d="M2604.55 589.565V575.383L2637.68 544.701C2640.5 541.974 2642.86 539.519 2644.77 537.338C2646.71 535.156 2648.18 533.019 2649.18 530.929C2650.18 528.807 2650.68 526.519 2650.68 524.065C2650.68 521.338 2650.06 518.989 2648.82 517.019C2647.58 515.019 2645.88 513.489 2643.73 512.429C2641.58 511.338 2639.14 510.792 2636.41 510.792C2633.56 510.792 2631.08 511.368 2628.95 512.519C2626.83 513.671 2625.2 515.323 2624.05 517.474C2622.89 519.626 2622.32 522.186 2622.32 525.156H2603.64C2603.64 519.065 2605.02 513.777 2607.77 509.292C2610.53 504.807 2614.39 501.338 2619.36 498.883C2624.33 496.429 2630.06 495.201 2636.55 495.201C2643.21 495.201 2649.02 496.383 2653.95 498.747C2658.92 501.08 2662.79 504.323 2665.55 508.474C2668.3 512.626 2669.68 517.383 2669.68 522.747C2669.68 526.262 2668.98 529.732 2667.59 533.156C2666.23 536.58 2663.79 540.383 2660.27 544.565C2656.76 548.716 2651.8 553.701 2645.41 559.519L2631.82 572.838V573.474H2670.91V589.565H2604.55Z" fill="#EAEAEA"/>
<path d="M1670.66 346.562L399 346.562L399 49.0815L1670.66 49.0815V346.562Z" fill="#EAEAEA"/>
<path d="M1671 346H1651V50.02H1671V346Z" fill="#61A041"/>
<path d="M1830 191.5L1670 346.023V48.9766L1830 191.5Z" fill="#61A041"/>
<path d="M1721.05 140.909V234H1701.36V159.591H1700.82L1679.5 172.955V155.5L1702.55 140.909H1721.05Z" fill="#EAEAEA"/>
<path d="M38 1019.28L1309.66 1019.28V721.797L38 721.797V1019.28Z" fill="#EAEAEA"/>
<path d="M1292 1019H1312V721.52H1292V1019Z" fill="#118166"/>
<path d="M1463 874.011L1310 1019V721L1463 874.011Z" fill="#118166"/>
<path d="M1328.14 889.636V874.136L1367 812.909H1380.36V834.364H1372.45L1347.95 873.136V873.864H1403.18V889.636H1328.14ZM1372.82 906V884.909L1373.18 878.045V812.909H1391.64V906H1372.82Z" fill="white"/>
<path d="M3609 1071.06H2337.35V1368.54H3609V1071.06Z" fill="#EAEAEA"/>
<path d="M2183 1223L2338 1366.4V1070.86L2183 1223Z" fill="#E2D39B"/>
<path d="M2357.35 1071.06H2337.35V1368.54H2357.35V1071.06Z" fill="#E2D39B"/>
<path d="M2296.95 1259.54C2290.17 1259.54 2284.12 1258.37 2278.82 1256.04C2273.55 1253.67 2269.38 1250.43 2266.32 1246.31C2263.29 1242.16 2261.73 1237.37 2261.64 1231.95H2281.45C2281.58 1234.22 2282.32 1236.22 2283.68 1237.95C2285.08 1239.64 2286.92 1240.96 2289.23 1241.9C2291.53 1242.84 2294.12 1243.31 2297 1243.31C2300 1243.31 2302.65 1242.78 2304.95 1241.72C2307.26 1240.66 2309.06 1239.19 2310.36 1237.31C2311.67 1235.43 2312.32 1233.26 2312.32 1230.81C2312.32 1228.33 2311.62 1226.13 2310.23 1224.22C2308.86 1222.28 2306.89 1220.76 2304.32 1219.67C2301.77 1218.58 2298.74 1218.04 2295.23 1218.04H2286.55V1203.58H2295.23C2298.2 1203.58 2300.82 1203.07 2303.09 1202.04C2305.39 1201.01 2307.18 1199.58 2308.45 1197.76C2309.73 1195.92 2310.36 1193.76 2310.36 1191.31C2310.36 1188.98 2309.8 1186.93 2308.68 1185.17C2307.59 1183.39 2306.05 1181.99 2304.05 1180.99C2302.08 1179.99 2299.77 1179.49 2297.14 1179.49C2294.47 1179.49 2292.03 1179.98 2289.82 1180.95C2287.61 1181.89 2285.83 1183.23 2284.5 1184.99C2283.17 1186.75 2282.45 1188.81 2282.36 1191.17H2263.5C2263.59 1185.81 2265.12 1181.08 2268.09 1176.99C2271.06 1172.9 2275.06 1169.7 2280.09 1167.4C2285.15 1165.07 2290.86 1163.9 2297.23 1163.9C2303.65 1163.9 2309.27 1165.07 2314.09 1167.4C2318.91 1169.73 2322.65 1172.89 2325.32 1176.86C2328.02 1180.8 2329.35 1185.22 2329.32 1190.13C2329.35 1195.34 2327.73 1199.69 2324.45 1203.17C2321.21 1206.66 2316.98 1208.87 2311.77 1209.81V1210.54C2318.62 1211.42 2323.83 1213.8 2327.41 1217.67C2331.02 1221.52 2332.8 1226.34 2332.77 1232.13C2332.8 1237.43 2331.27 1242.14 2328.18 1246.26C2325.12 1250.39 2320.89 1253.63 2315.5 1255.99C2310.11 1258.36 2303.92 1259.54 2296.95 1259.54Z" fill="white"/>
<path d="M1648.04 391.298L1327.79 711.54L1648.04 1031.78L1968.28 711.54L1648.04 391.298Z" fill="#118166"/>
<path d="M2000.34 39L1680.1 359.243L2000.34 679.485L2320.58 359.243L2000.34 39Z" fill="#61A041"/>
<path d="M1999.62 742.882L1679.37 1063.13L1999.62 1383.37L2319.86 1063.13L1999.62 742.882Z" fill="#E2D39B"/>
<path d="M2351.92 390.585L2031.68 710.828L2351.92 1031.07L2672.16 710.828L2351.92 390.585Z" fill="#FAC00B"/>
<path d="M1993.5 988.5C1992.8 988.7 1990.05 989.9 1987.3 991.2L1982.4 993.5H1976.5C1973.25 993.5 1970.2 993.65 1969.75 993.8C1969.3 994 1967.2 996.3 1965.05 998.95C1961.15 1003.75 1961.1 1003.8 1955.3 1006.65C1951.1 1008.7 1949.35 1009.8 1949.05 1010.65C1948.8 1011.3 1948.05 1014.25 1947.4 1017.2C1946.25 1022.5 1946.2 1022.6 1942.55 1027.15C1940.55 1029.7 1938.7 1032.25 1938.45 1032.9C1938.15 1033.75 1938.4 1035.9 1939.4 1040.15L1940.8 1046.25L1939.4 1052C1938.65 1055.15 1938.15 1058.3 1938.3 1059C1938.45 1059.65 1940.25 1062.35 1942.35 1064.9L1946.1 1069.6L1947.45 1075.55C1948.3 1079.1 1949.2 1081.9 1949.8 1082.55C1950.3 1083.15 1953.1 1084.7 1956 1086.1C1960.9 1088.4 1961.4 1088.8 1964 1092.1C1965.5 1094.05 1967.45 1096.4 1968.3 1097.35L1969.85 1099H1976.4H1982.95L1988.55 1101.75C1991.65 1103.25 1994.55 1104.5 1995 1104.5C1995.45 1104.5 1998.35 1103.25 2001.45 1101.75L2007.05 1099H2013.6H2020.15L2021.7 1097.35C2022.55 1096.4 2024.5 1094.05 2026 1092.1C2028.6 1088.8 2029.1 1088.4 2034 1086.1C2036.9 1084.7 2039.65 1083.15 2040.2 1082.55C2040.75 1081.95 2041.7 1079.05 2042.5 1075.55L2043.9 1069.6L2047.65 1064.9C2049.75 1062.35 2051.55 1059.65 2051.7 1059C2051.85 1058.3 2051.35 1055.15 2050.6 1052L2049.2 1046.25L2050.6 1040.15C2051.6 1035.9 2051.85 1033.75 2051.55 1032.9C2051.3 1032.25 2049.45 1029.7 2047.45 1027.15C2043.8 1022.6 2043.75 1022.5 2042.55 1017.15C2041.95 1014.2 2041.1 1011.2 2040.75 1010.5C2040.3 1009.6 2038.35 1008.4 2034.5 1006.5C2028.95 1003.85 2028.85 1003.75 2025 998.95C2022.8 996.3 2020.7 994 2020.25 993.8C2019.8 993.65 2016.75 993.5 2013.55 993.5H2007.65L2002.45 991.1C1996.55 988.3 1995.25 987.95 1993.5 988.5ZM2000.75 992.5L2006.25 995.25L2012.8 995.5C2020.35 995.8 2019.8 995.5 2024.35 1001.3C2027 1004.75 2027.7 1005.25 2032.5 1007.75C2035.4 1009.2 2038.15 1010.85 2038.6 1011.35C2039.05 1011.85 2039.9 1014.4 2040.5 1017C2041.8 1022.85 2042.35 1024 2046.05 1028.55C2047.7 1030.55 2049.15 1032.75 2049.35 1033.45C2049.55 1034.15 2049.25 1036.65 2048.75 1039C2047.35 1045.4 2047.3 1046.9 2048.45 1051.7C2050.05 1058.35 2049.95 1058.85 2046.6 1063.1C2042.25 1068.55 2042 1069.1 2040.7 1074.6C2040 1077.4 2039.15 1080.2 2038.8 1080.75C2038.4 1081.35 2035.75 1083 2032.85 1084.4C2027.8 1086.9 2027.45 1087.15 2024 1091.5C2022 1094 2020 1096.25 2019.5 1096.5C2019 1096.8 2015.9 1097 2012.6 1097H2006.65L2001.55 1099.5C1998.75 1100.9 1995.8 1102 1995 1102C1994.2 1102 1991.25 1100.85 1988.45 1099.5L1983.35 1097H1977.4C1974.1 1097 1971 1096.8 1970.5 1096.5C1970 1096.25 1968 1094 1966 1091.55C1962.6 1087.25 1962.2 1086.9 1957.35 1084.5C1954.55 1083.1 1951.9 1081.55 1951.45 1081.1C1951 1080.65 1950.1 1078.1 1949.5 1075.5C1948.9 1072.9 1948.3 1070.35 1948.2 1069.9C1948.05 1069.45 1946.25 1066.85 1944.2 1064.2C1939.95 1058.65 1939.95 1058.65 1941.6 1051.35L1942.7 1046.45L1941.6 1041.1C1940.05 1033.55 1940.05 1033.4 1943.15 1029.55C1947.6 1024.05 1947.95 1023.25 1949.3 1017.65C1950 1014.7 1950.85 1011.9 1951.15 1011.45C1951.5 1011 1954.25 1009.4 1957.25 1007.85C1962.35 1005.25 1962.95 1004.75 1965.65 1001.35C1970.35 995.3 1969.8 995.6 1977.25 995.4L1983.75 995.25L1989.25 992.45C1992.3 990.9 1994.85 989.65 1995 989.7C1995.15 989.75 1997.75 991 2000.75 992.5Z" fill="white"/>
<path d="M1990.25 1003.3C1970.85 1006.15 1956.2 1019.95 1952.65 1038.75C1951.65 1043.95 1952.05 1052.3 1953.5 1057.5C1958.3 1074.45 1973.05 1087.05 1990.5 1089C2008.6 1091.05 2026.05 1080.95 2033.95 1063.9C2036.5 1058.45 2037.5 1054.35 2037.85 1048.25C2039 1027.9 2025.1 1009.35 2004.85 1004.3C2001.5 1003.45 1993.1 1002.9 1990.25 1003.3ZM2000.35 1005.55C2014.25 1007.4 2026.35 1016.35 2032.2 1029.1C2034.55 1034.15 2035.45 1037.9 2035.85 1043.75C2037 1062.8 2025.1 1079.75 2006.5 1085.6C2003.25 1086.6 2001.75 1086.75 1995 1086.75C1988.25 1086.75 1986.75 1086.6 1983.5 1085.6C1964.8 1079.7 1952.9 1062.7 1954.15 1043.6C1954.55 1037.85 1955.5 1034.05 1957.8 1029.1C1962.5 1018.85 1971.65 1010.65 1982.15 1007.3C1988.85 1005.15 1993.85 1004.65 2000.35 1005.55Z" fill="white"/>
<path d="M1987.25 1010.7C1979.25 1012.55 1972.25 1016.8 1967.2 1022.9C1958.95 1032.9 1956.6 1045.6 1960.75 1058C1964.45 1068.95 1973.3 1077.4 1985 1081.05C1990.35 1082.75 1999.65 1082.75 2005 1081.05C2012.2 1078.8 2017.85 1075.1 2022.65 1069.5C2025.85 1065.75 2027.7 1062.5 2029.25 1058C2035.75 1038.55 2025.7 1018.3 2006.25 1011.7C2001.35 1010.05 1992.2 1009.55 1987.25 1010.7ZM2001.9 1012.75C2004.2 1013.2 2007.65 1014.45 2010.5 1015.85C2019.1 1020.05 2025.8 1028.3 2028.25 1037.75C2029.25 1041.7 2029.25 1050.65 2028.2 1054.7C2027.25 1058.3 2024.6 1063.8 2022.15 1067.1C2018.55 1072.05 2011.9 1076.65 2005.25 1078.85C2001.8 1080 2000.4 1080.15 1995 1080.15C1989.6 1080.15 1988.2 1080 1984.75 1078.85C1979.25 1077.05 1974.95 1074.4 1970.8 1070.25C1964.2 1063.7 1961.45 1057.25 1961.1 1047.8C1960.85 1040.3 1961.5 1036.95 1964.35 1031.05C1966.2 1027.15 1967.3 1025.6 1970.7 1022.25C1979.05 1013.85 1990.3 1010.45 2001.9 1012.75Z" fill="white"/>
<path d="M1998.55 1038.25C1995.3 1041.4 1992.4 1044 1992.05 1044C1991.75 1044 1989.95 1042.85 1988.15 1041.5C1986.35 1040.1 1984.45 1039 1984 1039C1982.95 1039 1978.2 1044.05 1977.1 1046.3C1976.4 1047.8 1976.4 1048.05 1977.2 1049.25C1978.3 1050.95 1988.25 1058.9 1990.5 1059.85C1993.75 1061.25 1995.3 1060.35 2004.4 1051.35C2008.9 1046.9 2012.9 1042.6 2013.3 1041.85C2014 1040.55 2013.95 1040.3 2013 1038.75C2011.4 1036.15 2007.1 1032.5 2005.65 1032.5C2004.75 1032.5 2002.85 1034.05 1998.55 1038.25ZM2009.1 1037.3L2012.3 1040.6L2003.6 1049.15C1998.85 1053.9 1994.4 1057.95 1993.7 1058.2C1991.9 1058.8 1990.85 1058.2 1984 1052.7L1978 1047.9L1980.6 1044.55C1982 1042.75 1983.35 1041.05 1983.55 1040.85C1983.75 1040.6 1985.8 1042 1988.05 1043.95L1992.25 1047.45L1999 1040.75C2002.7 1037.05 2005.8 1034 2005.8 1034C2005.85 1034 2007.35 1035.5 2009.1 1037.3Z" fill="white"/>
<path d="M1945.25 1104.45C1937.05 1120.95 1936.8 1121.75 1939.5 1124.1C1941 1125.5 1941.05 1125.5 1948.45 1125.5H1955.85L1960.3 1131.35C1965.1 1137.65 1966.05 1138.3 1969.25 1137.45C1970.95 1136.95 1971.25 1136.45 1978.75 1121.5L1986.5 1106L1984.65 1105.05C1983.15 1104.3 1981.4 1104.1 1976 1103.9C1967.65 1103.7 1967.15 1103.45 1961.95 1097C1959 1093.4 1957.5 1092 1955.4 1090.95L1952.7 1089.6L1945.25 1104.45ZM1956.6 1094.15C1957.3 1094.75 1959.1 1096.7 1960.55 1098.5C1965.7 1105 1967.9 1106 1976.5 1106C1984.85 1106 1984.85 1104.85 1976.4 1121.5C1972.5 1129.3 1968.85 1135.95 1968.4 1136.2C1967.25 1136.9 1966.25 1135.95 1961.7 1129.9C1959.65 1127.25 1957.5 1124.7 1956.9 1124.3C1956 1123.65 1954.35 1123.5 1949 1123.5C1941.55 1123.5 1940 1123 1940 1120.7C1940 1120.05 1943 1113.55 1946.6 1106.25C1953.8 1091.9 1953.85 1091.85 1956.6 1094.15Z" fill="white"/>
<path d="M2034.55 1090.95C2032.55 1092 2031.05 1093.4 2028.3 1096.75C2026.35 1099.2 2024.15 1101.6 2023.45 1102.1C2021.55 1103.5 2018.9 1103.95 2012.85 1104C2008.45 1104 2007.1 1104.2 2005.5 1105L2003.5 1106L2011.25 1121.5C2018.75 1136.45 2019.05 1136.95 2020.75 1137.45C2023.95 1138.3 2024.9 1137.65 2029.7 1131.35L2034.15 1125.5H2041.55C2048.95 1125.5 2049 1125.5 2050.55 1124.1C2053.2 1121.75 2052.95 1120.85 2044.7 1104.4L2037.25 1089.6L2034.55 1090.95ZM2043.4 1106.35C2047.05 1113.75 2050.05 1120.25 2050 1120.85C2050 1123 2048.35 1123.5 2041 1123.5C2035.65 1123.5 2034 1123.65 2033.1 1124.3C2032.5 1124.7 2030.35 1127.25 2028.3 1129.9C2023.75 1135.95 2022.75 1136.9 2021.6 1136.2C2021.15 1135.95 2017.55 1129.3 2013.6 1121.5C2005.2 1104.85 2005.2 1106 2013.5 1106C2022.1 1106 2024.3 1105 2029.45 1098.5C2030.9 1096.7 2032.7 1094.75 2033.4 1094.15C2036.15 1091.8 2036.25 1091.9 2043.4 1106.35Z" fill="white"/>
<g clip-path="url(#clip1_1_3)">
<path d="M2037 266.5C2013.45 270.1 1996.25 278.65 1979.3 295C1970.25 303.75 1963.1 312.8 1957.6 322.55L1956.05 325.3L1982.85 352.15L2009.7 378.95L2012.45 377.4C2016.8 374.95 2025.9 368.65 2030 365.25C2038.65 358 2049.2 346 2054.85 337C2063.2 323.6 2068.65 305.35 2069.3 288.75C2069.65 279.9 2068.9 281.45 2067.25 292.85C2063.5 319.05 2056.5 334.75 2040.6 352.4C2035.95 357.5 2027.3 365.15 2021.4 369.35C2016.5 372.75 2011 376 2010 376C2008.95 376 1959 325.95 1959 324.85C1959 323.7 1962.9 317.3 1967 311.75C1977.7 297.3 1992.55 284.6 2006.7 277.75C2017.05 272.75 2026.8 270.05 2042.4 267.8C2047 267.1 2051.3 266.35 2052 266.05C2054.15 265.2 2043.4 265.5 2037 266.5Z" fill="white"/>
<path d="M2061.5 266.55C2065.5 267.95 2066.85 269.25 2068.25 273L2069.45 276.25V273.35C2069.5 268 2067.05 265.5 2061.75 265.55L2058.75 265.6L2061.5 266.55Z" fill="white"/>
<path d="M2019.7 288.5C2014.35 289.3 2010.35 291.2 2006.35 294.9C2001.5 299.5 1999 305.35 1999 312.25C1999 319.15 2001.5 325 2006.35 329.6C2011.25 334.15 2016.45 336.2 2023 336.15C2032.4 336.05 2040.2 330.95 2044.4 322.1C2046.2 318.3 2046.25 318.15 2046.25 312.25C2046.25 306.35 2046.2 306.15 2044.4 302.4C2040.45 294.15 2033.5 289.3 2024.25 288.35C2023.15 288.25 2021.1 288.3 2019.7 288.5ZM2032.15 292.45C2036.6 294.55 2040.45 298.4 2042.55 302.85C2044 305.85 2044.25 306.85 2044.4 311.25C2044.55 315.4 2044.4 316.75 2043.55 319.25C2040.35 328.4 2032.4 334 2022.7 334C2013.15 334 2005.15 328.3 2001.95 319.25C2000.55 315.2 2000.8 307.5 2002.45 303.75C2005 298.05 2009.7 293.65 2015.5 291.5C2017.75 290.65 2019.2 290.5 2023.5 290.65C2028.25 290.75 2029.1 290.95 2032.15 292.45Z" fill="white"/>
<path d="M2019.2 299.5C2014.4 301 2010.25 305.9 2009.7 310.8C2008.85 317.7 2014.35 324.5 2021.3 325.3C2028.2 326.15 2035 320.65 2035.8 313.7C2036.65 306.5 2030.95 299.7 2023.65 299.2C2022.05 299.1 2020.05 299.25 2019.2 299.5ZM2029.25 303.4C2035.3 307.65 2035.2 317.2 2029 321.3C2025 323.95 2020.55 323.95 2016.6 321.3C2010.95 317.5 2010.05 309.7 2014.7 304.6C2018.05 300.9 2024.85 300.35 2029.25 303.4Z" fill="white"/>
<path d="M1949 306.2C1942.4 306.85 1939.8 307.75 1937.65 310.1C1937.1 310.7 1932.95 316.75 1928.55 323.5C1923.05 331.85 1920.5 336.2 1920.4 337.25C1920.1 344.2 1921.95 345.95 1931.65 347.5C1935.15 348.05 1938.2 348.5 1938.45 348.5C1938.65 348.5 1939 347.55 1939.2 346.4C1940.7 337.15 1947.15 322.05 1954.1 311.5C1955.85 308.9 1957.4 306.45 1957.65 306.1C1958.1 305.4 1957.75 305.4 1949 306.2ZM1953.15 308.85C1952.95 309.35 1951.7 311.55 1950.3 313.75C1945.3 321.8 1940.6 332.85 1937.75 343.2L1936.95 346.1L1934.35 345.8C1927 344.85 1925.45 344.4 1923.85 342.8C1922.95 341.9 1921.95 340.6 1921.55 339.9C1920.9 338.65 1921.2 338.1 1929.25 325.95C1933.85 318.95 1938.2 312.6 1938.9 311.85C1940.9 309.7 1942.85 308.9 1947 308.5C1953.4 307.9 1953.5 307.9 1953.15 308.85Z" fill="white"/>
<path d="M1950.8 337.55C1947.95 345.6 1946.55 352.9 1947.45 355.6C1947.85 356.75 1952.5 361.75 1963.15 372.35C1980.35 389.5 1979.1 388.7 1986.35 387.3C1990.5 386.45 1999.9 383.65 2000.6 383.05C2000.8 382.85 1990 371.75 1976.55 358.3L1952.15 333.9L1950.8 337.55ZM1975.1 359.85C1986.9 371.65 1996.5 381.5 1996.5 381.85C1996.5 382.6 1991.45 384.2 1985.65 385.35C1982 386.05 1981.25 386.05 1980 385.45C1977.95 384.5 1950.2 356.65 1949.45 354.8C1948.9 353.6 1948.95 352.6 1949.65 349.2C1950.85 343.35 1952.45 338.5 1953.15 338.5C1953.45 338.5 1963.35 348.1 1975.1 359.85Z" fill="white"/>
<path d="M1928.9 373.85C1920.7 382.05 1920.5 382.25 1920.5 384.3C1920.5 386 1920.75 386.65 1921.8 387.45C1924.65 389.7 1925.45 389.25 1934.6 380.15C1942.55 372.25 1943 371.7 1943 369.85C1943 367.4 1941.25 365.5 1938.95 365.5C1937.5 365.5 1936.3 366.5 1928.9 373.85ZM1940.4 368.6C1940.75 368.95 1941 369.65 1941 370.15C1941 371.25 1928 384.7 1925.85 385.85C1924.6 386.5 1924.3 386.5 1923.2 385.75C1922.55 385.35 1922 384.6 1922 384.1C1922 383.6 1925.45 379.8 1929.65 375.6C1937.45 367.9 1938.8 367 1940.4 368.6Z" fill="white"/>
<path d="M2024.05 380.55C2013.35 387.65 1997.75 394.35 1988.65 395.8C1987.45 396 1986.5 396.35 1986.5 396.55C1986.5 396.8 1986.95 399.85 1987.5 403.35C1989.05 413.05 1990.8 414.9 1997.8 414.6C1999.6 414.5 2024.1 398.55 2025.85 396.3C2027.65 394.05 2028.4 391.05 2028.95 384.05C2029.25 380.35 2029.45 377.3 2029.4 377.2C2029.3 377.15 2026.9 378.65 2024.05 380.55ZM2026.75 386.45C2026.35 391.1 2025.3 394.15 2023.45 395.85C2022.25 396.9 1999.15 412.35 1997.1 413.45C1996.2 413.95 1995.7 413.8 1994.05 412.7C1992.95 412 1991.7 410.85 1991.25 410.2C1990.4 408.85 1988.7 399.5 1989.15 398.4C1989.3 397.95 1990.3 397.5 1991.35 397.35C1997.65 396.3 2014.7 389 2022.75 383.85C2024.7 382.65 2026.45 381.75 2026.65 381.85C2026.9 382 2026.95 384.05 2026.75 386.45Z" fill="white"/>
<path d="M1950.25 379C1949.7 379.25 1942.75 385.95 1934.8 393.9C1920.5 408.25 1920.35 408.4 1920.35 410.5C1920.35 413.3 1921.7 414.65 1924.5 414.65C1926.6 414.65 1926.7 414.55 1941.25 400C1949.7 391.55 1956.05 384.8 1956.25 384.1C1956.7 382.35 1955.6 380.1 1953.95 379.25C1952.4 378.4 1951.7 378.35 1950.25 379ZM1953.4 381.6C1954.95 383.15 1953.9 384.4 1939.5 398.75C1931.5 406.75 1924.75 413.3 1924.5 413.4C1923.9 413.6 1921.4 411.1 1921.6 410.5C1921.7 410.25 1928.25 403.5 1936.25 395.5C1950.6 381.1 1951.9 380.1 1953.4 381.6Z" fill="white"/>
<path d="M1954.85 400.4C1945.75 409.55 1945.3 410.35 1947.55 413.2C1948.35 414.25 1949 414.5 1950.7 414.5C1952.75 414.5 1952.95 414.3 1961.15 406.1C1968.5 398.7 1969.5 397.5 1969.5 396.05C1969.5 393.75 1967.6 392 1965.15 392C1963.3 392 1962.75 392.45 1954.85 400.4ZM1966.7 395.05C1967.35 396 1967.35 396.35 1966.75 397.45C1965.85 399.2 1951.85 413 1951 413C1949.95 413 1948.5 411.45 1948.5 410.35C1948.5 408.9 1963.45 394 1964.9 394C1965.45 394 1966.3 394.5 1966.7 395.05Z" fill="white"/>
</g>
<path d="M2274 650.364V651.728L2278.5 651.518L2283 651.308V707.065V762.821L2313.75 762.716L2344.5 762.559V767.647V772.735L2342.75 773.626C2337.55 776.196 2334.75 783.75 2336.6 790.201C2337.35 792.876 2340.7 796.81 2343.25 798.017C2346 799.328 2352 799.328 2354.75 798.017C2357.3 796.81 2360.65 792.876 2361.4 790.201C2363.25 783.75 2360.45 776.196 2355.25 773.626L2353.5 772.735V767.647V762.559L2384.25 762.716L2415 762.821V707.065V651.308L2419.5 651.518L2424 651.728V650.364C2424 649 2423.95 649 2420.55 649C2416.65 649 2414.2 649.734 2413.5 651.098C2413.2 651.728 2413 671.764 2413 705.858C2413 758.468 2413 759.674 2412.05 760.199C2411.4 760.513 2401.15 760.723 2382.3 760.723C2348.25 760.723 2351.5 759.989 2351.5 767.752C2351.5 773.154 2351.5 773.154 2356 776.931C2358.6 779.134 2360 782.176 2360 785.638C2360 790.726 2357.35 794.502 2351.9 797.23L2348.9 798.751L2345.1 796.653C2342 794.922 2341 794.03 2339.8 792.037C2336.85 787.002 2337.6 780.917 2341.65 777.245C2346.9 772.525 2346.5 773.259 2346.5 767.752C2346.5 759.989 2349.85 760.723 2315.35 760.723C2293.35 760.723 2286.05 760.566 2285.6 760.094C2285.15 759.622 2285 746.823 2285 705.753C2285 671.764 2284.8 651.728 2284.5 651.098C2283.8 649.734 2281.35 649 2277.45 649C2274.05 649 2274 649 2274 650.364Z" fill="white"/>
<path d="M2327.3 659.805C2323.85 660.959 2320.9 663.214 2319.1 666.099C2316.9 669.561 2316.35 671.659 2316.6 675.908C2316.9 682.359 2320 686.975 2325.85 689.755C2328.2 690.909 2329.15 691.067 2332.2 690.857C2336.5 690.542 2339.25 689.231 2342.3 685.926C2351.05 676.485 2345.15 660.539 2332.45 659.228C2330.7 659.071 2328.85 659.281 2327.3 659.805ZM2337.5 662.9C2341.65 665.103 2344 668.879 2344.4 674.02C2345 681.992 2339.05 688.864 2331.4 688.864C2327.45 688.864 2322.95 686.398 2320.7 682.989C2312.95 671.082 2325.25 656.396 2337.5 662.9Z" fill="white"/>
<path d="M2328.45 672.027C2326.9 673.653 2326.7 674.806 2327.5 677.062C2328.05 678.583 2330.5 679.894 2332.25 679.527C2335.6 678.898 2336.9 674.072 2334.3 671.764C2332.4 670.033 2330.3 670.138 2328.45 672.027ZM2333.3 674.492C2333.65 675.96 2332.8 677.324 2331.55 677.324C2330.35 677.324 2329.5 676.275 2329.5 674.859C2329.5 672.499 2332.75 672.184 2333.3 674.492Z" fill="white"/>
<path d="M2374.15 664.368C2370.05 668.67 2370.05 669.509 2373.85 673.705C2375.4 675.383 2376.55 676.905 2376.45 677.009C2376.35 677.062 2374.25 677.429 2371.75 677.796C2363.55 679.003 2357.05 682.464 2351.55 688.654C2345.9 694.948 2343.3 701.61 2342.55 711.471C2342.2 716.086 2341.8 717.817 2340.6 720.545C2337.85 726.734 2332.75 730.983 2326.6 732.346C2325.1 732.661 2318.95 732.923 2312.55 732.923C2298.45 732.923 2298.85 732.766 2298.6 739.165C2298.4 743.309 2298.45 743.414 2299.95 745.04L2301.5 746.666L2314.9 746.456C2327.05 746.246 2328.55 746.089 2331.75 745.04C2339.35 742.47 2345.7 737.382 2350.1 730.353C2353.15 725.423 2354.8 719.81 2355.5 712.047C2356.1 704.704 2357.65 700.823 2361.5 697.046C2365.05 693.532 2371.05 690.962 2375.55 690.962C2377.05 690.962 2376.7 691.749 2373.75 695.053C2372 697.046 2371 698.62 2371 699.459C2371 700.928 2374.95 705.858 2377.05 707.012C2378.45 707.746 2378.65 707.694 2380.15 706.75C2382.15 705.439 2399.15 687.5 2400 685.821C2400.3 685.14 2400.45 684.038 2400.3 683.461C2400.15 682.832 2395.45 677.534 2389.85 671.659C2382.4 663.896 2379.4 661.064 2378.5 661.064C2377.75 661.064 2376.25 662.166 2374.15 664.368ZM2389 673.39L2399.25 684.143L2388.85 695.053L2378.4 706.015L2375.35 702.659L2372.3 699.302L2377.3 694.056L2382.35 688.864H2377.95C2368.65 688.864 2362.25 691.853 2357.7 698.357C2355 702.239 2353.95 705.648 2353.45 712.205C2352.75 721.017 2351.1 725.947 2346.75 731.927C2342.95 737.067 2337.75 740.739 2331.25 742.942C2328.1 743.991 2326.45 744.096 2314.15 744.358L2300.5 744.568V739.795V735.022H2312.5C2319.45 735.022 2325.55 734.759 2327.1 734.445C2332.3 733.291 2337.15 729.986 2340.3 725.528C2343 721.646 2344.05 718.237 2344.55 711.68C2344.8 708.481 2345.35 704.599 2345.8 703.078C2348.6 692.902 2356.45 684.51 2366.1 681.206C2369.6 680.052 2371.2 679.842 2376.4 679.737L2382.55 679.685L2377.35 674.334L2372.15 669.037L2375.2 665.837C2376.85 664.054 2378.35 662.638 2378.5 662.638C2378.65 662.638 2383.35 667.463 2389 673.39Z" fill="white"/>
<path d="M2313.25 700.456C2311.7 701.977 2310.15 703.812 2309.75 704.599C2309.15 705.858 2309.15 706.173 2309.95 707.537C2310.45 708.376 2311.35 709.53 2311.95 710.054C2313.35 711.366 2313.3 712.52 2311.7 714.093C2311 714.775 2310.1 715.981 2309.7 716.716C2309.1 718.027 2309.15 718.289 2310.45 720.125C2312.4 722.957 2315.8 726.105 2316.95 726.105C2317.45 726.105 2318.9 725.16 2320.15 724.007C2321.4 722.853 2322.55 721.908 2322.75 721.908C2322.95 721.908 2324.1 722.853 2325.3 724.007C2326.5 725.16 2327.8 726.105 2328.15 726.105C2329.75 726.105 2336 719.653 2336 718.027C2336 717.293 2334.75 715.299 2333.1 713.411L2331.9 711.995L2333.95 709.477C2335.05 708.061 2336 706.54 2336 706.068C2336 704.127 2329.95 697.78 2328.1 697.78C2327.75 697.78 2326.5 698.725 2325.3 699.879C2324.1 701.032 2322.9 701.977 2322.65 701.977C2322.4 701.977 2321.65 701.347 2320.95 700.613C2319.75 699.249 2317.45 697.78 2316.55 697.78C2316.3 697.78 2314.8 698.987 2313.25 700.456ZM2319.7 702.344L2322.45 705.386L2325.35 702.396L2328.3 699.354L2331.4 702.659L2334.55 706.015L2331.65 708.953L2328.75 711.943L2331.65 714.932L2334.55 717.87L2331.4 721.227L2328.3 724.531L2325.35 721.489L2322.45 718.499L2319.75 721.436L2317 724.426L2313.8 721.122L2310.55 717.817L2313.5 714.88L2316.45 711.943L2313.5 709.005L2310.55 706.068L2313.65 702.763C2315.35 700.98 2316.8 699.459 2316.85 699.406C2316.9 699.406 2318.15 700.718 2319.7 702.344Z" fill="white"/>
<path d="M2376.75 717.135C2374.5 718.552 2371 722.905 2371 724.269C2371 724.951 2371.8 726.472 2372.75 727.678C2373.7 728.885 2374.5 730.144 2374.5 730.406C2374.5 730.721 2373.7 731.875 2372.75 732.976C2370.15 735.966 2370.4 737.172 2374.15 741.159C2376.15 743.204 2377.75 744.463 2378.45 744.463C2379.05 744.463 2380.5 743.519 2381.7 742.365C2382.9 741.211 2384 740.267 2384.15 740.267C2384.3 740.267 2385.5 741.211 2386.75 742.365C2388 743.519 2389.45 744.463 2389.95 744.463C2391.15 744.463 2395.15 740.739 2396.55 738.379C2397.8 736.228 2397.55 735.284 2394.95 732.189L2393.35 730.248L2394.85 728.57C2396.85 726.367 2397.65 724.741 2397.25 723.535C2396.85 722.223 2390.75 716.139 2389.85 716.139C2389.45 716.139 2388.05 717.135 2386.75 718.342C2385.15 719.863 2384.2 720.387 2383.75 720.02C2383.45 719.758 2382.2 718.761 2381 717.817C2379.8 716.926 2378.7 716.139 2378.55 716.139C2378.4 716.139 2377.55 716.558 2376.75 717.135ZM2387.05 720.86L2389.75 717.712L2393 721.122L2396.25 724.531L2393.25 727.416L2390.25 730.248L2393.15 733.343L2396 736.385L2392.85 739.637L2389.75 742.889L2386.85 739.9L2384 736.857L2381.25 740.005L2378.5 743.099L2375.25 739.742L2372 736.385L2375 733.396L2378 730.406L2375.15 727.521L2372.25 724.584L2375.25 721.279L2378.25 717.922L2381.3 720.964L2384.3 724.059L2387.05 720.86Z" fill="white"/>
<path d="M1688.99 643.787C1688.24 644.693 1687.6 645.973 1687.6 646.613C1687.6 647.68 1687.17 647.947 1684.61 648.48C1682.96 648.853 1679.6 650.187 1677.09 651.413L1672.61 653.707L1670.59 652.693C1668.08 651.467 1666.43 651.947 1663.44 654.827C1659.81 658.347 1659.07 660.693 1660.93 663.093L1662.05 664.48L1660.72 666.613C1658.96 669.333 1656.72 674.933 1656.29 677.44C1656.08 679.093 1655.76 679.467 1654.75 679.467C1654.11 679.467 1652.83 680.107 1651.92 680.853C1650.32 682.187 1650.27 682.347 1650.27 686.933C1650.27 691.253 1650.37 691.68 1651.65 693.013C1652.56 693.867 1653.68 694.4 1654.59 694.4C1655.81 694.4 1656.13 694.613 1656.13 695.573C1656.19 697.493 1658.59 703.947 1660.4 706.773L1662 709.387L1660.88 710.933C1659.12 713.28 1659.81 715.467 1663.33 718.933C1665.89 721.44 1666.53 721.867 1668.35 721.867C1669.63 721.867 1670.85 721.44 1671.49 720.907C1672.51 720 1672.61 720 1675.17 721.6C1678.05 723.413 1684.51 725.813 1686.43 725.867C1687.23 725.867 1687.6 726.187 1687.6 726.933C1687.6 728.48 1688.99 730.987 1690 731.413C1690.48 731.573 1692.88 731.733 1695.33 731.733C1699.65 731.733 1699.81 731.68 1701.15 730.08C1701.89 729.173 1702.53 727.893 1702.53 727.253C1702.53 726.24 1702.91 725.92 1704.56 725.707C1707.07 725.28 1712.67 723.04 1715.39 721.28C1717.31 720.107 1717.57 720.053 1718.32 720.8C1719.39 721.867 1721.36 722.347 1722.85 721.867C1724.61 721.28 1728.72 717.28 1729.57 715.307C1730.32 713.44 1730.11 711.787 1728.88 710.4C1728.29 709.707 1728.56 708.853 1730.53 704.96C1731.81 702.453 1733.15 699.04 1733.52 697.387C1734.11 694.773 1734.32 694.4 1735.44 694.4C1736.19 694.4 1737.47 693.707 1738.32 692.853C1739.76 691.36 1739.87 691.04 1739.87 686.933C1739.87 682.827 1739.76 682.507 1738.32 681.013C1737.47 680.16 1736.19 679.467 1735.44 679.467C1734.32 679.467 1734.11 679.093 1733.52 676.587C1733.15 675.04 1731.81 671.627 1730.53 669.013C1728.51 665.013 1728.29 664.213 1728.88 663.467C1730.05 662.187 1730.32 660.533 1729.73 658.933C1728.93 656.907 1724.08 652.267 1722.64 652.213C1720.56 652.107 1719.33 652.373 1718.53 653.12C1717.79 653.76 1717.04 653.493 1712.99 651.467C1710.37 650.187 1706.96 648.853 1705.41 648.48C1702.91 647.893 1702.53 647.68 1702.53 646.56C1702.53 645.813 1701.84 644.533 1700.99 643.68C1699.49 642.24 1699.17 642.133 1694.91 642.133C1690.48 642.133 1690.32 642.187 1688.99 643.787ZM1699.33 645.333C1699.92 645.92 1700.4 646.72 1700.4 647.093C1700.4 648.373 1702.75 649.973 1705.84 650.88C1707.49 651.36 1710.53 652.587 1712.51 653.653C1716.19 655.573 1716.4 655.573 1720.99 654.667C1722.43 654.347 1723.01 654.613 1724.83 656.267C1727.55 658.667 1727.87 659.627 1727.07 662.827C1726.43 665.227 1726.48 665.493 1728.13 668.8C1729.09 670.72 1730.43 673.92 1731.12 675.947C1732.45 679.787 1733.63 681.6 1734.91 681.6C1735.28 681.6 1736.08 682.08 1736.67 682.667C1737.52 683.52 1737.73 684.427 1737.73 687.147C1737.73 690.773 1737.52 691.2 1734.37 692.747C1732.93 693.493 1732.4 694.293 1731.01 698.133C1730.16 700.64 1728.72 703.947 1727.92 705.547C1726.91 707.467 1726.53 708.907 1726.75 709.813C1727.81 714.88 1727.87 714.507 1725.31 717.067C1722.8 719.627 1721.68 719.893 1718.69 718.827C1717.04 718.24 1716.56 718.347 1712.24 720.427C1709.68 721.653 1706.27 723.093 1704.67 723.627C1702.21 724.373 1701.57 724.853 1700.4 726.933L1699.01 729.333L1695.39 729.493C1692.56 729.6 1691.49 729.44 1690.75 728.747C1690.16 728.267 1689.73 727.573 1689.73 727.2C1689.73 726.027 1686.8 723.84 1684.4 723.2C1683.07 722.88 1680.03 721.6 1677.57 720.427C1673.41 718.4 1672.99 718.293 1671.12 718.88C1667.92 719.84 1667.17 719.627 1664.77 717.173C1662.43 714.773 1662 713.173 1663.17 710.72C1663.71 709.547 1663.49 708.747 1661.63 704.693C1660.4 702.08 1659.12 698.933 1658.75 697.6C1658.05 695.147 1655.92 692.267 1654.8 692.267C1654.43 692.267 1653.73 691.84 1653.25 691.253C1652.56 690.507 1652.4 689.44 1652.51 686.613L1652.67 682.987L1655.01 681.6C1657.25 680.32 1657.52 679.893 1659.07 675.467C1660.03 672.8 1661.47 669.387 1662.27 667.84C1663.6 665.28 1663.71 664.8 1663.17 663.253C1662.05 660.16 1662.37 658.987 1664.99 656.533C1667.01 654.667 1667.65 654.347 1668.99 654.613C1669.84 654.773 1671.23 655.093 1672.03 655.253C1673.15 655.467 1674.59 655.04 1677.31 653.707C1679.33 652.64 1682.43 651.413 1684.13 650.933C1687.28 649.973 1689.73 648.16 1689.73 646.72C1689.73 644.267 1697.2 643.2 1699.33 645.333Z" fill="white"/>
<path d="M1687.87 655.787C1675.97 658.293 1666.59 667.627 1663.81 679.733C1662.64 684.747 1663.01 692.907 1664.61 697.28C1668.61 708.48 1678.32 716.747 1689.89 718.72C1711.81 722.507 1730.91 702.4 1726.27 680.267C1722.64 662.827 1705.68 652.053 1687.87 655.787ZM1701.63 657.867C1712.83 660.213 1721.79 669.173 1724.13 680.373C1726.37 690.987 1723.65 700.48 1716.13 708.053C1710.16 714.027 1703.55 716.8 1695.07 716.8C1686.48 716.8 1680.13 714.133 1674 708C1667.92 701.973 1665.2 695.52 1665.2 687.2C1665.2 667.52 1682.32 653.76 1701.63 657.867Z" fill="white"/>
<path d="M1690.53 662.4C1680.77 664.427 1673.25 671.413 1670.8 680.8C1667.97 691.787 1673.41 704 1683.39 709.013C1696.83 715.733 1713.47 709.547 1718.27 696C1720.72 689.067 1720.35 682.347 1717.25 675.947C1712.4 666.133 1700.88 660.32 1690.53 662.4ZM1688.08 666.56C1681.79 670.56 1678.64 678.667 1681.89 682.453C1684.29 685.227 1688.67 683.68 1689.52 679.787C1690.05 677.173 1691.44 675.253 1693.2 674.667C1696.67 673.547 1700.13 676.107 1700.03 679.733C1699.97 682.027 1699.33 682.827 1695.81 685.067C1692.29 687.307 1690.64 690.027 1690.59 693.44C1690.53 695.787 1690.75 696.267 1692.29 697.653C1693.25 698.507 1694.43 699.2 1694.96 699.2C1696.45 699.2 1698.21 697.707 1699.33 695.413C1699.92 694.293 1701.36 692.747 1702.48 692.053C1708.45 688.267 1710.91 681.12 1708.45 674.667C1707.07 671.04 1705.04 668.48 1702.11 666.613C1698.85 664.533 1700.67 664.587 1705.09 666.667C1709.47 668.747 1713.36 672.64 1715.49 677.227C1716.93 680.213 1717.2 681.547 1717.36 685.493C1717.47 688.107 1717.31 691.307 1716.93 692.693C1714.75 701.333 1707.65 708 1699.39 709.12C1697.89 709.333 1696.67 709.333 1696.67 709.173C1696.67 709.013 1697.25 708.267 1698 707.52C1699.87 705.653 1699.76 703.307 1697.79 701.28C1695.92 699.413 1694.64 699.36 1692.72 700.853C1689.89 703.04 1689.89 705.173 1692.61 708.213L1693.73 709.493L1690.8 709.173C1681.79 708.107 1674.21 700.373 1672.51 690.4C1670.91 680.96 1675.87 671.307 1684.51 666.933C1689.2 664.587 1691.6 664.373 1688.08 666.56ZM1700.99 668.64C1709.47 673.227 1709.47 685.653 1700.93 690.4C1698.59 691.68 1697.95 692.373 1697.68 693.76C1697.04 696.907 1695.01 698.027 1693.25 696.213C1690.96 693.973 1692.93 689.227 1697.2 686.72C1700.61 684.693 1702 682.987 1702.32 680.213C1703.01 674.72 1696.77 670.24 1691.97 672.747C1689.68 673.973 1688.13 675.947 1687.76 678.187C1687.17 681.92 1684.72 683.36 1683.07 680.853C1682 679.253 1682.75 675.36 1684.67 672.427C1687.97 667.413 1695.6 665.653 1700.99 668.64ZM1696.93 703.147C1698.59 705.6 1695.6 708.32 1693.41 706.347C1692.19 705.227 1692.13 704.107 1693.31 702.827C1694.48 701.493 1695.97 701.6 1696.93 703.147Z" fill="white"/>
<path d="M1649.41 668.533C1630.53 673.333 1616.29 688.48 1612.99 707.413C1612.67 709.173 1612.4 711.573 1612.4 712.747C1612.4 714.613 1611.44 716.48 1606.27 724.747C1599.39 735.787 1599.07 736.907 1601.68 739.84C1603.23 741.6 1603.33 741.6 1607.81 741.547H1612.4V751.573C1612.4 762.613 1612.56 763.467 1615.76 766.827C1617.95 769.067 1621.52 770.133 1627.23 770.133C1631.6 770.133 1631.76 770.187 1633.52 771.947C1635.28 773.707 1635.33 773.92 1635.33 777.813V781.867H1661.09H1686.8V771.04C1686.8 758.24 1686.96 757.76 1692.24 753.493C1694.16 751.947 1697.25 748.747 1699.12 746.4C1703.23 741.28 1708.99 730.133 1707.49 730.133C1707.23 730.133 1706.59 730.987 1706 732.053C1705.41 733.12 1704.03 734.613 1702.91 735.36C1701.15 736.533 1700.08 736.8 1695.87 736.96C1689.73 737.227 1686.91 736.213 1684.4 732.747C1683.07 730.827 1682 730.133 1678.53 728.747C1676.19 727.84 1674 726.827 1673.63 726.56C1673.2 726.24 1672.45 726.187 1671.87 726.453C1670.32 727.04 1666.59 727.04 1664.83 726.347C1662.69 725.547 1656.24 719.04 1655.55 716.96C1655.28 716 1655.07 713.6 1655.12 711.627C1655.23 708.533 1654.96 707.36 1653.36 703.573C1651.81 700.053 1651.01 698.88 1649.2 697.547C1645.84 695.093 1644.77 692.267 1645.04 686.187C1645.2 681.867 1645.36 680.96 1646.69 678.987C1647.49 677.76 1648.99 676.373 1650 675.893C1651.01 675.413 1651.87 674.773 1651.87 674.453C1651.87 674.133 1652.45 672.427 1653.2 670.72C1653.89 668.96 1654.43 667.467 1654.37 667.413C1654.32 667.36 1652.08 667.84 1649.41 668.533ZM1650.27 671.787C1650.27 672.213 1649.15 673.6 1647.81 674.827C1644.29 678.027 1643.17 680.48 1642.91 685.76C1642.59 692.053 1643.39 694.453 1647.12 698.4C1651.28 702.773 1653.36 707.787 1653.04 712.427C1652.72 716.853 1654.43 720.427 1658.85 724.48C1663.07 728.373 1665.04 729.227 1669.36 728.907C1672.29 728.693 1673.2 728.853 1676.77 730.4C1679.44 731.573 1681.79 733.12 1683.55 734.827C1687.65 738.773 1689.36 739.36 1695.92 739.093C1698.96 738.987 1701.47 739.04 1701.47 739.253C1701.47 740.427 1695.49 747.68 1691.44 751.36C1684.99 757.227 1684.83 757.76 1684.45 769.867L1684.13 779.467H1660.93H1637.73L1637.41 776.373C1637.04 772.96 1635.92 771.04 1633.31 769.28C1632.03 768.373 1630.53 768.107 1626.37 767.893C1620.56 767.573 1618.64 766.827 1616.45 764.267C1614.59 762.027 1614.53 761.6 1614.37 751.093C1614.27 742.347 1614.21 741.813 1613.04 740.693C1612.08 739.68 1611.12 739.467 1607.87 739.307C1604.51 739.093 1603.71 738.88 1603.07 737.973C1602.64 737.333 1602.27 736.427 1602.27 736C1602.27 735.253 1607.97 725.547 1611.65 720C1613.57 717.067 1614.37 714.72 1614.75 710.667C1616.19 694.24 1627.6 679.147 1643.49 672.747C1648.35 670.773 1650.27 670.507 1650.27 671.787Z" fill="white"/>
</g>
<defs>
<clipPath id="clip0_1_3">
<rect width="4000" height="2250" fill="white"/>
</clipPath>
<clipPath id="clip1_1_3">
<rect width="150" height="150" fill="white" transform="translate(1920 265)"/>
</clipPath>
</defs>
</svg>
