<svg xmlns="http://www.w3.org/2000/svg" width="748" height="459" fill="none"><path fill="url(#a)" d="M467.074 298.51h-22.176v56.114h22.176z"/><path fill="url(#b)" d="M382.683 458.457c201.345 0 364.566-24.845 364.566-55.494s-163.221-55.494-364.566-55.494-364.566 24.845-364.566 55.494 163.222 55.494 364.566 55.494" opacity=".4"/><path fill="url(#c)" d="M414.801 287.344h-68.113l11.341-47.299h45.431z"/><path fill="url(#d)" d="m244.983 211.988-60.831 188.173h22.335l51.328-130.002 63.679-46.663-33.741-5.34-34.928 28.203 11.165-34.371z"/><path fill="url(#e)" d="m513.964 211.988 60.831 188.173H552.46l-51.327-130.002-63.68-46.663 33.742-5.34 34.927 28.203-11.165-34.371z"/><path fill="url(#f)" d="m479.613 108.633 44.038 132.499h-19.962l-30.731-91.663-36.435-19.096 14.89-7.05 26.297 13.218-8.238-25.264 11.883-2.644"/><path fill="url(#g)" d="m280.909 103.434-44.038 132.499h19.962l30.731-91.663 36.435-19.096-14.89-7.051-26.296 13.219 8.234-25.264-11.879-2.644"/><path fill="url(#h)" d="M664.756 207.895c0 3.879-1.066 7.758-3.193 11.281l-1.066 1.762-1.748 2.856c-4.145 6.874-11.748 11.316-20.224 11.773-14.18.777-40.604-2.113-89.08-17.203 0 0-22.507-9.167-117.972 32.753a26.5 26.5 0 0 1-10.721 2.258l-43.797.035h-43.796c-3.686 0-7.376-.777-10.721-2.258-95.542-41.952-118.011-32.788-118.011-32.788-48.472 15.09-74.896 17.98-89.076 17.203-8.479-.457-16.082-4.902-20.227-11.738l-1.748-2.891-1.066-1.727c-3.686-6.062-4.145-13.254-1.52-19.53.837-2.117 2.051-4.125 3.61-5.958v-.035c3.382-4.019 8.096-6.91 13.42-8.179 36.307-8.672 83.528-8.886 97.935-8.707.838 0 1.559.035 2.169.035 1.445 0 2.89.176 4.297.422 44.062 7.968 68.738 7.297 82.082 4.937 4.98-.883 8.366-1.973 10.645-2.961 3.459-1.48 7.187-2.363 10.949-2.363h122.079c3.762 0 7.49.883 10.948 2.363 2.28.988 5.666 2.078 10.645 2.961 13.345 2.363 38.018 3.031 82.083-4.937 1.407-.246 2.852-.422 4.297-.422 1.331-.035 3.193-.07 5.551-.035 17.414-.106 60.718.636 94.552 8.707 5.325 1.269 10.038 4.16 13.421 8.179 1.786 2.152 3.155 4.512 4.031 6.981a21.6 21.6 0 0 1 1.252 7.226"/><path fill="url(#i)" d="M598.976 74.16c-2.321 5.394-7.565 9.237-13.762 10.082l-66.493 9.202-60.831 37.441 4.22 51.331H296.845l4.22-51.331-60.831-37.44-65.279-9.024c-6.959-.953-12.852-5.29-15.473-11.352a13.7 13.7 0 0 1-1.103-5.43c0-.28 0-.597.076-.882.227-3.984 2.245-7.863 5.741-10.507l.493-.352c6.614-5.007 15.245-7.191 23.724-6.027l54.214 7.437 1.521.563 81.624 30.285 20.418-31.73h66.531l20.455 31.73 81.169-30.11 1.976-.738 61.59-8.46 5.893-.813 2.396 1.797 7.49 5.64a16.34 16.34 0 0 1 5.097 6.204 15.06 15.06 0 0 1 .189 12.484"/><path fill="url(#j)" d="M213.735 181.122c.952 7.015-26.155 15.969-60.603 20.059-26.993 3.172-50.452 2.398-59.804-1.481.838-2.117 2.052-4.125 3.61-5.957v-.035c3.383-4.02 8.097-6.91 13.421-8.18 36.307-8.672 83.528-8.886 97.935-8.707 3.272 1.129 5.214 2.574 5.441 4.301" opacity=".8"/><path fill="url(#k)" d="M244.147 57.871c-8.021 2.54-22.052 4.23-37.979 4.23-19.086 0-35.397-2.433-41.973-5.85l.821-.618c6.431-4.841 14.755-6.955 22.948-5.833l54.666 7.509z" opacity=".8"/><path fill="url(#l)" d="M449.655 287.344H297.262v70.804h152.393z"/><path fill="url(#m)" d="M453.773 310.26h-99.8v56.115h99.8z"/><path fill="url(#n)" d="m297.261 358.148-13.624-9.9v-51.001l13.624-9.903z"/><path fill="url(#o)" d="M392.307 316.428H361.18v25.558h31.127z"/><path stroke="url(#p)" stroke-miterlimit="10" stroke-width="1.103" d="M392.307 316.428H361.18v25.558h31.127z"/><path fill="#C3C4C6" d="M444.344 332.515c0 9.248-8.086 16.746-18.059 16.746-9.972 0-18.058-7.498-18.058-16.746s8.086-16.745 18.058-16.745c9.973 0 18.059 7.495 18.059 16.745"/><path fill="url(#q)" d="M444.344 332.515c0 9.248-8.086 16.746-18.059 16.746-9.972 0-18.058-7.498-18.058-16.746s8.086-16.745 18.058-16.745c9.973 0 18.059 7.495 18.059 16.745"/><path fill="url(#r)" d="M383.873 355.321c0 4.32-3.776 7.822-8.435 7.822-4.658 0-8.434-3.502-8.434-7.822s3.776-7.821 8.434-7.821c4.659 0 8.435 3.501 8.435 7.821"/><path fill="url(#s)" d="M438.165 332.516c0 6.085-5.321 11.019-11.879 11.019-6.563 0-11.88-4.934-11.88-11.019s5.321-11.016 11.88-11.016c6.562-.003 11.879 4.931 11.879 11.016"/><path fill="#fff" d="M375.438 360.334c2.986 0 5.407-2.244 5.407-5.013 0-2.77-2.421-5.014-5.407-5.014s-5.407 2.244-5.407 5.014 2.421 5.013 5.407 5.013" opacity=".7"/><path fill="#C3C4C6" d="M412.735 56.426h-66.524v84.017h66.524z" opacity=".4"/><path fill="url(#t)" d="m346.21 56.426-20.435 31.73-4.279 87.256 24.714-34.963z"/><path fill="url(#u)" d="m346.21 56.426-20.435 31.73-4.279 87.256 24.714-34.963z" opacity=".8"/><path fill="url(#v)" d="m436.795 174.05-57.941 1.48h-.038l-57.976-1.48 24.71-34.976h66.535z" opacity=".4"/><path fill="url(#w)" d="M666.043 200.688c-10.721 2.996-32.356 3.383-56.876.492-34.445-4.089-61.552-13.043-60.604-20.058.228-1.727 2.166-3.172 5.476-4.301 17.414-.105 60.717.636 94.552 8.707 5.324 1.27 10.038 4.16 13.421 8.18 1.786 2.148 3.155 4.511 4.031 6.98" opacity=".8"/><path fill="url(#x)" d="M598.786 61.68c-7.68 2.82-22.507 4.723-39.5 4.723-23.611 0-42.962-3.668-44.938-8.356l1.976-.738 61.589-8.461c2.928.281 5.704.6 8.29.988l7.49 5.64a16.3 16.3 0 0 1 5.093 6.204" opacity=".8"/><path fill="#fff" d="m412.742 56.426 20.435 31.73 4.279 87.256-24.714-34.963z" opacity=".3"/><path fill="url(#y)" d="M141.074 158.346h-13.148l3.962-25.856h5.227z"/><path fill="url(#z)" d="M268.74 121.615c.359 3.146-59.386 11.562-133.441 18.795S.923 150.956.564 147.81c-.359-3.147 59.386-11.563 133.442-18.796 74.055-7.233 134.376-10.546 134.734-7.399"/><path fill="url(#A)" d="M268.608 147.046c-.335 3.149-60.68.188-134.783-6.613C59.721 133.632-.765 119.402.259 122.418c2.19 6.44 61.183 2.417 134.783 6.612 74.324 4.237 133.904 14.866 133.566 18.016"/><path fill="url(#B)" d="M148.28 193.379h-27.562c-5.379 0-9.741-4.045-9.741-9.034v-25.999h47.048v25.999c0 4.989-4.362 9.034-9.745 9.034"/><path fill="url(#C)" d="M206.637 57.615h-21.379c-4.304 0-7.797-3.236-7.797-7.23V30.085h36.969v20.302c.003 3.993-3.49 7.23-7.793 7.23"/><path fill="url(#D)" d="M201.112 30.087h-10.331l3.111-20.317h4.11z"/><path fill="url(#E)" d="M301.48 6.825c.279 2.471-46.662 9.084-104.852 14.77-58.19 5.682-105.59 8.288-105.869 5.813-.283-2.472 46.662-9.085 104.852-14.77 58.19-5.682 105.59-8.285 105.869-5.813"/><path fill="url(#F)" d="M301.38 26.81c-.266 2.475-47.68.147-105.907-5.196C137.245 16.271 90.259 9.934 90.521 7.458c.265-2.475 47.679-.147 105.907 5.196 58.227 5.344 105.214 11.681 104.952 14.156"/><path fill="url(#G)" d="M598.835 189.455h29.862c4.745 0 8.594-3.569 8.594-7.969v-27.064h-47.049v27.064c0 4.4 3.848 7.969 8.593 7.969"/><path fill="url(#H)" d="M607.195 154.422h13.145l-3.958-25.856h-5.228z"/><path fill="url(#I)" d="M479.314 117.107c-.359 3.147 59.386 11.563 133.442 18.796 74.055 7.233 134.376 10.545 134.734 7.399s-59.386-11.563-133.441-18.796-134.38-10.545-134.735-7.399"/><path fill="url(#J)" d="M479.443 142.54c.334 3.149 60.679.188 134.783-6.613s133.9-14.865 133.566-18.015c-.338-3.15-60.68-.189-134.783 6.613-74.104 6.801-133.904 14.865-133.566 18.015"/><path fill="url(#K)" d="M558.967 59.07h21.703c4.214 0 7.635-3.168 7.635-7.08V31.54h-36.969v20.45c0 3.912 3.417 7.08 7.631 7.08"/><path fill="url(#L)" d="M564.652 31.54h10.331l-3.11-20.313h-4.107z"/><path fill="url(#M)" d="M464.337.934c-.283 2.472 46.662 9.084 104.852 14.77 58.19 5.682 105.59 8.288 105.869 5.813.28-2.472-46.662-9.084-104.852-14.767C512.017 1.065 464.617-1.538 464.337.934"/><path fill="url(#N)" d="M464.439 20.92c.265 2.474 47.679.147 105.907-5.197 58.227-5.343 105.217-11.68 104.952-14.155s-47.68-.147-105.907 5.196c-58.228 5.343-105.214 11.68-104.952 14.156"/><path fill="url(#O)" d="m663.04 220.961-1.749 2.855c-4.144 6.875-11.748 11.317-20.224 11.774-14.179.777-40.603-2.114-89.079-17.203 0 0-22.507-9.168-117.973 32.753a26.5 26.5 0 0 1-10.721 2.257l-43.796.035h-43.797c-3.686 0-7.376-.777-10.721-2.257-95.541-41.953-118.01-32.788-118.01-32.788-48.473 15.089-74.897 17.98-89.076 17.203-8.479-.457-16.083-4.902-20.228-11.739l-1.748-2.89c23.762 2.574 65.507 1.023 129.111-21.328 0 0 78.889 19.39 154.431 19.39 75.583 0 154.469-19.39 154.469-19.39 63.604 22.348 105.349 23.899 129.111 21.328" opacity=".5"/><path fill="url(#P)" d="m312.161 111.669-11.1 19.215-60.831-37.441-65.279-9.024c-6.959-.953-12.852-5.288-15.473-11.351a13.7 13.7 0 0 1-1.103-5.43c0-.281 0-.598.076-.882 15.396 4.3 51.438 12.761 88.735 9.66z" opacity=".5"/><path fill="url(#Q)" d="m446.785 111.669 11.1 19.215 60.831-37.441 65.28-9.024c6.958-.953 12.851-5.288 15.472-11.351a13.6 13.6 0 0 0 1.104-5.43c0-.281 0-.598-.076-.882-15.397 4.3-51.438 12.761-88.735 9.66z" opacity=".5"/><defs><linearGradient id="a" x1="435.889" x2="472.768" y1="345.425" y2="305.181" gradientUnits="userSpaceOnUse"><stop stop-color="#424242"/><stop offset=".102" stop-color="#363636"/><stop offset=".229" stop-color="#212121"/><stop offset=".53" stop-color="#616161"/><stop offset=".586" stop-color="#555"/><stop offset=".688" stop-color="#353535"/><stop offset=".744" stop-color="#212121"/><stop offset="1" stop-color="#212121"/></linearGradient><linearGradient id="c" x1="346.686" x2="414.803" y1="263.695" y2="263.695" gradientUnits="userSpaceOnUse"><stop stop-color="#424242"/><stop offset=".102" stop-color="#363636"/><stop offset=".229" stop-color="#212121"/><stop offset=".53" stop-color="#616161"/><stop offset=".586" stop-color="#555"/><stop offset=".688" stop-color="#353535"/><stop offset=".744" stop-color="#212121"/><stop offset="1" stop-color="#212121"/></linearGradient><linearGradient id="d" x1="184.152" x2="321.495" y1="306.074" y2="306.074" gradientUnits="userSpaceOnUse"><stop stop-color="#424242"/><stop offset=".102" stop-color="#363636"/><stop offset=".229" stop-color="#212121"/><stop offset=".53" stop-color="#616161"/><stop offset=".586" stop-color="#555"/><stop offset=".688" stop-color="#353535"/><stop offset=".744" stop-color="#212121"/><stop offset="1" stop-color="#212121"/></linearGradient><linearGradient id="e" x1="437.452" x2="574.795" y1="306.074" y2="306.074" gradientUnits="userSpaceOnUse"><stop stop-color="#424242"/><stop offset=".102" stop-color="#363636"/><stop offset=".229" stop-color="#212121"/><stop offset=".53" stop-color="#616161"/><stop offset=".586" stop-color="#555"/><stop offset=".688" stop-color="#353535"/><stop offset=".744" stop-color="#212121"/><stop offset="1" stop-color="#212121"/></linearGradient><linearGradient id="f" x1="436.524" x2="523.65" y1="174.881" y2="174.881" gradientUnits="userSpaceOnUse"><stop stop-color="#424242"/><stop offset=".102" stop-color="#363636"/><stop offset=".229" stop-color="#212121"/><stop offset=".53" stop-color="#616161"/><stop offset=".586" stop-color="#555"/><stop offset=".688" stop-color="#353535"/><stop offset=".744" stop-color="#212121"/><stop offset="1" stop-color="#212121"/></linearGradient><linearGradient id="g" x1="236.761" x2="343.041" y1="180.254" y2="112.864" gradientUnits="userSpaceOnUse"><stop stop-color="#424242"/><stop offset=".102" stop-color="#363636"/><stop offset=".229" stop-color="#212121"/><stop offset=".53" stop-color="#616161"/><stop offset=".586" stop-color="#555"/><stop offset=".688" stop-color="#353535"/><stop offset=".744" stop-color="#212121"/><stop offset="1" stop-color="#212121"/></linearGradient><linearGradient id="h" x1="171.554" x2="546.477" y1="222.271" y2="198.367" gradientUnits="userSpaceOnUse"><stop stop-color="#424242"/><stop offset=".125" stop-color="#363636"/><stop offset=".279" stop-color="#212121"/><stop offset=".569" stop-color="#616161"/><stop offset=".683" stop-color="#555"/><stop offset=".887" stop-color="#353535"/><stop offset="1" stop-color="#212121"/></linearGradient><linearGradient id="i" x1="158.378" x2="600.239" y1="115.125" y2="115.125" gradientUnits="userSpaceOnUse"><stop stop-color="#424242"/><stop offset=".102" stop-color="#363636"/><stop offset=".229" stop-color="#212121"/><stop offset=".53" stop-color="#616161"/><stop offset=".586" stop-color="#555"/><stop offset=".688" stop-color="#353535"/><stop offset=".744" stop-color="#212121"/><stop offset="1" stop-color="#212121"/></linearGradient><linearGradient id="j" x1="93.329" x2="213.759" y1="189.97" y2="189.97" gradientUnits="userSpaceOnUse"><stop stop-color="#424242"/><stop offset=".125" stop-color="#363636"/><stop offset=".279" stop-color="#212121"/><stop offset=".569" stop-color="#616161"/><stop offset=".683" stop-color="#555"/><stop offset=".887" stop-color="#353535"/><stop offset="1" stop-color="#212121"/></linearGradient><linearGradient id="k" x1="164.194" x2="244.147" y1="55.804" y2="55.804" gradientUnits="userSpaceOnUse"><stop stop-color="#424242"/><stop offset=".125" stop-color="#363636"/><stop offset=".279" stop-color="#212121"/><stop offset=".569" stop-color="#616161"/><stop offset=".683" stop-color="#555"/><stop offset=".887" stop-color="#353535"/><stop offset="1" stop-color="#212121"/></linearGradient><linearGradient id="l" x1="297.26" x2="449.652" y1="322.747" y2="322.747" gradientUnits="userSpaceOnUse"><stop stop-color="#424242"/><stop offset=".102" stop-color="#363636"/><stop offset=".229" stop-color="#212121"/><stop offset=".53" stop-color="#616161"/><stop offset=".586" stop-color="#555"/><stop offset=".688" stop-color="#353535"/><stop offset=".744" stop-color="#212121"/><stop offset="1" stop-color="#212121"/></linearGradient><linearGradient id="m" x1="376.717" x2="438.535" y1="360.485" y2="301.795" gradientUnits="userSpaceOnUse"><stop stop-color="#F5F5F5"/><stop offset=".119" stop-color="silver"/><stop offset=".226" stop-color="#979797"/><stop offset=".311" stop-color="#7E7E7E"/><stop offset=".362" stop-color="#757575"/><stop offset=".402" stop-color="#7D7D7D"/><stop offset=".462" stop-color="#929292"/><stop offset=".536" stop-color="#B5B5B5"/><stop offset=".62" stop-color="#E5E5E5"/><stop offset=".645" stop-color="#F5F5F5"/><stop offset=".697" stop-color="#EAEAEA"/><stop offset=".787" stop-color="#CDCDCD"/><stop offset=".906" stop-color="#9E9E9E"/><stop offset=".996" stop-color="#757575"/></linearGradient><linearGradient id="n" x1="267.234" x2="308.427" y1="352.255" y2="301.576" gradientUnits="userSpaceOnUse"><stop stop-color="#424242"/><stop offset=".102" stop-color="#363636"/><stop offset=".229" stop-color="#212121"/><stop offset=".53" stop-color="#616161"/><stop offset=".586" stop-color="#555"/><stop offset=".688" stop-color="#353535"/><stop offset=".744" stop-color="#212121"/><stop offset="1" stop-color="#212121"/></linearGradient><linearGradient id="o" x1="360.039" x2="392.632" y1="341.729" y2="313.321" gradientUnits="userSpaceOnUse"><stop stop-color="#B3E5FC"/><stop offset=".143" stop-color="#BEE9FC"/><stop offset=".392" stop-color="#DBF3FE"/><stop offset=".438" stop-color="#E1F5FE"/><stop offset=".683" stop-color="#0277BD"/><stop offset=".996" stop-color="#80D8FF"/></linearGradient><linearGradient id="p" x1="359.279" x2="394.209" y1="329.209" y2="329.209" gradientUnits="userSpaceOnUse"><stop stop-color="#424242"/><stop offset=".102" stop-color="#363636"/><stop offset=".229" stop-color="#212121"/><stop offset=".53" stop-color="#616161"/><stop offset=".586" stop-color="#555"/><stop offset=".688" stop-color="#353535"/><stop offset=".744" stop-color="#212121"/><stop offset="1" stop-color="#212121"/></linearGradient><linearGradient id="q" x1="408.94" x2="447.239" y1="345.98" y2="311.403" gradientUnits="userSpaceOnUse"><stop stop-color="#424242"/><stop offset=".125" stop-color="#363636"/><stop offset=".279" stop-color="#212121"/><stop offset=".569" stop-color="#616161"/><stop offset=".683" stop-color="#555"/><stop offset=".887" stop-color="#353535"/><stop offset="1" stop-color="#212121"/></linearGradient><linearGradient id="r" x1="362.413" x2="390.544" y1="360.46" y2="347.551" gradientUnits="userSpaceOnUse"><stop stop-color="#424242"/><stop offset=".102" stop-color="#363636"/><stop offset=".229" stop-color="#212121"/><stop offset=".53" stop-color="#616161"/><stop offset=".586" stop-color="#555"/><stop offset=".688" stop-color="#353535"/><stop offset=".744" stop-color="#212121"/><stop offset="1" stop-color="#212121"/></linearGradient><linearGradient id="s" x1="414.405" x2="438.167" y1="332.515" y2="332.515" gradientUnits="userSpaceOnUse"><stop stop-color="#424242"/><stop offset=".125" stop-color="#363636"/><stop offset=".279" stop-color="#212121"/><stop offset=".569" stop-color="#616161"/><stop offset=".683" stop-color="#555"/><stop offset=".887" stop-color="#353535"/><stop offset="1" stop-color="#212121"/></linearGradient><linearGradient id="t" x1="306.783" x2="375.41" y1="137.991" y2="72.916" gradientUnits="userSpaceOnUse"><stop stop-color="#424242"/><stop offset=".125" stop-color="#363636"/><stop offset=".279" stop-color="#212121"/><stop offset=".569" stop-color="#616161"/><stop offset=".683" stop-color="#555"/><stop offset=".887" stop-color="#353535"/><stop offset="1" stop-color="#212121"/></linearGradient><linearGradient id="u" x1="306.783" x2="375.41" y1="137.991" y2="72.916" gradientUnits="userSpaceOnUse"><stop stop-color="#424242"/><stop offset=".125" stop-color="#363636"/><stop offset=".279" stop-color="#212121"/><stop offset=".569" stop-color="#616161"/><stop offset=".683" stop-color="#555"/><stop offset=".887" stop-color="#353535"/><stop offset="1" stop-color="#212121"/></linearGradient><linearGradient id="v" x1="320.839" x2="436.796" y1="157.302" y2="157.302" gradientUnits="userSpaceOnUse"><stop stop-color="#424242"/><stop offset=".125" stop-color="#363636"/><stop offset=".279" stop-color="#212121"/><stop offset=".569" stop-color="#616161"/><stop offset=".683" stop-color="#555"/><stop offset=".887" stop-color="#353535"/><stop offset="1" stop-color="#212121"/></linearGradient><linearGradient id="w" x1="548.541" x2="666.043" y1="189.983" y2="189.983" gradientUnits="userSpaceOnUse"><stop stop-color="#424242"/><stop offset=".125" stop-color="#363636"/><stop offset=".279" stop-color="#212121"/><stop offset=".569" stop-color="#616161"/><stop offset=".683" stop-color="#555"/><stop offset=".887" stop-color="#353535"/><stop offset="1" stop-color="#212121"/></linearGradient><linearGradient id="x" x1="514.346" x2="598.786" y1="57.624" y2="57.624" gradientUnits="userSpaceOnUse"><stop stop-color="#424242"/><stop offset=".125" stop-color="#363636"/><stop offset=".279" stop-color="#212121"/><stop offset=".569" stop-color="#616161"/><stop offset=".683" stop-color="#555"/><stop offset=".887" stop-color="#353535"/><stop offset="1" stop-color="#212121"/></linearGradient><linearGradient id="y" x1="127.927" x2="141.075" y1="145.417" y2="145.417" gradientUnits="userSpaceOnUse"><stop stop-color="#424242"/><stop offset=".125" stop-color="#363636"/><stop offset=".279" stop-color="#212121"/><stop offset=".569" stop-color="#616161"/><stop offset=".683" stop-color="#555"/><stop offset=".887" stop-color="#353535"/><stop offset="1" stop-color="#212121"/></linearGradient><linearGradient id="B" x1="110.976" x2="158.024" y1="175.861" y2="175.861" gradientUnits="userSpaceOnUse"><stop stop-color="#424242"/><stop offset=".125" stop-color="#363636"/><stop offset=".279" stop-color="#212121"/><stop offset=".569" stop-color="#616161"/><stop offset=".683" stop-color="#555"/><stop offset=".887" stop-color="#353535"/><stop offset="1" stop-color="#212121"/></linearGradient><linearGradient id="C" x1="177.463" x2="214.432" y1="43.85" y2="43.85" gradientUnits="userSpaceOnUse"><stop stop-color="#424242"/><stop offset=".125" stop-color="#363636"/><stop offset=".279" stop-color="#212121"/><stop offset=".569" stop-color="#616161"/><stop offset=".683" stop-color="#555"/><stop offset=".887" stop-color="#353535"/><stop offset="1" stop-color="#212121"/></linearGradient><linearGradient id="D" x1="190.781" x2="201.113" y1="19.928" y2="19.928" gradientUnits="userSpaceOnUse"><stop stop-color="#424242"/><stop offset=".125" stop-color="#363636"/><stop offset=".279" stop-color="#212121"/><stop offset=".569" stop-color="#616161"/><stop offset=".683" stop-color="#555"/><stop offset=".887" stop-color="#353535"/><stop offset="1" stop-color="#212121"/></linearGradient><linearGradient id="G" x1="590.243" x2="637.291" y1="171.938" y2="171.938" gradientUnits="userSpaceOnUse"><stop stop-color="#424242"/><stop offset=".125" stop-color="#363636"/><stop offset=".279" stop-color="#212121"/><stop offset=".569" stop-color="#616161"/><stop offset=".683" stop-color="#555"/><stop offset=".887" stop-color="#353535"/><stop offset="1" stop-color="#212121"/></linearGradient><linearGradient id="H" x1="607.194" x2="620.342" y1="141.494" y2="141.494" gradientUnits="userSpaceOnUse"><stop stop-color="#424242"/><stop offset=".125" stop-color="#363636"/><stop offset=".279" stop-color="#212121"/><stop offset=".569" stop-color="#616161"/><stop offset=".683" stop-color="#555"/><stop offset=".887" stop-color="#353535"/><stop offset="1" stop-color="#212121"/></linearGradient><linearGradient id="K" x1="551.335" x2="588.304" y1="45.306" y2="45.306" gradientUnits="userSpaceOnUse"><stop stop-color="#424242"/><stop offset=".125" stop-color="#363636"/><stop offset=".279" stop-color="#212121"/><stop offset=".569" stop-color="#616161"/><stop offset=".683" stop-color="#555"/><stop offset=".887" stop-color="#353535"/><stop offset="1" stop-color="#212121"/></linearGradient><linearGradient id="L" x1="564.653" x2="574.984" y1="21.383" y2="21.383" gradientUnits="userSpaceOnUse"><stop stop-color="#424242"/><stop offset=".125" stop-color="#363636"/><stop offset=".279" stop-color="#212121"/><stop offset=".569" stop-color="#616161"/><stop offset=".683" stop-color="#555"/><stop offset=".887" stop-color="#353535"/><stop offset="1" stop-color="#212121"/></linearGradient><linearGradient id="O" x1="663.04" x2="95.915" y1="226.53" y2="226.53" gradientUnits="userSpaceOnUse"><stop stop-color="#424242"/><stop offset=".125" stop-color="#363636"/><stop offset=".279" stop-color="#212121"/><stop offset=".569" stop-color="#616161"/><stop offset=".683" stop-color="#555"/><stop offset=".887" stop-color="#353535"/><stop offset="1" stop-color="#212121"/></linearGradient><linearGradient id="P" x1="312.163" x2="158.378" y1="98.819" y2="98.819" gradientUnits="userSpaceOnUse"><stop stop-color="#424242"/><stop offset=".125" stop-color="#363636"/><stop offset=".279" stop-color="#212121"/><stop offset=".569" stop-color="#616161"/><stop offset=".683" stop-color="#555"/><stop offset=".887" stop-color="#353535"/><stop offset="1" stop-color="#212121"/></linearGradient><linearGradient id="Q" x1="446.787" x2="600.573" y1="98.819" y2="98.819" gradientUnits="userSpaceOnUse"><stop stop-color="#424242"/><stop offset=".125" stop-color="#363636"/><stop offset=".279" stop-color="#212121"/><stop offset=".569" stop-color="#616161"/><stop offset=".683" stop-color="#555"/><stop offset=".887" stop-color="#353535"/><stop offset="1" stop-color="#212121"/></linearGradient><radialGradient id="b" cx="0" cy="0" r="1" gradientTransform="matrix(261.238 0 0 72.6741 382.684 402.962)" gradientUnits="userSpaceOnUse"><stop stop-color="#212121"/><stop offset=".141" stop-color="#252525" stop-opacity=".859"/><stop offset=".276" stop-color="#303030" stop-opacity=".724"/><stop offset=".409" stop-color="#444" stop-opacity=".591"/><stop offset=".54" stop-color="#5F5F5F" stop-opacity=".46"/><stop offset=".67" stop-color="#828282" stop-opacity=".33"/><stop offset=".8" stop-color="#ADADAD" stop-opacity=".2"/><stop offset=".926" stop-color="#DEDEDE" stop-opacity=".074"/><stop offset="1" stop-color="#fff" stop-opacity="0"/></radialGradient><radialGradient id="z" cx="0" cy="0" r="1" gradientTransform="matrix(95.4391 0 0 17.7002 134.652 134.711)" gradientUnits="userSpaceOnUse"><stop stop-color="#212121"/><stop offset="1" stop-color="#fff" stop-opacity="0"/></radialGradient><radialGradient id="A" cx="0" cy="0" r="1" gradientTransform="matrix(95.4088 0 0 17.6946 134.429 135.155)" gradientUnits="userSpaceOnUse"><stop stop-color="#212121"/><stop offset="1" stop-color="#fff" stop-opacity="0"/></radialGradient><radialGradient id="E" cx="0" cy="0" r="1" gradientTransform="matrix(74.9929 0 0 69.5411 196.119 17.117)" gradientUnits="userSpaceOnUse"><stop stop-color="#212121"/><stop offset="1" stop-color="#fff" stop-opacity="0"/></radialGradient><radialGradient id="F" cx="0" cy="0" r="1" gradientTransform="matrix(74.9932 0 0 69.5414 195.949 17.134)" gradientUnits="userSpaceOnUse"><stop stop-color="#212121"/><stop offset="1" stop-color="#fff" stop-opacity="0"/></radialGradient><radialGradient id="I" cx="0" cy="0" r="1" gradientTransform="matrix(95.4391 0 0 88.5009 613.4 130.205)" gradientUnits="userSpaceOnUse"><stop stop-color="#212121"/><stop offset="1" stop-color="#fff" stop-opacity="0"/></radialGradient><radialGradient id="J" cx="0" cy="0" r="1" gradientTransform="matrix(95.4391 0 0 88.5009 613.617 130.225)" gradientUnits="userSpaceOnUse"><stop stop-color="#212121"/><stop offset="1" stop-color="#fff" stop-opacity="0"/></radialGradient><radialGradient id="M" cx="0" cy="0" r="1" gradientTransform="matrix(74.9929 0 0 69.5411 569.699 11.226)" gradientUnits="userSpaceOnUse"><stop stop-color="#212121"/><stop offset="1" stop-color="#fff" stop-opacity="0"/></radialGradient><radialGradient id="N" cx="0" cy="0" r="1" gradientTransform="matrix(74.9929 0 0 69.5411 569.869 11.243)" gradientUnits="userSpaceOnUse"><stop stop-color="#212121"/><stop offset="1" stop-color="#fff" stop-opacity="0"/></radialGradient></defs></svg>