<svg width="1426" height="299" viewBox="0 0 1426 299" fill="none" xmlns="http://www.w3.org/2000/svg">
<path d="M1426 1.06201H154.345V298.543H1426V1.06201Z" fill="#EAEAEA"/>
<path d="M0 153L155 296.404V0.860352L0 153Z" fill="#E2D39B"/>
<path d="M174.345 1.06201H154.345V298.543H174.345V1.06201Z" fill="#E2D39B"/>
<path d="M113.955 189.537C107.167 189.537 101.121 188.371 95.8182 186.037C90.5455 183.674 86.3788 180.431 83.3182 176.31C80.2879 172.159 78.7273 167.371 78.6364 161.947H98.4545C98.5758 164.219 99.3182 166.219 100.682 167.947C102.076 169.643 103.924 170.962 106.227 171.901C108.53 172.84 111.121 173.31 114 173.31C117 173.31 119.652 172.78 121.955 171.719C124.258 170.659 126.061 169.189 127.364 167.31C128.667 165.431 129.318 163.265 129.318 160.81C129.318 158.325 128.621 156.128 127.227 154.219C125.864 152.28 123.894 150.765 121.318 149.674C118.773 148.583 115.742 148.037 112.227 148.037H103.545V133.583H112.227C115.197 133.583 117.818 133.068 120.091 132.037C122.394 131.007 124.182 129.583 125.455 127.765C126.727 125.916 127.364 123.765 127.364 121.31C127.364 118.977 126.803 116.931 125.682 115.174C124.591 113.386 123.045 111.992 121.045 110.992C119.076 109.992 116.773 109.492 114.136 109.492C111.47 109.492 109.03 109.977 106.818 110.947C104.606 111.886 102.833 113.234 101.5 114.992C100.167 116.75 99.4545 118.81 99.3636 121.174H80.5C80.5909 115.81 82.1212 111.083 85.0909 106.992C88.0606 102.901 92.0606 99.7041 97.0909 97.4011C102.152 95.0677 107.864 93.9011 114.227 93.9011C120.652 93.9011 126.273 95.0677 131.091 97.4011C135.909 99.7344 139.652 102.886 142.318 106.856C145.015 110.795 146.348 115.219 146.318 120.128C146.348 125.34 144.727 129.689 141.455 133.174C138.212 136.659 133.985 138.871 128.773 139.81V140.537C135.621 141.416 140.833 143.795 144.409 147.674C148.015 151.522 149.803 156.34 149.773 162.128C149.803 167.431 148.273 172.143 145.182 176.265C142.121 180.386 137.894 183.628 132.5 185.992C127.106 188.356 120.924 189.537 113.955 189.537Z" fill="white"/>
</svg>
