<svg width="1747" height="446" viewBox="0 0 1747 446" fill="none" xmlns="http://www.w3.org/2000/svg">
<path d="M1746.05 2.78564L243.469 0.751709L242.87 443.387L1745.45 445.421L1746.05 2.78564Z" fill="#EAEAEA"/>
<path d="M0.499957 203L243.87 443.388L244.469 0.75309L0.499957 203Z" fill="#8C5EFF"/>
<path d="M129.51 252.01L129.529 237.828L162.707 207.191C165.529 204.468 167.896 202.017 169.808 199.837C171.75 197.658 173.223 195.524 174.226 193.434C175.229 191.314 175.732 189.027 175.735 186.573C175.739 183.845 175.121 181.496 173.881 179.525C172.641 177.523 170.946 175.99 168.796 174.927C166.646 173.833 164.208 173.284 161.48 173.281C158.632 173.277 156.146 173.849 154.024 174.998C151.901 176.146 150.262 177.796 149.108 179.946C147.953 182.096 147.374 184.655 147.37 187.625L128.688 187.6C128.697 181.509 130.082 176.223 132.846 171.742C135.61 167.261 139.478 163.796 144.451 161.348C149.424 158.901 155.153 157.681 161.638 157.69C168.305 157.699 174.106 158.889 179.042 161.259C184.009 163.599 187.868 166.847 190.62 171.002C193.372 175.157 194.744 179.917 194.737 185.28C194.732 188.795 194.03 192.264 192.632 195.686C191.264 199.109 188.819 202.909 185.298 207.086C181.778 211.232 176.816 216.21 170.414 222.02L156.806 235.32L156.805 235.956L195.896 236.009L195.874 252.1L129.51 252.01Z" fill="white"/>
</svg>
