<svg width="1424" height="297" viewBox="0 0 1424 297" fill="none" xmlns="http://www.w3.org/2000/svg">
<path d="M1424 0.964478H152.345V296.941H1424V0.964478Z" fill="#EAEAEA"/>
<path d="M172.345 0.964478H152.345V296.941H172.345V0.964478Z" fill="#FAC00B"/>
<path d="M0.5 143.5L153 296.404V0.860352L0.5 143.5Z" fill="#FAC00B"/>
<path d="M77.5455 187.565V173.383L110.682 142.701C113.5 139.974 115.864 137.519 117.773 135.338C119.712 133.156 121.182 131.019 122.182 128.929C123.182 126.807 123.682 124.519 123.682 122.065C123.682 119.338 123.061 116.989 121.818 115.019C120.576 113.019 118.879 111.489 116.727 110.429C114.576 109.338 112.136 108.792 109.409 108.792C106.561 108.792 104.076 109.368 101.955 110.519C99.8333 111.671 98.197 113.323 97.0455 115.474C95.8939 117.626 95.3182 120.186 95.3182 123.156H76.6364C76.6364 117.065 78.0152 111.777 80.7727 107.292C83.5303 102.807 87.3939 99.3377 92.3636 96.8831C97.3333 94.4286 103.061 93.2013 109.545 93.2013C116.212 93.2013 122.015 94.3831 126.955 96.7468C131.924 99.0801 135.788 102.323 138.545 106.474C141.303 110.626 142.682 115.383 142.682 120.747C142.682 124.262 141.985 127.732 140.591 131.156C139.227 134.58 136.788 138.383 133.273 142.565C129.758 146.716 124.803 151.701 118.409 157.519L104.818 170.838V171.474H143.909V187.565H77.5455Z" fill="#EAEAEA"/>
</svg>
