<svg width="1961" height="565" viewBox="0 0 1961 565" fill="none" xmlns="http://www.w3.org/2000/svg">
<path d="M1961 0H321V565H1961V0Z" fill="#EAEAEA"/>
<path d="M0 322L322 565V0L0 322Z" fill="#E2D39B"/>
<path d="M192.955 330.273C186.167 330.273 180.121 329.106 174.818 326.773C169.545 324.409 165.379 321.167 162.318 317.045C159.288 312.894 157.727 308.106 157.636 302.682H177.455C177.576 304.955 178.318 306.955 179.682 308.682C181.076 310.379 182.924 311.697 185.227 312.636C187.53 313.576 190.121 314.045 193 314.045C196 314.045 198.652 313.515 200.955 312.455C203.258 311.394 205.061 309.924 206.364 308.045C207.667 306.167 208.318 304 208.318 301.545C208.318 299.061 207.621 296.864 206.227 294.955C204.864 293.015 202.894 291.5 200.318 290.409C197.773 289.318 194.742 288.773 191.227 288.773H182.545V274.318H191.227C194.197 274.318 196.818 273.803 199.091 272.773C201.394 271.742 203.182 270.318 204.455 268.5C205.727 266.652 206.364 264.5 206.364 262.045C206.364 259.712 205.803 257.667 204.682 255.909C203.591 254.121 202.045 252.727 200.045 251.727C198.076 250.727 195.773 250.227 193.136 250.227C190.47 250.227 188.03 250.712 185.818 251.682C183.606 252.621 181.833 253.97 180.5 255.727C179.167 257.485 178.455 259.545 178.364 261.909H159.5C159.591 256.545 161.121 251.818 164.091 247.727C167.061 243.636 171.061 240.439 176.091 238.136C181.152 235.803 186.864 234.636 193.227 234.636C199.652 234.636 205.273 235.803 210.091 238.136C214.909 240.47 218.652 243.621 221.318 247.591C224.015 251.53 225.348 255.955 225.318 260.864C225.348 266.076 223.727 270.424 220.455 273.909C217.212 277.394 212.985 279.606 207.773 280.545V281.273C214.621 282.152 219.833 284.53 223.409 288.409C227.015 292.258 228.803 297.076 228.773 302.864C228.803 308.167 227.273 312.879 224.182 317C221.121 321.121 216.894 324.364 211.5 326.727C206.106 329.091 199.924 330.273 192.955 330.273Z" fill="white"/>
</svg>
