<?xml version="1.0" standalone="no"?>
<!DOCTYPE svg PUBLIC "-//W3C//DTD SVG 20010904//EN"
 "http://www.w3.org/TR/2001/REC-SVG-20010904/DTD/svg10.dtd">
<svg version="1.0" xmlns="http://www.w3.org/2000/svg"
 width="512.000000pt" height="512.000000pt" viewBox="0 0 512.000000 512.000000"
 preserveAspectRatio="xMidYMid meet">
<metadata>
Created by potrace 1.16, written by Peter Selinger 2001-2019
</metadata>
<g transform="translate(0.000000,512.000000) scale(0.100000,-0.100000)"
fill="#000000" stroke="none">
<path d="M3872 3750 c-84 -15 -172 -35 -197 -43 -43 -15 -45 -15 -55 4 -13 23
-75 26 -104 4 -10 -8 -22 -13 -26 -10 -11 7 -552 47 -557 41 -9 -8 5 -11 217
-45 107 -17 230 -31 272 -31 81 0 111 -13 53 -24 -19 -4 -38 -14 -43 -22 -5
-9 -53 -31 -108 -49 -54 -18 -195 -67 -312 -109 l-214 -75 -59 29 c-57 29 -62
30 -209 30 -148 0 -151 0 -212 -31 -71 -36 -39 -39 -426 42 -128 27 -235 49
-238 49 -2 0 -4 9 -4 20 0 11 -12 25 -27 33 -26 14 -24 15 47 22 40 4 143 27
228 51 85 24 170 46 188 50 19 3 37 11 41 17 4 6 -3 8 -18 4 -13 -3 -85 -13
-159 -21 -226 -27 -273 -36 -322 -61 l-48 -25 0 25 c0 52 -89 59 -112 9 -10
-21 -17 -25 -42 -21 -17 3 -118 20 -223 38 -173 29 -219 32 -200 13 9 -9 237
-62 333 -78 67 -11 84 -11 100 1 10 7 25 13 33 13 11 0 10 -4 -5 -19 -35 -32
-61 -41 -111 -39 -47 1 -47 1 -8 5 55 6 70 23 19 22 -47 0 -407 -120 -405
-134 4 -23 339 10 414 40 15 6 17 1 17 -40 0 -64 25 -114 66 -131 53 -22 113
-18 155 12 l37 26 146 -67 c80 -37 146 -70 146 -74 0 -3 -120 -35 -268 -70
-147 -35 -309 -76 -359 -91 -51 -15 -93 -24 -93 -19 0 36 -113 56 -139 25 -10
-12 -19 -11 -59 10 -65 33 -329 85 -360 71 -43 -20 -19 -39 108 -91 96 -38
141 -51 193 -54 49 -3 65 -7 58 -16 -17 -20 -41 -119 -41 -165 0 -25 9 -65 20
-89 26 -57 70 -76 163 -69 79 5 99 19 123 86 10 25 22 51 28 58 10 11 472 100
616 119 50 7 53 6 46 -12 -37 -95 -145 -415 -180 -532 -76 -254 -83 -314 -38
-320 33 -5 49 13 57 61 10 62 24 78 114 125 l82 44 58 123 c48 100 153 298
167 314 2 2 17 -8 34 -23 17 -14 44 -26 58 -26 39 -1 65 -40 54 -82 -10 -39
-41 -58 -94 -58 -51 0 -68 -33 -68 -135 0 -99 8 -113 69 -121 47 -6 49 -7 57
-48 l9 -41 149 -3 c96 -2 153 1 161 8 8 6 16 29 20 51 6 35 10 39 35 39 42 0
60 32 60 105 0 107 -24 155 -77 155 -21 0 -53 51 -53 84 0 31 19 46 56 46 22
0 38 7 47 20 14 21 14 20 30 -3 8 -13 58 -109 110 -214 97 -193 106 -205 199
-269 38 -27 46 -38 52 -74 4 -23 11 -51 17 -61 12 -23 52 -25 69 -4 26 31 -37
290 -173 720 -30 94 -54 171 -52 173 3 4 686 -47 713 -53 13 -3 32 -20 42 -38
29 -49 74 -71 146 -71 69 0 119 25 147 74 22 39 29 140 12 174 -8 16 -15 35
-15 44 0 8 -7 24 -17 34 -15 17 -15 18 9 18 49 0 143 41 265 116 181 111 153
131 -91 64 -167 -46 -202 -61 -211 -90 -7 -21 -20 -26 -29 -11 -10 15 -72 22
-101 11 -15 -6 -29 -19 -32 -31 -3 -11 -23 -29 -44 -39 -21 -11 -40 -24 -44
-30 -3 -5 -23 -10 -43 -10 -42 0 -591 96 -600 105 -3 3 1 12 9 20 25 24 222
144 265 161 40 15 42 15 79 -10 53 -36 145 -37 180 -2 29 29 39 77 33 155 l-4
59 50 -20 c86 -34 105 -40 118 -35 16 5 -145 87 -171 87 -25 0 -71 20 -71 32
0 13 28 9 62 -8 44 -23 78 -16 261 51 224 83 212 94 -51 45z m-289 -47 c-7 -2
-19 -2 -25 0 -7 3 -2 5 12 5 14 0 19 -2 13 -5z m-1706 -49 c-3 -3 -12 -4 -19
-1 -8 3 -5 6 6 6 11 1 17 -2 13 -5z m-147 -23 c-87 -19 -123 -20 -54 -2 67 17
78 19 109 19 17 0 -8 -8 -55 -17z m-197 2 c-7 -2 -19 -2 -25 0 -7 3 -2 5 12 5
14 0 19 -2 13 -5z m1877 -62 c-8 -5 -117 -52 -242 -106 -124 -53 -234 -103
-245 -110 -47 -36 32 -9 255 87 l237 101 118 1 c99 1 117 -1 115 -14 -4 -18
-42 -27 -123 -29 -52 -2 -56 -4 -35 -13 14 -5 55 -8 93 -5 50 3 67 1 67 -8 0
-21 -27 -25 -134 -24 -72 1 -113 -4 -139 -15 -50 -20 -220 -120 -280 -164
l-48 -35 -76 17 c-42 9 -78 14 -80 12 -9 -8 70 -43 156 -70 46 -14 206 -47
355 -73 336 -60 302 -69 -50 -13 -307 49 -377 57 -351 40 10 -7 91 -25 180
-40 169 -30 418 -70 433 -70 4 0 -7 -13 -26 -30 -32 -26 -33 -29 -13 -30 12 0
59 12 103 26 80 25 83 25 118 8 45 -22 204 -26 223 -6 20 19 29 14 29 -17 0
-38 -36 -53 -127 -53 -60 0 -382 24 -883 66 -91 8 -168 12 -172 9 -5 -2 -8 35
-8 84 -1 73 -16 194 -31 251 -3 8 68 40 211 93 118 44 249 94 290 109 74 28
110 38 80 21z m-1862 -111 c63 0 103 -8 207 -40 165 -52 355 -100 392 -100 48
1 8 16 -157 60 -187 49 -331 92 -327 96 2 2 111 -21 243 -50 131 -30 257 -57
280 -61 l41 -6 -21 -58 -20 -58 -80 -10 -81 -10 -149 64 c-205 89 -217 93
-315 94 -93 1 -132 8 -138 26 -3 7 25 9 89 7 l93 -4 -81 14 c-90 15 -104 20
-104 41 0 11 6 12 26 5 14 -6 60 -10 102 -10z m1151 -82 c19 -57 41 -229 42
-323 0 -60 3 -83 9 -70 19 43 7 319 -16 379 -10 27 41 -1 54 -29 20 -44 34
-187 30 -297 -4 -100 -7 -113 -27 -129 -46 -37 -116 -49 -292 -49 -146 0 -176
3 -224 21 -30 11 -60 29 -65 39 -15 27 -12 187 4 272 24 125 48 169 107 190
13 5 13 -1 -3 -47 -25 -76 -48 -217 -47 -289 1 -33 4 -51 6 -39 4 23 4 23 26
3 19 -18 35 -20 198 -20 170 0 229 8 229 32 0 5 -9 4 -19 -2 -12 -6 -96 -10
-205 -10 -207 0 -216 3 -216 67 0 53 39 231 62 285 l20 48 158 0 158 0 11 -32z
m921 22 c-20 -13 -117 -13 -125 0 -4 6 21 10 67 10 51 0 68 -3 58 -10z m-2046
-60 c24 0 27 -3 16 -10 -26 -17 -116 -12 -131 7 -13 15 -10 16 35 10 27 -4 63
-7 80 -7z m2773 -26 c-3 -3 -12 -4 -19 -1 -8 3 -5 6 6 6 11 1 17 -2 13 -5z
m-142 -43 c-60 -20 -120 -43 -133 -50 -13 -7 -31 -11 -40 -9 -27 6 20 28 138
64 145 44 170 41 35 -5z m85 -16 c0 -8 -112 -61 -165 -78 -63 -20 -127 -25
-132 -11 -5 15 30 24 97 24 43 0 72 8 125 34 81 40 75 37 75 31z m-2115 -55
c-3 -6 -10 -49 -15 -97 -5 -47 -13 -89 -17 -93 -4 -4 -109 -27 -233 -50 -291
-54 -538 -100 -570 -107 -20 -4 -22 -2 -10 6 12 9 10 11 -12 11 -21 0 -28 6
-33 31 -4 17 -5 32 -3 33 1 2 173 45 380 96 208 51 386 99 395 107 16 13 13
14 -27 8 -66 -9 -240 -48 -537 -121 -144 -35 -269 -61 -277 -58 -21 8 -20 24
1 24 20 0 728 172 823 200 71 20 145 26 135 10z m1765 -10 c0 -5 -11 -10 -25
-10 -14 0 -25 5 -25 10 0 6 11 10 25 10 14 0 25 -4 25 -10z m-57 -47 c4 -3
-52 -35 -124 -70 -73 -35 -134 -61 -136 -59 -10 9 162 110 217 127 34 10 36
10 43 2z m-3031 -59 c132 -28 188 -47 188 -63 0 -16 -23 -13 -82 10 -29 11
-100 34 -158 49 -133 36 -107 38 52 4z m306 -61 c-10 -2 -26 -2 -35 0 -10 3
-2 5 17 5 19 0 27 -2 18 -5z m990 -232 c-30 -99 -196 -462 -223 -491 -13 -14
-37 -33 -54 -43 l-30 -17 46 136 c27 81 77 198 126 292 44 86 92 181 105 209
l26 53 12 -37 c11 -31 10 -45 -8 -102z m1892 120 c0 -5 -7 -15 -16 -22 -24
-20 -206 -18 -230 2 -15 12 -4 15 102 19 65 4 125 7 132 8 6 1 12 -2 12 -7z
m-995 -422 c36 -94 78 -229 73 -234 -2 -2 -15 7 -30 18 -39 32 -238 491 -238
550 0 24 3 47 7 50 8 9 144 -269 188 -384z m-1882 357 l97 -1 0 -36 c0 -46 -7
-49 -121 -49 -114 0 -127 7 -127 64 0 45 0 45 26 34 15 -5 71 -11 125 -12z
m144 -2 c-3 -3 -12 -4 -19 -1 -8 3 -5 6 6 6 11 1 17 -2 13 -5z m1231 -32 c144
4 162 3 160 -11 -3 -14 -29 -16 -186 -19 -166 -2 -210 -9 -166 -26 9 -3 94 -6
189 -6 184 0 185 0 185 50 0 10 5 22 11 26 14 9 3 -64 -13 -83 -8 -10 -61 -13
-204 -13 -188 0 -193 1 -208 22 -9 12 -16 34 -16 49 0 26 1 27 43 17 23 -5
115 -8 205 -6z m1432 8 c-18 -12 -98 -12 -125 0 -13 6 6 9 60 9 55 1 75 -2 65
-9z m-2745 -119 c-17 -18 -100 -26 -144 -14 -66 17 -43 28 59 28 85 0 98 -2
85 -14z m1353 -28 c-32 -2 -86 -2 -120 0 -35 2 -9 3 57 3 66 0 94 -1 63 -3z
m5 -187 c45 -19 87 -70 86 -103 l-1 -28 -8 29 c-20 66 -99 114 -165 102 -42
-8 -93 -50 -111 -91 -8 -17 -13 -23 -14 -13 0 10 15 34 32 54 53 61 116 78
181 50z m151 -42 c12 -5 16 -18 14 -53 -1 -44 -2 -45 -5 -8 -3 29 -8 37 -19
33 -9 -4 -14 1 -14 14 0 22 1 23 24 14z m-465 -61 c1 -12 -3 -25 -9 -28 -6 -4
-10 12 -9 42 0 36 3 43 9 28 5 -11 9 -30 9 -42z m33 20 c-5 -59 -10 -63 -11
-10 -1 26 3 47 7 47 4 0 6 -17 4 -37z m277 1 c72 -60 31 -185 -57 -171 -26 4
-26 4 4 6 42 2 78 42 78 86 0 77 -97 117 -143 59 -28 -36 -26 -76 5 -116 l26
-33 -31 33 c-40 42 -42 88 -5 131 33 40 79 42 123 5z m-161 -169 c9 -12 2 -6
-15 12 -18 18 -33 43 -33 55 1 19 4 16 16 -12 8 -19 23 -44 32 -55z m232 22
c0 -2 -10 -12 -22 -23 l-23 -19 19 23 c18 21 26 27 26 19z"/>
<path d="M1043 2808 c7 -4 46 -7 87 -7 88 1 75 7 -27 11 -40 2 -67 0 -60 -4z"/>
</g>
</svg>