<svg width="936" height="942" viewBox="0 0 936 942" fill="none" xmlns="http://www.w3.org/2000/svg">
<path d="M22.2266 350.709C94.2001 122.43 332.569 3.63189 528.305 0.247757C581.749 -0.676413 689.279 -2.53519 780.409 67.704C955.418 202.594 962.33 520.446 827.81 721.439C810.487 747.323 690.046 921.179 477.181 940.301C321.333 954.301 203.279 877.483 188.898 867.881C170.731 855.75 130.426 826.637 91.8528 777.915C1.21932 663.434 -22.7499 493.361 22.2266 350.709Z" fill="url(#paint0_linear_10_770)"/>
<path d="M927.163 413.614C917.781 627.329 723.168 792.37 492.484 782.243C261.8 772.116 82.3985 590.656 91.7808 376.941C101.163 163.226 295.775 -1.81452 526.46 8.31231C757.144 18.4392 936.545 199.899 927.163 413.614Z" fill="url(#paint1_linear_10_770)"/>
<path opacity="0.1" d="M486.844 677.256C668.034 677.256 814.917 538.498 814.917 367.331C814.917 196.164 668.034 57.4062 486.844 57.4062C305.653 57.4062 158.77 196.164 158.77 367.331C158.77 538.498 305.653 677.256 486.844 677.256Z" fill="white"/>
<g opacity="0.68">
<path d="M626.238 401.927C626.138 470.223 621.467 538.659 609.475 605.988C606.438 622.807 602.917 639.545 598.718 656.123C594.508 672.694 589.645 689.122 583.69 705.18C577.685 721.197 570.713 736.982 561.263 751.399C556.502 758.555 551.102 765.408 544.446 771.039C541.12 773.837 537.469 776.316 533.457 778.131C529.453 779.934 525.082 781.075 520.646 781.157C516.214 781.288 511.778 780.416 507.696 778.77C503.599 777.14 499.86 774.773 496.453 772.068C489.64 766.613 484.12 759.836 479.274 752.738C474.438 745.607 470.309 738.051 466.571 730.334C462.849 722.605 459.539 714.693 456.522 706.68C450.491 690.649 445.58 674.235 441.331 657.673C437.091 641.107 433.533 624.376 430.471 607.563C424.36 573.929 420.198 539.971 417.396 505.921C414.614 471.865 413.23 437.7 413.077 403.532C413.003 386.449 413.438 369.369 414.036 352.3C414.662 335.23 415.588 318.172 416.83 301.136C419.329 267.068 423.074 233.075 428.656 199.362C431.457 182.509 434.725 165.727 438.659 149.094C442.603 132.467 447.188 115.971 452.879 99.8349C455.74 91.7737 458.867 83.7994 462.435 76.0134C465.997 68.2288 469.985 60.615 474.671 53.4182C479.367 46.2522 484.766 39.4147 491.485 33.944C494.844 31.2327 498.543 28.874 502.594 27.2756C506.63 25.6574 511.006 24.8352 515.362 24.999C519.72 25.1222 524.016 26.2152 527.981 27.964C531.951 29.7228 535.601 32.1138 538.954 34.8248C545.658 40.2816 551.209 46.9561 556.134 53.9669C561.042 61.0073 565.323 68.4552 569.188 76.0928C573.062 83.7297 576.513 91.5692 579.699 99.5069C586.044 115.397 591.281 131.701 595.841 148.172C600.385 164.652 604.23 181.315 607.556 198.075C620.716 265.176 626.056 333.62 626.238 401.927ZM621.952 401.927C622.004 367.876 620.698 333.818 617.858 299.886C615.05 265.956 610.795 232.126 604.475 198.671C601.317 181.945 597.641 165.315 593.269 148.869C588.883 132.431 583.821 116.161 577.661 100.311C571.457 84.5055 564.265 68.9773 554.722 54.9439C549.925 47.9764 544.513 41.3579 538.017 35.971C534.769 33.294 531.243 30.9407 527.425 29.2074C523.611 27.4947 519.501 26.376 515.323 26.2657C511.146 26.1314 506.974 26.9668 503.11 28.5534C499.233 30.1235 495.675 32.4348 492.432 35.1023C485.946 40.4825 480.693 47.2464 476.128 54.3581C471.571 61.5002 467.692 69.0739 464.232 76.8245C460.766 84.5765 457.733 92.5243 454.965 100.561C449.458 116.649 445.046 133.107 441.272 149.699C437.509 166.297 434.408 183.045 431.773 199.864C426.521 233.509 423.1 267.43 420.925 301.415C418.733 335.405 417.938 369.472 417.995 403.526C417.925 437.574 419.082 471.632 421.633 505.588C424.204 539.537 428.13 573.401 433.998 606.933C436.938 623.695 440.371 640.372 444.481 656.878C448.599 673.378 453.375 689.724 459.253 705.661C462.193 713.628 465.421 721.485 469.05 729.147C472.693 736.797 476.72 744.274 481.415 751.294C486.116 758.284 491.467 764.918 497.962 770.184C501.208 772.796 504.743 775.058 508.569 776.609C512.383 778.163 516.48 779.024 520.584 778.887C524.687 778.784 528.73 777.703 532.479 775.987C536.233 774.258 539.692 771.882 542.866 769.175C549.22 763.729 554.457 757.013 559.076 749.963C568.256 735.755 575.065 720.08 580.909 704.157C586.709 688.19 591.433 671.831 595.509 655.321C599.573 638.804 602.966 622.119 605.877 605.352C611.7 571.813 615.58 537.946 618.156 503.996C620.759 470.043 621.962 435.982 621.952 401.927Z" fill="white"/>
<path d="M798.521 401.927C798.295 445.882 792.657 489.858 780.901 532.248C768.95 574.543 750.937 615.242 726.458 651.786C714.219 670.038 700.349 687.22 684.85 702.811C669.356 718.395 652.223 732.39 633.615 744.11C614.989 755.783 594.872 765.128 573.813 771.47C552.766 777.827 530.794 781.146 508.801 781.173C486.807 781.163 464.83 777.861 443.774 771.519C422.706 765.191 402.575 755.858 383.932 744.196C365.307 732.486 348.153 718.502 332.638 702.923C317.117 687.338 303.225 670.159 290.961 651.907C266.44 615.36 248.396 574.646 236.397 532.333C224.55 489.934 218.927 445.911 218.744 401.927C218.853 379.928 220.318 357.939 223.225 336.135C226.147 314.335 230.546 292.728 236.469 271.541C248.493 229.243 266.562 188.551 291.096 152.036C303.364 133.799 317.258 116.636 332.778 101.068C348.293 85.5094 365.437 71.5358 384.059 59.8584C402.696 48.2207 422.823 38.9467 443.861 32.6215C464.885 26.2721 486.832 22.9576 508.801 22.9307C530.77 22.9731 552.713 26.3034 573.728 32.6662C594.756 39.0062 614.868 48.2953 633.489 59.9435C652.094 71.6327 669.218 85.616 684.711 101.181C700.209 116.754 714.079 133.92 726.323 152.157C750.816 188.669 768.853 229.344 780.829 271.625C792.607 314.001 798.27 357.971 798.521 401.927ZM793.608 401.927C793.529 358.395 788.091 314.818 776.59 272.801C765.014 230.85 747.584 190.362 723.617 153.957C711.639 135.773 698.038 118.636 682.807 103.06C667.572 87.5068 650.743 73.4441 632.347 61.7502C613.93 50.1191 594.041 40.7647 573.192 34.4332C552.354 28.0948 530.596 24.7642 508.801 24.6946C487.005 24.7803 465.253 28.1265 444.423 34.4779C423.582 40.824 403.708 50.1942 385.307 61.8353C366.929 73.541 350.121 87.6134 334.907 103.172C319.699 118.754 306.121 135.894 294.166 154.078C270.241 190.48 252.843 230.952 241.315 272.885C235.578 293.876 231.415 315.281 228.599 336.847C225.778 358.417 224.383 380.168 224.33 401.927C224.395 423.685 225.801 445.435 228.633 467.001C231.461 488.564 235.639 509.964 241.388 530.948C252.941 572.866 270.362 613.315 294.302 649.685C306.26 667.854 319.84 684.979 335.047 700.543C350.261 716.081 367.058 730.143 385.434 741.817C403.83 753.432 423.7 762.744 444.509 769.089C465.307 775.447 487.029 778.806 508.801 778.908C530.571 778.823 552.299 775.481 573.107 769.137C593.926 762.807 613.809 753.509 632.221 741.903C650.614 730.239 667.432 716.188 682.668 700.655C697.897 685.097 711.5 667.975 723.481 649.805C747.463 613.432 764.917 572.968 776.518 531.032C788.04 489.028 793.504 445.458 793.608 401.927Z" fill="white"/>
<path d="M170.204 251.835L257.343 251.241L344.483 250.9L518.762 250.628L693.041 250.928L780.18 251.297L867.319 251.941C867.439 251.942 867.536 252.04 867.534 252.16C867.533 252.278 867.437 252.374 867.319 252.375L780.18 253.019L693.041 253.388L518.762 253.688L344.483 253.416L257.343 253.076L170.204 252.481C170.026 252.48 169.882 252.335 169.884 252.156C169.885 251.979 170.028 251.836 170.204 251.835Z" fill="white"/>
<path d="M271.296 105.884L333.162 105.287L395.029 104.95C415.651 104.805 436.273 104.821 456.895 104.777L518.761 104.677L642.495 104.978L704.361 105.346C724.983 105.566 745.605 105.694 766.227 105.991C766.347 105.993 766.443 106.091 766.441 106.211C766.439 106.328 766.344 106.423 766.227 106.425C745.605 106.722 724.983 106.85 704.361 107.069L642.495 107.438L518.761 107.738L456.895 107.639C436.273 107.594 415.651 107.609 395.029 107.466L333.162 107.127L271.296 106.531C271.118 106.529 270.974 106.383 270.976 106.204C270.978 106.028 271.121 105.886 271.296 105.884Z" fill="white"/>
<path d="M139.922 397.786L234.632 397.191L329.342 396.851L518.762 396.578L708.182 396.878L802.892 397.248L897.601 397.892C897.721 397.893 897.818 397.99 897.817 398.11C897.816 398.229 897.72 398.325 897.601 398.326L802.892 398.969L708.182 399.339L518.762 399.639L329.342 399.366L234.632 399.026L139.922 398.431C139.744 398.43 139.6 398.285 139.601 398.107C139.602 397.93 139.746 397.788 139.922 397.786Z" fill="white"/>
<path d="M170.204 543.737L257.343 543.143L344.483 542.803L518.762 542.53L693.041 542.83L780.18 543.2L867.319 543.844C867.439 543.845 867.536 543.942 867.534 544.062C867.533 544.181 867.437 544.277 867.319 544.277L780.18 544.922L693.041 545.291L518.762 545.591L344.483 545.319L257.343 544.979L170.204 544.384C170.026 544.383 169.882 544.237 169.884 544.059C169.885 543.881 170.028 543.738 170.204 543.737Z" fill="white"/>
<path d="M778.696 691.144H283.765C283.14 691.144 282.633 690.637 282.633 690.011C282.633 689.385 283.139 688.879 283.765 688.879H778.696C779.322 688.879 779.829 689.385 779.829 690.011C779.829 690.637 779.322 691.144 778.696 691.144Z" fill="white"/>
</g>
<path d="M148.642 243.703C154.128 228.287 157.537 212.396 156.94 195.551C155.434 153.107 126.83 116.906 104.993 82.5397C84.9233 50.9544 67.3668 2.58036 123.632 1.08628C168.458 -0.104006 225.415 38.6569 236.275 84.2195C249.126 138.145 229.818 209.912 266.639 256.23C318.151 321.028 348.307 301.73 360.735 418.973C366.045 469.07 341.226 499.644 311.055 518.235C263.435 547.576 202.588 544.21 158.517 509.765C119.584 479.335 93.3804 432.435 95.2533 382.362C97.1457 331.789 132.211 289.872 148.642 243.703Z" fill="#7D97F4"/>
<path d="M225.733 616.842C225.655 616.842 225.575 616.837 225.495 616.825C224.566 616.695 223.919 615.836 224.049 614.907C260.089 358.914 229.934 212.03 198.29 133.887C164.145 49.5669 121.21 25.2963 120.781 25.0608C119.958 24.6106 119.656 23.5778 120.107 22.7552C120.557 21.9313 121.592 21.6329 122.413 22.0817C124.21 23.0657 166.842 47.1762 201.439 132.612C221.69 182.621 234.875 243.38 240.629 313.199C247.814 400.387 243.367 502.055 227.413 615.38C227.294 616.228 226.566 616.842 225.733 616.842Z" fill="#BDD0FB"/>
<path d="M91.2458 108.818C93.3337 108.007 95.6755 107.575 98.2206 107.598C112.296 107.722 119.561 121.782 124.862 132.815C129.402 142.263 134.788 153.744 133.85 164.601C132.835 176.338 121.616 187.015 111.516 176.277C100.035 164.072 82.7587 145.295 80.8027 127.716C79.8301 118.978 84.0146 111.627 91.2458 108.818Z" fill="#7D97F4"/>
<path d="M22.0275 547.516C8.53908 496.035 21.1881 433.951 24.8141 377.614C26.7311 347.827 25.9748 318.549 18.1518 289.574C10.374 260.766 -6.7543 230.532 2.84636 199.991C22.1923 138.462 85.8419 158.783 125.37 199.369C171.24 246.467 191.19 329.259 213.397 392.287C226.785 430.282 244.965 468.783 254.058 507.984C269.121 572.925 259.087 620.182 230.881 654.368C203.829 687.158 158.501 698.168 119.39 681.515C84.0579 666.472 43.7874 630.565 22.0275 547.516Z" fill="#91B3FA"/>
<path d="M186.669 775.223C186.633 775.223 186.598 775.222 186.563 775.219C185.626 775.162 184.914 774.357 184.971 773.421C185.02 772.616 189.766 691.682 178.464 581.822C168.04 480.484 141.438 333.105 73.9132 206.486C73.4708 205.658 73.7851 204.629 74.612 204.188C75.4379 203.746 76.4674 204.059 76.9098 204.887C106.852 261.032 131.344 325.875 149.703 397.613C164.383 454.98 175.2 516.862 181.85 581.542C193.173 691.662 188.412 772.821 188.362 773.628C188.306 774.529 187.559 775.223 186.669 775.223Z" fill="#BDD0FB"/>
<path d="M127.56 369.082L882.369 356.327C912.758 355.813 937.149 381.878 935.343 412.934L909.362 859.728C907.94 884.181 888.272 903.335 864.343 903.572L138.79 910.747C120.868 910.925 106.062 896.475 105.379 878.142L88.0199 411.83C87.1607 388.753 105.003 369.463 127.56 369.082Z" fill="url(#paint2_linear_10_770)"/>
<path d="M139.13 380.464L874.239 368.328C903.835 367.84 927.59 392.637 925.831 422.185L900.528 847.266C899.143 870.53 879.988 888.754 856.684 888.979L150.067 895.806C132.613 895.975 118.193 882.227 117.528 864.786L100.622 421.134C99.7856 399.179 117.162 380.827 139.13 380.464Z" fill="url(#paint3_linear_10_770)"/>
<path d="M518.822 867.351C648.81 867.351 754.186 761.975 754.186 631.987C754.186 501.999 648.81 396.623 518.822 396.623C388.834 396.623 283.458 501.999 283.458 631.987C283.458 761.975 388.834 867.351 518.822 867.351Z" fill="url(#paint4_linear_10_770)"/>
<path d="M667.241 814.656C747.834 749.175 773.823 641.407 739.232 549.27C640.601 587.573 511.006 638.337 511.006 638.337L442.996 854.818C517.077 879.949 602.044 867.629 667.241 814.656Z" fill="url(#paint5_linear_10_770)"/>
<g opacity="0.68">
<path d="M402.884 432.981L400.625 434.285L631.769 834.628L634.028 833.324L402.884 432.981Z" fill="white"/>
<path d="M317.804 517.107L316.5 519.366L716.842 750.511L718.147 748.252L317.804 517.107Z" fill="white"/>
<path d="M748.492 632.51H286.202V635.118H748.492V632.51Z" fill="white"/>
<path d="M716.842 517.113L316.499 748.258L317.803 750.517L718.146 519.372L716.842 517.113Z" fill="white"/>
<path d="M748.492 632.51H286.202V635.118H748.492V632.51Z" fill="white"/>
<path d="M716.842 517.113L316.499 748.258L317.803 750.517L718.146 519.372L716.842 517.113Z" fill="white"/>
<path d="M631.768 432.997L400.623 833.34L402.882 834.644L634.027 434.301L631.768 432.997Z" fill="white"/>
<path d="M518.651 402.669H516.043V864.958H518.651V402.669Z" fill="white"/>
<path d="M519.021 828.994C512.179 828.994 505.302 828.64 498.404 827.927C446.123 822.518 399.078 797.074 365.933 756.282C297.515 672.073 310.361 547.9 394.568 479.48C478.78 411.06 602.951 423.909 671.371 508.116C739.789 592.325 726.944 716.497 642.734 784.917C607.324 813.687 564.025 828.994 519.021 828.994ZM518.469 437.774C475.356 437.774 431.987 451.996 395.997 481.238C312.757 548.87 300.059 671.614 367.691 754.853C400.453 795.176 446.958 820.328 498.636 825.675C550.324 831.018 600.984 815.923 641.306 783.159C681.629 750.397 706.781 703.893 712.127 652.214C717.473 600.535 702.374 549.867 669.612 509.545C631.222 462.295 575.069 437.774 518.469 437.774Z" fill="white"/>
<path d="M518.795 785.431C474.182 785.431 429.934 766.109 399.675 728.866C346.373 663.262 356.381 566.524 421.983 513.222C453.766 487.4 493.708 475.503 534.426 479.715C575.156 483.929 611.807 503.751 637.628 535.531C663.449 567.31 675.348 607.243 671.135 647.972C666.921 688.702 647.099 725.354 615.319 751.175C586.958 774.218 552.768 785.431 518.795 785.431ZM518.368 481.149C483.822 481.149 450.593 492.896 423.412 514.98C358.779 567.495 348.918 662.802 401.432 727.437C453.949 792.072 549.255 801.933 613.89 749.417C645.201 723.977 664.73 687.867 668.882 647.74C673.033 607.611 661.309 568.269 635.869 536.959C610.431 505.648 574.321 486.119 534.193 481.967C528.9 481.42 523.617 481.149 518.368 481.149Z" fill="white"/>
<path d="M518.858 742.033C515.038 742.033 511.201 741.835 507.351 741.437C478.172 738.419 451.915 724.218 433.417 701.451C395.231 654.453 402.401 585.15 449.399 546.964C496.398 508.777 565.699 515.948 603.886 562.947C622.383 585.714 630.909 614.321 627.89 643.5C624.871 672.678 610.67 698.935 587.903 717.433C568.141 733.49 543.975 742.033 518.858 742.033ZM518.551 524.687C494.71 524.687 470.729 532.553 450.827 548.722C404.798 586.121 397.777 653.994 435.175 700.023C453.291 722.321 479.007 736.228 507.584 739.185C536.16 742.146 564.178 733.792 586.475 715.675C608.773 697.56 622.681 671.844 625.637 643.267C628.594 614.69 620.245 586.673 602.128 564.376C580.901 538.248 549.848 524.687 518.551 524.687Z" fill="white"/>
<path d="M518.714 698.517C499.406 698.517 480.255 690.154 467.158 674.036C455.984 660.282 450.834 642.999 452.657 625.372C454.481 607.744 463.06 591.882 476.814 580.707C490.567 569.533 507.853 564.377 525.478 566.206C543.106 568.029 558.968 576.608 570.143 590.362C593.212 618.756 588.881 660.623 560.489 683.692C548.214 693.665 533.418 698.517 518.714 698.517ZM518.593 568.144C504.389 568.144 490.1 572.83 478.243 582.465C464.959 593.258 456.672 608.579 454.91 625.605C453.149 642.631 458.124 659.324 468.917 672.608C491.2 700.032 531.638 704.216 559.061 681.934C586.484 659.652 590.667 619.214 568.386 591.79C555.739 576.223 537.239 568.144 518.593 568.144Z" fill="white"/>
</g>
<path d="M593.179 771.925C601.749 771.925 608.696 764.978 608.696 756.408C608.696 747.838 601.749 740.891 593.179 740.891C584.609 740.891 577.662 747.838 577.662 756.408C577.662 764.978 584.609 771.925 593.179 771.925Z" fill="url(#paint6_linear_10_770)"/>
<path d="M530.777 458.902C536.837 452.842 536.837 443.017 530.778 436.957C524.718 430.897 514.893 430.897 508.833 436.957C502.773 443.017 502.773 452.842 508.833 458.902C514.893 464.962 524.718 464.961 530.777 458.902Z" fill="white"/>
<path d="M298.611 413.669C298.634 417.256 301.561 420.145 305.149 420.121C308.736 420.098 311.626 417.17 311.602 413.583C311.578 409.995 308.651 407.106 305.063 407.13C301.476 407.154 298.587 410.081 298.611 413.669Z" fill="url(#paint7_linear_10_770)"/>
<path d="M298.611 453.046C298.634 456.634 301.561 459.523 305.149 459.5C308.736 459.476 311.626 456.548 311.602 452.961C311.578 449.373 308.651 446.484 305.063 446.508C301.476 446.532 298.587 449.459 298.611 453.046Z" fill="url(#paint8_linear_10_770)"/>
<path d="M298.611 492.424C298.634 496.012 301.561 498.901 305.149 498.877C308.736 498.853 311.626 495.926 311.602 492.339C311.578 488.751 308.651 485.862 305.063 485.886C301.476 485.909 298.587 488.837 298.611 492.424Z" fill="url(#paint9_linear_10_770)"/>
<path opacity="0.62" d="M288.618 413.33L288.591 414.437C288.519 417.431 286.865 419.808 284.844 419.819L130.999 420.083C128.911 420.095 127.216 417.588 127.219 414.493C127.223 411.459 128.861 408.984 130.908 408.923L284.78 407.553C286.941 407.488 288.694 410.128 288.618 413.33Z" fill="white"/>
<path opacity="0.62" d="M288.618 452.516L288.591 453.622C288.519 456.617 286.865 458.993 284.844 459.005L130.999 459.268C128.911 459.281 127.216 456.772 127.219 453.678C127.223 450.644 128.861 448.169 130.908 448.108L284.78 446.738C286.941 446.674 288.694 449.314 288.618 452.516Z" fill="white"/>
<path opacity="0.62" d="M288.618 491.702L288.591 492.809C288.519 495.804 286.865 498.18 284.844 498.192L130.999 498.455C128.911 498.467 127.216 495.959 127.219 492.865C127.223 489.831 128.861 487.357 130.908 487.295L284.78 485.925C286.941 485.86 288.694 488.5 288.618 491.702Z" fill="white"/>
<path d="M734.611 405.596C734.588 409.184 731.661 412.073 728.073 412.049C724.485 412.025 721.596 409.098 721.62 405.51C721.644 401.923 724.571 399.034 728.158 399.058C731.746 399.082 734.635 402.009 734.611 405.596Z" fill="url(#paint10_linear_10_770)"/>
<path d="M734.611 444.974C734.588 448.562 731.661 451.451 728.073 451.427C724.485 451.404 721.596 448.476 721.62 444.889C721.644 441.301 724.571 438.412 728.158 438.436C731.746 438.46 734.635 441.387 734.611 444.974Z" fill="url(#paint11_linear_10_770)"/>
<path d="M734.611 484.353C734.588 487.94 731.661 490.829 728.073 490.806C724.485 490.782 721.596 487.855 721.62 484.267C721.644 480.68 724.571 477.791 728.158 477.815C731.746 477.838 734.635 480.765 734.611 484.353Z" fill="url(#paint12_linear_10_770)"/>
<path opacity="0.62" d="M744.604 405.259L744.63 406.365C744.7 409.36 746.327 411.737 748.315 411.748L899.63 412.012C901.682 412.024 903.35 409.516 903.346 406.422C903.343 403.387 901.731 400.913 899.719 400.852L748.378 399.482C746.253 399.417 744.529 402.057 744.604 405.259Z" fill="white"/>
<path opacity="0.62" d="M744.604 444.445L744.63 445.551C744.7 448.546 746.327 450.923 748.315 450.934L899.63 451.198C901.682 451.21 903.35 448.702 903.346 445.608C903.343 442.573 901.731 440.099 899.719 440.038L748.378 438.668C746.253 438.603 744.529 441.243 744.604 444.445Z" fill="white"/>
<path opacity="0.62" d="M744.604 483.631L744.63 484.737C744.7 487.732 746.327 490.109 748.315 490.12L899.63 490.384C901.682 490.396 903.35 487.888 903.346 484.794C903.343 481.759 901.731 479.285 899.719 479.224L748.378 477.854C746.253 477.789 744.529 480.429 744.604 483.631Z" fill="white"/>
<path d="M680.699 911.398C680.699 911.398 682.44 921.258 683.294 931.018C683.627 934.832 680.687 938.144 676.861 938.303C663.864 938.845 636.063 939.897 626.087 939.452C624.587 939.385 623.606 937.85 624.162 936.455C624.626 935.287 625.523 934.341 626.667 933.816L672.589 912.709L680.699 911.398Z" fill="url(#paint13_linear_10_770)"/>
<path d="M682.125 905.605L680.726 917.398C680.726 917.398 672.682 921.143 667.188 916.926L670.519 903.784L682.125 905.605Z" fill="url(#paint14_linear_10_770)"/>
<path d="M681.074 683.889C681.678 686.969 684.318 837.575 668.22 905.066C667.957 906.168 668.515 907.303 669.563 907.731C672.032 908.74 676.873 910.201 682.674 910.396C684.471 910.456 686.082 909.288 686.588 907.563C691.19 891.904 713.241 813.448 716.117 738.501C719.331 654.755 716.117 735.649 716.117 735.649L714.232 683.883L681.074 683.889Z" fill="url(#paint15_linear_10_770)"/>
<path d="M733.525 916.542C733.525 916.542 736.297 921.52 738.982 934.746C739.466 937.134 737.797 939.42 735.372 939.659C731.08 940.08 724.473 940.623 719.181 940.587C716.741 940.57 714.838 938.446 715.132 936.024C715.718 931.196 717.544 923.276 723.186 917.102L733.525 916.542Z" fill="url(#paint16_linear_10_770)"/>
<path d="M735.96 901.373L732.69 919.207C732.69 919.207 729.458 921.612 723.062 919.869L724.623 900.68L735.96 901.373Z" fill="url(#paint17_linear_10_770)"/>
<path d="M744.792 688.511C757.959 767.972 741.936 884.905 736.532 907.792C736.202 909.193 735.071 910.266 733.651 910.502C731.238 910.901 727.267 911.228 723.352 910.09C722.003 909.699 721.056 908.482 721.001 907.078C720.276 888.575 721.581 774.983 709.312 730.092C708.691 727.816 707.301 725.833 705.379 724.466L681.567 707.538L679.742 680.175L744.792 688.511Z" fill="url(#paint18_linear_10_770)"/>
<path d="M660.895 537.947C700.353 537.295 743.889 548.308 743.889 548.308C755.651 616.936 745.946 696.093 745.946 696.093C715.399 704.104 680.94 691.195 680.94 691.195C675.863 662.51 652.175 581.782 652.175 581.782C632.896 579.389 617.015 573.827 603.936 566.473C613.912 554.909 618.615 540.195 620.657 531.497C634.608 535.833 648.725 538.149 660.895 537.947Z" fill="url(#paint19_linear_10_770)"/>
<path d="M544.344 479.828C548.221 475.147 553.126 477.361 553.126 477.361C558.933 501.889 589.379 521.776 620.658 531.497C618.615 540.195 613.912 554.909 603.936 566.473C552.026 537.286 544.344 479.828 544.344 479.828Z" fill="url(#paint20_linear_10_770)"/>
<path d="M545.285 481.019C544.879 482.308 549.576 484.271 552.341 478.998C552.438 476.471 553.975 465.643 552.465 463.584C544.422 452.619 528.828 438.873 528.828 438.873C526.192 441.473 528.363 444.028 528.363 444.028L535.928 451.909C534.346 454.768 532.416 457.182 531.511 460.64C530.826 463.259 531.245 466.058 532.568 468.442C533.896 470.834 535.708 473.944 537.42 476.378C540.662 480.984 545.285 481.019 545.285 481.019Z" fill="url(#paint21_linear_10_770)"/>
<path d="M539.237 457.021L546.131 462.866L548.295 468.684L542.149 475.503C542.149 475.503 540.082 463.958 538.546 461.459C537.01 458.961 537.807 457.753 539.237 457.021Z" fill="url(#paint22_linear_10_770)"/>
<path d="M744.503 593.632L743.889 548.308C743.889 548.308 780.745 573.349 786.806 605.1C779.842 605.613 767.17 607.424 754.767 613.687C753.489 606.66 751.176 603.408 749.078 601.937C746.329 600.009 744.549 596.99 744.503 593.632Z" fill="url(#paint23_linear_10_770)"/>
<path d="M696.547 622.465C696.547 622.465 737.927 645.851 751.889 625.883C754.788 621.736 755.481 617.615 754.767 613.687C767.17 607.424 779.843 605.613 786.806 605.1C788.634 614.671 787.668 624.851 782.043 635.14C757.586 679.879 691.072 632.668 691.072 632.668L696.547 622.465Z" fill="url(#paint24_linear_10_770)"/>
<path d="M701.52 652.052L678.936 573.186C678.68 572.29 677.916 571.638 676.991 571.529C672.9 571.052 661.043 569.712 647.354 568.554C630.865 567.159 611.716 566.029 600.274 566.991C598.647 567.127 597.663 568.848 598.387 570.311C604.894 583.476 631.66 637.026 645.063 654.568C645.507 655.149 646.194 655.489 646.925 655.482L699.323 654.994C700.847 654.981 701.939 653.518 701.52 652.052Z" fill="url(#paint25_linear_10_770)"/>
<path d="M645.012 561.717L628.638 558.988C627.766 558.843 627.052 559.676 627.329 560.516L628.95 565.427C629.091 565.855 629.464 566.164 629.91 566.224L645.666 568.328C646.481 568.437 647.153 567.696 646.966 566.896L645.963 562.608C645.854 562.146 645.48 561.794 645.012 561.717Z" fill="#91B3FA"/>
<path d="M657.272 575.578L655.923 568.552C655.788 567.848 655.206 567.315 654.492 567.242L621.421 563.886C620.308 563.774 619.417 564.793 619.678 565.881L621.781 574.637C621.949 575.337 622.559 575.843 623.278 575.879L655.595 577.506C656.647 577.559 657.47 576.612 657.272 575.578Z" fill="#7D97F4"/>
<path d="M696.063 632.998C696.063 632.998 699.209 620.062 697.94 615.473C696.671 610.883 694.213 604.983 686.017 606.294C677.822 607.605 668.155 611.058 668.155 611.058C668.155 611.058 668.643 617.035 674.871 615.107L671.009 618.095C671.009 618.095 671.561 622.882 676.822 620.325L673.23 624.288C673.23 624.288 675.49 628.219 679.36 625.698C683.231 623.177 685.086 634.556 696.063 632.998Z" fill="url(#paint26_linear_10_770)"/>
<path d="M700.862 505.914L713.417 542.222C713.625 542.823 713.378 543.489 712.821 543.797C709.398 545.689 697.068 551.159 682.21 541.738C680.662 540.757 679.609 539.156 679.373 537.339L675.308 505.914H700.862Z" fill="url(#paint27_linear_10_770)"/>
<path d="M673.545 472.292C673.545 472.292 659.758 498.243 661.526 508.727C663.293 519.21 680.379 518.457 695.299 509.943L705.725 481.921L673.545 472.292Z" fill="url(#paint28_linear_10_770)"/>
<path d="M694.64 496.182C694.033 495.913 693.809 495.171 694.173 494.617C695.277 492.929 697.348 489.487 698.008 486.473C698.008 486.473 700.487 484.886 691.7 482.783C682.914 480.68 669.811 477.415 667.057 469.936C664.372 462.645 678.774 453.18 690.03 467.791C690.458 468.347 683.95 459.487 684.378 458.93C686.223 456.528 691.074 451.544 697.809 454.566C704.112 457.394 704.822 462.012 704.735 464.34C704.71 465.025 705.322 465.557 705.995 465.429C709.182 464.821 716.829 464.299 720.398 472.143C723.338 478.605 721.427 482.263 719.687 484.052C719.123 484.631 719.37 485.585 720.143 485.822C722.237 486.463 721.533 485.441 721.262 490.348C720.888 497.131 716.713 499.331 714.553 499.022C714.2 498.971 713.843 499.093 713.603 499.358C711.752 501.406 703.41 510.106 694.382 511.155C693.6 511.246 692.994 510.474 693.25 509.73L697.157 498.372C697.339 497.844 697.087 497.266 696.576 497.04L694.64 496.182Z" fill="url(#paint29_linear_10_770)"/>
<path d="M693.069 497.794C693.069 497.794 702.885 491.059 703.602 496.731C704.32 502.402 694.763 504.946 690.03 502.832L693.069 497.794Z" fill="url(#paint30_linear_10_770)"/>
<path d="M661.369 462.302L719.604 505.915L718.609 501.958C718.609 501.958 742.327 476.938 718.94 457.022C695.554 437.107 668.851 460.672 668.851 460.672L661.369 462.302Z" fill="url(#paint31_linear_10_770)"/>
<path d="M532.531 157.832C532.531 157.832 663.61 154.289 672.467 160.489C681.323 166.689 676.009 180.859 672.467 183.516C668.924 186.173 574.158 200.344 574.158 200.344L532.531 157.832Z" fill="url(#paint32_linear_10_770)"/>
<path d="M656.082 127.276C656.082 127.276 646.339 116.648 638.368 113.991C630.397 111.334 566.629 107.792 563.972 112.22C561.316 116.648 655.196 137.904 656.082 127.276Z" fill="url(#paint33_linear_10_770)"/>
<path d="M642.797 158.431V143.627C642.797 139.627 645.808 136.288 649.782 135.838C655.308 135.212 663.13 135.022 669.508 137.552C672.649 138.799 674.579 141.988 674.338 145.359L673.304 159.836C673.05 163.4 670.423 166.341 666.908 166.985C662.287 167.831 655.482 168.258 648.242 165.898C645.003 164.842 642.797 161.836 642.797 158.431Z" fill="url(#paint34_linear_10_770)"/>
<path d="M649.882 139.675L648.601 129.427C648.234 126.493 649.852 123.648 652.59 122.529C655.474 121.35 659.607 120.831 664.566 123.519C666.438 124.534 667.595 126.512 667.595 128.642V139.675C662.05 143.706 656.184 144.132 649.882 139.675Z" fill="url(#paint35_linear_10_770)"/>
<path d="M662.281 132.591C662.281 132.591 669.367 145.875 676.452 148.533C683.538 151.19 761.614 159.77 763.247 156.504C766.79 149.418 696.822 130.819 687.966 129.933C687.966 129.933 661.396 126.391 662.281 132.591Z" fill="url(#paint36_linear_10_770)"/>
<path d="M515.703 157.831C515.703 157.831 384.625 154.288 375.768 160.488C366.911 166.688 372.225 180.858 375.768 183.515C379.311 186.172 474.077 200.343 474.077 200.343L515.703 157.831Z" fill="url(#paint37_linear_10_770)"/>
<path d="M392.983 128.411C392.983 128.411 404.131 119.269 412.398 117.767C420.665 116.265 484.293 121.783 486.296 126.543C488.299 131.302 392.355 139.058 392.983 128.411Z" fill="url(#paint38_linear_10_770)"/>
<path d="M405.438 158.431V143.627C405.438 139.627 402.427 136.288 398.453 135.838C392.926 135.212 385.105 135.022 378.727 137.552C375.586 138.799 373.656 141.988 373.897 145.359L374.931 159.836C375.186 163.4 377.812 166.341 381.327 166.985C385.948 167.831 392.753 168.258 399.993 165.898C403.231 164.842 405.438 161.836 405.438 158.431Z" fill="url(#paint39_linear_10_770)"/>
<path d="M398.567 137.962L399.633 129.427C400 126.493 398.382 123.648 395.645 122.529C392.761 121.35 388.628 120.831 383.669 123.519C381.796 124.534 380.639 126.512 380.639 128.642V139.675C385.736 143.38 391.104 144.04 396.832 140.661C397.801 140.09 398.427 139.078 398.567 137.962Z" fill="url(#paint40_linear_10_770)"/>
<path d="M386.093 132.794C386.093 132.794 377.199 144.942 369.809 146.57C362.419 148.197 283.913 145.641 282.759 142.177C280.255 134.661 352.151 126.152 361.043 126.529C361.043 126.529 387.847 126.782 386.093 132.794Z" fill="url(#paint41_linear_10_770)"/>
<path d="M757.492 155.708C757.469 155.708 757.447 155.706 757.423 155.704C756.866 155.633 701.426 148.586 684.783 145.96C667.81 143.28 664.979 133.584 664.866 133.173C664.789 132.889 664.955 132.597 665.24 132.518C665.527 132.443 665.817 132.607 665.895 132.891C665.922 132.985 668.706 142.341 684.949 144.905C701.577 147.53 757 154.574 757.558 154.645C757.85 154.683 758.057 154.949 758.021 155.242C757.986 155.512 757.756 155.708 757.492 155.708Z" fill="white"/>
<path opacity="0.65" d="M659.157 129.457C658.479 129.457 657.74 129.413 656.934 129.311C653.637 128.9 651.567 128.058 650.781 126.811C650.308 126.061 650.505 125.445 650.514 125.42C650.562 125.28 650.711 125.205 650.851 125.251C650.991 125.297 651.066 125.446 651.022 125.586C651.015 125.605 650.9 126.015 651.246 126.547C651.735 127.299 653.129 128.298 657.001 128.782C663.786 129.623 665.568 126.302 665.586 126.269C665.652 126.138 665.814 126.085 665.944 126.152C666.075 126.218 666.128 126.377 666.063 126.509C665.995 126.644 664.52 129.457 659.157 129.457Z" fill="white"/>
<path opacity="0.6" d="M389.895 129.818C389.353 129.818 388.772 129.798 388.149 129.757C385.442 129.575 383.806 128.929 383.288 127.835C382.805 126.814 383.492 125.834 383.522 125.793C383.607 125.673 383.774 125.645 383.892 125.73C384.013 125.815 384.041 125.982 383.957 126.102C383.951 126.11 383.421 126.875 383.773 127.611C384.069 128.232 385.075 129.016 388.185 129.224C395.826 129.738 396.758 126.791 396.767 126.761C396.806 126.622 396.956 126.538 397.094 126.578C397.236 126.616 397.318 126.761 397.281 126.902C397.247 127.03 396.419 129.817 389.895 129.818Z" fill="white"/>
<path d="M356.748 143.867C338.641 143.867 289.915 140.247 289.375 140.207C289.081 140.184 288.861 139.929 288.883 139.635C288.905 139.34 289.181 139.116 289.455 139.143C290.049 139.186 348.894 143.548 361.116 142.686C373.163 141.825 381.928 132.327 382.015 132.231C382.215 132.015 382.551 131.998 382.77 132.195C382.987 132.393 383.003 132.73 382.805 132.95C382.715 133.048 373.66 142.859 361.191 143.75C360.072 143.83 358.564 143.867 356.748 143.867Z" fill="white"/>
<path d="M535.86 153.189C544.67 153.189 553.288 155.719 560.699 160.482C583.743 175.296 635.793 207.967 654.859 213.415C679.658 220.5 695.6 223.157 696.486 233.785C697.371 244.413 679.658 254.156 654.859 247.07C629.272 239.76 578.225 251.499 561.741 256.173C558.156 257.19 554.447 257.698 550.72 257.698H496.576C492.85 257.698 489.14 257.19 485.555 256.173C469.072 251.499 418.024 239.76 392.437 247.07C367.639 254.155 349.925 244.413 350.811 233.785C351.697 223.157 367.639 220.5 392.437 213.415C411.504 207.967 463.553 175.296 486.597 160.482C494.008 155.718 502.626 153.189 511.436 153.189H535.86Z" fill="url(#paint42_linear_10_770)"/>
<path opacity="0.33" d="M359.663 239.802C363.122 240.953 366.657 241.84 370.239 242.438C373.818 243.014 377.447 243.321 381.026 243.087C382.812 242.966 384.583 242.717 386.302 242.298C388.015 241.858 389.667 241.234 391.192 240.401C391.967 239.999 392.668 239.492 393.375 238.994C394.032 238.434 394.7 237.887 395.268 237.236C396.421 235.961 397.429 234.534 398.125 232.934L398.407 232.347L398.634 231.732L399.095 230.499L400.109 227.817C400.528 226.959 400.935 226.094 401.367 225.244L402.848 222.798C404.956 219.619 407.596 216.84 410.492 214.429C416.316 209.618 423.04 206.12 429.974 203.426C443.897 198.039 458.632 195.438 473.336 193.906C488.074 192.452 502.901 192.221 517.672 192.879C532.444 193.599 547.166 195.231 561.734 197.786C576.285 200.397 590.723 203.871 604.668 208.928C608.147 210.21 611.605 211.557 614.991 213.085C618.386 214.591 621.731 216.224 624.971 218.067C628.213 219.901 631.377 221.898 634.357 224.178L636.547 225.948C637.266 226.552 637.949 227.204 638.651 227.83C639.346 228.465 639.982 229.17 640.649 229.838C641.309 230.508 641.893 231.154 642.534 231.793C645.079 234.304 647.953 236.449 651.234 237.826C654.491 239.243 658.025 240.033 661.611 240.436C665.2 240.84 668.85 240.903 672.494 240.721C676.14 240.591 679.783 240.19 683.42 239.764L683.439 239.761C683.925 239.705 684.365 240.052 684.422 240.538C684.479 241.021 684.136 241.458 683.654 241.52C679.981 241.987 676.298 242.428 672.582 242.598C668.873 242.819 665.13 242.794 661.396 242.411C657.668 242.028 653.925 241.239 650.404 239.748C646.86 238.302 643.701 235.992 640.99 233.362C640.319 232.71 639.667 231.988 639.031 231.35C638.393 230.719 637.793 230.053 637.126 229.449C636.451 228.852 635.8 228.232 635.107 227.654L632.994 225.959C630.113 223.77 627.027 221.836 623.854 220.055C620.684 218.265 617.396 216.673 614.053 215.203C610.718 213.712 607.303 212.394 603.866 211.141C590.081 206.193 575.749 202.792 561.302 200.25C546.837 197.758 532.209 196.206 517.549 195.512C502.89 194.812 488.177 194.994 473.581 196.385C459.022 197.851 444.449 200.389 430.825 205.613C424.04 208.22 417.515 211.606 411.949 216.174C409.181 218.463 406.686 221.08 404.709 224.041L403.322 226.316L402.145 228.702L401.197 231.185L400.686 232.538L400.426 233.215L400.106 233.871C398.465 237.383 395.654 240.451 392.189 242.234C390.474 243.15 388.648 243.816 386.788 244.273C384.923 244.709 383.032 244.955 381.144 245.065C377.362 245.275 373.606 244.916 369.924 244.287C366.245 243.637 362.623 242.69 359.103 241.482L359.096 241.48C358.633 241.321 358.387 240.817 358.546 240.354C358.704 239.894 359.203 239.648 359.663 239.802Z" fill="white"/>
<path d="M366.986 191.1C366.986 191.1 355.724 182.562 346.511 180.427C337.297 178.293 263.588 175.447 260.517 179.004C257.446 182.562 365.962 199.638 366.986 191.1Z" fill="url(#paint43_linear_10_770)"/>
<path d="M388.318 223.417V206.305C388.318 201.682 384.837 197.821 380.244 197.301C373.856 196.578 364.815 196.358 357.443 199.283C353.812 200.724 351.581 204.41 351.86 208.307L353.055 225.041C353.349 229.16 356.386 232.56 360.448 233.305C365.79 234.283 373.656 234.776 382.024 232.048C385.767 230.827 388.318 227.354 388.318 223.417Z" fill="url(#paint44_linear_10_770)"/>
<path d="M380.128 201.738L381.609 189.892C382.029 186.532 380.204 183.25 377.076 181.951C373.739 180.565 368.931 179.932 363.155 183.063C360.991 184.236 359.654 186.522 359.654 188.984L359.79 199.315C359.815 201.221 360.894 202.957 362.588 203.832C368.138 206.7 373.885 206.154 380.128 201.738Z" fill="url(#paint45_linear_10_770)"/>
<path d="M373.173 193.844C373.173 193.844 383.001 208.207 391.479 210.359C399.957 212.512 490.75 212.447 492.211 208.487C495.381 199.896 412.632 187.42 402.344 187.528C402.344 187.528 371.368 186.834 373.173 193.844Z" fill="url(#paint46_linear_10_770)"/>
<path d="M676.391 192.807C676.391 192.807 685.978 182.424 694.673 178.705C703.369 174.985 775.433 159.239 779.081 162.202C782.729 165.165 678.898 201.033 676.391 192.807Z" fill="url(#paint47_linear_10_770)"/>
<path d="M654.867 223.418V206.305C654.867 201.683 658.348 197.822 662.941 197.302C669.329 196.579 678.369 196.359 685.742 199.284C689.373 200.725 691.604 204.411 691.326 208.308L690.13 225.042C689.836 229.161 686.8 232.561 682.737 233.306C677.396 234.284 669.529 234.777 661.161 232.049C657.418 230.828 654.867 227.354 654.867 223.418Z" fill="url(#paint48_linear_10_770)"/>
<path d="M663.057 201.738L661.576 189.892C661.152 186.5 663.023 183.212 666.187 181.919C669.52 180.556 674.298 179.957 680.03 183.063C682.195 184.236 683.532 186.523 683.532 188.985V201.738C677.122 206.397 670.341 206.89 663.057 201.738Z" fill="url(#paint49_linear_10_770)"/>
<path d="M668.01 196.19C668.01 196.19 660.857 212.055 652.889 215.663C644.92 219.27 555.528 235.151 553.394 231.509C548.765 223.609 628.037 196.795 638.184 195.094C638.184 195.094 668.557 188.972 668.01 196.19Z" fill="url(#paint50_linear_10_770)"/>
<path opacity="0.54" d="M672.962 189.683C672.133 189.683 671.224 189.638 670.226 189.538C666.76 189.192 664.773 188.346 664.319 187.025C663.86 185.689 665.142 184.445 665.197 184.392C665.304 184.292 665.473 184.296 665.574 184.4C665.675 184.507 665.672 184.676 665.566 184.778C665.555 184.789 664.475 185.841 664.824 186.853C665.086 187.613 666.246 188.603 670.279 189.007C678.798 189.858 680.627 186.529 680.643 186.495C680.71 186.363 680.872 186.312 681.001 186.379C681.132 186.445 681.185 186.603 681.12 186.735C681.052 186.87 679.559 189.682 672.962 189.683Z" fill="white"/>
<path d="M562.199 229.661C561.944 229.661 561.718 229.477 561.674 229.216C561.625 228.926 561.821 228.651 562.112 228.601C562.74 228.495 625.178 217.944 640.938 215.316C656.204 212.772 662.107 198.104 662.408 197.273C662.42 197.047 662.576 196.845 662.807 196.785C662.995 196.734 663.203 196.795 663.336 196.94C663.568 197.19 663.467 197.484 663.394 197.699C663.34 197.857 657.252 213.678 641.113 216.368C625.354 218.996 562.918 229.547 562.289 229.653C562.259 229.659 562.229 229.661 562.199 229.661Z" fill="white"/>
<path d="M687.08 191.579C686.84 191.579 686.623 191.416 686.563 191.174C686.491 190.887 686.664 190.598 686.951 190.527C687.552 190.376 747.403 175.341 771.865 163.11C772.126 162.981 772.448 163.085 772.582 163.349C772.713 163.613 772.606 163.933 772.343 164.066C747.776 176.349 687.812 191.411 687.21 191.562C687.166 191.573 687.122 191.579 687.08 191.579Z" fill="white"/>
<path d="M484.262 208.406C484.26 208.406 484.257 208.406 484.255 208.406C483.661 208.397 424.653 207.499 403.623 205.746C382.262 203.966 378.511 193.431 378.361 192.984C378.269 192.704 378.419 192.403 378.698 192.309C378.976 192.215 379.278 192.366 379.373 192.644C379.408 192.747 383.117 202.967 403.711 204.683C424.705 206.432 483.677 207.329 484.27 207.338C484.565 207.342 484.801 207.585 484.796 207.879C484.792 208.171 484.553 208.406 484.262 208.406Z" fill="white"/>
<path opacity="0.33" d="M521.018 252.298C521.018 253.521 520.026 254.512 518.803 254.512C517.581 254.512 516.589 253.521 516.589 252.298C516.589 251.075 517.581 250.084 518.803 250.084C520.026 250.084 521.018 251.075 521.018 252.298Z" fill="white"/>
<path opacity="0.33" d="M522.346 258.055C521.612 258.055 521.017 257.46 521.017 256.726C521.017 255.992 521.612 255.397 522.346 255.397C523.08 255.397 523.675 255.992 523.675 256.726C523.675 257.46 523.08 258.055 522.346 258.055Z" fill="white"/>
<path d="M486.991 242.678C487.735 251.866 489.233 268.336 491.148 278.773C491.495 280.665 493.079 282.071 494.997 282.207C505.975 282.983 542.117 285.152 555.599 281.187C557.187 280.72 558.334 279.343 558.554 277.703C559.476 270.797 562.005 251.177 562.543 239.703C562.644 237.53 561.09 235.64 558.939 235.318C549.964 233.973 509.475 235.142 493.241 235.678C489.539 235.8 486.692 238.987 486.991 242.678Z" fill="url(#paint51_linear_10_770)"/>
<path d="M523.675 277.539C533.947 277.539 542.274 269.212 542.274 258.94C542.274 248.668 533.947 240.341 523.675 240.341C513.403 240.341 505.075 248.668 505.075 258.94C505.075 269.212 513.403 277.539 523.675 277.539Z" fill="url(#paint52_linear_10_770)"/>
<path d="M524.118 274.882C532.678 274.882 539.617 267.943 539.617 259.383C539.617 250.823 532.678 243.884 524.118 243.884C515.558 243.884 508.618 250.823 508.618 259.383C508.618 267.943 515.558 274.882 524.118 274.882Z" fill="url(#paint53_linear_10_770)"/>
<path d="M524.117 273.111C531.699 273.111 537.845 266.965 537.845 259.383C537.845 251.802 531.699 245.655 524.117 245.655C516.536 245.655 510.389 251.802 510.389 259.383C510.389 266.965 516.536 273.111 524.117 273.111Z" fill="url(#paint54_linear_10_770)"/>
<path opacity="0.33" d="M524.171 362.563C498.871 362.563 474.666 354.789 454.17 340.08C452.115 338.605 451.645 335.745 453.119 333.69C454.592 331.635 457.455 331.165 459.508 332.639C478.439 346.225 500.798 353.406 524.17 353.406C547.543 353.406 569.902 346.225 588.832 332.639C590.886 331.165 593.747 331.635 595.221 333.69C596.696 335.745 596.226 338.605 594.171 340.08C573.676 354.789 549.47 362.563 524.171 362.563Z" fill="white"/>
<path opacity="0.33" d="M524.171 336.856C503.435 336.856 483.605 330.432 466.826 318.276C464.778 316.793 464.321 313.93 465.804 311.882C467.287 309.834 470.151 309.377 472.199 310.86C487.404 321.876 505.376 327.699 524.171 327.699C542.965 327.699 560.937 321.876 576.143 310.86C578.192 309.376 581.054 309.835 582.537 311.882C584.02 313.93 583.563 316.793 581.515 318.276C564.737 330.432 544.907 336.856 524.171 336.856Z" fill="white"/>
<path opacity="0.33" d="M524.171 310.481C509.462 310.481 495.455 305.862 483.662 297.123C481.631 295.617 481.205 292.749 482.71 290.717C484.216 288.686 487.083 288.26 489.115 289.765C499.318 297.327 511.441 301.324 524.171 301.324C536.901 301.324 549.023 297.327 559.226 289.765C561.259 288.261 564.126 288.686 565.631 290.717C567.137 292.75 566.711 295.617 564.679 297.123C552.887 305.862 538.879 310.481 524.171 310.481Z" fill="white"/>
<defs>
<linearGradient id="paint0_linear_10_770" x1="-114.883" y1="-58.9885" x2="640.243" y2="610.077" gradientUnits="userSpaceOnUse">
<stop stop-color="#DAE3FE"/>
<stop offset="1" stop-color="#E9EFFD"/>
</linearGradient>
<linearGradient id="paint1_linear_10_770" x1="91.4287" y1="395.278" x2="927.515" y2="395.278" gradientUnits="userSpaceOnUse">
<stop stop-color="#4F52FF"/>
<stop offset="1" stop-color="#4042E2"/>
</linearGradient>
<linearGradient id="paint2_linear_10_770" x1="846.828" y1="369.919" x2="179.037" y2="878.379" gradientUnits="userSpaceOnUse">
<stop stop-color="#09005D"/>
<stop offset="1" stop-color="#1A0F91"/>
</linearGradient>
<linearGradient id="paint3_linear_10_770" x1="592.893" y1="317.995" x2="381.263" y2="1039.17" gradientUnits="userSpaceOnUse">
<stop stop-color="#FF928E"/>
<stop offset="1" stop-color="#FE7062"/>
</linearGradient>
<linearGradient id="paint4_linear_10_770" x1="824.656" y1="631.127" x2="31.4503" y2="633.357" gradientUnits="userSpaceOnUse">
<stop stop-color="#FEBBBA"/>
<stop offset="1" stop-color="#FF928E"/>
</linearGradient>
<linearGradient id="paint5_linear_10_770" x1="622.806" y1="444.262" x2="610.351" y2="600.521" gradientUnits="userSpaceOnUse">
<stop stop-color="#FEBBBA"/>
<stop offset="1" stop-color="#FF928E"/>
</linearGradient>
<linearGradient id="paint6_linear_10_770" x1="598.284" y1="747.981" x2="660.939" y2="644.564" gradientUnits="userSpaceOnUse">
<stop stop-color="#E1473D"/>
<stop offset="1" stop-color="#E9605A"/>
</linearGradient>
<linearGradient id="paint7_linear_10_770" x1="1645.15" y1="2644.11" x2="1600.87" y2="2570.42" gradientUnits="userSpaceOnUse">
<stop stop-color="#E1473D"/>
<stop offset="1" stop-color="#E9605A"/>
</linearGradient>
<linearGradient id="paint8_linear_10_770" x1="3223.95" y1="2988.42" x2="3170.04" y2="2941.59" gradientUnits="userSpaceOnUse">
<stop stop-color="#E1473D"/>
<stop offset="1" stop-color="#E9605A"/>
</linearGradient>
<linearGradient id="paint9_linear_10_770" x1="3826.77" y1="2875.76" x2="3782.03" y2="2845.48" gradientUnits="userSpaceOnUse">
<stop stop-color="#E1473D"/>
<stop offset="1" stop-color="#E9605A"/>
</linearGradient>
<linearGradient id="paint10_linear_10_770" x1="753.14" y1="311.848" x2="743.078" y2="349.527" gradientUnits="userSpaceOnUse">
<stop stop-color="#E1473D"/>
<stop offset="1" stop-color="#E9605A"/>
</linearGradient>
<linearGradient id="paint11_linear_10_770" x1="762.957" y1="314.47" x2="752.894" y2="352.149" gradientUnits="userSpaceOnUse">
<stop stop-color="#E1473D"/>
<stop offset="1" stop-color="#E9605A"/>
</linearGradient>
<linearGradient id="paint12_linear_10_770" x1="772.773" y1="317.092" x2="762.71" y2="354.77" gradientUnits="userSpaceOnUse">
<stop stop-color="#E1473D"/>
<stop offset="1" stop-color="#E9605A"/>
</linearGradient>
<linearGradient id="paint13_linear_10_770" x1="654.706" y1="961.022" x2="652.915" y2="915.348" gradientUnits="userSpaceOnUse">
<stop stop-color="#09005D"/>
<stop offset="1" stop-color="#1A0F91"/>
</linearGradient>
<linearGradient id="paint14_linear_10_770" x1="646.712" y1="895.965" x2="745.758" y2="950.408" gradientUnits="userSpaceOnUse">
<stop stop-color="#A22B25"/>
<stop offset="1" stop-color="#C0423C"/>
</linearGradient>
<linearGradient id="paint15_linear_10_770" x1="685.994" y1="659.639" x2="676.18" y2="454.314" gradientUnits="userSpaceOnUse">
<stop stop-color="#4F52FF"/>
<stop offset="1" stop-color="#4042E2"/>
</linearGradient>
<linearGradient id="paint16_linear_10_770" x1="727.95" y1="958.149" x2="726.159" y2="912.476" gradientUnits="userSpaceOnUse">
<stop stop-color="#09005D"/>
<stop offset="1" stop-color="#1A0F91"/>
</linearGradient>
<linearGradient id="paint17_linear_10_770" x1="760.773" y1="922.1" x2="844.733" y2="952.929" gradientUnits="userSpaceOnUse">
<stop stop-color="#A22B25"/>
<stop offset="1" stop-color="#C0423C"/>
</linearGradient>
<linearGradient id="paint18_linear_10_770" x1="712.187" y1="658.388" x2="702.373" y2="453.062" gradientUnits="userSpaceOnUse">
<stop stop-color="#4F52FF"/>
<stop offset="1" stop-color="#4042E2"/>
</linearGradient>
<linearGradient id="paint19_linear_10_770" x1="-2260.02" y1="3354.13" x2="-2063" y2="3170.7" gradientUnits="userSpaceOnUse">
<stop stop-color="#4F52FF"/>
<stop offset="1" stop-color="#4042E2"/>
</linearGradient>
<linearGradient id="paint20_linear_10_770" x1="-2355.94" y1="3251.1" x2="-2158.92" y2="3067.67" gradientUnits="userSpaceOnUse">
<stop stop-color="#4F52FF"/>
<stop offset="1" stop-color="#4042E2"/>
</linearGradient>
<linearGradient id="paint21_linear_10_770" x1="561.344" y1="508.864" x2="612.552" y2="625.373" gradientUnits="userSpaceOnUse">
<stop stop-color="#A22B25"/>
<stop offset="1" stop-color="#C0423C"/>
</linearGradient>
<linearGradient id="paint22_linear_10_770" x1="558.022" y1="490.528" x2="536.655" y2="457.676" gradientUnits="userSpaceOnUse">
<stop stop-color="#A22B25"/>
<stop offset="1" stop-color="#C0423C"/>
</linearGradient>
<linearGradient id="paint23_linear_10_770" x1="720.605" y1="627.412" x2="777.221" y2="563.247" gradientUnits="userSpaceOnUse">
<stop stop-color="#4F52FF"/>
<stop offset="1" stop-color="#4042E2"/>
</linearGradient>
<linearGradient id="paint24_linear_10_770" x1="732.206" y1="637.648" x2="788.822" y2="573.484" gradientUnits="userSpaceOnUse">
<stop stop-color="#4F52FF"/>
<stop offset="1" stop-color="#4042E2"/>
</linearGradient>
<linearGradient id="paint25_linear_10_770" x1="684.804" y1="555.109" x2="596.257" y2="696.784" gradientUnits="userSpaceOnUse">
<stop stop-color="#09005D"/>
<stop offset="1" stop-color="#1A0F91"/>
</linearGradient>
<linearGradient id="paint26_linear_10_770" x1="698.242" y1="619.627" x2="668.155" y2="619.627" gradientUnits="userSpaceOnUse">
<stop stop-color="#A22B25"/>
<stop offset="1" stop-color="#C0423C"/>
</linearGradient>
<linearGradient id="paint27_linear_10_770" x1="684.994" y1="497.877" x2="670.652" y2="445.035" gradientUnits="userSpaceOnUse">
<stop stop-color="#A22B25"/>
<stop offset="1" stop-color="#C0423C"/>
</linearGradient>
<linearGradient id="paint28_linear_10_770" x1="666.226" y1="502.216" x2="708.208" y2="476.61" gradientUnits="userSpaceOnUse">
<stop stop-color="#A22B25"/>
<stop offset="1" stop-color="#C0423C"/>
</linearGradient>
<linearGradient id="paint29_linear_10_770" x1="731.258" y1="450.666" x2="677.022" y2="493.503" gradientUnits="userSpaceOnUse">
<stop stop-color="#09005D"/>
<stop offset="1" stop-color="#1A0F91"/>
</linearGradient>
<linearGradient id="paint30_linear_10_770" x1="677.253" y1="511.765" x2="715.025" y2="488.727" gradientUnits="userSpaceOnUse">
<stop stop-color="#A22B25"/>
<stop offset="1" stop-color="#C0423C"/>
</linearGradient>
<linearGradient id="paint31_linear_10_770" x1="703.725" y1="684.166" x2="681.839" y2="126.07" gradientUnits="userSpaceOnUse">
<stop stop-color="#4F52FF"/>
<stop offset="1" stop-color="#4042E2"/>
</linearGradient>
<linearGradient id="paint32_linear_10_770" x1="630.213" y1="37.5051" x2="614.361" y2="117.522" gradientUnits="userSpaceOnUse">
<stop stop-color="#E1473D"/>
<stop offset="1" stop-color="#E9605A"/>
</linearGradient>
<linearGradient id="paint33_linear_10_770" x1="563.917" y1="120.168" x2="656.082" y2="120.168" gradientUnits="userSpaceOnUse">
<stop stop-color="#DAE3FE"/>
<stop offset="1" stop-color="#E9EFFD"/>
</linearGradient>
<linearGradient id="paint34_linear_10_770" x1="642.797" y1="151.547" x2="674.358" y2="151.547" gradientUnits="userSpaceOnUse">
<stop stop-color="#09005D"/>
<stop offset="1" stop-color="#1A0F91"/>
</linearGradient>
<linearGradient id="paint35_linear_10_770" x1="658.072" y1="99.6945" x2="658.072" y2="183.485" gradientUnits="userSpaceOnUse">
<stop stop-color="#E1473D"/>
<stop offset="1" stop-color="#E9605A"/>
</linearGradient>
<linearGradient id="paint36_linear_10_770" x1="662.26" y1="143.08" x2="763.377" y2="143.08" gradientUnits="userSpaceOnUse">
<stop stop-color="#DAE3FE"/>
<stop offset="1" stop-color="#E9EFFD"/>
</linearGradient>
<linearGradient id="paint37_linear_10_770" x1="495.745" y1="47.6191" x2="472.344" y2="98.9505" gradientUnits="userSpaceOnUse">
<stop stop-color="#E1473D"/>
<stop offset="1" stop-color="#E9605A"/>
</linearGradient>
<linearGradient id="paint38_linear_10_770" x1="392.98" y1="125.635" x2="486.327" y2="125.635" gradientUnits="userSpaceOnUse">
<stop stop-color="#DAE3FE"/>
<stop offset="1" stop-color="#E9EFFD"/>
</linearGradient>
<linearGradient id="paint39_linear_10_770" x1="373.876" y1="151.547" x2="405.438" y2="151.547" gradientUnits="userSpaceOnUse">
<stop stop-color="#09005D"/>
<stop offset="1" stop-color="#1A0F91"/>
</linearGradient>
<linearGradient id="paint40_linear_10_770" x1="387.682" y1="139.248" x2="362.771" y2="220.775" gradientUnits="userSpaceOnUse">
<stop stop-color="#E1473D"/>
<stop offset="1" stop-color="#E9605A"/>
</linearGradient>
<linearGradient id="paint41_linear_10_770" x1="282.695" y1="136.794" x2="386.176" y2="136.794" gradientUnits="userSpaceOnUse">
<stop stop-color="#DAE3FE"/>
<stop offset="1" stop-color="#E9EFFD"/>
</linearGradient>
<linearGradient id="paint42_linear_10_770" x1="538.579" y1="93.3835" x2="519.897" y2="270.015" gradientUnits="userSpaceOnUse">
<stop stop-color="#FF928E"/>
<stop offset="1" stop-color="#FE7062"/>
</linearGradient>
<linearGradient id="paint43_linear_10_770" x1="260.453" y1="185.39" x2="366.986" y2="185.39" gradientUnits="userSpaceOnUse">
<stop stop-color="#DAE3FE"/>
<stop offset="1" stop-color="#E9EFFD"/>
</linearGradient>
<linearGradient id="paint44_linear_10_770" x1="351.836" y1="215.46" x2="388.318" y2="215.46" gradientUnits="userSpaceOnUse">
<stop stop-color="#09005D"/>
<stop offset="1" stop-color="#1A0F91"/>
</linearGradient>
<linearGradient id="paint45_linear_10_770" x1="370.161" y1="192.639" x2="386.286" y2="225.409" gradientUnits="userSpaceOnUse">
<stop stop-color="#E1473D"/>
<stop offset="1" stop-color="#E9605A"/>
</linearGradient>
<linearGradient id="paint46_linear_10_770" x1="373.097" y1="199.641" x2="492.3" y2="199.641" gradientUnits="userSpaceOnUse">
<stop stop-color="#DAE3FE"/>
<stop offset="1" stop-color="#E9EFFD"/>
</linearGradient>
<linearGradient id="paint47_linear_10_770" x1="676.391" y1="177.931" x2="779.175" y2="177.931" gradientUnits="userSpaceOnUse">
<stop stop-color="#DAE3FE"/>
<stop offset="1" stop-color="#E9EFFD"/>
</linearGradient>
<linearGradient id="paint48_linear_10_770" x1="654.867" y1="215.461" x2="691.349" y2="215.461" gradientUnits="userSpaceOnUse">
<stop stop-color="#09005D"/>
<stop offset="1" stop-color="#1A0F91"/>
</linearGradient>
<linearGradient id="paint49_linear_10_770" x1="672.824" y1="194.912" x2="675.422" y2="246.353" gradientUnits="userSpaceOnUse">
<stop stop-color="#E1473D"/>
<stop offset="1" stop-color="#E9605A"/>
</linearGradient>
<linearGradient id="paint50_linear_10_770" x1="553.199" y1="212.359" x2="668.018" y2="212.359" gradientUnits="userSpaceOnUse">
<stop stop-color="#DAE3FE"/>
<stop offset="1" stop-color="#E9EFFD"/>
</linearGradient>
<linearGradient id="paint51_linear_10_770" x1="560.894" y1="194.696" x2="650.347" y2="42.9661" gradientUnits="userSpaceOnUse">
<stop stop-color="#E1473D"/>
<stop offset="1" stop-color="#E9605A"/>
</linearGradient>
<linearGradient id="paint52_linear_10_770" x1="505.076" y1="258.94" x2="542.274" y2="258.94" gradientUnits="userSpaceOnUse">
<stop stop-color="#DAE3FE"/>
<stop offset="1" stop-color="#E9EFFD"/>
</linearGradient>
<linearGradient id="paint53_linear_10_770" x1="508.618" y1="259.383" x2="539.617" y2="259.383" gradientUnits="userSpaceOnUse">
<stop stop-color="#FF928E"/>
<stop offset="1" stop-color="#FE7062"/>
</linearGradient>
<linearGradient id="paint54_linear_10_770" x1="510.39" y1="259.383" x2="537.845" y2="259.383" gradientUnits="userSpaceOnUse">
<stop stop-color="#09005D"/>
<stop offset="1" stop-color="#1A0F91"/>
</linearGradient>
</defs>
</svg>
