<svg width="218" height="244" viewBox="0 0 218 244" fill="none" xmlns="http://www.w3.org/2000/svg">
<path d="M10.1416 72.2483L203.595 69.0019C211.384 68.8712 217.635 75.5048 217.173 83.409L210.514 197.122C210.149 203.346 205.109 208.221 198.976 208.281L13.0197 210.107C8.42656 210.152 4.63171 206.475 4.45676 201.809L0.00763251 83.1279C-0.212586 77.2546 4.36028 72.3453 10.1416 72.2483Z" fill="url(#paint0_linear_10_770)"/>
<path d="M13.1069 75.1451L201.512 72.0565C209.097 71.9321 215.185 78.2434 214.734 85.7635L208.249 193.951C207.895 199.872 202.985 204.51 197.012 204.567L15.9099 206.305C11.4367 206.348 7.74089 202.849 7.57051 198.41L3.23753 85.4961C3.02309 79.9082 7.47661 75.2374 13.1069 75.1451Z" fill="url(#paint1_linear_10_770)"/>
<path d="M110.42 199.063C143.735 199.063 170.743 172.243 170.743 139.16C170.743 106.077 143.735 79.2578 110.42 79.2578C77.1048 79.2578 50.0974 106.077 50.0974 139.16C50.0974 172.243 77.1048 199.063 110.42 199.063Z" fill="url(#paint2_linear_10_770)"/>
<path d="M148.459 185.652C169.115 168.986 175.776 141.558 166.91 118.108C141.632 127.857 108.417 140.777 108.417 140.777L90.9862 195.873C109.973 202.269 131.749 199.134 148.459 185.652Z" fill="url(#paint3_linear_10_770)"/>
<g opacity="0.68">
<path d="M80.7056 88.5118L80.1266 88.8438L139.368 190.735L139.947 190.403L80.7056 88.5118Z" fill="white"/>
<path d="M58.9002 109.922L58.5659 110.497L161.172 169.326L161.506 168.751L58.9002 109.922Z" fill="white"/>
<path d="M169.283 139.294H50.8008V139.958H169.283V139.294Z" fill="white"/>
<path d="M161.172 109.923L58.5658 168.752L58.9001 169.327L161.506 110.498L161.172 109.923Z" fill="white"/>
<path d="M169.283 139.294H50.8008V139.958H169.283V139.294Z" fill="white"/>
<path d="M161.172 109.923L58.5658 168.752L58.9001 169.327L161.506 110.498L161.172 109.923Z" fill="white"/>
<path d="M139.368 88.5161L80.1263 190.407L80.7053 190.739L139.947 88.8481L139.368 88.5161Z" fill="white"/>
<path d="M110.376 80.7969H109.708V198.454H110.376V80.7969Z" fill="white"/>
<path d="M110.471 189.3C108.718 189.3 106.955 189.21 105.187 189.029C91.7877 187.652 79.7303 181.176 71.2355 170.794C53.7002 149.362 56.9925 117.759 78.5746 100.345C100.158 82.9319 131.982 86.202 149.518 107.633C167.053 129.065 163.761 160.669 142.178 178.082C133.103 185.404 122.006 189.3 110.471 189.3ZM110.33 89.7307C99.28 89.7307 88.1649 93.3505 78.9407 100.793C57.6066 118.006 54.3523 149.245 71.6861 170.431C80.0828 180.693 92.0017 187.095 105.247 188.455C118.494 189.815 131.478 185.973 141.812 177.635C152.147 169.296 158.593 157.461 159.963 144.308C161.334 131.155 157.464 118.26 149.067 107.997C139.228 95.9717 124.836 89.7307 110.33 89.7307Z" fill="white"/>
<path d="M110.413 178.213C98.9793 178.213 87.6386 173.296 79.8833 163.817C66.2224 147.12 68.7874 122.5 85.6009 108.934C93.7465 102.362 103.984 99.3338 114.419 100.406C124.858 101.478 134.252 106.523 140.87 114.611C147.487 122.7 150.537 132.863 149.457 143.229C148.377 153.595 143.297 162.923 135.152 169.495C127.883 175.36 119.12 178.213 110.413 178.213ZM110.304 100.771C101.45 100.771 92.9334 103.76 85.967 109.381C69.4018 122.747 66.8747 147.003 80.3338 163.454C93.7935 179.904 118.22 182.413 134.786 169.048C142.81 162.573 147.816 153.383 148.88 143.17C149.944 132.957 146.939 122.944 140.419 114.975C133.899 107.006 124.644 102.036 114.36 100.979C113.003 100.84 111.649 100.771 110.304 100.771Z" fill="white"/>
<path d="M110.429 167.168C109.45 167.168 108.467 167.118 107.48 167.017C100.002 166.248 93.2724 162.634 88.5313 156.84C78.7445 144.878 80.5821 127.24 92.6273 117.521C104.673 107.803 122.435 109.628 132.222 121.589C136.962 127.384 139.148 134.664 138.374 142.091C137.6 149.517 133.96 156.199 128.125 160.907C123.06 164.994 116.867 167.168 110.429 167.168ZM110.351 111.852C104.24 111.852 98.0943 113.854 92.9935 117.969C81.1963 127.487 79.397 144.761 88.982 156.476C93.625 162.151 100.216 165.691 107.54 166.443C114.864 167.197 122.045 165.071 127.759 160.46C133.474 155.849 137.039 149.304 137.796 142.031C138.554 134.758 136.414 127.628 131.771 121.953C126.331 115.303 118.372 111.852 110.351 111.852Z" fill="white"/>
<path d="M110.392 156.093C105.444 156.093 100.536 153.965 97.179 149.863C94.3149 146.362 92.9951 141.964 93.4624 137.478C93.9298 132.991 96.1287 128.954 99.6537 126.11C103.179 123.266 107.609 121.954 112.126 122.419C116.644 122.883 120.709 125.067 123.574 128.567C129.486 135.793 128.376 146.449 121.099 152.32C117.953 154.859 114.161 156.093 110.392 156.093ZM110.361 122.912C106.721 122.912 103.059 124.105 100.02 126.557C96.6152 129.304 94.4913 133.203 94.0399 137.537C93.5884 141.87 94.8634 146.119 97.6298 149.499C103.341 156.479 113.705 157.544 120.733 151.873C127.762 146.202 128.834 135.91 123.123 128.93C119.882 124.968 115.14 122.912 110.361 122.912Z" fill="white"/>
</g>
<path d="M129.478 174.776C131.674 174.776 133.455 173.008 133.455 170.827C133.455 168.646 131.674 166.878 129.478 166.878C127.281 166.878 125.501 168.646 125.501 170.827C125.501 173.008 127.281 174.776 129.478 174.776Z" fill="url(#paint4_linear_10_770)"/>
<path d="M113.484 95.1089C115.037 93.5666 115.037 91.066 113.484 89.5238C111.931 87.9815 109.413 87.9815 107.86 89.5238C106.307 91.0661 106.307 93.5667 107.86 95.1089C109.413 96.6512 111.931 96.6512 113.484 95.1089Z" fill="white"/>
<path d="M53.981 83.5948C53.987 84.5078 54.7373 85.2432 55.6568 85.2371C56.5762 85.2311 57.3167 84.4861 57.3106 83.573C57.3045 82.66 56.5542 81.9246 55.6348 81.9307C54.7154 81.9367 53.9749 82.6818 53.981 83.5948Z" fill="url(#paint5_linear_10_770)"/>
<path d="M53.981 93.6163C53.987 94.5293 54.7373 95.2647 55.6568 95.2587C56.5762 95.2526 57.3167 94.5076 57.3106 93.5945C57.3045 92.6814 56.5542 91.9462 55.6348 91.9522C54.7154 91.9583 53.9749 92.7033 53.981 93.6163Z" fill="url(#paint6_linear_10_770)"/>
<path d="M53.981 103.64C53.987 104.553 54.7373 105.288 55.6568 105.282C56.5762 105.276 57.3167 104.531 57.3106 103.618C57.3045 102.705 56.5542 101.97 55.6348 101.976C54.7154 101.982 53.9749 102.727 53.981 103.64Z" fill="url(#paint7_linear_10_770)"/>
<path opacity="0.62" d="M51.4198 83.5087L51.413 83.7903C51.3946 84.5526 50.9706 85.1574 50.4526 85.1603L11.0228 85.2275C10.4878 85.2305 10.0533 84.5923 10.0542 83.8047C10.0551 83.0324 10.475 82.4027 10.9995 82.387L50.4361 82.0384C50.99 82.0219 51.4394 82.6938 51.4198 83.5087Z" fill="white"/>
<path opacity="0.62" d="M51.4198 93.4824L51.413 93.7639C51.3946 94.5261 50.9706 95.131 50.4526 95.1339L11.0228 95.201C10.4878 95.2041 10.0533 94.5658 10.0542 93.7783C10.0551 93.0059 10.475 92.3762 10.9995 92.3607L50.4361 92.012C50.99 91.9955 51.4394 92.6675 51.4198 93.4824Z" fill="white"/>
<path opacity="0.62" d="M51.4198 103.456L51.413 103.738C51.3946 104.5 50.9706 105.105 50.4526 105.108L11.0228 105.175C10.4878 105.178 10.0533 104.539 10.0542 103.752C10.0551 102.98 10.475 102.35 10.9995 102.334L50.4361 101.986C50.99 101.969 51.4394 102.641 51.4198 103.456Z" fill="white"/>
<path d="M165.726 81.5411C165.72 82.4541 164.97 83.1895 164.05 83.1834C163.131 83.1774 162.39 82.4324 162.396 81.5193C162.402 80.6062 163.153 79.8709 164.072 79.877C164.992 79.8831 165.732 80.6281 165.726 81.5411Z" fill="url(#paint8_linear_10_770)"/>
<path d="M165.726 91.5636C165.72 92.4766 164.97 93.212 164.05 93.2059C163.131 93.1999 162.39 92.4548 162.396 91.5418C162.402 90.6287 163.153 89.8935 164.072 89.8995C164.992 89.9055 165.732 90.6505 165.726 91.5636Z" fill="url(#paint9_linear_10_770)"/>
<path d="M165.726 101.586C165.72 102.499 164.97 103.234 164.05 103.228C163.131 103.222 162.39 102.477 162.396 101.564C162.402 100.651 163.153 99.9158 164.072 99.9219C164.992 99.9279 165.732 100.673 165.726 101.586Z" fill="url(#paint10_linear_10_770)"/>
<path opacity="0.62" d="M168.287 81.456L168.294 81.7376C168.312 82.4998 168.729 83.1047 169.238 83.1076L208.019 83.1747C208.545 83.1778 208.973 82.5396 208.972 81.752C208.971 80.9797 208.558 80.35 208.042 80.3343L169.254 79.9857C168.71 79.9691 168.268 80.641 168.287 81.456Z" fill="white"/>
<path opacity="0.62" d="M168.287 91.4286L168.294 91.7102C168.312 92.4724 168.729 93.0773 169.238 93.0802L208.019 93.1473C208.545 93.1504 208.973 92.512 208.972 91.7246C208.971 90.9522 208.558 90.3226 208.042 90.307L169.254 89.9583C168.71 89.9417 168.268 90.6136 168.287 91.4286Z" fill="white"/>
<path opacity="0.62" d="M168.287 101.402L168.294 101.684C168.312 102.446 168.729 103.051 169.238 103.054L208.019 103.121C208.545 103.124 208.973 102.486 208.972 101.698C208.971 100.926 208.558 100.296 208.042 100.281L169.254 99.9319C168.71 99.9155 168.268 100.587 168.287 101.402Z" fill="white"/>
<path d="M185.484 237.574C185.484 237.574 185.865 239.714 186.051 241.833C186.124 242.661 185.482 243.38 184.645 243.415C181.804 243.532 175.727 243.761 173.546 243.664C173.218 243.649 173.004 243.316 173.125 243.013C173.227 242.76 173.423 242.555 173.673 242.441L183.711 237.859L185.484 237.574Z" fill="url(#paint11_linear_10_770)"/>
<path d="M185.796 236.317L185.49 238.877C185.49 238.877 183.732 239.69 182.531 238.775L183.259 235.922L185.796 236.317Z" fill="url(#paint12_linear_10_770)"/>
<path d="M185.566 188.188C185.698 188.857 186.275 221.549 182.756 236.2C182.699 236.439 182.821 236.686 183.05 236.779C183.59 236.998 184.648 237.315 185.916 237.357C186.309 237.37 186.661 237.117 186.772 236.742C187.777 233.343 192.598 216.312 193.227 200.043C193.929 181.864 193.227 199.424 193.227 199.424L192.814 188.187L185.566 188.188Z" fill="url(#paint13_linear_10_770)"/>
<path d="M197.032 238.69C197.032 238.69 197.638 239.771 198.225 242.642C198.331 243.16 197.966 243.657 197.435 243.709C196.497 243.8 195.053 243.918 193.896 243.91C193.363 243.906 192.947 243.445 193.011 242.919C193.139 241.872 193.538 240.152 194.772 238.812L197.032 238.69Z" fill="url(#paint14_linear_10_770)"/>
<path d="M197.564 235.398L196.849 239.269C196.849 239.269 196.143 239.791 194.745 239.413L195.086 235.247L197.564 235.398Z" fill="url(#paint15_linear_10_770)"/>
<path d="M199.495 189.19C202.373 206.439 198.871 231.823 197.689 236.791C197.617 237.095 197.37 237.328 197.059 237.379C196.532 237.466 195.664 237.537 194.808 237.29C194.513 237.205 194.306 236.941 194.294 236.636C194.136 232.62 194.421 207.962 191.739 198.217C191.603 197.723 191.299 197.292 190.879 196.995L185.674 193.321L185.275 187.381L199.495 189.19Z" fill="url(#paint16_linear_10_770)"/>
<path d="M181.155 156.507C189.78 156.365 199.297 158.756 199.297 158.756C201.869 173.653 199.747 190.836 199.747 190.836C193.069 192.575 185.537 189.773 185.537 189.773C184.427 183.546 179.249 166.022 179.249 166.022C175.034 165.503 171.563 164.295 168.704 162.699C170.885 160.189 171.913 156.995 172.359 155.106C175.409 156.048 178.495 156.55 181.155 156.507Z" fill="url(#paint17_linear_10_770)"/>
<path d="M155.677 143.89C156.524 142.874 157.597 143.355 157.597 143.355C158.866 148.679 165.522 152.996 172.359 155.106C171.913 156.994 170.884 160.189 168.704 162.699C157.356 156.363 155.677 143.89 155.677 143.89Z" fill="url(#paint18_linear_10_770)"/>
<path d="M155.883 144.149C155.794 144.429 156.821 144.855 157.425 143.71C157.446 143.162 157.783 140.811 157.452 140.364C155.694 137.984 152.285 135 152.285 135C151.709 135.564 152.184 136.119 152.184 136.119L153.837 137.83C153.492 138.45 153.07 138.974 152.872 139.725C152.722 140.294 152.814 140.901 153.103 141.419C153.393 141.938 153.789 142.613 154.164 143.141C154.872 144.141 155.883 144.149 155.883 144.149Z" fill="url(#paint19_linear_10_770)"/>
<path d="M154.561 138.939L156.068 140.208L156.541 141.471L155.197 142.951C155.197 142.951 154.746 140.445 154.41 139.903C154.074 139.36 154.248 139.098 154.561 138.939Z" fill="url(#paint20_linear_10_770)"/>
<path d="M199.432 168.595L199.298 158.756C199.298 158.756 207.354 164.192 208.679 171.084C207.157 171.195 204.387 171.589 201.675 172.948C201.396 171.423 200.89 170.717 200.432 170.398C199.831 169.979 199.442 169.324 199.432 168.595Z" fill="url(#paint21_linear_10_770)"/>
<path d="M188.949 174.854C188.949 174.854 197.994 179.93 201.046 175.595C201.68 174.695 201.831 173.801 201.675 172.948C204.387 171.589 207.157 171.195 208.679 171.084C209.079 173.162 208.867 175.372 207.638 177.605C202.292 187.317 187.752 177.068 187.752 177.068L188.949 174.854Z" fill="url(#paint22_linear_10_770)"/>
<path d="M190.036 181.276L185.099 164.156C185.043 163.962 184.876 163.82 184.674 163.796C183.779 163.693 181.187 163.402 178.195 163.15C174.59 162.848 170.405 162.602 167.903 162.811C167.548 162.841 167.333 163.214 167.491 163.532C168.913 166.39 174.764 178.014 177.694 181.822C177.791 181.948 177.941 182.022 178.101 182.02L189.555 181.915C189.888 181.912 190.127 181.594 190.036 181.276Z" fill="url(#paint23_linear_10_770)"/>
<path d="M177.683 161.666L174.104 161.074C173.913 161.042 173.757 161.223 173.817 161.406L174.172 162.472C174.203 162.564 174.284 162.632 174.382 162.645L177.826 163.101C178.004 163.125 178.151 162.964 178.11 162.79L177.891 161.86C177.867 161.759 177.785 161.683 177.683 161.666Z" fill="#91B3FA"/>
<path d="M180.363 164.675L180.068 163.149C180.038 162.996 179.911 162.881 179.755 162.865L172.526 162.137C172.283 162.112 172.088 162.334 172.145 162.57L172.605 164.47C172.641 164.622 172.775 164.732 172.932 164.74L179.996 165.093C180.226 165.105 180.406 164.899 180.363 164.675Z" fill="#7D97F4"/>
<path d="M188.843 177.14C188.843 177.14 189.53 174.332 189.253 173.336C188.976 172.339 188.438 171.058 186.647 171.343C184.855 171.628 182.742 172.377 182.742 172.377C182.742 172.377 182.849 173.675 184.21 173.256L183.366 173.905C183.366 173.905 183.486 174.944 184.637 174.389L183.851 175.249C183.851 175.249 184.345 176.102 185.191 175.555C186.037 175.008 186.443 177.478 188.843 177.14Z" fill="url(#paint24_linear_10_770)"/>
<path d="M189.892 149.554L192.636 157.435C192.682 157.566 192.628 157.71 192.506 157.777C191.758 158.188 189.062 159.375 185.814 157.33C185.476 157.117 185.246 156.77 185.194 156.375L184.306 149.554H189.892Z" fill="url(#paint25_linear_10_770)"/>
<path d="M183.92 142.255C183.92 142.255 180.907 147.888 181.293 150.164C181.679 152.44 185.414 152.276 188.676 150.428L190.955 144.345L183.92 142.255Z" fill="url(#paint26_linear_10_770)"/>
<path d="M188.532 147.441C188.399 147.383 188.35 147.222 188.429 147.101C188.671 146.735 189.124 145.988 189.268 145.333C189.268 145.333 189.81 144.989 187.889 144.532C185.968 144.076 183.104 143.367 182.502 141.744C181.915 140.161 185.063 138.106 187.524 141.278C187.617 141.399 186.195 139.475 186.288 139.355C186.692 138.833 187.752 137.751 189.224 138.407C190.602 139.021 190.757 140.024 190.738 140.529C190.733 140.678 190.867 140.793 191.014 140.765C191.71 140.633 193.382 140.52 194.162 142.223C194.805 143.626 194.387 144.42 194.007 144.808C193.884 144.934 193.937 145.141 194.106 145.192C194.564 145.331 194.41 145.109 194.351 146.175C194.269 147.647 193.357 148.125 192.885 148.058C192.807 148.047 192.729 148.073 192.677 148.13C192.272 148.575 190.449 150.464 188.475 150.691C188.304 150.711 188.172 150.543 188.228 150.382L189.082 147.916C189.122 147.802 189.066 147.676 188.955 147.627L188.532 147.441Z" fill="url(#paint27_linear_10_770)"/>
<path d="M188.188 147.79C188.188 147.79 190.334 146.328 190.491 147.56C190.648 148.791 188.559 149.343 187.524 148.884L188.188 147.79Z" fill="url(#paint28_linear_10_770)"/>
<path d="M181.259 140.087L193.989 149.554L193.771 148.695C193.771 148.695 198.956 143.264 193.844 138.941C188.732 134.617 182.894 139.733 182.894 139.733L181.259 140.087Z" fill="url(#paint29_linear_10_770)"/>
<path d="M110.089 13.6087C110.089 13.6087 143.374 12.5983 145.623 14.3665C147.872 16.1347 146.523 20.1764 145.623 20.9341C144.723 21.6919 120.659 25.7336 120.659 25.7336L110.089 13.6087Z" fill="url(#paint30_linear_10_770)"/>
<path d="M141.462 4.89338C141.462 4.89338 138.989 1.86213 136.964 1.10439C134.94 0.346551 118.748 -0.663835 118.073 0.599194C117.398 1.86213 141.238 7.92453 141.462 4.89338Z" fill="url(#paint31_linear_10_770)"/>
<path d="M138.089 13.7786V9.55632C138.089 8.41573 138.853 7.46321 139.863 7.33482C141.266 7.15625 143.252 7.10213 144.872 7.82389C145.669 8.1793 146.159 9.08894 146.098 10.0503L145.836 14.1793C145.771 15.1958 145.104 16.0348 144.211 16.2183C143.038 16.4598 141.31 16.5814 139.472 15.9082C138.649 15.6071 138.089 14.75 138.089 13.7786Z" fill="url(#paint32_linear_10_770)"/>
<path d="M139.888 8.42893L139.563 5.50602C139.47 4.66912 139.881 3.85783 140.576 3.53859C141.308 3.20228 142.357 3.05442 143.617 3.82098C144.092 4.11047 144.386 4.67449 144.386 5.28206V8.42893C142.978 9.57855 141.488 9.70012 139.888 8.42893Z" fill="url(#paint33_linear_10_770)"/>
<path d="M143.037 6.40851C143.037 6.40851 144.836 10.1975 146.635 10.9553C148.434 11.7132 168.26 14.1603 168.675 13.2288C169.575 11.208 151.808 5.90332 149.559 5.65067C149.559 5.65067 142.812 4.64029 143.037 6.40851Z" fill="url(#paint34_linear_10_770)"/>
<path d="M105.816 13.6067C105.816 13.6067 72.5311 12.5963 70.282 14.3646C68.033 16.1328 69.3825 20.1744 70.282 20.9322C71.1816 21.69 95.2458 25.7316 95.2458 25.7316L105.816 13.6067Z" fill="url(#paint35_linear_10_770)"/>
<path d="M74.6534 5.216C74.6534 5.216 77.4843 2.60857 79.5835 2.18014C81.6827 1.75171 97.8397 3.32554 98.3484 4.68308C98.8572 6.04053 74.494 8.25244 74.6534 5.216Z" fill="url(#paint36_linear_10_770)"/>
<path d="M77.8161 13.7786V9.55632C77.8161 8.41573 77.0514 7.46321 76.0424 7.33482C74.639 7.15625 72.6529 7.10213 71.0333 7.82389C70.2356 8.1793 69.7456 9.08894 69.8068 10.0503L70.0694 14.1793C70.134 15.1958 70.8011 16.0348 71.6935 16.2183C72.8669 16.4598 74.595 16.5814 76.4334 15.9082C77.2556 15.6071 77.8161 14.75 77.8161 13.7786Z" fill="url(#paint37_linear_10_770)"/>
<path d="M76.0712 7.94034L76.3421 5.50602C76.4352 4.66912 76.0243 3.85783 75.3293 3.53859C74.597 3.20228 73.5474 3.05442 72.2881 3.82098C71.8126 4.11047 71.5189 4.67449 71.5189 5.28206V8.42893C72.8132 9.48557 74.1763 9.67373 75.6308 8.71018C75.8767 8.54734 76.0358 8.25852 76.0712 7.94034Z" fill="url(#paint38_linear_10_770)"/>
<path d="M72.904 6.46811C72.904 6.46811 70.6455 9.93297 68.7689 10.3972C66.8924 10.8613 46.9574 10.1323 46.6643 9.14415C46.0284 7.00065 64.2849 4.57371 66.5431 4.68118C66.5431 4.68118 73.3494 4.75343 72.904 6.46811Z" fill="url(#paint39_linear_10_770)"/>
<path d="M167.214 13.0021C167.208 13.0021 167.202 13.0014 167.196 13.0008C167.055 12.9807 152.977 10.9707 148.751 10.2217C144.441 9.45728 143.722 6.69202 143.693 6.57476C143.673 6.49368 143.716 6.41039 143.788 6.38803C143.861 6.36654 143.935 6.41327 143.954 6.49435C143.961 6.52112 144.668 9.18957 148.793 9.92093C153.015 10.6696 167.089 12.6786 167.231 12.6988C167.305 12.7095 167.357 12.7855 167.348 12.8691C167.339 12.9459 167.281 13.0021 167.214 13.0021Z" fill="white"/>
<path opacity="0.65" d="M142.243 5.51607C142.071 5.51607 141.883 5.5035 141.679 5.47442C140.841 5.35707 140.316 5.11709 140.116 4.7613C139.996 4.54752 140.046 4.37182 140.048 4.36453C140.061 4.32481 140.098 4.30332 140.134 4.31627C140.169 4.32951 140.189 4.37212 140.177 4.41184C140.176 4.4175 140.146 4.53418 140.234 4.68617C140.358 4.90063 140.712 5.18542 141.696 5.32359C143.419 5.56328 143.871 4.61622 143.876 4.60672C143.892 4.56949 143.933 4.55433 143.967 4.57333C144 4.59223 144.013 4.63762 143.997 4.67523C143.98 4.71371 143.605 5.51607 142.243 5.51607Z" fill="white"/>
<path opacity="0.6" d="M73.8693 5.61839C73.7317 5.61839 73.5843 5.61273 73.4262 5.60103C72.7385 5.54931 72.3233 5.36508 72.1918 5.05294C72.0691 4.76182 72.2435 4.48212 72.2511 4.47041C72.2727 4.43635 72.3151 4.42819 72.3451 4.45247C72.3757 4.47674 72.3828 4.52434 72.3615 4.55879C72.3601 4.56099 72.2255 4.77919 72.3148 4.98894C72.3901 5.16617 72.6456 5.38983 73.4351 5.44903C75.3754 5.59565 75.6121 4.7552 75.6144 4.74666C75.6244 4.70693 75.6624 4.68295 75.6975 4.69427C75.7334 4.70531 75.7545 4.74666 75.7449 4.78667C75.7363 4.82333 75.5259 5.6181 73.8693 5.61839Z" fill="white"/>
<path d="M65.4522 9.62489C60.8543 9.62489 48.4813 8.59262 48.3442 8.58101C48.2696 8.57468 48.2137 8.50186 48.2193 8.41799C48.2249 8.33375 48.2948 8.27003 48.3644 8.27761C48.5152 8.28989 63.4579 9.53402 66.5615 9.28809C69.6204 9.04245 71.8462 6.3336 71.8684 6.30616C71.9189 6.24465 72.0043 6.23996 72.0599 6.29609C72.1152 6.35251 72.1192 6.44875 72.0689 6.51121C72.0462 6.53933 69.7467 9.3376 66.5805 9.5915C66.2963 9.61452 65.9132 9.62489 65.4522 9.62489Z" fill="white"/>
<path d="M110.934 12.2852C113.172 12.2852 115.36 13.0065 117.242 14.3651C123.093 18.59 136.31 27.9083 141.152 29.4621C147.449 31.4828 151.497 32.2407 151.722 35.2719C151.947 38.3032 147.449 41.0818 141.152 39.0609C134.655 36.9759 121.692 40.324 117.506 41.6571C116.596 41.9471 115.654 42.0922 114.708 42.0922H100.959C100.013 42.0922 99.0708 41.9471 98.1605 41.6571C93.9748 40.324 81.0123 36.9759 74.5149 39.0609C68.2178 41.0817 63.7198 38.3031 63.9447 35.2719C64.1697 32.2407 68.2178 31.4829 74.5149 29.4621C79.3565 27.9084 92.5734 18.59 98.425 14.3651C100.307 13.0064 102.495 12.2852 104.732 12.2852H110.934Z" fill="url(#paint40_linear_10_770)"/>
<path opacity="0.33" d="M66.1927 36.9864C67.0709 37.3148 67.9687 37.5677 68.8783 37.7383C69.787 37.9027 70.7086 37.9901 71.6173 37.9234C72.0709 37.889 72.5205 37.8179 72.9572 37.6985C73.392 37.5731 73.8115 37.3951 74.1989 37.1574C74.3955 37.0429 74.5735 36.8981 74.7531 36.7561C74.92 36.5964 75.0895 36.4403 75.2339 36.2546C75.5266 35.8911 75.7826 35.4842 75.9592 35.0278L76.0308 34.8603L76.0884 34.6848L76.2056 34.3331L76.4631 33.5684C76.5694 33.3237 76.6728 33.077 76.7826 32.8346L77.1585 32.1368C77.694 31.2301 78.3642 30.4375 79.0996 29.7499C80.5784 28.3778 82.286 27.38 84.0467 26.6117C87.5822 25.0754 91.3238 24.3336 95.0577 23.8964C98.8 23.4819 102.565 23.4161 106.316 23.6036C110.067 23.8091 113.805 24.2745 117.505 25.0032C121.2 25.7478 124.866 26.7388 128.407 28.1811C129.29 28.5465 130.168 28.9309 131.028 29.3666C131.89 29.7961 132.74 30.2619 133.562 30.7876C134.386 31.3107 135.189 31.8803 135.946 32.5304L136.502 33.0352C136.685 33.2074 136.858 33.3935 137.036 33.572C137.213 33.7532 137.374 33.9542 137.544 34.1446C137.711 34.3358 137.86 34.5202 138.022 34.7024C138.669 35.4184 139.398 36.0303 140.231 36.423C141.059 36.8272 141.956 37.0526 142.866 37.1674C143.778 37.2826 144.705 37.3007 145.63 37.2486C146.556 37.2115 147.481 37.0974 148.405 36.9757L148.409 36.975C148.533 36.9588 148.645 37.0579 148.659 37.1965C148.673 37.3342 148.586 37.4589 148.464 37.4765C147.531 37.6098 146.596 37.7356 145.652 37.7839C144.71 37.8469 143.76 37.8398 142.812 37.7307C141.865 37.6214 140.915 37.3965 140.021 36.9713C139.121 36.5588 138.318 35.8999 137.63 35.1498C137.46 34.9637 137.294 34.758 137.133 34.576C136.971 34.396 136.818 34.2061 136.649 34.0337C136.478 33.8636 136.312 33.6866 136.136 33.522L135.6 33.0385C134.868 32.414 134.085 31.8624 133.279 31.3545C132.474 30.8439 131.639 30.3899 130.79 29.9706C129.943 29.5454 129.076 29.1695 128.203 28.8122C124.703 27.401 121.063 26.4309 117.395 25.706C113.722 24.9951 110.007 24.5525 106.285 24.3547C102.562 24.1548 98.8263 24.2069 95.1198 24.6036C91.423 25.0218 87.7223 25.7456 84.2629 27.2354C82.54 27.979 80.883 28.9449 79.4696 30.2478C78.7667 30.9004 78.1333 31.6468 77.6311 32.4913L77.2789 33.1403L76.9801 33.8208L76.7393 34.5289L76.6095 34.9147L76.5437 35.108L76.4623 35.2949C76.0456 36.2967 75.3319 37.1716 74.4519 37.6803C74.0166 37.9416 73.5528 38.1314 73.0805 38.2619C72.607 38.3862 72.1268 38.4563 71.6473 38.4875C70.6871 38.5474 69.7331 38.445 68.7982 38.2659C67.864 38.0805 66.9442 37.8104 66.0504 37.4657L66.0487 37.465C65.9312 37.4198 65.8686 37.276 65.909 37.1441C65.949 37.0129 66.0758 36.9428 66.1927 36.9864Z" fill="white"/>
<path d="M68.052 23.0963C68.052 23.0963 65.1924 20.6611 62.8528 20.0523C60.5131 19.4434 41.7961 18.6318 41.0162 19.6464C40.2364 20.6611 67.792 25.5315 68.052 23.0963Z" fill="url(#paint41_linear_10_770)"/>
<path d="M73.4688 32.3146V27.4341C73.4688 26.1156 72.585 25.0146 71.4186 24.8663C69.7964 24.6599 67.5008 24.5973 65.6286 25.4315C64.7066 25.8424 64.1402 26.8938 64.2109 28.0051L64.5144 32.7779C64.5892 33.9528 65.3602 34.9225 66.3917 35.1348C67.7482 35.4138 69.7456 35.5545 71.8706 34.7764C72.8211 34.4282 73.4688 33.4375 73.4688 32.3146Z" fill="url(#paint42_linear_10_770)"/>
<path d="M71.3895 26.1305L71.7654 22.7519C71.8721 21.7934 71.4086 20.8574 70.6143 20.4869C69.767 20.0917 68.5462 19.9113 67.0795 20.8042C66.5298 21.1388 66.1903 21.7908 66.1903 22.493L66.2248 25.4394C66.2311 25.983 66.5053 26.4781 66.9353 26.7276C68.3448 27.5456 69.8041 27.3899 71.3895 26.1305Z" fill="url(#paint43_linear_10_770)"/>
<path d="M69.623 23.8783C69.623 23.8783 72.1188 27.9746 74.2716 28.5885C76.4244 29.2023 99.4794 29.1838 99.8504 28.0544C100.655 25.6043 79.6428 22.0459 77.0304 22.0767C77.0304 22.0767 69.1646 21.8789 69.623 23.8783Z" fill="url(#paint44_linear_10_770)"/>
<path d="M146.62 23.5822C146.62 23.5822 149.054 20.6208 151.262 19.56C153.47 18.4992 171.769 14.0082 172.696 14.8533C173.622 15.6982 147.256 25.9283 146.62 23.5822Z" fill="url(#paint45_linear_10_770)"/>
<path d="M141.154 32.3146V27.4341C141.154 26.1156 142.038 25.0146 143.204 24.8663C144.826 24.6599 147.122 24.5973 148.994 25.4315C149.916 25.8424 150.483 26.8938 150.412 28.0051L150.108 32.7779C150.034 33.9528 149.263 34.9225 148.231 35.1348C146.875 35.4138 144.877 35.5545 142.752 34.7764C141.802 34.4282 141.154 33.4375 141.154 32.3146Z" fill="url(#paint46_linear_10_770)"/>
<path d="M143.234 26.1305L142.858 22.7519C142.75 21.7845 143.225 20.8467 144.028 20.4778C144.875 20.089 146.088 19.9182 147.544 20.8042C148.093 21.1388 148.433 21.7908 148.433 22.493V26.1305C146.805 27.4592 145.083 27.5998 143.234 26.1305Z" fill="url(#paint47_linear_10_770)"/>
<path d="M144.492 24.5486C144.492 24.5486 142.675 29.0736 140.652 30.1025C138.628 31.1314 115.929 35.6607 115.387 34.622C114.211 32.3688 134.341 24.721 136.918 24.2361C136.918 24.2361 144.63 22.4899 144.492 24.5486Z" fill="url(#paint48_linear_10_770)"/>
<path opacity="0.54" d="M145.749 22.6919C145.538 22.6919 145.307 22.679 145.054 22.6506C144.174 22.5518 143.669 22.3106 143.554 21.9337C143.437 21.5528 143.763 21.1979 143.777 21.1828C143.804 21.1544 143.847 21.1553 143.873 21.1853C143.898 21.2156 143.898 21.2638 143.871 21.2928C143.868 21.296 143.594 21.5962 143.682 21.8847C143.749 22.1014 144.043 22.384 145.067 22.4991C147.231 22.7417 147.695 21.7923 147.699 21.7826C147.716 21.745 147.757 21.7306 147.79 21.7495C147.823 21.7684 147.837 21.8135 147.82 21.851C147.803 21.8896 147.424 22.6916 145.749 22.6919Z" fill="white"/>
<path d="M117.623 34.0946C117.558 34.0946 117.501 34.0419 117.49 33.9674C117.477 33.8848 117.527 33.8063 117.601 33.7921C117.76 33.7618 133.615 30.7525 137.617 30.0031C141.494 29.2774 142.993 25.094 143.069 24.8571C143.072 24.7927 143.112 24.735 143.17 24.7179C143.218 24.7034 143.271 24.7208 143.304 24.7621C143.363 24.8334 143.338 24.9172 143.319 24.9785C143.306 25.0235 141.76 29.5359 137.661 30.3033C133.66 31.0527 117.805 34.0619 117.646 34.0922C117.638 34.0939 117.631 34.0946 117.623 34.0946Z" fill="white"/>
<path d="M149.334 23.2329C149.273 23.2329 149.218 23.1866 149.202 23.1175C149.184 23.0359 149.228 22.9532 149.301 22.933C149.454 22.8901 164.652 18.6019 170.863 15.1135C170.93 15.0766 171.011 15.1062 171.045 15.1816C171.079 15.257 171.051 15.3481 170.985 15.386C164.746 18.8893 149.52 23.1853 149.367 23.2281C149.356 23.2313 149.344 23.2329 149.334 23.2329Z" fill="white"/>
<path d="M97.832 28.0315C97.8314 28.0315 97.8306 28.0315 97.83 28.0315C97.6792 28.0291 82.6952 27.773 77.3551 27.273C71.9308 26.7653 70.9784 23.7604 70.9404 23.633C70.9169 23.5531 70.9551 23.4675 71.0258 23.4406C71.0965 23.4138 71.1731 23.4567 71.1973 23.5362C71.2063 23.5655 72.1481 26.4802 77.3775 26.9696C82.7085 27.4686 97.6833 27.7243 97.8338 27.7269C97.9088 27.7282 97.9686 27.7975 97.9674 27.8814C97.9664 27.9647 97.9058 28.0315 97.832 28.0315Z" fill="white"/>
<path opacity="0.33" d="M107.165 40.5514C107.165 40.9002 106.914 41.1829 106.603 41.1829C106.293 41.1829 106.041 40.9002 106.041 40.5514C106.041 40.2026 106.293 39.9199 106.603 39.9199C106.914 39.9199 107.165 40.2026 107.165 40.5514Z" fill="white"/>
<path opacity="0.33" d="M107.503 42.1914C107.316 42.1914 107.165 42.0218 107.165 41.8125C107.165 41.6032 107.316 41.4336 107.503 41.4336C107.689 41.4336 107.84 41.6032 107.84 41.8125C107.84 42.0218 107.689 42.1914 107.503 42.1914Z" fill="white"/>
<path d="M98.5251 37.8073C98.7139 40.4277 99.0944 45.1254 99.5806 48.102C99.6687 48.6415 100.071 49.0427 100.558 49.0814C103.346 49.3027 112.523 49.9214 115.947 48.7906C116.35 48.6574 116.641 48.2646 116.697 47.7968C116.931 45.8273 117.573 40.2313 117.71 36.9587C117.736 36.3391 117.341 35.7999 116.795 35.7081C114.516 35.3246 104.234 35.658 100.112 35.8109C99.1722 35.8457 98.4493 36.7545 98.5251 37.8073Z" fill="url(#paint49_linear_10_770)"/>
<path d="M107.84 47.7509C110.449 47.7509 112.563 45.3759 112.563 42.4463C112.563 39.5166 110.449 37.1416 107.84 37.1416C105.232 37.1416 103.117 39.5166 103.117 42.4463C103.117 45.3759 105.232 47.7509 107.84 47.7509Z" fill="url(#paint50_linear_10_770)"/>
<path d="M107.953 46.9925C110.126 46.9925 111.888 45.0133 111.888 42.5719C111.888 40.1305 110.126 38.1514 107.953 38.1514C105.779 38.1514 104.017 40.1305 104.017 42.5719C104.017 45.0133 105.779 46.9925 107.953 46.9925Z" fill="url(#paint51_linear_10_770)"/>
<path d="M107.953 46.487C109.878 46.487 111.439 44.734 111.439 42.5716C111.439 40.4092 109.878 38.6562 107.953 38.6562C106.027 38.6562 104.467 40.4092 104.467 42.5716C104.467 44.734 106.027 46.487 107.953 46.487Z" fill="url(#paint52_linear_10_770)"/>
<path opacity="0.33" d="M107.966 71.9994C101.542 71.9994 95.3954 69.782 90.1908 65.5869C89.6691 65.1663 89.5497 64.3504 89.9241 63.7644C90.2981 63.1784 91.025 63.0442 91.5465 63.4648C96.3535 67.3394 102.031 69.3876 107.966 69.3876C113.901 69.3876 119.579 67.3394 124.386 63.4648C124.907 63.0443 125.634 63.1784 126.008 63.7644C126.383 64.3504 126.263 65.1663 125.741 65.5869C120.537 69.782 114.391 71.9994 107.966 71.9994Z" fill="white"/>
<path opacity="0.33" d="M107.966 64.6676C102.701 64.6676 97.6653 62.8353 93.4047 59.3684C92.8847 58.9454 92.7686 58.1288 93.1452 57.5447C93.5218 56.9607 94.249 56.8303 94.7689 57.2533C98.6301 60.395 103.194 62.0558 107.966 62.0558C112.739 62.0558 117.302 60.395 121.164 57.2533C121.684 56.83 122.411 56.961 122.787 57.5447C123.164 58.1288 123.048 58.9454 122.528 59.3684C118.267 62.8353 113.232 64.6676 107.966 64.6676Z" fill="white"/>
<path opacity="0.33" d="M107.966 57.1455C104.231 57.1455 100.674 55.8281 97.6798 53.3356C97.1639 52.9061 97.0557 52.0883 97.4379 51.5087C97.8203 50.9294 98.5485 50.808 99.0644 51.2371C101.655 53.3939 104.734 54.5337 107.966 54.5337C111.199 54.5337 114.277 53.3939 116.868 51.2371C117.384 50.8083 118.112 50.9293 118.494 51.5087C118.876 52.0884 118.768 52.9061 118.252 53.3356C115.258 55.8281 111.701 57.1455 107.966 57.1455Z" fill="white"/>
<defs>
<linearGradient id="paint0_linear_10_770" x1="194.486" y1="72.4611" x2="24.2147" y2="203.017" gradientUnits="userSpaceOnUse">
<stop stop-color="#09005D"/>
<stop offset="1" stop-color="#1A0F91"/>
</linearGradient>
<linearGradient id="paint1_linear_10_770" x1="129.404" y1="59.2462" x2="75.8585" y2="242.993" gradientUnits="userSpaceOnUse">
<stop stop-color="#FF928E"/>
<stop offset="1" stop-color="#FE7062"/>
</linearGradient>
<linearGradient id="paint2_linear_10_770" x1="188.804" y1="138.941" x2="-14.491" y2="139.517" gradientUnits="userSpaceOnUse">
<stop stop-color="#FEBBBA"/>
<stop offset="1" stop-color="#FF928E"/>
</linearGradient>
<linearGradient id="paint3_linear_10_770" x1="137.071" y1="91.383" x2="133.923" y2="131.156" gradientUnits="userSpaceOnUse">
<stop stop-color="#FEBBBA"/>
<stop offset="1" stop-color="#FF928E"/>
</linearGradient>
<linearGradient id="paint4_linear_10_770" x1="130.786" y1="168.683" x2="146.68" y2="142.263" gradientUnits="userSpaceOnUse">
<stop stop-color="#E1473D"/>
<stop offset="1" stop-color="#E9605A"/>
</linearGradient>
<linearGradient id="paint5_linear_10_770" x1="399.091" y1="651.264" x2="387.861" y2="632.441" gradientUnits="userSpaceOnUse">
<stop stop-color="#E1473D"/>
<stop offset="1" stop-color="#E9605A"/>
</linearGradient>
<linearGradient id="paint6_linear_10_770" x1="803.73" y1="738.893" x2="789.997" y2="726.88" gradientUnits="userSpaceOnUse">
<stop stop-color="#E1473D"/>
<stop offset="1" stop-color="#E9605A"/>
</linearGradient>
<linearGradient id="paint7_linear_10_770" x1="958.231" y1="710.22" x2="946.815" y2="702.44" gradientUnits="userSpaceOnUse">
<stop stop-color="#E1473D"/>
<stop offset="1" stop-color="#E9605A"/>
</linearGradient>
<linearGradient id="paint8_linear_10_770" x1="170.475" y1="57.6814" x2="167.929" y2="67.2799" gradientUnits="userSpaceOnUse">
<stop stop-color="#E1473D"/>
<stop offset="1" stop-color="#E9605A"/>
</linearGradient>
<linearGradient id="paint9_linear_10_770" x1="172.991" y1="58.349" x2="170.445" y2="67.9475" gradientUnits="userSpaceOnUse">
<stop stop-color="#E1473D"/>
<stop offset="1" stop-color="#E9605A"/>
</linearGradient>
<linearGradient id="paint10_linear_10_770" x1="175.507" y1="59.0163" x2="172.961" y2="68.6149" gradientUnits="userSpaceOnUse">
<stop stop-color="#E1473D"/>
<stop offset="1" stop-color="#E9605A"/>
</linearGradient>
<linearGradient id="paint11_linear_10_770" x1="179.802" y1="248.346" x2="179.416" y2="238.431" gradientUnits="userSpaceOnUse">
<stop stop-color="#09005D"/>
<stop offset="1" stop-color="#1A0F91"/>
</linearGradient>
<linearGradient id="paint12_linear_10_770" x1="178.055" y1="234.225" x2="199.636" y2="246.17" gradientUnits="userSpaceOnUse">
<stop stop-color="#A22B25"/>
<stop offset="1" stop-color="#C0423C"/>
</linearGradient>
<linearGradient id="paint13_linear_10_770" x1="186.642" y1="182.924" x2="184.526" y2="138.351" gradientUnits="userSpaceOnUse">
<stop stop-color="#4F52FF"/>
<stop offset="1" stop-color="#4042E2"/>
</linearGradient>
<linearGradient id="paint14_linear_10_770" x1="195.813" y1="247.722" x2="195.427" y2="237.808" gradientUnits="userSpaceOnUse">
<stop stop-color="#09005D"/>
<stop offset="1" stop-color="#1A0F91"/>
</linearGradient>
<linearGradient id="paint15_linear_10_770" x1="202.988" y1="239.897" x2="221.311" y2="246.672" gradientUnits="userSpaceOnUse">
<stop stop-color="#A22B25"/>
<stop offset="1" stop-color="#C0423C"/>
</linearGradient>
<linearGradient id="paint16_linear_10_770" x1="192.367" y1="182.651" x2="190.252" y2="138.079" gradientUnits="userSpaceOnUse">
<stop stop-color="#4F52FF"/>
<stop offset="1" stop-color="#4042E2"/>
</linearGradient>
<linearGradient id="paint17_linear_10_770" x1="-457.354" y1="767.832" x2="-414.564" y2="727.715" gradientUnits="userSpaceOnUse">
<stop stop-color="#4F52FF"/>
<stop offset="1" stop-color="#4042E2"/>
</linearGradient>
<linearGradient id="paint18_linear_10_770" x1="-478.322" y1="745.467" x2="-435.533" y2="705.349" gradientUnits="userSpaceOnUse">
<stop stop-color="#4F52FF"/>
<stop offset="1" stop-color="#4042E2"/>
</linearGradient>
<linearGradient id="paint19_linear_10_770" x1="159.393" y1="150.193" x2="170.457" y2="175.542" gradientUnits="userSpaceOnUse">
<stop stop-color="#A22B25"/>
<stop offset="1" stop-color="#C0423C"/>
</linearGradient>
<linearGradient id="paint20_linear_10_770" x1="158.667" y1="146.213" x2="154.042" y2="139.052" gradientUnits="userSpaceOnUse">
<stop stop-color="#A22B25"/>
<stop offset="1" stop-color="#C0423C"/>
</linearGradient>
<linearGradient id="paint21_linear_10_770" x1="194.208" y1="175.927" x2="206.487" y2="161.914" gradientUnits="userSpaceOnUse">
<stop stop-color="#4F52FF"/>
<stop offset="1" stop-color="#4042E2"/>
</linearGradient>
<linearGradient id="paint22_linear_10_770" x1="196.743" y1="178.149" x2="209.022" y2="164.136" gradientUnits="userSpaceOnUse">
<stop stop-color="#4F52FF"/>
<stop offset="1" stop-color="#4042E2"/>
</linearGradient>
<linearGradient id="paint23_linear_10_770" x1="186.382" y1="160.232" x2="167.219" y2="191.107" gradientUnits="userSpaceOnUse">
<stop stop-color="#09005D"/>
<stop offset="1" stop-color="#1A0F91"/>
</linearGradient>
<linearGradient id="paint24_linear_10_770" x1="189.319" y1="174.237" x2="182.742" y2="174.237" gradientUnits="userSpaceOnUse">
<stop stop-color="#A22B25"/>
<stop offset="1" stop-color="#C0423C"/>
</linearGradient>
<linearGradient id="paint25_linear_10_770" x1="186.423" y1="147.809" x2="183.328" y2="136.327" gradientUnits="userSpaceOnUse">
<stop stop-color="#A22B25"/>
<stop offset="1" stop-color="#C0423C"/>
</linearGradient>
<linearGradient id="paint26_linear_10_770" x1="182.32" y1="148.751" x2="191.463" y2="143.135" gradientUnits="userSpaceOnUse">
<stop stop-color="#A22B25"/>
<stop offset="1" stop-color="#C0423C"/>
</linearGradient>
<linearGradient id="paint27_linear_10_770" x1="196.536" y1="137.561" x2="184.744" y2="146.94" gradientUnits="userSpaceOnUse">
<stop stop-color="#09005D"/>
<stop offset="1" stop-color="#1A0F91"/>
</linearGradient>
<linearGradient id="paint28_linear_10_770" x1="184.731" y1="150.823" x2="192.956" y2="145.771" gradientUnits="userSpaceOnUse">
<stop stop-color="#A22B25"/>
<stop offset="1" stop-color="#C0423C"/>
</linearGradient>
<linearGradient id="paint29_linear_10_770" x1="190.518" y1="188.248" x2="185.8" y2="67.0963" gradientUnits="userSpaceOnUse">
<stop stop-color="#4F52FF"/>
<stop offset="1" stop-color="#4042E2"/>
</linearGradient>
<linearGradient id="paint30_linear_10_770" x1="134.893" y1="-20.7098" x2="129.865" y2="1.88853" gradientUnits="userSpaceOnUse">
<stop stop-color="#E1473D"/>
<stop offset="1" stop-color="#E9605A"/>
</linearGradient>
<linearGradient id="paint31_linear_10_770" x1="118.059" y1="2.86611" x2="141.462" y2="2.86611" gradientUnits="userSpaceOnUse">
<stop stop-color="#DAE3FE"/>
<stop offset="1" stop-color="#E9EFFD"/>
</linearGradient>
<linearGradient id="paint32_linear_10_770" x1="138.089" y1="11.8153" x2="146.103" y2="11.8153" gradientUnits="userSpaceOnUse">
<stop stop-color="#09005D"/>
<stop offset="1" stop-color="#1A0F91"/>
</linearGradient>
<linearGradient id="paint33_linear_10_770" x1="141.968" y1="-2.974" x2="141.968" y2="20.9241" gradientUnits="userSpaceOnUse">
<stop stop-color="#E1473D"/>
<stop offset="1" stop-color="#E9605A"/>
</linearGradient>
<linearGradient id="paint34_linear_10_770" x1="143.031" y1="9.40029" x2="168.708" y2="9.40029" gradientUnits="userSpaceOnUse">
<stop stop-color="#DAE3FE"/>
<stop offset="1" stop-color="#E9EFFD"/>
</linearGradient>
<linearGradient id="paint35_linear_10_770" x1="100.748" y1="-17.8268" x2="93.5743" y2="-3.81705" gradientUnits="userSpaceOnUse">
<stop stop-color="#E1473D"/>
<stop offset="1" stop-color="#E9605A"/>
</linearGradient>
<linearGradient id="paint36_linear_10_770" x1="74.6526" y1="4.42424" x2="98.3563" y2="4.42424" gradientUnits="userSpaceOnUse">
<stop stop-color="#DAE3FE"/>
<stop offset="1" stop-color="#E9EFFD"/>
</linearGradient>
<linearGradient id="paint37_linear_10_770" x1="69.8016" y1="11.8153" x2="77.8161" y2="11.8153" gradientUnits="userSpaceOnUse">
<stop stop-color="#09005D"/>
<stop offset="1" stop-color="#1A0F91"/>
</linearGradient>
<linearGradient id="paint38_linear_10_770" x1="73.3072" y1="8.30712" x2="65.5015" y2="31.0514" gradientUnits="userSpaceOnUse">
<stop stop-color="#E1473D"/>
<stop offset="1" stop-color="#E9605A"/>
</linearGradient>
<linearGradient id="paint39_linear_10_770" x1="46.6481" y1="7.60906" x2="72.9249" y2="7.60906" gradientUnits="userSpaceOnUse">
<stop stop-color="#DAE3FE"/>
<stop offset="1" stop-color="#E9EFFD"/>
</linearGradient>
<linearGradient id="paint40_linear_10_770" x1="111.625" y1="-4.77212" x2="105.657" y2="45.4597" gradientUnits="userSpaceOnUse">
<stop stop-color="#FF928E"/>
<stop offset="1" stop-color="#FE7062"/>
</linearGradient>
<linearGradient id="paint41_linear_10_770" x1="41" y1="21.4677" x2="68.052" y2="21.4677" gradientUnits="userSpaceOnUse">
<stop stop-color="#DAE3FE"/>
<stop offset="1" stop-color="#E9EFFD"/>
</linearGradient>
<linearGradient id="paint42_linear_10_770" x1="64.205" y1="30.0453" x2="73.4688" y2="30.0453" gradientUnits="userSpaceOnUse">
<stop stop-color="#09005D"/>
<stop offset="1" stop-color="#1A0F91"/>
</linearGradient>
<linearGradient id="paint43_linear_10_770" x1="68.8584" y1="23.5353" x2="73.7734" y2="32.4284" gradientUnits="userSpaceOnUse">
<stop stop-color="#E1473D"/>
<stop offset="1" stop-color="#E9605A"/>
</linearGradient>
<linearGradient id="paint44_linear_10_770" x1="69.6038" y1="25.5315" x2="99.873" y2="25.5315" gradientUnits="userSpaceOnUse">
<stop stop-color="#DAE3FE"/>
<stop offset="1" stop-color="#E9EFFD"/>
</linearGradient>
<linearGradient id="paint45_linear_10_770" x1="146.62" y1="19.3394" x2="172.72" y2="19.3394" gradientUnits="userSpaceOnUse">
<stop stop-color="#DAE3FE"/>
<stop offset="1" stop-color="#E9EFFD"/>
</linearGradient>
<linearGradient id="paint46_linear_10_770" x1="141.154" y1="30.0453" x2="150.418" y2="30.0453" gradientUnits="userSpaceOnUse">
<stop stop-color="#09005D"/>
<stop offset="1" stop-color="#1A0F91"/>
</linearGradient>
<linearGradient id="paint47_linear_10_770" x1="145.714" y1="24.1836" x2="146.545" y2="38.8453" gradientUnits="userSpaceOnUse">
<stop stop-color="#E1473D"/>
<stop offset="1" stop-color="#E9605A"/>
</linearGradient>
<linearGradient id="paint48_linear_10_770" x1="115.337" y1="29.1603" x2="144.493" y2="29.1603" gradientUnits="userSpaceOnUse">
<stop stop-color="#DAE3FE"/>
<stop offset="1" stop-color="#E9EFFD"/>
</linearGradient>
<linearGradient id="paint49_linear_10_770" x1="117.291" y1="24.1222" x2="144.136" y2="-16.4179" gradientUnits="userSpaceOnUse">
<stop stop-color="#E1473D"/>
<stop offset="1" stop-color="#E9605A"/>
</linearGradient>
<linearGradient id="paint50_linear_10_770" x1="103.117" y1="42.4463" x2="112.563" y2="42.4463" gradientUnits="userSpaceOnUse">
<stop stop-color="#DAE3FE"/>
<stop offset="1" stop-color="#E9EFFD"/>
</linearGradient>
<linearGradient id="paint51_linear_10_770" x1="104.017" y1="42.5719" x2="111.888" y2="42.5719" gradientUnits="userSpaceOnUse">
<stop stop-color="#FF928E"/>
<stop offset="1" stop-color="#FE7062"/>
</linearGradient>
<linearGradient id="paint52_linear_10_770" x1="104.467" y1="42.5716" x2="111.439" y2="42.5716" gradientUnits="userSpaceOnUse">
<stop stop-color="#09005D"/>
<stop offset="1" stop-color="#1A0F91"/>
</linearGradient>
</defs>
</svg>
