<svg fill="none" xmlns="http://www.w3.org/2000/svg" viewBox="0 0 370 371"><path d="M8.8 138.46C37.25 48.8 131.53 2.14 208.95.81c21.14-.37 63.67-1.1 99.72 26.5 69.22 52.97 71.96 177.82 18.75 256.77-6.85 10.16-54.5 78.45-138.69 85.96-61.64 5.5-108.34-24.67-114.02-28.44a170 170 0 0 1-38.39-35.34C.48 261.29-9 194.49 8.8 138.46" fill="url(#a)"/><path d="M366.73 163.17c-3.71 83.94-80.69 148.77-171.93 144.79S32.6 232.71 36.3 148.76C40.01 64.82 117 0 208.23 3.97c91.25 3.98 162.2 75.26 158.5 159.2" fill="url(#b)"/><path d="M192.56 266.72c71.67 0 129.77-54.5 129.77-121.73S264.23 23.26 192.56 23.26c-71.66 0-129.76 54.5-129.76 121.73s58.1 121.73 129.76 121.73" fill="#fff"/><path d="M247.7 158.58c-.04 26.82-1.89 53.7-6.63 80.15q-1.79 9.91-4.25 19.7a189 189 0 0 1-5.95 19.26c-2.37 6.3-5.13 12.5-8.87 18.16a36 36 0 0 1-6.65 7.7 19 19 0 0 1-4.35 2.8 12.8 12.8 0 0 1-10.19.25 18 18 0 0 1-4.44-2.64 34 34 0 0 1-6.8-7.59 70 70 0 0 1-5.02-8.8 113 113 0 0 1-3.98-9.29 185 185 0 0 1-6-19.25 284 284 0 0 1-4.3-19.68 410 410 0 0 1-5.18-39.92 520 520 0 0 1-1.7-40.22 550 550 0 0 1 1.49-40.22 440 440 0 0 1 4.67-39.98 296 296 0 0 1 3.96-19.74 189 189 0 0 1 5.62-19.35q1.68-4.76 3.78-9.35a68 68 0 0 1 4.84-8.88c1.86-2.81 4-5.5 6.65-7.65 1.33-1.06 2.8-1.99 4.4-2.62s3.32-.96 5.04-.9 3.43.49 5 1.17c1.57.7 3.01 1.63 4.34 2.7a37 37 0 0 1 6.8 7.52 72 72 0 0 1 5.16 8.69q2.29 4.51 4.15 9.2a182 182 0 0 1 6.39 19.1 276 276 0 0 1 4.63 19.61c5.2 26.36 7.32 53.24 7.39 80.07m-1.7 0q.05-20.08-1.61-40.08a383 383 0 0 0-5.3-39.76q-1.85-9.86-4.43-19.56a181 181 0 0 0-6.17-19.07c-2.46-6.2-5.3-12.3-9.08-17.82a36 36 0 0 0-6.6-7.45 19 19 0 0 0-4.2-2.66 13 13 0 0 0-4.78-1.15c-1.65-.06-3.3.27-4.83.9a16 16 0 0 0-4.22 2.57 33 33 0 0 0-6.45 7.56 67 67 0 0 0-4.7 8.82 112 112 0 0 0-3.67 9.33 188 188 0 0 0-5.42 19.3 295 295 0 0 0-3.76 19.7 439 439 0 0 0-4.29 39.89 604 604 0 0 0-1.16 40.1q-.06 20.08 1.44 40.1a408 408 0 0 0 4.9 39.8 284 284 0 0 0 4.14 19.62 183 183 0 0 0 5.84 19.16q1.73 4.7 3.88 9.23c1.44 3 3.03 5.94 4.89 8.7a34 34 0 0 0 6.54 7.41 17 17 0 0 0 4.2 2.53c1.5.6 3.13.95 4.75.9s3.22-.47 4.7-1.15a18 18 0 0 0 4.11-2.67 35 35 0 0 0 6.41-7.55c3.64-5.58 6.33-11.74 8.64-18 2.3-6.26 4.16-12.69 5.78-19.17a288 288 0 0 0 4.1-19.63 415 415 0 0 0 4.85-39.81 519 519 0 0 0 1.5-40.1" fill="#fff"/><path d="M315.84 158.58a194 194 0 0 1-6.96 51.19c-4.73 16.6-11.86 32.6-21.54 46.95a135 135 0 0 1-16.46 20.04 115 115 0 0 1-20.26 16.22 98 98 0 0 1-23.66 10.75 90 90 0 0 1-25.71 3.81c-8.7 0-17.4-1.3-25.72-3.8a98 98 0 0 1-23.67-10.73 115 115 0 0 1-20.29-16.2 136 136 0 0 1-16.48-20.04c-9.7-14.36-16.84-30.35-21.59-46.97a192 192 0 0 1-6.98-51.22c.04-8.64.62-17.28 1.77-25.84a185 185 0 0 1 5.24-25.38c4.76-16.6 11.9-32.6 21.6-46.93a135 135 0 0 1 16.5-20.02 115 115 0 0 1 20.28-16.19 98 98 0 0 1 23.65-10.7c8.32-2.5 17-3.8 25.69-3.8a90 90 0 0 1 25.68 3.82 98 98 0 0 1 23.64 10.71 115 115 0 0 1 20.26 16.2 135 135 0 0 1 16.46 20.02c9.69 14.35 16.82 30.32 21.56 46.93a194 194 0 0 1 7 51.18m-1.94 0a192 192 0 0 0-6.73-50.72c-4.58-16.48-11.47-32.38-20.95-46.68a134 134 0 0 0-16.15-20 113 113 0 0 0-19.95-16.22 97 97 0 0 0-23.4-10.73 89 89 0 0 0-25.47-3.82 89 89 0 0 0-25.47 3.84A97 97 0 0 0 152.4 25a113 113 0 0 0-19.93 16.23 134 134 0 0 0-16.12 20c-9.46 14.3-16.34 30.2-20.9 46.66a186 186 0 0 0-5.03 25.13 200 200 0 0 0-1.69 25.56c.03 8.54.58 17.09 1.7 25.56a186 186 0 0 0 5.05 25.12c4.57 16.46 11.46 32.35 20.93 46.63a134 134 0 0 0 16.11 19.98 112 112 0 0 0 19.93 16.21 97 97 0 0 0 23.37 10.71 89 89 0 0 0 25.43 3.86 89 89 0 0 0 25.44-3.84 97 97 0 0 0 23.38-10.7 112 112 0 0 0 19.95-16.2 134 134 0 0 0 16.14-19.97c9.49-14.29 16.4-30.18 20.98-46.65a192 192 0 0 0 6.76-50.71" fill="#fff"/><path d="m67.32 99.63 34.47-.24 34.47-.13 68.93-.1 68.93.1 34.47.15 34.47.26q.07.01.08.08-.01.08-.08.09l-34.47.25-34.47.15-68.93.11-68.93-.1-34.47-.14-34.47-.23a.13.13 0 0 1 0-.25M107.3 42.3l24.48-.24 24.47-.13q12.23-.06 24.47-.07l24.47-.04 48.94.12 24.47.15c8.16.08 16.31.13 24.47.25q.08 0 .09.09 0 .07-.09.08c-8.16.12-16.31.17-24.47.25l-24.47.15-48.94.12-24.47-.04c-8.16-.02-16.31-.01-24.47-.07l-24.47-.13-24.47-.24a.13.13 0 0 1 0-.25M55.34 156.95l37.47-.23 37.46-.13 74.92-.11 74.92.12 37.46.14 37.46.25q.08 0 .09.09t-.09.08l-37.46.26-37.46.14-74.92.12-74.92-.1-37.46-.14-37.47-.23a.13.13 0 0 1-.12-.13q0-.12.12-.13m11.98 57.33 34.47-.23 34.47-.14 68.93-.1 68.93.11 34.47.15 34.47.25q.07 0 .08.09-.01.07-.08.08l-34.47.25-34.47.15-68.93.12-68.93-.11-34.47-.13-34.47-.24a.13.13 0 0 1-.12-.12q0-.12.12-.13M308 272.18H112.24a.45.45 0 1 1 0-.9H308a.45.45 0 1 1 0 .9" fill="#fff"/><path d="M58.8 96.43c2.16-6.05 3.51-12.3 3.28-18.91-.6-16.67-11.91-30.9-20.55-44.39-7.94-12.4-14.88-31.4 7.37-32C66.63.68 89.16 15.9 93.46 33.8c5.08 21.18-2.56 49.37 12 67.56 20.38 25.45 32.3 17.87 37.22 63.92 2.1 19.68-7.71 31.7-19.65 39a53.2 53.2 0 0 1-60.33-3.33c-15.4-11.96-25.76-30.38-25.02-50.05.74-19.86 14.61-36.32 21.11-54.46" fill="#7D97F4"/><path d="m89.29 243-.1-.01a.67.67 0 0 1-.57-.76C102.87 141.7 90.95 84 78.43 53.3c-13.5-33.12-30.49-42.65-30.66-42.75a.66.66 0 0 1-.26-.9.67.67 0 0 1 .9-.27c.72.39 17.58 9.86 31.27 43.42 8 19.64 13.22 43.5 15.5 70.93 2.84 34.24 1.08 74.18-5.23 118.69a.7.7 0 0 1-.66.57" fill="#BDD0FB"/><path d="M36.1 43.45a8 8 0 0 1 2.75-.48c5.57.05 8.44 5.57 10.54 9.9 1.8 3.72 3.92 8.23 3.55 12.5-.4 4.6-4.84 8.8-8.83 4.58-4.54-4.8-11.38-12.17-12.15-19.08-.38-3.43 1.27-6.32 4.13-7.42" fill="#7D97F4"/><path d="M8.71 215.76c-5.33-20.22-.33-44.6 1.1-66.73.76-11.7.46-23.2-2.63-34.58-3.08-11.32-9.85-23.2-6.05-35.19 7.65-24.17 32.82-16.18 48.46-.24 18.14 18.5 26.03 51.02 34.82 75.77 5.3 14.93 12.48 30.05 16.08 45.45 5.96 25.5 1.99 44.07-9.17 57.5a38.1 38.1 0 0 1-44.1 10.66c-13.97-5.91-29.9-20.02-38.5-52.64" fill="#91B3FA"/><path d="M73.83 305.2h-.04a.67.67 0 0 1-.63-.7c.02-.32 1.9-32.11-2.57-75.26-4.12-39.8-14.65-97.7-41.35-147.43a.66.66 0 0 1 .27-.9.67.67 0 0 1 .91.28c11.84 22.05 21.53 47.52 28.8 75.7a495 495 0 0 1 12.7 72.24c4.49 43.25 2.6 75.13 2.58 75.45a.67.67 0 0 1-.67.62" fill="#BDD0FB"/><path d="m50.45 145.68 298.56-5.01c12.02-.2 21.67 10.03 20.95 22.23L359.7 338.4a18.16 18.16 0 0 1-17.81 17.22L54.9 358.43a13.2 13.2 0 0 1-13.22-12.8l-6.86-183.16c-.34-9.07 6.71-16.64 15.63-16.8" fill="url(#c)"/><path d="m55.03 150.15 290.76-4.77a20.04 20.04 0 0 1 20.41 21.16l-10 166.96a17.5 17.5 0 0 1-17.35 16.38l-279.5 2.68a12.7 12.7 0 0 1-12.86-12.18L39.8 166.12a15.44 15.44 0 0 1 15.23-15.97" fill="url(#d)"/><path d="M205.21 341.39c51.42 0 93.1-41.4 93.1-92.45s-41.68-92.44-93.1-92.44-93.1 41.38-93.1 92.44 41.69 92.45 93.1 92.45" fill="url(#e)"/><path d="M263.92 320.7a92.1 92.1 0 0 0 28.47-104.25c-39 15.05-90.27 34.99-90.27 34.99l-26.9 85.03a93.5 93.5 0 0 0 88.7-15.78" fill="url(#f)"/><g opacity=".68" fill="#fff"><path d="m159.35 170.78-.89.5 91.43 157.26.9-.52z"/><path d="m125.7 203.82-.51.89 158.35 90.79.51-.9z"/><path d="M296.06 249.15H113.2v1.02h182.86z"/><path d="m283.54 203.82-158.35 90.8.51.88 158.35-90.8z"/><path d="M296.06 249.15H113.2v1.02h182.86z"/><path d="m283.54 203.82-158.35 90.8.51.88 158.35-90.8z"/><path d="m249.89 170.78-91.43 157.25.9.51 91.42-157.24z"/><path d="M205.15 158.87h-1.04v181.58h1.04z"/><path d="M205.3 326.32q-4.07 0-8.16-.42a77.5 77.5 0 0 1-52.4-28.14c-27.06-33.07-21.98-81.84 11.33-108.72 33.3-26.87 82.42-21.83 109.48 11.25s21.98 81.85-11.33 108.72a77.6 77.6 0 0 1-48.93 17.31m-.23-153.66a77 77 0 0 0-48.44 17.07c-32.92 26.57-37.95 74.78-11.2 107.47a76.6 76.6 0 0 0 51.8 27.82 76.8 76.8 0 0 0 56.43-16.7 75.8 75.8 0 0 0 28.01-51.43 75.5 75.5 0 0 0-16.81-56.04 77 77 0 0 0-59.79-28.2"/><path d="M205.2 309.21A60.7 60.7 0 0 1 158.1 287a60 60 0 0 1 8.82-84.7 60.5 60.5 0 0 1 44.47-13.17 60.4 60.4 0 0 1 40.83 21.93 59.5 59.5 0 0 1 13.25 44.16 59.7 59.7 0 0 1-22.08 40.54 60.6 60.6 0 0 1-38.18 13.45m-.17-119.51a59.5 59.5 0 0 0-37.56 13.28 59.1 59.1 0 0 0-8.69 83.45c20.77 25.4 58.47 29.26 84.04 8.64a58.8 58.8 0 0 0 21.75-39.94 58.7 58.7 0 0 0-13.06-43.51 59.5 59.5 0 0 0-40.22-21.6q-3.14-.32-6.26-.32"/><path d="M205.23 292.17q-2.27 0-4.55-.24a43.2 43.2 0 0 1-29.25-15.7 43 43 0 0 1 6.32-60.68 43.7 43.7 0 0 1 61.1 6.27 42.7 42.7 0 0 1 9.5 31.65 42.8 42.8 0 0 1-15.81 29.03 43.3 43.3 0 0 1-27.31 9.67m-.12-85.37a42.5 42.5 0 0 0-26.8 9.44 42.1 42.1 0 0 0-6.18 59.43 42.4 42.4 0 0 0 28.64 15.38 42.5 42.5 0 0 0 31.2-9.24 42 42 0 0 0 15.5-28.44 41.8 41.8 0 0 0-9.3-30.98 42.6 42.6 0 0 0-33.06-15.6"/><path d="M205.17 275.08a26.3 26.3 0 0 1-20.4-9.62 25.8 25.8 0 0 1-5.73-19.11 25.8 25.8 0 0 1 9.56-17.55 26.2 26.2 0 0 1 19.25-5.7 26 26 0 0 1 17.66 9.5 25.97 25.97 0 0 1-3.82 36.65 26.2 26.2 0 0 1-16.52 5.82m-.05-51.21a25.3 25.3 0 0 0-15.96 5.62 25 25 0 0 0-9.23 16.95 25 25 0 0 0 5.54 18.46 25.5 25.5 0 0 0 35.66 3.66 25.1 25.1 0 0 0 3.69-35.4 25.4 25.4 0 0 0-19.7-9.3"/></g><path d="M234.62 303.9a6.1 6.1 0 0 0 6.14-6.09c0-3.36-2.75-6.1-6.14-6.1a6.1 6.1 0 0 0-6.13 6.1c0 3.37 2.75 6.1 6.13 6.1" fill="url(#g)"/><path d="M209.94 180.96a6.06 6.06 0 0 0 0-8.62 6.17 6.17 0 0 0-8.68 0 6.06 6.06 0 0 0 0 8.62 6.17 6.17 0 0 0 8.68 0" fill="#fff"/><path d="M118.11 163.19a2.57 2.57 0 0 0 2.59 2.53 2.56 2.56 0 0 0 2.55-2.56 2.56 2.56 0 0 0-2.59-2.54 2.56 2.56 0 0 0-2.55 2.57" fill="url(#h)"/><path d="M118.11 178.66a2.57 2.57 0 0 0 2.59 2.53 2.56 2.56 0 0 0 2.55-2.57 2.56 2.56 0 0 0-2.59-2.53 2.56 2.56 0 0 0-2.55 2.56" fill="url(#i)"/><path d="M118.11 194.12a2.57 2.57 0 0 0 2.59 2.54 2.56 2.56 0 0 0 2.55-2.57 2.55 2.55 0 0 0-2.59-2.53 2.56 2.56 0 0 0-2.55 2.56" fill="url(#j)"/><path opacity=".62" d="m114.16 163.06-.01.43c-.03 1.18-.68 2.11-1.48 2.11l-60.86.1c-.82.01-1.5-.97-1.49-2.19 0-1.19.65-2.16 1.46-2.19l60.86-.53c.86-.03 1.55 1 1.52 2.27m0 15.39-.01.43c-.03 1.18-.68 2.11-1.48 2.12l-60.86.1c-.82 0-1.5-.98-1.49-2.2 0-1.19.65-2.16 1.46-2.18l60.86-.54c.86-.03 1.55 1.01 1.52 2.27m0 15.39-.01.44c-.03 1.17-.68 2.1-1.48 2.1l-60.86.11c-.82 0-1.5-.98-1.49-2.2 0-1.19.65-2.16 1.46-2.18l60.86-.54c.86-.03 1.55 1.01 1.52 2.27" fill="#fff"/><path d="M290.57 160.02a2.57 2.57 0 0 1-2.59 2.53 2.56 2.56 0 0 1-2.55-2.56 2.56 2.56 0 0 1 2.58-2.54 2.56 2.56 0 0 1 2.56 2.57" fill="url(#k)"/><path d="M290.57 175.49a2.57 2.57 0 0 1-2.59 2.53 2.56 2.56 0 0 1-2.55-2.57 2.56 2.56 0 0 1 2.58-2.53 2.56 2.56 0 0 1 2.56 2.57" fill="url(#l)"/><path d="M290.57 190.95a2.57 2.57 0 0 1-2.59 2.54 2.56 2.56 0 0 1-2.55-2.57 2.56 2.56 0 0 1 2.58-2.53 2.56 2.56 0 0 1 2.56 2.56" fill="url(#m)"/><path opacity=".62" d="M294.52 159.89v.43c.04 1.18.68 2.11 1.47 2.12l59.85.1c.8 0 1.47-.98 1.47-2.2 0-1.19-.64-2.16-1.44-2.18l-59.86-.54c-.84-.03-1.52 1-1.5 2.27m.01 15.39v.43c.04 1.18.68 2.11 1.47 2.12l59.85.1c.8 0 1.47-.98 1.47-2.2 0-1.19-.64-2.16-1.44-2.18l-59.86-.54c-.84-.03-1.52 1.01-1.5 2.27m.01 15.39v.44c.04 1.17.68 2.1 1.47 2.1l59.85.11c.8 0 1.47-.98 1.47-2.2 0-1.19-.64-2.16-1.44-2.18l-59.86-.54c-.84-.03-1.52 1.01-1.5 2.27" fill="#fff"/><path d="M269.24 358.69s.69 3.87 1.03 7.7a2.65 2.65 0 0 1-2.55 2.87c-5.14.21-16.13.62-20.08.45a.86.86 0 0 1-.76-1.18c.18-.46.54-.83.99-1.03l18.16-8.3z" fill="url(#n)"/><path d="m269.8 356.42-.55 4.63s-3.18 1.47-5.35-.19l1.31-5.16z" fill="url(#o)"/><path d="M269.39 269.33c.24 1.2 1.28 60.36-5.08 86.87a.9.9 0 0 0 .53 1.05c.97.4 2.89.97 5.18 1.05.71.02 1.35-.44 1.55-1.12 1.82-6.15 10.54-36.96 11.68-66.4 1.27-32.9 0-1.12 0-1.12l-.75-20.33z" fill="url(#p)"/><path d="M290.14 360.7s1.1 1.96 2.15 7.16a1.6 1.6 0 0 1-1.42 1.93c-1.7.16-4.31.38-6.4.36a1.6 1.6 0 0 1-1.6-1.79c.22-1.9.94-5 3.18-7.43z" fill="url(#q)"/><path d="m291.1 354.75-1.3 7s-1.27.95-3.8.27l.62-7.54z" fill="url(#r)"/><path d="M294.6 271.14c5.2 31.21-1.14 77.14-3.27 86.13a1.4 1.4 0 0 1-1.14 1.07 10 10 0 0 1-4.08-.16c-.53-.16-.9-.64-.93-1.19-.28-7.26.23-51.88-4.62-69.51a4 4 0 0 0-1.56-2.21l-9.42-6.65-.72-10.75z" fill="url(#s)"/><path d="M261.4 212c15.62-.25 32.84 4.07 32.84 4.07 4.65 26.96.8 58.05.8 58.05-12.07 3.15-25.7-1.92-25.7-1.92-2.01-11.27-11.38-42.98-11.38-42.98a52 52 0 0 1-19.08-6.01c3.94-4.54 5.8-10.32 6.61-13.74 5.52 1.7 11.1 2.61 15.92 2.53" fill="url(#t)"/><path d="M215.3 189.18c1.54-1.84 3.48-.97 3.48-.97 2.3 9.63 14.34 17.44 26.71 21.26-.8 3.42-2.67 9.2-6.61 13.74-20.53-11.47-23.57-34.03-23.57-34.03" fill="url(#u)"/><path d="M215.68 189.64c-.16.51 1.7 1.28 2.8-.79.03-1 .64-5.25.04-6.05-3.18-4.31-9.35-9.71-9.35-9.71-1.04 1.02-.18 2.03-.18 2.03l2.99 3.09c-.63 1.12-1.39 2.07-1.75 3.43a4.2 4.2 0 0 0 .42 3.06c.53.94 1.24 2.17 1.92 3.12a4.2 4.2 0 0 0 3.11 1.82" fill="url(#v)"/><path d="m213.29 180.22 2.72 2.3.86 2.28-2.43 2.68s-.82-4.54-1.43-5.52c-.6-.98-.29-1.45.28-1.74" fill="url(#w)"/><path d="m294.48 233.88-.24-17.8s14.57 9.83 16.97 22.3c-2.75.2-7.77.91-12.67 3.37-.5-2.76-1.42-4.03-2.25-4.61a4 4 0 0 1-1.81-3.26" fill="url(#x)"/><path d="M275.51 245.2s16.37 9.19 21.89 1.34a6 6 0 0 0 1.14-4.79 35 35 0 0 1 12.67-3.37 17 17 0 0 1-1.88 11.8c-9.68 17.57-35.99-.97-35.99-.97z" fill="url(#y)"/><path d="m277.48 256.82-8.94-30.98a.9.9 0 0 0-.77-.65c-1.61-.18-6.3-.71-11.72-1.16-6.52-.55-14.1-1-18.62-.62a.9.9 0 0 0-.75 1.3c2.58 5.18 13.16 26.21 18.47 33.1a.9.9 0 0 0 .73.36l20.73-.2a.9.9 0 0 0 .87-1.15" fill="url(#z)"/><path d="m255.13 221.34-6.48-1.07a.46.46 0 0 0-.52.6l.64 1.93q.1.26.38.31l6.23.83c.33.04.6-.25.52-.57l-.4-1.68a.5.5 0 0 0-.37-.35" fill="#91B3FA"/><path d="m259.98 226.78-.54-2.76a.64.64 0 0 0-.56-.51l-13.09-1.32a.64.64 0 0 0-.68.78l.83 3.44c.06.28.3.48.59.5l12.78.63c.42.02.74-.35.67-.76" fill="#7D97F4"/><path d="M275.32 249.34s1.24-5.08.74-6.88-1.47-4.13-4.71-3.61c-3.25.51-7.07 1.87-7.07 1.87s.2 2.35 2.66 1.6l-1.53 1.17s.22 1.88 2.3.87l-1.42 1.56s.9 1.54 2.42.55c1.53-.99 2.27 3.48 6.6 2.87" fill="url(#A)"/><path d="m277.22 199.42 4.96 14.26c.08.24-.01.5-.23.62-1.36.75-6.23 2.9-12.11-.8a2.4 2.4 0 0 1-1.12-1.73l-1.61-12.35z" fill="url(#B)"/><path d="M266.41 186.22s-5.45 10.19-4.75 14.3 7.45 3.83 13.36.48l4.12-11z" fill="url(#C)"/><path d="M274.76 195.6a.42.42 0 0 1-.19-.61c.44-.67 1.26-2.02 1.52-3.2 0 0 .98-.63-2.5-1.45-3.47-.83-8.65-2.11-9.74-5.05-1.07-2.86 4.63-6.58 9.08-.84.17.22-2.4-3.26-2.23-3.48.73-.94 2.65-2.9 5.3-1.72 2.5 1.12 2.78 2.93 2.75 3.84-.01.27.23.48.5.43 1.26-.24 4.28-.44 5.7 2.64 1.16 2.54.4 3.97-.29 4.68-.22.22-.12.6.18.7.83.24.55-.16.45 1.77-.15 2.66-1.8 3.53-2.66 3.4a.4.4 0 0 0-.37.14c-.74.8-4.03 4.22-7.6 4.63a.42.42 0 0 1-.45-.56l1.54-4.46a.4.4 0 0 0-.23-.52z" fill="url(#D)"/><path d="M274.13 196.23s3.89-2.64 4.17-.41-3.5 3.22-5.37 2.4z" fill="url(#E)"/><path d="m261.6 182.3 23.03 17.12-.4-1.55s9.39-9.83.14-17.65-19.81 1.43-19.81 1.43z" fill="url(#F)"/><path d="M210.64 62.7s51.84-1.39 55.35 1.05 1.4 8 0 9.04-38.89 6.61-38.89 6.61z" fill="url(#G)"/><path d="M259.5 50.7s-3.85-4.17-7-5.22c-3.16-1.04-28.38-2.43-29.43-.7-1.05 1.75 36.08 10.1 36.43 5.92" fill="url(#H)"/><path d="M254.25 62.94v-5.82a3.1 3.1 0 0 1 2.76-3.06c2.19-.24 5.28-.32 7.8.68a3.1 3.1 0 0 1 1.92 3.06l-.41 5.69a3.1 3.1 0 0 1-2.53 2.8c-1.83.34-4.52.5-7.39-.42a3.1 3.1 0 0 1-2.15-2.93" fill="url(#I)"/><path d="m257.05 55.57-.5-4.02a2.6 2.6 0 0 1 1.57-2.71 5.4 5.4 0 0 1 4.74.39c.74.4 1.2 1.17 1.2 2v4.34c-2.2 1.58-4.51 1.75-7 0" fill="url(#J)"/><path d="M261.96 52.79s2.8 5.22 5.6 6.26 33.69 4.41 34.33 3.13c1.4-2.78-26.27-10.09-29.77-10.44 0 0-10.51-1.39-10.16 1.05" fill="url(#K)"/><path d="M203.98 62.7s-51.85-1.39-55.35 1.05-1.4 8 0 9.04 38.88 6.6 38.88 6.6z" fill="url(#L)"/><path d="M155.44 51.15s4.4-3.6 7.68-4.18c3.27-.6 28.44 1.57 29.23 3.44s-37.16 4.92-36.91.74" fill="url(#M)"/><path d="M160.37 62.94v-5.82a3.1 3.1 0 0 0-2.77-3.06c-2.18-.24-5.28-.32-7.8.68-1.24.49-2 1.74-1.91 3.06l.4 5.69a3.1 3.1 0 0 0 2.54 2.8c1.83.34 4.52.5 7.38-.42a3.1 3.1 0 0 0 2.16-2.93" fill="url(#N)"/><path d="m157.65 54.9.42-3.35a2.6 2.6 0 0 0-1.58-2.71 5.4 5.4 0 0 0-4.74.39c-.74.4-1.2 1.17-1.2 2v4.34c2.02 1.46 4.15 1.72 6.41.39.38-.23.63-.62.69-1.06" fill="url(#O)"/><path d="M152.71 52.87s-3.51 4.77-6.44 5.41c-2.92.64-33.97-.36-34.43-1.73-.99-2.95 27.45-6.29 30.97-6.14 0 0 10.6.1 9.9 2.46" fill="url(#P)"/><path d="M299.62 61.87h-.03c-.22-.03-22.15-2.8-28.73-3.83-6.72-1.05-7.84-4.86-7.88-5.02a.21.21 0 0 1 .4-.11c.02.03 1.12 3.7 7.54 4.72 6.58 1.03 28.5 3.8 28.72 3.82q.2.05.19.24-.05.17-.21.18" fill="#fff"/><path opacity=".65" d="M260.72 51.56q-.4 0-.88-.06-1.96-.25-2.43-.98c-.19-.3-.11-.54-.1-.55a.1.1 0 0 1 .13-.07.1.1 0 0 1 .06.14s-.05.16.1.37c.19.3.74.7 2.27.88 2.68.33 3.39-.97 3.4-.99a.1.1 0 0 1 .18.1c-.02.05-.6 1.16-2.73 1.16" fill="#fff"/><path opacity=".6" d="m154.22 51.7-.7-.02q-1.6-.12-1.92-.76c-.19-.4.09-.79.1-.8a.1.1 0 0 1 .17.12s-.21.3-.07.6c.11.24.51.54 1.74.63 3.02.2 3.4-.96 3.4-.97a.1.1 0 0 1 .13-.07.1.1 0 0 1 .07.12c-.01.05-.34 1.15-2.92 1.15" fill="#fff"/><path d="M141.1 57.22c-7.16 0-26.43-1.42-26.64-1.44a.2.2 0 0 1-.2-.22c.01-.12.12-.2.23-.2.23.02 23.51 1.73 28.35 1.4 4.76-.34 8.23-4.08 8.26-4.11.08-.09.21-.1.3-.02s.1.21.01.3c-.03.04-3.61 3.9-8.55 4.24q-.67.05-1.75.05" fill="#fff"/><path d="M211.95 60.88c3.49 0 6.9 1 9.83 2.86 9.11 5.82 29.7 18.65 37.24 20.8 9.81 2.78 16.12 3.82 16.47 8s-6.66 8-16.47 5.21c-10.12-2.87-30.31 1.74-36.83 3.58q-2.14.6-4.36.6h-21.42q-2.22 0-4.35-.6c-6.53-1.84-26.72-6.45-36.84-3.58-9.8 2.79-16.81-1.04-16.46-5.21s6.66-5.22 16.46-8c7.54-2.15 28.13-14.98 37.25-20.8a18.3 18.3 0 0 1 9.82-2.86z" fill="url(#Q)"/><path opacity=".33" d="M142.26 94.9q2.06.68 4.18 1.03c1.42.23 2.85.35 4.27.26q1.05-.07 2.09-.31a8 8 0 0 0 1.93-.75q.44-.24.86-.55.4-.31.75-.69.7-.75 1.13-1.69l.12-.23.08-.24.19-.49.4-1.05q.23-.52.5-1l.58-.97a15 15 0 0 1 3.03-3.29 28 28 0 0 1 7.7-4.32c5.5-2.11 11.34-3.14 17.15-3.74 5.83-.57 11.7-.66 17.54-.4q8.77.42 17.43 1.93a104 104 0 0 1 16.98 4.37q2.06.74 4.08 1.64 2.02.88 3.95 1.95t3.71 2.4l.87.7.83.74q.4.38.79.78l.75.77c1 .99 2.14 1.83 3.44 2.37 1.29.56 2.68.87 4.1 1.03q2.14.23 4.3.11a54 54 0 0 0 4.33-.38c.2-.02.37.12.4.3a.35.35 0 0 1-.3.4c-1.46.18-2.92.35-4.39.42q-2.21.13-4.42-.08a15 15 0 0 1-4.35-1.04 12 12 0 0 1-3.72-2.51l-.78-.8-.75-.74-.8-.7-.84-.67a31 31 0 0 0-3.61-2.32 43 43 0 0 0-3.88-1.9 61 61 0 0 0-4.03-1.6 103 103 0 0 0-16.83-4.28 142 142 0 0 0-17.31-1.86c-5.8-.27-11.62-.2-17.4.35-5.75.57-11.51 1.57-16.9 3.62a27 27 0 0 0-7.47 4.15c-1.1.9-2.08 1.93-2.86 3.09l-.55.9-.47.93-.37.97-.2.54-.1.26-.13.26a7 7 0 0 1-3.13 3.28 9 9 0 0 1-2.14.8q-1.12.26-2.23.32c-1.5.08-2.98-.06-4.44-.3a29 29 0 0 1-4.28-1.11.35.35 0 1 1 .22-.66" fill="#fff"/><path d="M145.16 75.77s-4.46-3.35-8.1-4.2c-3.65-.83-32.8-1.95-34.02-.55-1.21 1.4 41.71 8.1 42.12 4.75" fill="url(#R)"/><path d="M153.6 88.46v-6.72a3.57 3.57 0 0 0-3.2-3.53c-2.53-.29-6.1-.38-9.02.77a3.5 3.5 0 0 0-2.2 3.55l.47 6.57a3.56 3.56 0 0 0 2.92 3.25c2.11.38 5.22.57 8.53-.5a3.6 3.6 0 0 0 2.5-3.39" fill="url(#S)"/><path d="m150.35 79.95.59-4.65a3 3 0 0 0-1.8-3.12 6.2 6.2 0 0 0-5.5.43 2.6 2.6 0 0 0-1.38 2.33l.05 4.06c.01.75.44 1.43 1.1 1.77 2.2 1.13 4.47.91 6.94-.82" fill="url(#T)"/><path d="M147.6 76.85s3.9 5.64 7.24 6.48c3.36.85 39.27.82 39.85-.73 1.25-3.38-31.48-8.28-35.55-8.23 0 0-12.25-.28-11.54 2.48" fill="url(#U)"/><path d="M267.54 76.44s3.79-4.08 7.23-5.54 31.94-7.65 33.38-6.48c1.45 1.16-39.62 15.25-40.61 12.02" fill="url(#V)"/><path d="M259.02 88.46v-6.72a3.57 3.57 0 0 1 3.2-3.53c2.52-.29 6.1-.37 9.02.77a3.5 3.5 0 0 1 2.2 3.55l-.47 6.57a3.56 3.56 0 0 1-2.92 3.25c-2.12.38-5.23.58-8.54-.5a3.6 3.6 0 0 1-2.49-3.39" fill="url(#W)"/><path d="m262.26 79.95-.58-4.65a3 3 0 0 1 1.82-3.14 6.2 6.2 0 0 1 5.48.45 2.6 2.6 0 0 1 1.38 2.33v5c-2.53 1.84-5.22 2.03-8.1 0" fill="url(#X)"/><path d="M264.22 77.77s-2.83 6.23-5.98 7.65c-3.15 1.41-38.5 7.65-39.35 6.22-1.83-3.1 29.52-13.63 33.54-14.3 0 0 12-2.4 11.8.43" fill="url(#Y)"/><path opacity=".54" d="M266.18 75.21a11 11 0 0 1-1.08-.05q-2.06-.2-2.34-1c-.18-.52.33-1 .35-1.03a.1.1 0 0 1 .15 0 .1.1 0 0 1 0 .16s-.44.41-.3.81c.1.3.56.69 2.16.85 3.37.33 4.1-.98 4.1-.99a.1.1 0 0 1 .14-.04.1.1 0 0 1 .05.14c-.03.05-.62 1.15-3.23 1.15" fill="#fff"/><path d="M222.37 90.92q-.17-.02-.2-.18a.2.2 0 0 1 .17-.24c.25-.04 24.94-4.19 31.17-5.22 6.04-1 8.38-6.76 8.5-7.09a.2.2 0 0 1 .16-.19q.11-.03.2.06c.1.1.06.22.03.3-.02.06-2.43 6.28-8.82 7.33l-31.17 5.22zm49.4-14.96a.21.21 0 0 1-.06-.41c.24-.06 23.92-5.97 33.6-10.77a.2.2 0 0 1 .27.1.2.2 0 0 1-.09.27c-9.72 4.83-33.43 10.74-33.67 10.8zm-80.23 6.61c-.23 0-23.57-.36-31.9-1.05-8.44-.7-9.92-4.84-9.98-5.01a.2.2 0 0 1 .13-.27c.1-.03.23.03.27.14.01.04 1.48 4.05 9.62 4.72 8.3.7 31.63 1.04 31.87 1.05a.21.21 0 0 1 0 .42" fill="#fff"/><path opacity=".33" d="M206.08 99.8a.87.87 0 1 1-1.75 0c0-.47.4-.86.88-.86s.87.39.87.87m.52 2.26a.5.5 0 0 1-.52-.52.52.52 0 1 1 .53.52" fill="#fff"/><path d="M192.62 96.03c.3 3.6.89 10.08 1.65 14.18.13.74.76 1.3 1.52 1.35 4.34.3 18.64 1.15 23.97-.4a1.7 1.7 0 0 0 1.17-1.37c.36-2.72 1.36-10.42 1.58-14.93.04-.85-.58-1.6-1.43-1.72-3.55-.53-19.56-.07-25.99.14a2.55 2.55 0 0 0-2.47 2.75" fill="url(#Z)"/><path d="M207.13 109.72a7.33 7.33 0 0 0 7.36-7.3c0-4.04-3.3-7.3-7.36-7.3a7.33 7.33 0 0 0-7.35 7.3c0 4.03 3.29 7.3 7.35 7.3" fill="url(#aa)"/><path d="M207.3 108.68a6.1 6.1 0 0 0 6.14-6.09 6.1 6.1 0 0 0-6.13-6.09 6.1 6.1 0 0 0-6.13 6.09 6.1 6.1 0 0 0 6.13 6.09" fill="url(#ab)"/><path d="M207.3 107.98c3 0 5.44-2.41 5.44-5.4 0-2.97-2.43-5.38-5.43-5.38s-5.43 2.41-5.43 5.39 2.43 5.4 5.43 5.4" fill="url(#ac)"/><path opacity=".33" d="M207.33 143.12c-10 0-19.58-3.06-27.69-8.83a1.8 1.8 0 0 1-.41-2.51 1.8 1.8 0 0 1 2.52-.42 44 44 0 0 0 25.58 8.16c9.24 0 18.09-2.82 25.57-8.16.82-.58 1.95-.4 2.53.42.58.8.4 1.93-.41 2.5a47.4 47.4 0 0 1-27.7 8.84" fill="#fff"/><path opacity=".33" d="M207.33 133.02c-8.2 0-16.05-2.52-22.68-7.3a1.8 1.8 0 0 1-.4-2.51c.58-.8 1.71-.98 2.52-.4a35 35 0 0 0 20.56 6.61 35 35 0 0 0 20.56-6.61c.8-.58 1.94-.4 2.53.4s.4 1.93-.4 2.51a38.6 38.6 0 0 1-22.7 7.3" fill="#fff"/><path opacity=".33" d="M207.33 122.66a27 27 0 0 1-16.02-5.25 1.8 1.8 0 0 1-.38-2.51c.6-.8 1.73-.97 2.53-.38a23.2 23.2 0 0 0 13.87 4.54c5.03 0 9.83-1.57 13.86-4.54.8-.59 1.94-.42 2.54.38s.43 1.92-.38 2.51a27 27 0 0 1-16.02 5.25" fill="#fff"/><defs><linearGradient id="a" x1="-45.44" y1="-22.46" x2="251.4" y2="242.4" gradientUnits="userSpaceOnUse"><stop stop-color="#DAE3FE"/><stop offset="1" stop-color="#E9EFFD"/></linearGradient><linearGradient id="b" x1="36.16" y1="155.97" x2="366.87" y2="155.97" gradientUnits="userSpaceOnUse"><stop stop-color="#4F52FF"/><stop offset="1" stop-color="#4042E2"/></linearGradient><linearGradient id="c" x1="334.95" y1="146.01" x2="72.17" y2="347.49" gradientUnits="userSpaceOnUse"><stop stop-color="#09005D"/><stop offset="1" stop-color="#1A0F91"/></linearGradient><linearGradient id="d" x1="234.51" y1="125.61" x2="151.88" y2="409.19" gradientUnits="userSpaceOnUse"><stop stop-color="#FF928E"/><stop offset="1" stop-color="#FE7062"/></linearGradient><linearGradient id="e" x1="326.18" y1="248.6" x2="12.44" y2="249.49" gradientUnits="userSpaceOnUse"><stop stop-color="#FEBBBA"/><stop offset="1" stop-color="#FF928E"/></linearGradient><linearGradient id="f" x1="246.34" y1="175.21" x2="241.48" y2="236.59" gradientUnits="userSpaceOnUse"><stop stop-color="#FEBBBA"/><stop offset="1" stop-color="#FF928E"/></linearGradient><linearGradient id="g" x1="236.64" y1="294.5" x2="261.17" y2="253.73" gradientUnits="userSpaceOnUse"><stop stop-color="#E1473D"/><stop offset="1" stop-color="#E9605A"/></linearGradient><linearGradient id="h" x1="650.72" y1="1039.27" x2="633.38" y2="1010.21" gradientUnits="userSpaceOnUse"><stop stop-color="#E1473D"/><stop offset="1" stop-color="#E9605A"/></linearGradient><linearGradient id="i" x1="1275.19" y1="1174.5" x2="1254" y2="1155.96" gradientUnits="userSpaceOnUse"><stop stop-color="#E1473D"/><stop offset="1" stop-color="#E9605A"/></linearGradient><linearGradient id="j" x1="1513.63" y1="1130.25" x2="1496.01" y2="1118.24" gradientUnits="userSpaceOnUse"><stop stop-color="#E1473D"/><stop offset="1" stop-color="#E9605A"/></linearGradient><linearGradient id="k" x1="297.89" y1="123.2" x2="293.97" y2="138.01" gradientUnits="userSpaceOnUse"><stop stop-color="#E1473D"/><stop offset="1" stop-color="#E9605A"/></linearGradient><linearGradient id="l" x1="301.78" y1="124.23" x2="297.85" y2="139.04" gradientUnits="userSpaceOnUse"><stop stop-color="#E1473D"/><stop offset="1" stop-color="#E9605A"/></linearGradient><linearGradient id="m" x1="305.66" y1="125.26" x2="301.73" y2="140.07" gradientUnits="userSpaceOnUse"><stop stop-color="#E1473D"/><stop offset="1" stop-color="#E9605A"/></linearGradient><linearGradient id="n" x1="258.96" y1="378.18" x2="258.26" y2="360.24" gradientUnits="userSpaceOnUse"><stop stop-color="#09005D"/><stop offset="1" stop-color="#1A0F91"/></linearGradient><linearGradient id="o" x1="255.8" y1="352.63" x2="294.85" y2="374.24" gradientUnits="userSpaceOnUse"><stop stop-color="#A22B25"/><stop offset="1" stop-color="#C0423C"/></linearGradient><linearGradient id="p" x1="271.34" y1="259.8" x2="267.51" y2="179.15" gradientUnits="userSpaceOnUse"><stop stop-color="#4F52FF"/><stop offset="1" stop-color="#4042E2"/></linearGradient><linearGradient id="q" x1="287.93" y1="377.05" x2="287.23" y2="359.11" gradientUnits="userSpaceOnUse"><stop stop-color="#09005D"/><stop offset="1" stop-color="#1A0F91"/></linearGradient><linearGradient id="r" x1="300.91" y1="362.89" x2="334.07" y2="375.15" gradientUnits="userSpaceOnUse"><stop stop-color="#A22B25"/><stop offset="1" stop-color="#C0423C"/></linearGradient><linearGradient id="s" x1="281.7" y1="259.31" x2="277.87" y2="178.66" gradientUnits="userSpaceOnUse"><stop stop-color="#4F52FF"/><stop offset="1" stop-color="#4042E2"/></linearGradient><linearGradient id="t" x1="-893.92" y1="1318.15" x2="-816.5" y2="1245.56" gradientUnits="userSpaceOnUse"><stop stop-color="#4F52FF"/><stop offset="1" stop-color="#4042E2"/></linearGradient><linearGradient id="u" x1="-931.86" y1="1277.68" x2="-854.44" y2="1205.09" gradientUnits="userSpaceOnUse"><stop stop-color="#4F52FF"/><stop offset="1" stop-color="#4042E2"/></linearGradient><linearGradient id="v" x1="222.03" y1="200.58" x2="242.05" y2="246.45" gradientUnits="userSpaceOnUse"><stop stop-color="#A22B25"/><stop offset="1" stop-color="#C0423C"/></linearGradient><linearGradient id="w" x1="220.72" y1="193.38" x2="212.35" y2="180.42" gradientUnits="userSpaceOnUse"><stop stop-color="#A22B25"/><stop offset="1" stop-color="#C0423C"/></linearGradient><linearGradient id="x" x1="285.03" y1="247.15" x2="307.24" y2="221.79" gradientUnits="userSpaceOnUse"><stop stop-color="#4F52FF"/><stop offset="1" stop-color="#4042E2"/></linearGradient><linearGradient id="y" x1="289.62" y1="251.16" x2="311.83" y2="225.81" gradientUnits="userSpaceOnUse"><stop stop-color="#4F52FF"/><stop offset="1" stop-color="#4042E2"/></linearGradient><linearGradient id="z" x1="270.87" y1="218.74" x2="236.19" y2="274.61" gradientUnits="userSpaceOnUse"><stop stop-color="#09005D"/><stop offset="1" stop-color="#1A0F91"/></linearGradient><linearGradient id="A" x1="276.18" y1="244.09" x2="264.28" y2="244.09" gradientUnits="userSpaceOnUse"><stop stop-color="#A22B25"/><stop offset="1" stop-color="#C0423C"/></linearGradient><linearGradient id="B" x1="270.94" y1="196.27" x2="265.34" y2="175.49" gradientUnits="userSpaceOnUse"><stop stop-color="#A22B25"/><stop offset="1" stop-color="#C0423C"/></linearGradient><linearGradient id="C" x1="263.52" y1="197.97" x2="280.06" y2="187.81" gradientUnits="userSpaceOnUse"><stop stop-color="#A22B25"/><stop offset="1" stop-color="#C0423C"/></linearGradient><linearGradient id="D" x1="289.24" y1="177.72" x2="267.9" y2="194.69" gradientUnits="userSpaceOnUse"><stop stop-color="#09005D"/><stop offset="1" stop-color="#1A0F91"/></linearGradient><linearGradient id="E" x1="267.88" y1="201.72" x2="282.76" y2="192.58" gradientUnits="userSpaceOnUse"><stop stop-color="#A22B25"/><stop offset="1" stop-color="#C0423C"/></linearGradient><linearGradient id="F" x1="278.35" y1="269.44" x2="269.81" y2="50.22" gradientUnits="userSpaceOnUse"><stop stop-color="#4F52FF"/><stop offset="1" stop-color="#4042E2"/></linearGradient><linearGradient id="G" x1="249.27" y1="15.44" x2="243.09" y2="46.89" gradientUnits="userSpaceOnUse"><stop stop-color="#E1473D"/><stop offset="1" stop-color="#E9605A"/></linearGradient><linearGradient id="H" x1="223.05" y1="47.91" x2="259.5" y2="47.91" gradientUnits="userSpaceOnUse"><stop stop-color="#DAE3FE"/><stop offset="1" stop-color="#E9EFFD"/></linearGradient><linearGradient id="I" x1="254.25" y1="60.23" x2="266.73" y2="60.23" gradientUnits="userSpaceOnUse"><stop stop-color="#09005D"/><stop offset="1" stop-color="#1A0F91"/></linearGradient><linearGradient id="J" x1="260.29" y1="39.87" x2="260.29" y2="72.78" gradientUnits="userSpaceOnUse"><stop stop-color="#E1473D"/><stop offset="1" stop-color="#E9605A"/></linearGradient><linearGradient id="K" x1="261.95" y1="56.91" x2="301.94" y2="56.91" gradientUnits="userSpaceOnUse"><stop stop-color="#DAE3FE"/><stop offset="1" stop-color="#E9EFFD"/></linearGradient><linearGradient id="L" x1="196.09" y1="19.41" x2="186.94" y2="39.62" gradientUnits="userSpaceOnUse"><stop stop-color="#E1473D"/><stop offset="1" stop-color="#E9605A"/></linearGradient><linearGradient id="M" x1="155.44" y1="50.06" x2="192.36" y2="50.06" gradientUnits="userSpaceOnUse"><stop stop-color="#DAE3FE"/><stop offset="1" stop-color="#E9EFFD"/></linearGradient><linearGradient id="N" x1="147.88" y1="60.23" x2="160.37" y2="60.23" gradientUnits="userSpaceOnUse"><stop stop-color="#09005D"/><stop offset="1" stop-color="#1A0F91"/></linearGradient><linearGradient id="O" x1="153.34" y1="55.4" x2="143.61" y2="87.46" gradientUnits="userSpaceOnUse"><stop stop-color="#E1473D"/><stop offset="1" stop-color="#E9605A"/></linearGradient><linearGradient id="P" x1="111.82" y1="54.44" x2="152.75" y2="54.44" gradientUnits="userSpaceOnUse"><stop stop-color="#DAE3FE"/><stop offset="1" stop-color="#E9EFFD"/></linearGradient><linearGradient id="Q" x1="213.03" y1="37.39" x2="205.74" y2="106.78" gradientUnits="userSpaceOnUse"><stop stop-color="#FF928E"/><stop offset="1" stop-color="#FE7062"/></linearGradient><linearGradient id="R" x1="103.02" y1="73.53" x2="145.16" y2="73.53" gradientUnits="userSpaceOnUse"><stop stop-color="#DAE3FE"/><stop offset="1" stop-color="#E9EFFD"/></linearGradient><linearGradient id="S" x1="139.16" y1="85.34" x2="153.59" y2="85.34" gradientUnits="userSpaceOnUse"><stop stop-color="#09005D"/><stop offset="1" stop-color="#1A0F91"/></linearGradient><linearGradient id="T" x1="146.41" y1="76.37" x2="152.72" y2="89.28" gradientUnits="userSpaceOnUse"><stop stop-color="#E1473D"/><stop offset="1" stop-color="#E9605A"/></linearGradient><linearGradient id="U" x1="147.57" y1="79.12" x2="194.72" y2="79.12" gradientUnits="userSpaceOnUse"><stop stop-color="#DAE3FE"/><stop offset="1" stop-color="#E9EFFD"/></linearGradient><linearGradient id="V" x1="267.54" y1="70.6" x2="308.19" y2="70.6" gradientUnits="userSpaceOnUse"><stop stop-color="#DAE3FE"/><stop offset="1" stop-color="#E9EFFD"/></linearGradient><linearGradient id="W" x1="259.02" y1="85.34" x2="273.45" y2="85.34" gradientUnits="userSpaceOnUse"><stop stop-color="#09005D"/><stop offset="1" stop-color="#1A0F91"/></linearGradient><linearGradient id="X" x1="266.13" y1="77.27" x2="267.14" y2="97.47" gradientUnits="userSpaceOnUse"><stop stop-color="#E1473D"/><stop offset="1" stop-color="#E9605A"/></linearGradient><linearGradient id="Y" x1="218.81" y1="84.12" x2="264.23" y2="84.12" gradientUnits="userSpaceOnUse"><stop stop-color="#DAE3FE"/><stop offset="1" stop-color="#E9EFFD"/></linearGradient><linearGradient id="Z" x1="221.85" y1="77.18" x2="256.87" y2="17.37" gradientUnits="userSpaceOnUse"><stop stop-color="#E1473D"/><stop offset="1" stop-color="#E9605A"/></linearGradient><linearGradient id="aa" x1="199.78" y1="102.42" x2="214.49" y2="102.42" gradientUnits="userSpaceOnUse"><stop stop-color="#DAE3FE"/><stop offset="1" stop-color="#E9EFFD"/></linearGradient><linearGradient id="ab" x1="201.18" y1="102.59" x2="213.44" y2="102.59" gradientUnits="userSpaceOnUse"><stop stop-color="#FF928E"/><stop offset="1" stop-color="#FE7062"/></linearGradient><linearGradient id="ac" x1="201.88" y1="102.59" x2="212.74" y2="102.59" gradientUnits="userSpaceOnUse"><stop stop-color="#09005D"/><stop offset="1" stop-color="#1A0F91"/></linearGradient></defs></svg>