<svg width="1346" height="1345" viewBox="0 0 1346 1345" fill="none" xmlns="http://www.w3.org/2000/svg">
<path d="M321.037 352.298L0.793945 672.54L321.037 992.783L641.279 672.54L321.037 352.298Z" fill="#118166"/>
<path d="M673.339 1.49642e-05L353.096 320.243L673.339 640.485L993.581 320.243L673.339 1.49642e-05Z" fill="#61A041"/>
<path d="M672.617 703.882L352.374 1024.13L672.617 1344.37L992.859 1024.13L672.617 703.882Z" fill="#E2D39B"/>
<path d="M1024.92 351.585L704.676 671.828L1024.92 992.071L1345.16 671.828L1024.92 351.585Z" fill="#FAC00B"/>
<path d="M659.5 988.5C658.8 988.7 656.05 989.9 653.3 991.2L648.4 993.5H642.5C639.25 993.5 636.2 993.65 635.75 993.8C635.3 994 633.2 996.3 631.05 998.95C627.15 1003.75 627.1 1003.8 621.3 1006.65C617.1 1008.7 615.35 1009.8 615.05 1010.65C614.8 1011.3 614.05 1014.25 613.4 1017.2C612.25 1022.5 612.2 1022.6 608.55 1027.15C606.55 1029.7 604.7 1032.25 604.45 1032.9C604.15 1033.75 604.4 1035.9 605.4 1040.15L606.8 1046.25L605.4 1052C604.65 1055.15 604.15 1058.3 604.3 1059C604.45 1059.65 606.25 1062.35 608.35 1064.9L612.1 1069.6L613.45 1075.55C614.3 1079.1 615.2 1081.9 615.8 1082.55C616.3 1083.15 619.1 1084.7 622 1086.1C626.9 1088.4 627.4 1088.8 630 1092.1C631.5 1094.05 633.45 1096.4 634.3 1097.35L635.85 1099H642.4H648.95L654.55 1101.75C657.65 1103.25 660.55 1104.5 661 1104.5C661.45 1104.5 664.35 1103.25 667.45 1101.75L673.05 1099H679.6H686.15L687.7 1097.35C688.55 1096.4 690.5 1094.05 692 1092.1C694.6 1088.8 695.1 1088.4 700 1086.1C702.9 1084.7 705.65 1083.15 706.2 1082.55C706.75 1081.95 707.7 1079.05 708.5 1075.55L709.9 1069.6L713.65 1064.9C715.75 1062.35 717.55 1059.65 717.7 1059C717.85 1058.3 717.35 1055.15 716.6 1052L715.2 1046.25L716.6 1040.15C717.6 1035.9 717.85 1033.75 717.55 1032.9C717.3 1032.25 715.45 1029.7 713.45 1027.15C709.8 1022.6 709.75 1022.5 708.55 1017.15C707.95 1014.2 707.1 1011.2 706.75 1010.5C706.3 1009.6 704.35 1008.4 700.5 1006.5C694.95 1003.85 694.85 1003.75 691 998.95C688.8 996.3 686.7 994 686.25 993.8C685.8 993.65 682.75 993.5 679.55 993.5H673.65L668.45 991.1C662.55 988.3 661.25 987.95 659.5 988.5ZM666.75 992.5L672.25 995.25L678.8 995.5C686.35 995.8 685.8 995.5 690.35 1001.3C693 1004.75 693.7 1005.25 698.5 1007.75C701.4 1009.2 704.15 1010.85 704.6 1011.35C705.05 1011.85 705.9 1014.4 706.5 1017C707.8 1022.85 708.35 1024 712.05 1028.55C713.7 1030.55 715.15 1032.75 715.35 1033.45C715.55 1034.15 715.25 1036.65 714.75 1039C713.35 1045.4 713.3 1046.9 714.45 1051.7C716.05 1058.35 715.95 1058.85 712.6 1063.1C708.25 1068.55 708 1069.1 706.7 1074.6C706 1077.4 705.15 1080.2 704.8 1080.75C704.4 1081.35 701.75 1083 698.85 1084.4C693.8 1086.9 693.45 1087.15 690 1091.5C688 1094 686 1096.25 685.5 1096.5C685 1096.8 681.9 1097 678.6 1097H672.65L667.55 1099.5C664.75 1100.9 661.8 1102 661 1102C660.2 1102 657.25 1100.85 654.45 1099.5L649.35 1097H643.4C640.1 1097 637 1096.8 636.5 1096.5C636 1096.25 634 1094 632 1091.55C628.6 1087.25 628.2 1086.9 623.35 1084.5C620.55 1083.1 617.9 1081.55 617.45 1081.1C617 1080.65 616.1 1078.1 615.5 1075.5C614.9 1072.9 614.3 1070.35 614.2 1069.9C614.05 1069.45 612.25 1066.85 610.2 1064.2C605.95 1058.65 605.95 1058.65 607.6 1051.35L608.7 1046.45L607.6 1041.1C606.05 1033.55 606.05 1033.4 609.15 1029.55C613.6 1024.05 613.95 1023.25 615.3 1017.65C616 1014.7 616.85 1011.9 617.15 1011.45C617.5 1011 620.25 1009.4 623.25 1007.85C628.35 1005.25 628.95 1004.75 631.65 1001.35C636.35 995.3 635.8 995.6 643.25 995.4L649.75 995.25L655.25 992.45C658.3 990.9 660.85 989.65 661 989.7C661.15 989.75 663.75 991 666.75 992.5Z" fill="white"/>
<path d="M656.25 1003.3C636.85 1006.15 622.2 1019.95 618.65 1038.75C617.65 1043.95 618.05 1052.3 619.5 1057.5C624.3 1074.45 639.05 1087.05 656.5 1089C674.6 1091.05 692.05 1080.95 699.95 1063.9C702.5 1058.45 703.5 1054.35 703.85 1048.25C705 1027.9 691.1 1009.35 670.85 1004.3C667.5 1003.45 659.1 1002.9 656.25 1003.3ZM666.35 1005.55C680.25 1007.4 692.35 1016.35 698.2 1029.1C700.55 1034.15 701.45 1037.9 701.85 1043.75C703 1062.8 691.1 1079.75 672.5 1085.6C669.25 1086.6 667.75 1086.75 661 1086.75C654.25 1086.75 652.75 1086.6 649.5 1085.6C630.8 1079.7 618.9 1062.7 620.15 1043.6C620.55 1037.85 621.5 1034.05 623.8 1029.1C628.5 1018.85 637.65 1010.65 648.15 1007.3C654.85 1005.15 659.85 1004.65 666.35 1005.55Z" fill="white"/>
<path d="M653.25 1010.7C645.25 1012.55 638.25 1016.8 633.2 1022.9C624.95 1032.9 622.6 1045.6 626.75 1058C630.45 1068.95 639.3 1077.4 651 1081.05C656.35 1082.75 665.65 1082.75 671 1081.05C678.2 1078.8 683.85 1075.1 688.65 1069.5C691.85 1065.75 693.7 1062.5 695.25 1058C701.75 1038.55 691.7 1018.3 672.25 1011.7C667.35 1010.05 658.2 1009.55 653.25 1010.7ZM667.9 1012.75C670.2 1013.2 673.65 1014.45 676.5 1015.85C685.1 1020.05 691.8 1028.3 694.25 1037.75C695.25 1041.7 695.25 1050.65 694.2 1054.7C693.25 1058.3 690.6 1063.8 688.15 1067.1C684.55 1072.05 677.9 1076.65 671.25 1078.85C667.8 1080 666.4 1080.15 661 1080.15C655.6 1080.15 654.2 1080 650.75 1078.85C645.25 1077.05 640.95 1074.4 636.8 1070.25C630.2 1063.7 627.45 1057.25 627.1 1047.8C626.85 1040.3 627.5 1036.95 630.35 1031.05C632.2 1027.15 633.3 1025.6 636.7 1022.25C645.05 1013.85 656.3 1010.45 667.9 1012.75Z" fill="white"/>
<path d="M664.55 1038.25C661.3 1041.4 658.4 1044 658.05 1044C657.75 1044 655.95 1042.85 654.15 1041.5C652.35 1040.1 650.45 1039 650 1039C648.95 1039 644.2 1044.05 643.1 1046.3C642.4 1047.8 642.4 1048.05 643.2 1049.25C644.3 1050.95 654.25 1058.9 656.5 1059.85C659.75 1061.25 661.3 1060.35 670.4 1051.35C674.9 1046.9 678.9 1042.6 679.3 1041.85C680 1040.55 679.95 1040.3 679 1038.75C677.4 1036.15 673.1 1032.5 671.65 1032.5C670.75 1032.5 668.85 1034.05 664.55 1038.25ZM675.1 1037.3L678.3 1040.6L669.6 1049.15C664.85 1053.9 660.4 1057.95 659.7 1058.2C657.9 1058.8 656.85 1058.2 650 1052.7L644 1047.9L646.6 1044.55C648 1042.75 649.35 1041.05 649.55 1040.85C649.75 1040.6 651.8 1042 654.05 1043.95L658.25 1047.45L665 1040.75C668.7 1037.05 671.8 1034 671.8 1034C671.85 1034 673.35 1035.5 675.1 1037.3Z" fill="white"/>
<path d="M611.25 1104.45C603.05 1120.95 602.8 1121.75 605.5 1124.1C607 1125.5 607.05 1125.5 614.45 1125.5H621.85L626.3 1131.35C631.1 1137.65 632.05 1138.3 635.25 1137.45C636.95 1136.95 637.25 1136.45 644.75 1121.5L652.5 1106L650.65 1105.05C649.15 1104.3 647.4 1104.1 642 1103.9C633.65 1103.7 633.15 1103.45 627.95 1097C625 1093.4 623.5 1092 621.4 1090.95L618.7 1089.6L611.25 1104.45ZM622.6 1094.15C623.3 1094.75 625.1 1096.7 626.55 1098.5C631.7 1105 633.9 1106 642.5 1106C650.85 1106 650.85 1104.85 642.4 1121.5C638.5 1129.3 634.85 1135.95 634.4 1136.2C633.25 1136.9 632.25 1135.95 627.7 1129.9C625.65 1127.25 623.5 1124.7 622.9 1124.3C622 1123.65 620.35 1123.5 615 1123.5C607.55 1123.5 606 1123 606 1120.7C606 1120.05 609 1113.55 612.6 1106.25C619.8 1091.9 619.85 1091.85 622.6 1094.15Z" fill="white"/>
<path d="M700.55 1090.95C698.55 1092 697.05 1093.4 694.3 1096.75C692.35 1099.2 690.15 1101.6 689.45 1102.1C687.55 1103.5 684.9 1103.95 678.85 1104C674.45 1104 673.1 1104.2 671.5 1105L669.5 1106L677.25 1121.5C684.75 1136.45 685.05 1136.95 686.75 1137.45C689.95 1138.3 690.9 1137.65 695.7 1131.35L700.15 1125.5H707.55C714.95 1125.5 715 1125.5 716.55 1124.1C719.2 1121.75 718.95 1120.85 710.7 1104.4L703.25 1089.6L700.55 1090.95ZM709.4 1106.35C713.05 1113.75 716.05 1120.25 716 1120.85C716 1123 714.35 1123.5 707 1123.5C701.65 1123.5 700 1123.65 699.1 1124.3C698.5 1124.7 696.35 1127.25 694.3 1129.9C689.75 1135.95 688.75 1136.9 687.6 1136.2C687.15 1135.95 683.55 1129.3 679.6 1121.5C671.2 1104.85 671.2 1106 679.5 1106C688.1 1106 690.3 1105 695.45 1098.5C696.9 1096.7 698.7 1094.75 699.4 1094.15C702.15 1091.8 702.25 1091.9 709.4 1106.35Z" fill="white"/>
<g clip-path="url(#clip0_1_929)">
<path d="M703 266.5C679.45 270.1 662.25 278.65 645.3 295C636.25 303.75 629.1 312.8 623.6 322.55L622.05 325.3L648.85 352.15L675.7 378.95L678.45 377.4C682.8 374.95 691.9 368.65 696 365.25C704.65 358 715.2 346 720.85 337C729.2 323.6 734.65 305.35 735.3 288.75C735.65 279.9 734.9 281.45 733.25 292.85C729.5 319.05 722.5 334.75 706.6 352.4C701.95 357.5 693.3 365.15 687.4 369.35C682.5 372.75 677 376 676 376C674.95 376 625 325.95 625 324.85C625 323.7 628.9 317.3 633 311.75C643.7 297.3 658.55 284.6 672.7 277.75C683.05 272.75 692.8 270.05 708.4 267.8C713 267.1 717.3 266.35 718 266.05C720.15 265.2 709.4 265.5 703 266.5Z" fill="white"/>
<path d="M727.5 266.55C731.5 267.95 732.85 269.25 734.25 273L735.45 276.25V273.35C735.5 268 733.05 265.5 727.75 265.55L724.75 265.6L727.5 266.55Z" fill="white"/>
<path d="M685.7 288.5C680.35 289.3 676.35 291.2 672.35 294.9C667.5 299.5 665 305.35 665 312.25C665 319.15 667.5 325 672.35 329.6C677.25 334.15 682.45 336.2 689 336.15C698.4 336.05 706.2 330.95 710.4 322.1C712.2 318.3 712.25 318.15 712.25 312.25C712.25 306.35 712.2 306.15 710.4 302.4C706.45 294.15 699.5 289.3 690.25 288.35C689.15 288.25 687.1 288.3 685.7 288.5ZM698.15 292.45C702.6 294.55 706.45 298.4 708.55 302.85C710 305.85 710.25 306.85 710.4 311.25C710.55 315.4 710.4 316.75 709.55 319.25C706.35 328.4 698.4 334 688.7 334C679.15 334 671.15 328.3 667.95 319.25C666.55 315.2 666.8 307.5 668.45 303.75C671 298.05 675.7 293.65 681.5 291.5C683.75 290.65 685.2 290.5 689.5 290.65C694.25 290.75 695.1 290.95 698.15 292.45Z" fill="white"/>
<path d="M685.2 299.5C680.4 301 676.25 305.9 675.7 310.8C674.85 317.7 680.35 324.5 687.3 325.3C694.2 326.15 701 320.65 701.8 313.7C702.65 306.5 696.95 299.7 689.65 299.2C688.05 299.1 686.05 299.25 685.2 299.5ZM695.25 303.4C701.3 307.65 701.2 317.2 695 321.3C691 323.95 686.55 323.95 682.6 321.3C676.95 317.5 676.05 309.7 680.7 304.6C684.05 300.9 690.85 300.35 695.25 303.4Z" fill="white"/>
<path d="M615 306.2C608.4 306.85 605.8 307.75 603.65 310.1C603.1 310.7 598.95 316.75 594.55 323.5C589.05 331.85 586.5 336.2 586.4 337.25C586.1 344.2 587.95 345.95 597.65 347.5C601.15 348.05 604.2 348.5 604.45 348.5C604.65 348.5 605 347.55 605.2 346.4C606.7 337.15 613.15 322.05 620.1 311.5C621.85 308.9 623.4 306.45 623.65 306.1C624.1 305.4 623.75 305.4 615 306.2ZM619.15 308.85C618.95 309.35 617.7 311.55 616.3 313.75C611.3 321.8 606.6 332.85 603.75 343.2L602.95 346.1L600.35 345.8C593 344.85 591.45 344.4 589.85 342.8C588.95 341.9 587.95 340.6 587.55 339.9C586.9 338.65 587.2 338.1 595.25 325.95C599.85 318.95 604.2 312.6 604.9 311.85C606.9 309.7 608.85 308.9 613 308.5C619.4 307.9 619.5 307.9 619.15 308.85Z" fill="white"/>
<path d="M616.8 337.55C613.95 345.6 612.55 352.9 613.45 355.6C613.85 356.75 618.5 361.75 629.15 372.35C646.35 389.5 645.1 388.7 652.35 387.3C656.5 386.45 665.9 383.65 666.6 383.05C666.8 382.85 656 371.75 642.55 358.3L618.15 333.9L616.8 337.55ZM641.1 359.85C652.9 371.65 662.5 381.5 662.5 381.85C662.5 382.6 657.45 384.2 651.65 385.35C648 386.05 647.25 386.05 646 385.45C643.95 384.5 616.2 356.65 615.45 354.8C614.9 353.6 614.95 352.6 615.65 349.2C616.85 343.35 618.45 338.5 619.15 338.5C619.45 338.5 629.35 348.1 641.1 359.85Z" fill="white"/>
<path d="M594.9 373.85C586.7 382.05 586.5 382.25 586.5 384.3C586.5 386 586.75 386.65 587.8 387.45C590.65 389.7 591.45 389.25 600.6 380.15C608.55 372.25 609 371.7 609 369.85C609 367.4 607.25 365.5 604.95 365.5C603.5 365.5 602.3 366.5 594.9 373.85ZM606.4 368.6C606.75 368.95 607 369.65 607 370.15C607 371.25 594 384.7 591.85 385.85C590.6 386.5 590.3 386.5 589.2 385.75C588.55 385.35 588 384.6 588 384.1C588 383.6 591.45 379.8 595.65 375.6C603.45 367.9 604.8 367 606.4 368.6Z" fill="white"/>
<path d="M690.05 380.55C679.35 387.65 663.75 394.35 654.65 395.8C653.45 396 652.5 396.35 652.5 396.55C652.5 396.8 652.95 399.85 653.5 403.35C655.05 413.05 656.8 414.9 663.8 414.6C665.6 414.5 690.1 398.55 691.85 396.3C693.65 394.05 694.4 391.05 694.95 384.05C695.25 380.35 695.45 377.3 695.4 377.2C695.3 377.15 692.9 378.65 690.05 380.55ZM692.75 386.45C692.35 391.1 691.3 394.15 689.45 395.85C688.25 396.9 665.15 412.35 663.1 413.45C662.2 413.95 661.7 413.8 660.05 412.7C658.95 412 657.7 410.85 657.25 410.2C656.4 408.85 654.7 399.5 655.15 398.4C655.3 397.95 656.3 397.5 657.35 397.35C663.65 396.3 680.7 389 688.75 383.85C690.7 382.65 692.45 381.75 692.65 381.85C692.9 382 692.95 384.05 692.75 386.45Z" fill="white"/>
<path d="M616.25 379C615.7 379.25 608.75 385.95 600.8 393.9C586.5 408.25 586.35 408.4 586.35 410.5C586.35 413.3 587.7 414.65 590.5 414.65C592.6 414.65 592.7 414.55 607.25 400C615.7 391.55 622.05 384.8 622.25 384.1C622.7 382.35 621.6 380.1 619.95 379.25C618.4 378.4 617.7 378.35 616.25 379ZM619.4 381.6C620.95 383.15 619.9 384.4 605.5 398.75C597.5 406.75 590.75 413.3 590.5 413.4C589.9 413.6 587.4 411.1 587.6 410.5C587.7 410.25 594.25 403.5 602.25 395.5C616.6 381.1 617.9 380.1 619.4 381.6Z" fill="white"/>
<path d="M620.85 400.4C611.75 409.55 611.3 410.35 613.55 413.2C614.35 414.25 615 414.5 616.7 414.5C618.75 414.5 618.95 414.3 627.15 406.1C634.5 398.7 635.5 397.5 635.5 396.05C635.5 393.75 633.6 392 631.15 392C629.3 392 628.75 392.45 620.85 400.4ZM632.7 395.05C633.35 396 633.35 396.35 632.75 397.45C631.85 399.2 617.85 413 617 413C615.95 413 614.5 411.45 614.5 410.35C614.5 408.9 629.45 394 630.9 394C631.45 394 632.3 394.5 632.7 395.05Z" fill="white"/>
</g>
<path d="M940 650.364V651.728L944.5 651.518L949 651.308V707.065V762.821L979.75 762.716L1010.5 762.559V767.647V772.735L1008.75 773.626C1003.55 776.196 1000.75 783.75 1002.6 790.201C1003.35 792.876 1006.7 796.81 1009.25 798.017C1012 799.328 1018 799.328 1020.75 798.017C1023.3 796.81 1026.65 792.876 1027.4 790.201C1029.25 783.75 1026.45 776.196 1021.25 773.626L1019.5 772.735V767.647V762.559L1050.25 762.716L1081 762.821V707.065V651.308L1085.5 651.518L1090 651.728V650.364C1090 649 1089.95 649 1086.55 649C1082.65 649 1080.2 649.734 1079.5 651.098C1079.2 651.728 1079 671.764 1079 705.858C1079 758.468 1079 759.674 1078.05 760.199C1077.4 760.513 1067.15 760.723 1048.3 760.723C1014.25 760.723 1017.5 759.989 1017.5 767.752C1017.5 773.154 1017.5 773.154 1022 776.931C1024.6 779.134 1026 782.176 1026 785.638C1026 790.726 1023.35 794.502 1017.9 797.23L1014.9 798.751L1011.1 796.653C1008 794.922 1007 794.03 1005.8 792.037C1002.85 787.002 1003.6 780.917 1007.65 777.245C1012.9 772.525 1012.5 773.259 1012.5 767.752C1012.5 759.989 1015.85 760.723 981.35 760.723C959.35 760.723 952.05 760.566 951.6 760.094C951.15 759.622 951 746.823 951 705.753C951 671.764 950.8 651.728 950.5 651.098C949.8 649.734 947.35 649 943.45 649C940.05 649 940 649 940 650.364Z" fill="white"/>
<path d="M993.3 659.805C989.85 660.959 986.9 663.214 985.1 666.099C982.9 669.561 982.35 671.659 982.6 675.908C982.9 682.359 986 686.975 991.85 689.755C994.2 690.909 995.15 691.067 998.2 690.857C1002.5 690.542 1005.25 689.231 1008.3 685.926C1017.05 676.485 1011.15 660.539 998.45 659.228C996.7 659.071 994.85 659.281 993.3 659.805ZM1003.5 662.9C1007.65 665.103 1010 668.879 1010.4 674.02C1011 681.992 1005.05 688.864 997.4 688.864C993.45 688.864 988.95 686.398 986.7 682.989C978.95 671.082 991.25 656.396 1003.5 662.9Z" fill="white"/>
<path d="M994.45 672.027C992.9 673.653 992.7 674.806 993.5 677.062C994.05 678.583 996.5 679.894 998.25 679.527C1001.6 678.898 1002.9 674.072 1000.3 671.764C998.4 670.033 996.3 670.138 994.45 672.027ZM999.3 674.492C999.65 675.96 998.8 677.324 997.55 677.324C996.35 677.324 995.5 676.275 995.5 674.859C995.5 672.499 998.75 672.184 999.3 674.492Z" fill="white"/>
<path d="M1040.15 664.368C1036.05 668.67 1036.05 669.509 1039.85 673.705C1041.4 675.383 1042.55 676.905 1042.45 677.009C1042.35 677.062 1040.25 677.429 1037.75 677.796C1029.55 679.003 1023.05 682.464 1017.55 688.654C1011.9 694.948 1009.3 701.61 1008.55 711.471C1008.2 716.086 1007.8 717.817 1006.6 720.545C1003.85 726.734 998.75 730.983 992.6 732.346C991.1 732.661 984.95 732.923 978.55 732.923C964.45 732.923 964.85 732.766 964.6 739.165C964.4 743.309 964.45 743.414 965.95 745.04L967.5 746.666L980.9 746.456C993.05 746.246 994.55 746.089 997.75 745.04C1005.35 742.47 1011.7 737.382 1016.1 730.353C1019.15 725.423 1020.8 719.81 1021.5 712.047C1022.1 704.704 1023.65 700.823 1027.5 697.046C1031.05 693.532 1037.05 690.962 1041.55 690.962C1043.05 690.962 1042.7 691.749 1039.75 695.053C1038 697.046 1037 698.62 1037 699.459C1037 700.928 1040.95 705.858 1043.05 707.012C1044.45 707.746 1044.65 707.694 1046.15 706.75C1048.15 705.439 1065.15 687.5 1066 685.821C1066.3 685.14 1066.45 684.038 1066.3 683.461C1066.15 682.832 1061.45 677.534 1055.85 671.659C1048.4 663.896 1045.4 661.064 1044.5 661.064C1043.75 661.064 1042.25 662.166 1040.15 664.368ZM1055 673.39L1065.25 684.143L1054.85 695.053L1044.4 706.015L1041.35 702.659L1038.3 699.302L1043.3 694.056L1048.35 688.864H1043.95C1034.65 688.864 1028.25 691.853 1023.7 698.357C1021 702.239 1019.95 705.648 1019.45 712.205C1018.75 721.017 1017.1 725.947 1012.75 731.927C1008.95 737.067 1003.75 740.739 997.25 742.942C994.1 743.991 992.45 744.096 980.15 744.358L966.5 744.568V739.795V735.022H978.5C985.45 735.022 991.55 734.759 993.1 734.445C998.3 733.291 1003.15 729.986 1006.3 725.528C1009 721.646 1010.05 718.237 1010.55 711.68C1010.8 708.481 1011.35 704.599 1011.8 703.078C1014.6 692.902 1022.45 684.51 1032.1 681.206C1035.6 680.052 1037.2 679.842 1042.4 679.737L1048.55 679.685L1043.35 674.334L1038.15 669.037L1041.2 665.837C1042.85 664.054 1044.35 662.638 1044.5 662.638C1044.65 662.638 1049.35 667.463 1055 673.39Z" fill="white"/>
<path d="M979.25 700.456C977.7 701.977 976.15 703.812 975.75 704.599C975.15 705.858 975.15 706.173 975.95 707.537C976.45 708.376 977.35 709.53 977.95 710.054C979.35 711.366 979.3 712.52 977.7 714.093C977 714.775 976.1 715.981 975.7 716.716C975.1 718.027 975.15 718.289 976.45 720.125C978.4 722.957 981.8 726.105 982.95 726.105C983.45 726.105 984.9 725.16 986.15 724.007C987.4 722.853 988.55 721.908 988.75 721.908C988.95 721.908 990.1 722.853 991.3 724.007C992.5 725.16 993.8 726.105 994.15 726.105C995.75 726.105 1002 719.653 1002 718.027C1002 717.293 1000.75 715.299 999.1 713.411L997.9 711.995L999.95 709.477C1001.05 708.061 1002 706.54 1002 706.068C1002 704.127 995.95 697.78 994.1 697.78C993.75 697.78 992.5 698.725 991.3 699.879C990.1 701.032 988.9 701.977 988.65 701.977C988.4 701.977 987.65 701.347 986.95 700.613C985.75 699.249 983.45 697.78 982.55 697.78C982.3 697.78 980.8 698.987 979.25 700.456ZM985.7 702.344L988.45 705.386L991.35 702.396L994.3 699.354L997.4 702.659L1000.55 706.015L997.65 708.953L994.75 711.943L997.65 714.932L1000.55 717.87L997.4 721.227L994.3 724.531L991.35 721.489L988.45 718.499L985.75 721.436L983 724.426L979.8 721.122L976.55 717.817L979.5 714.88L982.45 711.943L979.5 709.005L976.55 706.068L979.65 702.763C981.35 700.98 982.8 699.459 982.85 699.406C982.9 699.406 984.15 700.718 985.7 702.344Z" fill="white"/>
<path d="M1042.75 717.135C1040.5 718.552 1037 722.905 1037 724.269C1037 724.951 1037.8 726.472 1038.75 727.678C1039.7 728.885 1040.5 730.144 1040.5 730.406C1040.5 730.721 1039.7 731.875 1038.75 732.976C1036.15 735.966 1036.4 737.172 1040.15 741.159C1042.15 743.204 1043.75 744.463 1044.45 744.463C1045.05 744.463 1046.5 743.519 1047.7 742.365C1048.9 741.211 1050 740.267 1050.15 740.267C1050.3 740.267 1051.5 741.211 1052.75 742.365C1054 743.519 1055.45 744.463 1055.95 744.463C1057.15 744.463 1061.15 740.739 1062.55 738.379C1063.8 736.228 1063.55 735.284 1060.95 732.189L1059.35 730.248L1060.85 728.57C1062.85 726.367 1063.65 724.741 1063.25 723.535C1062.85 722.223 1056.75 716.139 1055.85 716.139C1055.45 716.139 1054.05 717.135 1052.75 718.342C1051.15 719.863 1050.2 720.387 1049.75 720.02C1049.45 719.758 1048.2 718.761 1047 717.817C1045.8 716.926 1044.7 716.139 1044.55 716.139C1044.4 716.139 1043.55 716.558 1042.75 717.135ZM1053.05 720.86L1055.75 717.712L1059 721.122L1062.25 724.531L1059.25 727.416L1056.25 730.248L1059.15 733.343L1062 736.385L1058.85 739.637L1055.75 742.889L1052.85 739.9L1050 736.857L1047.25 740.005L1044.5 743.099L1041.25 739.742L1038 736.385L1041 733.396L1044 730.406L1041.15 727.521L1038.25 724.584L1041.25 721.279L1044.25 717.922L1047.3 720.964L1050.3 724.059L1053.05 720.86Z" fill="white"/>
<path d="M354.987 643.787C354.24 644.693 353.6 645.973 353.6 646.613C353.6 647.68 353.173 647.947 350.613 648.48C348.96 648.853 345.6 650.187 343.093 651.413L338.613 653.707L336.587 652.693C334.08 651.467 332.427 651.947 329.44 654.827C325.813 658.347 325.067 660.693 326.933 663.093L328.053 664.48L326.72 666.613C324.96 669.333 322.72 674.933 322.293 677.44C322.08 679.093 321.76 679.467 320.747 679.467C320.107 679.467 318.827 680.107 317.92 680.853C316.32 682.187 316.267 682.347 316.267 686.933C316.267 691.253 316.373 691.68 317.653 693.013C318.56 693.867 319.68 694.4 320.587 694.4C321.813 694.4 322.133 694.613 322.133 695.573C322.187 697.493 324.587 703.947 326.4 706.773L328 709.387L326.88 710.933C325.12 713.28 325.813 715.467 329.333 718.933C331.893 721.44 332.533 721.867 334.347 721.867C335.627 721.867 336.853 721.44 337.493 720.907C338.507 720 338.613 720 341.173 721.6C344.053 723.413 350.507 725.813 352.427 725.867C353.227 725.867 353.6 726.187 353.6 726.933C353.6 728.48 354.987 730.987 356 731.413C356.48 731.573 358.88 731.733 361.333 731.733C365.653 731.733 365.813 731.68 367.147 730.08C367.893 729.173 368.533 727.893 368.533 727.253C368.533 726.24 368.907 725.92 370.56 725.707C373.067 725.28 378.667 723.04 381.387 721.28C383.307 720.107 383.573 720.053 384.32 720.8C385.387 721.867 387.36 722.347 388.853 721.867C390.613 721.28 394.72 717.28 395.573 715.307C396.32 713.44 396.107 711.787 394.88 710.4C394.293 709.707 394.56 708.853 396.533 704.96C397.813 702.453 399.147 699.04 399.52 697.387C400.107 694.773 400.32 694.4 401.44 694.4C402.187 694.4 403.467 693.707 404.32 692.853C405.76 691.36 405.867 691.04 405.867 686.933C405.867 682.827 405.76 682.507 404.32 681.013C403.467 680.16 402.187 679.467 401.44 679.467C400.32 679.467 400.107 679.093 399.52 676.587C399.147 675.04 397.813 671.627 396.533 669.013C394.507 665.013 394.293 664.213 394.88 663.467C396.053 662.187 396.32 660.533 395.733 658.933C394.933 656.907 390.08 652.267 388.64 652.213C386.56 652.107 385.333 652.373 384.533 653.12C383.787 653.76 383.04 653.493 378.987 651.467C376.373 650.187 372.96 648.853 371.413 648.48C368.907 647.893 368.533 647.68 368.533 646.56C368.533 645.813 367.84 644.533 366.987 643.68C365.493 642.24 365.173 642.133 360.907 642.133C356.48 642.133 356.32 642.187 354.987 643.787ZM365.333 645.333C365.92 645.92 366.4 646.72 366.4 647.093C366.4 648.373 368.747 649.973 371.84 650.88C373.493 651.36 376.533 652.587 378.507 653.653C382.187 655.573 382.4 655.573 386.987 654.667C388.427 654.347 389.013 654.613 390.827 656.267C393.547 658.667 393.867 659.627 393.067 662.827C392.427 665.227 392.48 665.493 394.133 668.8C395.093 670.72 396.427 673.92 397.12 675.947C398.453 679.787 399.627 681.6 400.907 681.6C401.28 681.6 402.08 682.08 402.667 682.667C403.52 683.52 403.733 684.427 403.733 687.147C403.733 690.773 403.52 691.2 400.373 692.747C398.933 693.493 398.4 694.293 397.013 698.133C396.16 700.64 394.72 703.947 393.92 705.547C392.907 707.467 392.533 708.907 392.747 709.813C393.813 714.88 393.867 714.507 391.307 717.067C388.8 719.627 387.68 719.893 384.693 718.827C383.04 718.24 382.56 718.347 378.24 720.427C375.68 721.653 372.267 723.093 370.667 723.627C368.213 724.373 367.573 724.853 366.4 726.933L365.013 729.333L361.387 729.493C358.56 729.6 357.493 729.44 356.747 728.747C356.16 728.267 355.733 727.573 355.733 727.2C355.733 726.027 352.8 723.84 350.4 723.2C349.067 722.88 346.027 721.6 343.573 720.427C339.413 718.4 338.987 718.293 337.12 718.88C333.92 719.84 333.173 719.627 330.773 717.173C328.427 714.773 328 713.173 329.173 710.72C329.707 709.547 329.493 708.747 327.627 704.693C326.4 702.08 325.12 698.933 324.747 697.6C324.053 695.147 321.92 692.267 320.8 692.267C320.427 692.267 319.733 691.84 319.253 691.253C318.56 690.507 318.4 689.44 318.507 686.613L318.667 682.987L321.013 681.6C323.253 680.32 323.52 679.893 325.067 675.467C326.027 672.8 327.467 669.387 328.267 667.84C329.6 665.28 329.707 664.8 329.173 663.253C328.053 660.16 328.373 658.987 330.987 656.533C333.013 654.667 333.653 654.347 334.987 654.613C335.84 654.773 337.227 655.093 338.027 655.253C339.147 655.467 340.587 655.04 343.307 653.707C345.333 652.64 348.427 651.413 350.133 650.933C353.28 649.973 355.733 648.16 355.733 646.72C355.733 644.267 363.2 643.2 365.333 645.333Z" fill="white"/>
<path d="M353.867 655.787C341.973 658.293 332.587 667.627 329.813 679.733C328.64 684.747 329.013 692.907 330.613 697.28C334.613 708.48 344.32 716.747 355.893 718.72C377.813 722.507 396.907 702.4 392.267 680.267C388.64 662.827 371.68 652.053 353.867 655.787ZM367.627 657.867C378.827 660.213 387.787 669.173 390.133 680.373C392.373 690.987 389.653 700.48 382.133 708.053C376.16 714.027 369.547 716.8 361.067 716.8C352.48 716.8 346.133 714.133 340 708C333.92 701.973 331.2 695.52 331.2 687.2C331.2 667.52 348.32 653.76 367.627 657.867Z" fill="white"/>
<path d="M356.533 662.4C346.773 664.427 339.253 671.413 336.8 680.8C333.973 691.787 339.413 704 349.387 709.013C362.827 715.733 379.467 709.547 384.267 696C386.72 689.067 386.347 682.347 383.253 675.947C378.4 666.133 366.88 660.32 356.533 662.4ZM354.08 666.56C347.787 670.56 344.64 678.667 347.893 682.453C350.293 685.227 354.667 683.68 355.52 679.787C356.053 677.173 357.44 675.253 359.2 674.667C362.667 673.547 366.133 676.107 366.027 679.733C365.973 682.027 365.333 682.827 361.813 685.067C358.293 687.307 356.64 690.027 356.587 693.44C356.533 695.787 356.747 696.267 358.293 697.653C359.253 698.507 360.427 699.2 360.96 699.2C362.453 699.2 364.213 697.707 365.333 695.413C365.92 694.293 367.36 692.747 368.48 692.053C374.453 688.267 376.907 681.12 374.453 674.667C373.067 671.04 371.04 668.48 368.107 666.613C364.853 664.533 366.667 664.587 371.093 666.667C375.467 668.747 379.36 672.64 381.493 677.227C382.933 680.213 383.2 681.547 383.36 685.493C383.467 688.107 383.307 691.307 382.933 692.693C380.747 701.333 373.653 708 365.387 709.12C363.893 709.333 362.667 709.333 362.667 709.173C362.667 709.013 363.253 708.267 364 707.52C365.867 705.653 365.76 703.307 363.787 701.28C361.92 699.413 360.64 699.36 358.72 700.853C355.893 703.04 355.893 705.173 358.613 708.213L359.733 709.493L356.8 709.173C347.787 708.107 340.213 700.373 338.507 690.4C336.907 680.96 341.867 671.307 350.507 666.933C355.2 664.587 357.6 664.373 354.08 666.56ZM366.987 668.64C375.467 673.227 375.467 685.653 366.933 690.4C364.587 691.68 363.947 692.373 363.68 693.76C363.04 696.907 361.013 698.027 359.253 696.213C356.96 693.973 358.933 689.227 363.2 686.72C366.613 684.693 368 682.987 368.32 680.213C369.013 674.72 362.773 670.24 357.973 672.747C355.68 673.973 354.133 675.947 353.76 678.187C353.173 681.92 350.72 683.36 349.067 680.853C348 679.253 348.747 675.36 350.667 672.427C353.973 667.413 361.6 665.653 366.987 668.64ZM362.933 703.147C364.587 705.6 361.6 708.32 359.413 706.347C358.187 705.227 358.133 704.107 359.307 702.827C360.48 701.493 361.973 701.6 362.933 703.147Z" fill="white"/>
<path d="M315.413 668.533C296.533 673.333 282.293 688.48 278.987 707.413C278.667 709.173 278.4 711.573 278.4 712.747C278.4 714.613 277.44 716.48 272.267 724.747C265.387 735.787 265.067 736.907 267.68 739.84C269.227 741.6 269.333 741.6 273.813 741.547H278.4V751.573C278.4 762.613 278.56 763.467 281.76 766.827C283.947 769.067 287.52 770.133 293.227 770.133C297.6 770.133 297.76 770.187 299.52 771.947C301.28 773.707 301.333 773.92 301.333 777.813V781.867H327.093H352.8V771.04C352.8 758.24 352.96 757.76 358.24 753.493C360.16 751.947 363.253 748.747 365.12 746.4C369.227 741.28 374.987 730.133 373.493 730.133C373.227 730.133 372.587 730.987 372 732.053C371.413 733.12 370.027 734.613 368.907 735.36C367.147 736.533 366.08 736.8 361.867 736.96C355.733 737.227 352.907 736.213 350.4 732.747C349.067 730.827 348 730.133 344.533 728.747C342.187 727.84 340 726.827 339.627 726.56C339.2 726.24 338.453 726.187 337.867 726.453C336.32 727.04 332.587 727.04 330.827 726.347C328.693 725.547 322.24 719.04 321.547 716.96C321.28 716 321.067 713.6 321.12 711.627C321.227 708.533 320.96 707.36 319.36 703.573C317.813 700.053 317.013 698.88 315.2 697.547C311.84 695.093 310.773 692.267 311.04 686.187C311.2 681.867 311.36 680.96 312.693 678.987C313.493 677.76 314.987 676.373 316 675.893C317.013 675.413 317.867 674.773 317.867 674.453C317.867 674.133 318.453 672.427 319.2 670.72C319.893 668.96 320.427 667.467 320.373 667.413C320.32 667.36 318.08 667.84 315.413 668.533ZM316.267 671.787C316.267 672.213 315.147 673.6 313.813 674.827C310.293 678.027 309.173 680.48 308.907 685.76C308.587 692.053 309.387 694.453 313.12 698.4C317.28 702.773 319.36 707.787 319.04 712.427C318.72 716.853 320.427 720.427 324.853 724.48C329.067 728.373 331.04 729.227 335.36 728.907C338.293 728.693 339.2 728.853 342.773 730.4C345.44 731.573 347.787 733.12 349.547 734.827C353.653 738.773 355.36 739.36 361.92 739.093C364.96 738.987 367.467 739.04 367.467 739.253C367.467 740.427 361.493 747.68 357.44 751.36C350.987 757.227 350.827 757.76 350.453 769.867L350.133 779.467H326.933H303.733L303.413 776.373C303.04 772.96 301.92 771.04 299.307 769.28C298.027 768.373 296.533 768.107 292.373 767.893C286.56 767.573 284.64 766.827 282.453 764.267C280.587 762.027 280.533 761.6 280.373 751.093C280.267 742.347 280.213 741.813 279.04 740.693C278.08 739.68 277.12 739.467 273.867 739.307C270.507 739.093 269.707 738.88 269.067 737.973C268.64 737.333 268.267 736.427 268.267 736C268.267 735.253 273.973 725.547 277.653 720C279.573 717.067 280.373 714.72 280.747 710.667C282.187 694.24 293.6 679.147 309.493 672.747C314.347 670.773 316.267 670.507 316.267 671.787Z" fill="white"/>
<defs>
<clipPath id="clip0_1_929">
<rect width="150" height="150" fill="white" transform="translate(586 265)"/>
</clipPath>
</defs>
</svg>
