<?xml version="1.0" standalone="no"?>
<!DOCTYPE svg PUBLIC "-//W3C//DTD SVG 20010904//EN"
 "http://www.w3.org/TR/2001/REC-SVG-20010904/DTD/svg10.dtd">
<svg version="1.0" xmlns="http://www.w3.org/2000/svg"
 width="300.000000pt" height="300.000000pt" viewBox="0 0 300.000000 300.000000"
 preserveAspectRatio="xMidYMid meet">
<metadata>
Created by potrace 1.10, written by Peter Selinger 2001-2011
</metadata>
<g transform="translate(0.000000,300.000000) scale(0.100000,-0.100000)"
fill="#000000" stroke="none">
<path d="M0 2844 l0 -26 90 4 90 4 0 -1063 0 -1063 615 2 615 3 0 -97 0 -97
-35 -17 c-104 -49 -160 -193 -123 -316 15 -51 82 -126 133 -149 55 -25 175
-25 230 0 51 23 118 98 133 149 37 123 -19 267 -123 316 l-35 17 0 97 0 97
615 -3 615 -2 0 1063 0 1063 90 -4 90 -4 0 26 c0 26 -1 26 -69 26 -78 0 -127
-14 -141 -40 -6 -12 -10 -394 -10 -1044 0 -1003 0 -1026 -19 -1036 -13 -6
-218 -10 -595 -10 -681 0 -616 14 -616 -134 0 -103 0 -103 90 -175 52 -42 80
-100 80 -166 0 -97 -53 -169 -162 -221 l-60 -29 -76 40 c-62 33 -82 50 -106
88 -59 96 -44 212 37 282 105 90 97 76 97 181 0 148 67 134 -623 134 -440 0
-586 3 -595 12 -9 9 -12 253 -12 1036 0 648 -4 1030 -10 1042 -14 26 -63 40
-141 40 -68 0 -69 0 -69 -26z"/>
<path d="M1066 2664 c-69 -22 -128 -65 -164 -120 -44 -66 -55 -106 -50 -187 6
-123 68 -211 185 -264 47 -22 66 -25 127 -21 86 6 141 31 202 94 175 180 57
484 -197 509 -35 3 -72 -1 -103 -11z m204 -59 c83 -42 130 -114 138 -212 12
-152 -107 -283 -260 -283 -79 0 -169 47 -214 112 -155 227 91 507 336 383z"/>
<path d="M1089 2431 c-31 -31 -35 -53 -19 -96 11 -29 60 -54 95 -47 67 12 93
104 41 148 -38 33 -80 31 -117 -5z m97 -47 c7 -28 -10 -54 -35 -54 -24 0 -41
20 -41 47 0 45 65 51 76 7z"/>
<path d="M2003 2577 c-82 -82 -82 -98 -6 -178 31 -32 54 -61 52 -63 -2 -1 -44
-8 -94 -15 -164 -23 -294 -89 -404 -207 -113 -120 -165 -247 -180 -435 -7 -88
-15 -121 -39 -173 -55 -118 -157 -199 -280 -225 -30 -6 -153 -11 -281 -11
-282 0 -274 3 -279 -119 -4 -79 -3 -81 27 -112 l31 -31 268 4 c243 4 273 7
337 27 152 49 279 146 367 280 61 94 94 201 108 349 12 140 43 214 120 286 71
67 191 116 281 116 30 0 23 -15 -36 -78 -35 -38 -55 -68 -55 -84 0 -28 79
-122 121 -144 28 -14 32 -13 62 5 40 25 380 367 397 399 6 13 9 34 6 45 -3 12
-97 113 -209 225 -149 148 -209 202 -227 202 -15 0 -45 -21 -87 -63z m297
-172 l205 -205 -208 -208 -209 -209 -61 64 -61 64 100 100 101 99 -88 0 c-186
0 -314 -57 -405 -181 -54 -74 -75 -139 -85 -264 -14 -168 -47 -262 -134 -376
-76 -98 -180 -168 -310 -210 -63 -20 -96 -22 -342 -27 l-273 -4 0 91 0 91 240
0 c139 0 261 5 292 11 104 22 201 85 264 170 54 74 75 139 85 264 5 61 16 135
25 164 56 194 213 354 406 417 70 22 102 26 206 28 l123 1 -104 102 -104 101
61 61 c33 34 63 61 66 61 3 0 97 -92 210 -205z"/>
<path d="M785 1889 c-31 -29 -62 -64 -70 -79 -12 -24 -12 -30 4 -56 10 -16 28
-38 40 -48 28 -25 27 -47 -5 -77 -14 -13 -32 -36 -40 -50 -12 -25 -11 -30 15
-65 39 -54 107 -114 130 -114 10 0 39 18 64 40 25 22 48 40 52 40 4 0 27 -18
51 -40 24 -22 50 -40 57 -40 32 0 157 123 157 154 0 14 -25 52 -58 88 l-24 27
41 48 c22 27 41 56 41 65 0 37 -121 158 -158 158 -7 0 -32 -18 -56 -40 -24
-22 -48 -40 -53 -40 -5 0 -20 12 -34 26 -24 26 -70 54 -88 54 -5 0 -35 -23
-66 -51z m129 -36 l55 -58 58 57 59 58 62 -63 63 -64 -58 -56 -58 -57 58 -57
58 -56 -63 -64 -62 -63 -59 58 -58 57 -54 -56 -55 -57 -64 63 -65 63 59 56 59
56 -59 56 -59 56 62 63 c34 34 63 63 64 64 1 0 26 -25 57 -56z"/>
<path d="M2055 1571 c-45 -27 -115 -110 -115 -136 0 -13 16 -42 35 -65 19 -23
35 -47 35 -52 0 -6 -16 -28 -35 -49 -52 -57 -47 -80 28 -156 40 -39 72 -63 86
-63 12 0 41 18 65 40 24 22 46 40 49 40 3 0 27 -18 52 -40 25 -22 54 -40 64
-40 24 0 104 71 132 116 25 41 20 59 -32 118 l-32 37 30 32 c40 42 56 73 48
96 -8 25 -130 141 -148 141 -8 0 -36 -19 -62 -42 -32 -29 -51 -39 -60 -32 -6
5 -31 24 -55 42 -24 17 -46 32 -49 32 -3 0 -20 -8 -36 -19z m206 -71 l54 60
65 -65 65 -65 -60 -55 -60 -54 58 -59 57 -58 -63 -62 -62 -62 -58 57 -57 58
-55 -60 -55 -59 -65 64 -65 64 60 57 60 57 -57 55 -58 56 60 63 60 64 61 -58
60 -59 55 61z"/>
</g>
</svg>
