<?xml version="1.0" standalone="no"?>
<!DOCTYPE svg PUBLIC "-//W3C//DTD SVG 20010904//EN"
 "http://www.w3.org/TR/2001/REC-SVG-20010904/DTD/svg10.dtd">
<svg version="1.0" xmlns="http://www.w3.org/2000/svg"
 width="300.000000pt" height="300.000000pt" viewBox="0 0 300.000000 300.000000"
 preserveAspectRatio="xMidYMid meet">
<metadata>
Created by potrace 1.10, written by Peter Selinger 2001-2011
</metadata>
<g transform="translate(0.000000,300.000000) scale(0.100000,-0.100000)"
fill="#000000" stroke="none">
<path d="M1856 2779 c-14 -17 -26 -41 -26 -53 0 -20 -8 -25 -56 -35 -31 -7
-94 -32 -141 -55 l-84 -43 -38 19 c-47 23 -78 14 -134 -40 -68 -66 -82 -110
-47 -155 l21 -26 -25 -40 c-33 -51 -75 -156 -83 -203 -4 -31 -10 -38 -29 -38
-12 0 -36 -12 -53 -26 -30 -25 -31 -28 -31 -114 0 -81 2 -89 26 -114 17 -16
38 -26 55 -26 23 0 29 -4 29 -22 1 -36 46 -157 80 -210 l30 -49 -21 -29 c-33
-44 -20 -85 46 -150 48 -47 60 -55 94 -55 24 0 47 8 59 18 19 17 21 17 69 -13
54 -34 175 -79 211 -80 15 0 22 -6 22 -20 0 -29 26 -76 45 -84 9 -3 54 -6 100
-6 81 0 84 1 109 31 14 17 26 41 26 53 0 19 7 25 38 29 47 8 152 50 203 83 36
22 41 23 55 9 20 -20 57 -29 85 -20 33 11 110 86 126 123 14 35 10 66 -13 92
-11 13 -6 29 31 102 24 47 49 111 56 142 11 49 15 56 36 56 14 0 38 13 54 29
27 28 29 34 29 111 0 77 -2 83 -29 111 -16 16 -40 29 -54 29 -21 0 -25 7 -36
54 -7 29 -32 93 -56 142 -38 75 -42 90 -31 104 22 24 27 55 16 85 -15 38 -106
125 -133 126 -39 2 -62 -3 -77 -17 -14 -12 -28 -7 -104 31 -49 24 -113 49
-142 56 -47 11 -54 15 -54 36 0 14 -13 38 -29 54 -28 27 -34 29 -114 29 -83 0
-86 -1 -111 -31z m194 -29 c11 -11 20 -26 20 -33 0 -24 44 -54 102 -71 31 -9
88 -32 125 -52 69 -36 73 -36 159 -19 27 6 38 1 72 -30 51 -45 57 -63 42 -123
-12 -45 -11 -50 20 -112 18 -36 43 -96 56 -134 25 -72 47 -106 71 -106 7 0 22
-9 33 -20 16 -16 20 -33 20 -84 0 -68 -4 -76 -63 -105 -27 -14 -37 -29 -63
-101 -16 -47 -43 -109 -58 -139 -19 -36 -26 -63 -22 -80 20 -95 21 -88 -27
-136 -47 -48 -68 -53 -124 -33 -31 11 -40 9 -121 -30 -48 -23 -112 -50 -142
-60 -46 -14 -58 -23 -80 -62 l-26 -45 -68 -3 c-53 -2 -73 1 -87 14 -11 9 -19
22 -19 29 0 22 -55 63 -100 75 -25 6 -82 30 -128 52 -78 38 -86 40 -121 29
-60 -18 -74 -14 -119 32 -44 45 -52 75 -30 121 10 22 6 37 -29 113 -23 49 -47
108 -54 133 -13 46 -53 100 -74 100 -7 0 -20 8 -29 19 -13 14 -16 34 -14 87
l3 68 44 26 c42 24 47 32 76 115 18 50 45 114 60 143 25 48 27 57 17 86 -21
58 -15 80 34 126 38 35 50 41 75 36 16 -3 42 -9 57 -12 21 -4 48 4 99 29 38
20 96 43 128 52 59 18 105 52 105 79 0 46 140 66 180 26z"/>
<path d="M1835 2554 c-223 -47 -399 -222 -451 -449 -22 -94 -15 -247 15 -329
75 -210 257 -365 474 -402 411 -71 769 306 682 721 -68 327 -386 529 -720 459z
m258 -39 c210 -44 378 -212 422 -422 42 -199 -9 -377 -150 -519 -112 -112
-236 -164 -395 -164 -161 0 -280 50 -395 165 -114 113 -165 234 -165 390 0
369 321 627 683 550z"/>
<path d="M1885 2430 c-183 -38 -324 -169 -370 -345 -53 -206 49 -435 236 -529
252 -126 564 -10 654 244 46 130 39 256 -19 376 -91 184 -307 293 -501 254z
m-46 -78 c-118 -75 -177 -227 -116 -298 45 -52 127 -23 143 50 10 49 36 85 69
96 65 21 130 -27 128 -95 -1 -43 -13 -58 -79 -100 -66 -42 -97 -93 -98 -157
-1 -44 3 -53 32 -79 18 -16 40 -29 50 -29 28 0 61 28 82 71 11 21 38 50 59 63
112 71 158 205 112 326 -26 68 -64 116 -119 151 -61 39 -27 38 56 -1 82 -39
155 -112 195 -198 27 -56 32 -81 35 -155 2 -49 -1 -109 -8 -135 -41 -162 -174
-287 -329 -308 -28 -4 -51 -4 -51 -1 0 3 11 17 25 31 35 35 33 79 -4 117 -35
35 -59 36 -95 8 -53 -41 -53 -81 -2 -138 l21 -24 -55 6 c-169 20 -311 165
-343 352 -30 177 63 358 225 440 88 44 133 48 67 7z m242 -39 c159 -86 159
-319 -1 -408 -44 -24 -56 -37 -61 -63 -12 -59 -50 -80 -83 -46 -43 42 -6 131
74 178 64 38 90 70 96 122 13 103 -104 187 -194 140 -43 -23 -72 -60 -79 -102
-11 -70 -57 -97 -88 -50 -20 30 -6 103 30 158 62 94 205 127 306 71z m-76
-647 c31 -46 -25 -97 -66 -60 -23 21 -24 42 -2 66 22 25 50 23 68 -6z"/>
<path d="M1114 2315 c-354 -90 -621 -374 -683 -729 -6 -33 -11 -78 -11 -100 0
-35 -18 -70 -115 -225 -129 -207 -135 -228 -86 -283 29 -33 31 -33 115 -32
l86 0 0 -188 c0 -207 3 -223 63 -286 41 -42 108 -62 215 -62 82 0 85 -1 118
-34 33 -33 34 -37 34 -110 l0 -76 483 0 482 0 0 203 c0 240 3 249 102 329 36
29 94 89 129 133 77 96 185 305 157 305 -5 0 -17 -16 -28 -36 -11 -20 -37 -48
-58 -62 -33 -22 -53 -27 -132 -30 -115 -5 -168 14 -215 79 -25 36 -45 49 -110
75 -44 17 -85 36 -92 41 -8 6 -22 7 -33 2 -29 -11 -99 -11 -132 2 -40 15 -161
137 -174 176 -5 18 -9 63 -8 100 2 58 -3 80 -33 151 -29 66 -44 88 -78 113
-63 46 -83 99 -78 213 3 81 6 98 31 135 15 23 43 49 62 58 19 9 35 21 35 27 0
6 11 38 25 70 13 33 23 61 22 62 -1 1 -43 -8 -93 -21z m16 -61 c0 -8 -21 -34
-46 -57 -66 -60 -87 -106 -92 -205 -6 -118 9 -163 79 -237 78 -82 117 -176
111 -263 -6 -83 26 -150 109 -226 79 -73 116 -89 197 -83 55 4 72 1 139 -28
50 -22 94 -51 127 -83 77 -74 109 -85 232 -80 57 2 104 1 104 -3 0 -22 -112
-158 -188 -227 -121 -110 -124 -120 -131 -347 l-6 -180 -435 0 -435 0 -6 58
c-7 64 -28 100 -77 133 -24 17 -52 22 -130 26 -109 6 -145 20 -186 68 -35 42
-36 50 -39 247 -2 164 -3 174 -25 195 -18 19 -36 23 -97 26 -63 4 -78 8 -90
25 -8 12 -15 29 -15 37 0 14 107 196 176 300 36 55 51 99 58 175 27 308 241
591 539 711 91 37 127 42 127 18z"/>
</g>
</svg>
