<?xml version="1.0" standalone="no"?>
<!DOCTYPE svg PUBLIC "-//W3C//DTD SVG 20010904//EN"
 "http://www.w3.org/TR/2001/REC-SVG-20010904/DTD/svg10.dtd">
<svg version="1.0" xmlns="http://www.w3.org/2000/svg"
 width="300.000000pt" height="70.000000pt" viewBox="0 0 300.000000 70.000000"
 preserveAspectRatio="xMidYMid meet">
<metadata>
Created by potrace 1.10, written by Peter Selinger 2001-2011
</metadata>
<g transform="translate(0.000000,70.000000) scale(0.100000,-0.100000)"
fill="#000000" stroke="none">
<path d="M90 507 l0 -133 35 4 c34 4 35 5 35 51 0 72 -12 151 -21 145 -5 -3
-9 0 -9 6 0 15 21 8 31 -11 4 -8 15 -53 25 -101 l17 -88 38 0 c32 0 40 4 44
23 2 12 13 58 24 102 l19 80 0 -104 -1 -104 37 -1 36 -1 0 133 0 132 -55 0
-54 0 -10 -37 c-6 -21 -13 -58 -17 -83 -8 -54 -23 -87 -24 -53 0 12 -7 56 -17
98 l-16 75 -59 0 -58 0 0 -133z"/>
<path d="M516 628 c-3 -7 -23 -66 -45 -131 -23 -65 -41 -119 -41 -120 0 -1 20
-1 45 1 40 4 45 7 45 29 0 22 3 24 43 21 34 -2 43 -7 45 -25 3 -17 11 -22 45
-25 23 -3 43 -4 44 -3 2 1 -17 60 -40 131 l-44 129 -46 3 c-32 2 -49 -1 -51
-10z m67 -115 c6 -30 4 -33 -19 -33 -24 0 -25 3 -19 33 4 17 9 41 12 52 6 20
6 20 13 0 4 -11 10 -35 13 -52z"/>
<path d="M795 626 c-41 -18 -65 -48 -75 -93 -24 -104 54 -179 165 -159 32 6
35 10 35 40 l0 33 -48 -5 c-64 -6 -87 23 -69 90 8 31 40 44 87 34 29 -5 30 -4
30 28 0 22 -6 36 -16 40 -26 10 -77 6 -109 -8z"/>
<path d="M960 536 c0 -95 2 -107 23 -131 46 -54 164 -40 187 21 6 14 10 68 10
120 l0 95 -37 -3 -38 -3 3 -80 c3 -70 1 -84 -17 -105 l-21 -25 -20 24 c-17 19
-20 38 -20 107 l0 84 -35 0 -35 0 0 -104z"/>
<path d="M1230 508 l0 -133 85 3 85 3 0 31 c0 30 0 31 -45 26 l-45 -6 0 104 0
104 -40 0 -40 0 0 -132z"/>
<path d="M1495 628 c-3 -7 -20 -58 -39 -113 -19 -55 -37 -108 -41 -118 -7 -16
-3 -18 36 -15 37 2 45 7 47 26 3 18 10 22 43 22 32 0 40 -4 45 -24 4 -19 13
-25 45 -28 22 -2 39 1 39 7 0 5 -18 64 -39 130 l-40 120 -45 3 c-31 2 -48 -1
-51 -10z m65 -115 c8 -31 7 -33 -20 -33 -28 0 -28 1 -18 38 18 64 21 69 25 47
3 -11 8 -35 13 -52z"/>
<path d="M139 247 c-42 -28 -59 -60 -59 -114 0 -88 39 -123 140 -123 l60 0 0
34 c0 34 0 34 -40 29 -49 -7 -80 16 -80 59 0 60 40 89 94 68 25 -9 26 -8 26
30 l0 40 -54 0 c-39 0 -62 -6 -87 -23z"/>
<path d="M385 260 c-11 -4 -31 -20 -45 -35 -21 -23 -25 -36 -25 -92 0 -60 2
-67 33 -94 27 -25 41 -29 88 -29 50 0 59 3 90 34 34 34 40 56 35 121 -4 42
-17 63 -54 85 -33 21 -87 25 -122 10z m69 -56 c25 -10 40 -69 24 -101 -16 -34
-56 -43 -75 -17 -18 25 -16 84 4 106 17 20 23 21 47 12z"/>
<path d="M600 140 l0 -130 35 0 34 0 3 76 3 76 53 -76 c49 -70 56 -76 88 -76
l34 0 0 130 0 130 -35 0 -35 0 0 -76 0 -76 -51 76 c-49 73 -53 76 -90 76 l-39
0 0 -130z m210 -51 c0 -24 -23 -21 -28 4 -2 10 3 17 12 17 10 0 16 -9 16 -21z"/>
<path d="M935 258 c-52 -30 -60 -85 -19 -123 15 -14 33 -25 40 -25 17 0 45
-30 39 -41 -9 -14 -46 -11 -78 6 l-28 14 3 -37 3 -37 67 -3 c61 -3 71 0 93 22
45 45 27 98 -44 131 -64 29 -47 64 21 44 18 -5 34 -9 36 -9 2 0 2 15 0 33 -3
32 -4 32 -58 34 -30 2 -64 -2 -75 -9z"/>
<path d="M1112 166 c3 -94 5 -107 27 -130 21 -22 33 -26 83 -26 49 0 63 4 83
25 22 21 25 33 25 98 0 41 3 89 6 106 6 31 6 31 -35 31 l-41 0 0 -88 c0 -90
-8 -112 -41 -112 -27 0 -32 15 -30 111 l2 89 -42 0 -41 0 4 -104z"/>
<path d="M1380 140 l0 -130 85 0 85 0 0 30 c0 29 -2 30 -45 30 l-45 0 0 100 0
100 -40 0 -40 0 0 -130z"/>
<path d="M1560 240 c0 -28 2 -30 38 -30 l37 0 -3 -100 -4 -100 41 0 41 0 0
100 0 100 38 0 c34 0 37 2 38 30 l1 30 -113 0 -114 0 0 -30z"/>
<path d="M1854 188 c-15 -46 -35 -104 -45 -130 l-19 -48 45 0 c41 0 45 2 45
25 0 23 4 25 45 25 41 0 45 -2 45 -25 0 -23 4 -25 44 -25 l44 0 -34 108 c-19
59 -37 117 -40 130 -5 19 -13 22 -54 22 l-48 0 -28 -82z m90 -40 c7 -36 6 -38
-20 -38 -23 0 -25 3 -20 26 4 15 10 40 13 57 5 26 7 28 13 11 4 -10 10 -36 14
-56z"/>
<path d="M2090 140 l0 -130 35 0 34 0 3 76 3 75 53 -75 c48 -70 55 -76 87 -76
l35 0 0 130 0 130 -35 0 -35 0 0 -77 0 -77 -52 77 c-50 72 -55 77 -90 77 l-38
0 0 -130z m68 53 c-5 -25 -28 -28 -28 -4 0 12 6 21 16 21 9 0 14 -7 12 -17z
m142 -96 c0 -8 -3 -17 -7 -20 -9 -9 -34 13 -27 24 8 14 34 11 34 -4z"/>
<path d="M2370 240 c0 -28 3 -30 35 -30 l35 0 0 -100 0 -100 40 0 40 0 0 100
0 100 35 0 c32 0 35 2 35 30 l0 30 -110 0 -110 0 0 -30z"/>
<path d="M2640 241 c-48 -47 -34 -98 37 -131 25 -11 43 -26 40 -33 -4 -13 -48
-14 -83 -2 -20 6 -22 3 -19 -27 l2 -33 67 -3 c60 -3 68 0 92 23 37 37 30 82
-16 112 -71 45 -77 51 -60 62 8 6 23 8 33 6 9 -3 26 -8 38 -11 18 -5 20 -2 17
28 -3 33 -3 33 -61 36 -52 3 -60 0 -87 -27z"/>
<path d="M2834 248 c3 -13 6 -51 6 -84 l0 -62 33 -4 33 -4 3 88 2 88 -41 0
c-39 0 -42 -2 -36 -22z"/>
<path d="M2952 128 c-18 -11 -31 -23 -28 -25 5 -5 76 35 76 43 0 8 -15 2 -48
-18z"/>
<path d="M2852 69 c-17 -6 -22 -15 -20 -31 2 -18 10 -24 39 -26 27 -2 38 1 43
13 12 32 -25 58 -62 44z"/>
</g>
</svg>
